%TF.GenerationSoftware,KiCad,Pcbnew,9.0.1*%
%TF.CreationDate,2025-10-31T14:17:25-04:00*%
%TF.ProjectId,main_display_board,6d61696e-5f64-4697-9370-6c61795f626f,rev?*%
%TF.SameCoordinates,Original*%
%TF.FileFunction,Legend,Top*%
%TF.FilePolarity,Positive*%
%FSLAX46Y46*%
G04 Gerber Fmt 4.6, Leading zero omitted, Abs format (unit mm)*
G04 Created by KiCad (PCBNEW 9.0.1) date 2025-10-31 14:17:25*
%MOMM*%
%LPD*%
G01*
G04 APERTURE LIST*
G04 Aperture macros list*
%AMRoundRect*
0 Rectangle with rounded corners*
0 $1 Rounding radius*
0 $2 $3 $4 $5 $6 $7 $8 $9 X,Y pos of 4 corners*
0 Add a 4 corners polygon primitive as box body*
4,1,4,$2,$3,$4,$5,$6,$7,$8,$9,$2,$3,0*
0 Add four circle primitives for the rounded corners*
1,1,$1+$1,$2,$3*
1,1,$1+$1,$4,$5*
1,1,$1+$1,$6,$7*
1,1,$1+$1,$8,$9*
0 Add four rect primitives between the rounded corners*
20,1,$1+$1,$2,$3,$4,$5,0*
20,1,$1+$1,$4,$5,$6,$7,0*
20,1,$1+$1,$6,$7,$8,$9,0*
20,1,$1+$1,$8,$9,$2,$3,0*%
G04 Aperture macros list end*
%ADD10C,0.100000*%
%ADD11C,0.150000*%
%ADD12C,0.125000*%
%ADD13C,0.120000*%
%ADD14C,0.152500*%
%ADD15C,0.152400*%
%ADD16C,0.000000*%
%ADD17RoundRect,0.218750X0.256250X-0.218750X0.256250X0.218750X-0.256250X0.218750X-0.256250X-0.218750X0*%
%ADD18C,3.000000*%
%ADD19RoundRect,0.225000X0.225000X0.250000X-0.225000X0.250000X-0.225000X-0.250000X0.225000X-0.250000X0*%
%ADD20R,2.500000X1.100000*%
%ADD21R,2.340000X3.600000*%
%ADD22R,0.711200X0.279400*%
%ADD23R,0.254000X0.457200*%
%ADD24RoundRect,0.225000X-0.225000X-0.250000X0.225000X-0.250000X0.225000X0.250000X-0.225000X0.250000X0*%
%ADD25RoundRect,0.237500X0.250000X0.237500X-0.250000X0.237500X-0.250000X-0.237500X0.250000X-0.237500X0*%
%ADD26RoundRect,0.147500X-0.147500X-0.172500X0.147500X-0.172500X0.147500X0.172500X-0.147500X0.172500X0*%
%ADD27RoundRect,0.237500X0.237500X-0.250000X0.237500X0.250000X-0.237500X0.250000X-0.237500X-0.250000X0*%
%ADD28RoundRect,0.140000X-0.170000X0.140000X-0.170000X-0.140000X0.170000X-0.140000X0.170000X0.140000X0*%
%ADD29C,2.600000*%
%ADD30C,3.500000*%
%ADD31R,0.800000X1.000000*%
%ADD32RoundRect,0.140000X0.140000X0.170000X-0.140000X0.170000X-0.140000X-0.170000X0.140000X-0.170000X0*%
%ADD33R,0.900000X0.800000*%
%ADD34RoundRect,0.249999X0.450001X1.100001X-0.450001X1.100001X-0.450001X-1.100001X0.450001X-1.100001X0*%
%ADD35RoundRect,0.140000X-0.140000X-0.170000X0.140000X-0.170000X0.140000X0.170000X-0.140000X0.170000X0*%
%ADD36RoundRect,0.218750X-0.256250X0.218750X-0.256250X-0.218750X0.256250X-0.218750X0.256250X0.218750X0*%
%ADD37R,0.203200X0.812800*%
%ADD38R,0.812800X0.203200*%
%ADD39R,6.502400X6.502400*%
G04 APERTURE END LIST*
D10*
X100875000Y-126850000D02*
X102175000Y-126850000D01*
X103375000Y-126850000D02*
X104575000Y-126850000D01*
X99575000Y-129350000D02*
X100875000Y-129350000D01*
X102175000Y-126850000D02*
X102175000Y-135750000D01*
X100875000Y-129350000D02*
X100875000Y-126850000D01*
X105775000Y-135750000D02*
X105775000Y-129350000D01*
X104575000Y-135750000D02*
X105775000Y-135750000D01*
X99575000Y-125850000D02*
X110575000Y-125850000D01*
X110575000Y-140900000D01*
X99575000Y-140900000D01*
X99575000Y-125850000D01*
X103375000Y-135750000D02*
X103375000Y-126850000D01*
X104575000Y-126850000D02*
X104575000Y-135750000D01*
X102175000Y-135750000D02*
X103375000Y-135750000D01*
D11*
X68577255Y-136575414D02*
X68577255Y-135825414D01*
X68577255Y-135825414D02*
X68755826Y-135825414D01*
X68755826Y-135825414D02*
X68862969Y-135861128D01*
X68862969Y-135861128D02*
X68934398Y-135932557D01*
X68934398Y-135932557D02*
X68970112Y-136003985D01*
X68970112Y-136003985D02*
X69005826Y-136146842D01*
X69005826Y-136146842D02*
X69005826Y-136253985D01*
X69005826Y-136253985D02*
X68970112Y-136396842D01*
X68970112Y-136396842D02*
X68934398Y-136468271D01*
X68934398Y-136468271D02*
X68862969Y-136539700D01*
X68862969Y-136539700D02*
X68755826Y-136575414D01*
X68755826Y-136575414D02*
X68577255Y-136575414D01*
X69327255Y-136289700D02*
X69898684Y-136289700D01*
X63520112Y-135861128D02*
X63448684Y-135825414D01*
X63448684Y-135825414D02*
X63341541Y-135825414D01*
X63341541Y-135825414D02*
X63234398Y-135861128D01*
X63234398Y-135861128D02*
X63162969Y-135932557D01*
X63162969Y-135932557D02*
X63127255Y-136003985D01*
X63127255Y-136003985D02*
X63091541Y-136146842D01*
X63091541Y-136146842D02*
X63091541Y-136253985D01*
X63091541Y-136253985D02*
X63127255Y-136396842D01*
X63127255Y-136396842D02*
X63162969Y-136468271D01*
X63162969Y-136468271D02*
X63234398Y-136539700D01*
X63234398Y-136539700D02*
X63341541Y-136575414D01*
X63341541Y-136575414D02*
X63412969Y-136575414D01*
X63412969Y-136575414D02*
X63520112Y-136539700D01*
X63520112Y-136539700D02*
X63555826Y-136503985D01*
X63555826Y-136503985D02*
X63555826Y-136253985D01*
X63555826Y-136253985D02*
X63412969Y-136253985D01*
X63877255Y-136575414D02*
X63877255Y-135825414D01*
X63877255Y-135825414D02*
X64305826Y-136575414D01*
X64305826Y-136575414D02*
X64305826Y-135825414D01*
X64662969Y-136575414D02*
X64662969Y-135825414D01*
X64662969Y-135825414D02*
X64841540Y-135825414D01*
X64841540Y-135825414D02*
X64948683Y-135861128D01*
X64948683Y-135861128D02*
X65020112Y-135932557D01*
X65020112Y-135932557D02*
X65055826Y-136003985D01*
X65055826Y-136003985D02*
X65091540Y-136146842D01*
X65091540Y-136146842D02*
X65091540Y-136253985D01*
X65091540Y-136253985D02*
X65055826Y-136396842D01*
X65055826Y-136396842D02*
X65020112Y-136468271D01*
X65020112Y-136468271D02*
X64948683Y-136539700D01*
X64948683Y-136539700D02*
X64841540Y-136575414D01*
X64841540Y-136575414D02*
X64662969Y-136575414D01*
X71077255Y-136575414D02*
X71077255Y-135825414D01*
X71077255Y-135825414D02*
X71255826Y-135825414D01*
X71255826Y-135825414D02*
X71362969Y-135861128D01*
X71362969Y-135861128D02*
X71434398Y-135932557D01*
X71434398Y-135932557D02*
X71470112Y-136003985D01*
X71470112Y-136003985D02*
X71505826Y-136146842D01*
X71505826Y-136146842D02*
X71505826Y-136253985D01*
X71505826Y-136253985D02*
X71470112Y-136396842D01*
X71470112Y-136396842D02*
X71434398Y-136468271D01*
X71434398Y-136468271D02*
X71362969Y-136539700D01*
X71362969Y-136539700D02*
X71255826Y-136575414D01*
X71255826Y-136575414D02*
X71077255Y-136575414D01*
X71827255Y-136289700D02*
X72398684Y-136289700D01*
X72112969Y-136575414D02*
X72112969Y-136003985D01*
X65970112Y-135825414D02*
X66220112Y-136575414D01*
X66220112Y-136575414D02*
X66470112Y-135825414D01*
X66720112Y-136575414D02*
X66720112Y-136075414D01*
X66720112Y-135825414D02*
X66684398Y-135861128D01*
X66684398Y-135861128D02*
X66720112Y-135896842D01*
X66720112Y-135896842D02*
X66755826Y-135861128D01*
X66755826Y-135861128D02*
X66720112Y-135825414D01*
X66720112Y-135825414D02*
X66720112Y-135896842D01*
X67077255Y-136075414D02*
X67077255Y-136575414D01*
X67077255Y-136146842D02*
X67112969Y-136111128D01*
X67112969Y-136111128D02*
X67184398Y-136075414D01*
X67184398Y-136075414D02*
X67291541Y-136075414D01*
X67291541Y-136075414D02*
X67362969Y-136111128D01*
X67362969Y-136111128D02*
X67398684Y-136182557D01*
X67398684Y-136182557D02*
X67398684Y-136575414D01*
X47570238Y-60918509D02*
X47236905Y-60918509D01*
X47236905Y-61442319D02*
X47236905Y-60442319D01*
X47236905Y-60442319D02*
X47713095Y-60442319D01*
X48094048Y-61442319D02*
X48094048Y-60442319D01*
X48094048Y-60442319D02*
X48427381Y-61156604D01*
X48427381Y-61156604D02*
X48760714Y-60442319D01*
X48760714Y-60442319D02*
X48760714Y-61442319D01*
X49760714Y-61442319D02*
X49189286Y-61442319D01*
X49475000Y-61442319D02*
X49475000Y-60442319D01*
X49475000Y-60442319D02*
X49379762Y-60585176D01*
X49379762Y-60585176D02*
X49284524Y-60680414D01*
X49284524Y-60680414D02*
X49189286Y-60728033D01*
D10*
X79302276Y-132557835D02*
X79266562Y-132593550D01*
X79266562Y-132593550D02*
X79159419Y-132629264D01*
X79159419Y-132629264D02*
X79087991Y-132629264D01*
X79087991Y-132629264D02*
X78980848Y-132593550D01*
X78980848Y-132593550D02*
X78909419Y-132522121D01*
X78909419Y-132522121D02*
X78873705Y-132450692D01*
X78873705Y-132450692D02*
X78837991Y-132307835D01*
X78837991Y-132307835D02*
X78837991Y-132200692D01*
X78837991Y-132200692D02*
X78873705Y-132057835D01*
X78873705Y-132057835D02*
X78909419Y-131986407D01*
X78909419Y-131986407D02*
X78980848Y-131914978D01*
X78980848Y-131914978D02*
X79087991Y-131879264D01*
X79087991Y-131879264D02*
X79159419Y-131879264D01*
X79159419Y-131879264D02*
X79266562Y-131914978D01*
X79266562Y-131914978D02*
X79302276Y-131950692D01*
X80016562Y-132629264D02*
X79587991Y-132629264D01*
X79802276Y-132629264D02*
X79802276Y-131879264D01*
X79802276Y-131879264D02*
X79730848Y-131986407D01*
X79730848Y-131986407D02*
X79659419Y-132057835D01*
X79659419Y-132057835D02*
X79587991Y-132093550D01*
X80445134Y-132200692D02*
X80373705Y-132164978D01*
X80373705Y-132164978D02*
X80337991Y-132129264D01*
X80337991Y-132129264D02*
X80302277Y-132057835D01*
X80302277Y-132057835D02*
X80302277Y-132022121D01*
X80302277Y-132022121D02*
X80337991Y-131950692D01*
X80337991Y-131950692D02*
X80373705Y-131914978D01*
X80373705Y-131914978D02*
X80445134Y-131879264D01*
X80445134Y-131879264D02*
X80587991Y-131879264D01*
X80587991Y-131879264D02*
X80659420Y-131914978D01*
X80659420Y-131914978D02*
X80695134Y-131950692D01*
X80695134Y-131950692D02*
X80730848Y-132022121D01*
X80730848Y-132022121D02*
X80730848Y-132057835D01*
X80730848Y-132057835D02*
X80695134Y-132129264D01*
X80695134Y-132129264D02*
X80659420Y-132164978D01*
X80659420Y-132164978D02*
X80587991Y-132200692D01*
X80587991Y-132200692D02*
X80445134Y-132200692D01*
X80445134Y-132200692D02*
X80373705Y-132236407D01*
X80373705Y-132236407D02*
X80337991Y-132272121D01*
X80337991Y-132272121D02*
X80302277Y-132343550D01*
X80302277Y-132343550D02*
X80302277Y-132486407D01*
X80302277Y-132486407D02*
X80337991Y-132557835D01*
X80337991Y-132557835D02*
X80373705Y-132593550D01*
X80373705Y-132593550D02*
X80445134Y-132629264D01*
X80445134Y-132629264D02*
X80587991Y-132629264D01*
X80587991Y-132629264D02*
X80659420Y-132593550D01*
X80659420Y-132593550D02*
X80695134Y-132557835D01*
X80695134Y-132557835D02*
X80730848Y-132486407D01*
X80730848Y-132486407D02*
X80730848Y-132343550D01*
X80730848Y-132343550D02*
X80695134Y-132272121D01*
X80695134Y-132272121D02*
X80659420Y-132236407D01*
X80659420Y-132236407D02*
X80587991Y-132200692D01*
D11*
X50754286Y-128402569D02*
X51087619Y-129402569D01*
X51087619Y-129402569D02*
X51420952Y-128402569D01*
X52325714Y-129402569D02*
X51992381Y-128926378D01*
X51754286Y-129402569D02*
X51754286Y-128402569D01*
X51754286Y-128402569D02*
X52135238Y-128402569D01*
X52135238Y-128402569D02*
X52230476Y-128450188D01*
X52230476Y-128450188D02*
X52278095Y-128497807D01*
X52278095Y-128497807D02*
X52325714Y-128593045D01*
X52325714Y-128593045D02*
X52325714Y-128735902D01*
X52325714Y-128735902D02*
X52278095Y-128831140D01*
X52278095Y-128831140D02*
X52230476Y-128878759D01*
X52230476Y-128878759D02*
X52135238Y-128926378D01*
X52135238Y-128926378D02*
X51754286Y-128926378D01*
X52516191Y-129497807D02*
X53278095Y-129497807D01*
X53516191Y-129402569D02*
X53516191Y-128402569D01*
X53516191Y-128402569D02*
X53849524Y-129116854D01*
X53849524Y-129116854D02*
X54182857Y-128402569D01*
X54182857Y-128402569D02*
X54182857Y-129402569D01*
X55230476Y-129307330D02*
X55182857Y-129354950D01*
X55182857Y-129354950D02*
X55040000Y-129402569D01*
X55040000Y-129402569D02*
X54944762Y-129402569D01*
X54944762Y-129402569D02*
X54801905Y-129354950D01*
X54801905Y-129354950D02*
X54706667Y-129259711D01*
X54706667Y-129259711D02*
X54659048Y-129164473D01*
X54659048Y-129164473D02*
X54611429Y-128973997D01*
X54611429Y-128973997D02*
X54611429Y-128831140D01*
X54611429Y-128831140D02*
X54659048Y-128640664D01*
X54659048Y-128640664D02*
X54706667Y-128545426D01*
X54706667Y-128545426D02*
X54801905Y-128450188D01*
X54801905Y-128450188D02*
X54944762Y-128402569D01*
X54944762Y-128402569D02*
X55040000Y-128402569D01*
X55040000Y-128402569D02*
X55182857Y-128450188D01*
X55182857Y-128450188D02*
X55230476Y-128497807D01*
X55659048Y-128402569D02*
X55659048Y-129212092D01*
X55659048Y-129212092D02*
X55706667Y-129307330D01*
X55706667Y-129307330D02*
X55754286Y-129354950D01*
X55754286Y-129354950D02*
X55849524Y-129402569D01*
X55849524Y-129402569D02*
X56040000Y-129402569D01*
X56040000Y-129402569D02*
X56135238Y-129354950D01*
X56135238Y-129354950D02*
X56182857Y-129307330D01*
X56182857Y-129307330D02*
X56230476Y-129212092D01*
X56230476Y-129212092D02*
X56230476Y-128402569D01*
X57230476Y-129402569D02*
X56659048Y-129402569D01*
X56944762Y-129402569D02*
X56944762Y-128402569D01*
X56944762Y-128402569D02*
X56849524Y-128545426D01*
X56849524Y-128545426D02*
X56754286Y-128640664D01*
X56754286Y-128640664D02*
X56659048Y-128688283D01*
X97467857Y-128639164D02*
X97110714Y-128639164D01*
X97110714Y-128639164D02*
X97110714Y-127889164D01*
X97717857Y-128639164D02*
X97717857Y-127889164D01*
X97717857Y-127889164D02*
X98003571Y-127889164D01*
X98003571Y-127889164D02*
X98075000Y-127924878D01*
X98075000Y-127924878D02*
X98110714Y-127960592D01*
X98110714Y-127960592D02*
X98146428Y-128032021D01*
X98146428Y-128032021D02*
X98146428Y-128139164D01*
X98146428Y-128139164D02*
X98110714Y-128210592D01*
X98110714Y-128210592D02*
X98075000Y-128246307D01*
X98075000Y-128246307D02*
X98003571Y-128282021D01*
X98003571Y-128282021D02*
X97717857Y-128282021D01*
X98717857Y-128246307D02*
X98467857Y-128246307D01*
X98467857Y-128639164D02*
X98467857Y-127889164D01*
X98467857Y-127889164D02*
X98825000Y-127889164D01*
X98932143Y-128710592D02*
X99503571Y-128710592D01*
X100075000Y-128639164D02*
X99646429Y-128639164D01*
X99860714Y-128639164D02*
X99860714Y-127889164D01*
X99860714Y-127889164D02*
X99789286Y-127996307D01*
X99789286Y-127996307D02*
X99717857Y-128067735D01*
X99717857Y-128067735D02*
X99646429Y-128103450D01*
X62374999Y-131067735D02*
X62339285Y-131103450D01*
X62339285Y-131103450D02*
X62232142Y-131139164D01*
X62232142Y-131139164D02*
X62160714Y-131139164D01*
X62160714Y-131139164D02*
X62053571Y-131103450D01*
X62053571Y-131103450D02*
X61982142Y-131032021D01*
X61982142Y-131032021D02*
X61946428Y-130960592D01*
X61946428Y-130960592D02*
X61910714Y-130817735D01*
X61910714Y-130817735D02*
X61910714Y-130710592D01*
X61910714Y-130710592D02*
X61946428Y-130567735D01*
X61946428Y-130567735D02*
X61982142Y-130496307D01*
X61982142Y-130496307D02*
X62053571Y-130424878D01*
X62053571Y-130424878D02*
X62160714Y-130389164D01*
X62160714Y-130389164D02*
X62232142Y-130389164D01*
X62232142Y-130389164D02*
X62339285Y-130424878D01*
X62339285Y-130424878D02*
X62374999Y-130460592D01*
X62624999Y-130389164D02*
X63124999Y-130389164D01*
X63124999Y-130389164D02*
X62803571Y-131139164D01*
X79694642Y-138337445D02*
X79647023Y-138385065D01*
X79647023Y-138385065D02*
X79504166Y-138432684D01*
X79504166Y-138432684D02*
X79408928Y-138432684D01*
X79408928Y-138432684D02*
X79266071Y-138385065D01*
X79266071Y-138385065D02*
X79170833Y-138289826D01*
X79170833Y-138289826D02*
X79123214Y-138194588D01*
X79123214Y-138194588D02*
X79075595Y-138004112D01*
X79075595Y-138004112D02*
X79075595Y-137861255D01*
X79075595Y-137861255D02*
X79123214Y-137670779D01*
X79123214Y-137670779D02*
X79170833Y-137575541D01*
X79170833Y-137575541D02*
X79266071Y-137480303D01*
X79266071Y-137480303D02*
X79408928Y-137432684D01*
X79408928Y-137432684D02*
X79504166Y-137432684D01*
X79504166Y-137432684D02*
X79647023Y-137480303D01*
X79647023Y-137480303D02*
X79694642Y-137527922D01*
X80647023Y-138432684D02*
X80075595Y-138432684D01*
X80361309Y-138432684D02*
X80361309Y-137432684D01*
X80361309Y-137432684D02*
X80266071Y-137575541D01*
X80266071Y-137575541D02*
X80170833Y-137670779D01*
X80170833Y-137670779D02*
X80075595Y-137718398D01*
X81266071Y-137432684D02*
X81361309Y-137432684D01*
X81361309Y-137432684D02*
X81456547Y-137480303D01*
X81456547Y-137480303D02*
X81504166Y-137527922D01*
X81504166Y-137527922D02*
X81551785Y-137623160D01*
X81551785Y-137623160D02*
X81599404Y-137813636D01*
X81599404Y-137813636D02*
X81599404Y-138051731D01*
X81599404Y-138051731D02*
X81551785Y-138242207D01*
X81551785Y-138242207D02*
X81504166Y-138337445D01*
X81504166Y-138337445D02*
X81456547Y-138385065D01*
X81456547Y-138385065D02*
X81361309Y-138432684D01*
X81361309Y-138432684D02*
X81266071Y-138432684D01*
X81266071Y-138432684D02*
X81170833Y-138385065D01*
X81170833Y-138385065D02*
X81123214Y-138337445D01*
X81123214Y-138337445D02*
X81075595Y-138242207D01*
X81075595Y-138242207D02*
X81027976Y-138051731D01*
X81027976Y-138051731D02*
X81027976Y-137813636D01*
X81027976Y-137813636D02*
X81075595Y-137623160D01*
X81075595Y-137623160D02*
X81123214Y-137527922D01*
X81123214Y-137527922D02*
X81170833Y-137480303D01*
X81170833Y-137480303D02*
X81266071Y-137432684D01*
X95270000Y-132326664D02*
X94912857Y-132326664D01*
X94912857Y-132326664D02*
X94912857Y-131576664D01*
X95448571Y-131576664D02*
X95912857Y-131576664D01*
X95912857Y-131576664D02*
X95662857Y-131862378D01*
X95662857Y-131862378D02*
X95770000Y-131862378D01*
X95770000Y-131862378D02*
X95841429Y-131898092D01*
X95841429Y-131898092D02*
X95877143Y-131933807D01*
X95877143Y-131933807D02*
X95912857Y-132005235D01*
X95912857Y-132005235D02*
X95912857Y-132183807D01*
X95912857Y-132183807D02*
X95877143Y-132255235D01*
X95877143Y-132255235D02*
X95841429Y-132290950D01*
X95841429Y-132290950D02*
X95770000Y-132326664D01*
X95770000Y-132326664D02*
X95555714Y-132326664D01*
X95555714Y-132326664D02*
X95484286Y-132290950D01*
X95484286Y-132290950D02*
X95448571Y-132255235D01*
X90305952Y-141142319D02*
X89972619Y-140666128D01*
X89734524Y-141142319D02*
X89734524Y-140142319D01*
X89734524Y-140142319D02*
X90115476Y-140142319D01*
X90115476Y-140142319D02*
X90210714Y-140189938D01*
X90210714Y-140189938D02*
X90258333Y-140237557D01*
X90258333Y-140237557D02*
X90305952Y-140332795D01*
X90305952Y-140332795D02*
X90305952Y-140475652D01*
X90305952Y-140475652D02*
X90258333Y-140570890D01*
X90258333Y-140570890D02*
X90210714Y-140618509D01*
X90210714Y-140618509D02*
X90115476Y-140666128D01*
X90115476Y-140666128D02*
X89734524Y-140666128D01*
X90734524Y-140475652D02*
X90734524Y-141142319D01*
X90734524Y-140570890D02*
X90782143Y-140523271D01*
X90782143Y-140523271D02*
X90877381Y-140475652D01*
X90877381Y-140475652D02*
X91020238Y-140475652D01*
X91020238Y-140475652D02*
X91115476Y-140523271D01*
X91115476Y-140523271D02*
X91163095Y-140618509D01*
X91163095Y-140618509D02*
X91163095Y-141142319D01*
X92163095Y-141142319D02*
X91591667Y-141142319D01*
X91877381Y-141142319D02*
X91877381Y-140142319D01*
X91877381Y-140142319D02*
X91782143Y-140285176D01*
X91782143Y-140285176D02*
X91686905Y-140380414D01*
X91686905Y-140380414D02*
X91591667Y-140428033D01*
X96570238Y-135918509D02*
X96236905Y-135918509D01*
X96236905Y-136442319D02*
X96236905Y-135442319D01*
X96236905Y-135442319D02*
X96713095Y-135442319D01*
X97094048Y-136442319D02*
X97094048Y-135442319D01*
X97094048Y-135442319D02*
X97427381Y-136156604D01*
X97427381Y-136156604D02*
X97760714Y-135442319D01*
X97760714Y-135442319D02*
X97760714Y-136442319D01*
X98665476Y-135775652D02*
X98665476Y-136442319D01*
X98427381Y-135394700D02*
X98189286Y-136108985D01*
X98189286Y-136108985D02*
X98808333Y-136108985D01*
X99142735Y-134732143D02*
X99178450Y-134767857D01*
X99178450Y-134767857D02*
X99214164Y-134875000D01*
X99214164Y-134875000D02*
X99214164Y-134946428D01*
X99214164Y-134946428D02*
X99178450Y-135053571D01*
X99178450Y-135053571D02*
X99107021Y-135125000D01*
X99107021Y-135125000D02*
X99035592Y-135160714D01*
X99035592Y-135160714D02*
X98892735Y-135196428D01*
X98892735Y-135196428D02*
X98785592Y-135196428D01*
X98785592Y-135196428D02*
X98642735Y-135160714D01*
X98642735Y-135160714D02*
X98571307Y-135125000D01*
X98571307Y-135125000D02*
X98499878Y-135053571D01*
X98499878Y-135053571D02*
X98464164Y-134946428D01*
X98464164Y-134946428D02*
X98464164Y-134875000D01*
X98464164Y-134875000D02*
X98499878Y-134767857D01*
X98499878Y-134767857D02*
X98535592Y-134732143D01*
X99214164Y-134017857D02*
X99214164Y-134446428D01*
X99214164Y-134232143D02*
X98464164Y-134232143D01*
X98464164Y-134232143D02*
X98571307Y-134303571D01*
X98571307Y-134303571D02*
X98642735Y-134375000D01*
X98642735Y-134375000D02*
X98678450Y-134446428D01*
X98535592Y-133732142D02*
X98499878Y-133696428D01*
X98499878Y-133696428D02*
X98464164Y-133625000D01*
X98464164Y-133625000D02*
X98464164Y-133446428D01*
X98464164Y-133446428D02*
X98499878Y-133375000D01*
X98499878Y-133375000D02*
X98535592Y-133339285D01*
X98535592Y-133339285D02*
X98607021Y-133303571D01*
X98607021Y-133303571D02*
X98678450Y-133303571D01*
X98678450Y-133303571D02*
X98785592Y-133339285D01*
X98785592Y-133339285D02*
X99214164Y-133767857D01*
X99214164Y-133767857D02*
X99214164Y-133303571D01*
X47665476Y-136142319D02*
X47665476Y-135142319D01*
X47665476Y-135142319D02*
X47998809Y-135856604D01*
X47998809Y-135856604D02*
X48332142Y-135142319D01*
X48332142Y-135142319D02*
X48332142Y-136142319D01*
X48713095Y-135142319D02*
X49332142Y-135142319D01*
X49332142Y-135142319D02*
X48998809Y-135523271D01*
X48998809Y-135523271D02*
X49141666Y-135523271D01*
X49141666Y-135523271D02*
X49236904Y-135570890D01*
X49236904Y-135570890D02*
X49284523Y-135618509D01*
X49284523Y-135618509D02*
X49332142Y-135713747D01*
X49332142Y-135713747D02*
X49332142Y-135951842D01*
X49332142Y-135951842D02*
X49284523Y-136047080D01*
X49284523Y-136047080D02*
X49236904Y-136094700D01*
X49236904Y-136094700D02*
X49141666Y-136142319D01*
X49141666Y-136142319D02*
X48855952Y-136142319D01*
X48855952Y-136142319D02*
X48760714Y-136094700D01*
X48760714Y-136094700D02*
X48713095Y-136047080D01*
X59520238Y-135868509D02*
X59186905Y-135868509D01*
X59186905Y-136392319D02*
X59186905Y-135392319D01*
X59186905Y-135392319D02*
X59663095Y-135392319D01*
X60044048Y-136392319D02*
X60044048Y-135392319D01*
X60044048Y-135392319D02*
X60377381Y-136106604D01*
X60377381Y-136106604D02*
X60710714Y-135392319D01*
X60710714Y-135392319D02*
X60710714Y-136392319D01*
X61091667Y-135392319D02*
X61710714Y-135392319D01*
X61710714Y-135392319D02*
X61377381Y-135773271D01*
X61377381Y-135773271D02*
X61520238Y-135773271D01*
X61520238Y-135773271D02*
X61615476Y-135820890D01*
X61615476Y-135820890D02*
X61663095Y-135868509D01*
X61663095Y-135868509D02*
X61710714Y-135963747D01*
X61710714Y-135963747D02*
X61710714Y-136201842D01*
X61710714Y-136201842D02*
X61663095Y-136297080D01*
X61663095Y-136297080D02*
X61615476Y-136344700D01*
X61615476Y-136344700D02*
X61520238Y-136392319D01*
X61520238Y-136392319D02*
X61234524Y-136392319D01*
X61234524Y-136392319D02*
X61139286Y-136344700D01*
X61139286Y-136344700D02*
X61091667Y-136297080D01*
D10*
X86017856Y-136369629D02*
X86517856Y-137119629D01*
X86517856Y-136369629D02*
X86017856Y-137119629D01*
X87196428Y-137119629D02*
X86767857Y-137119629D01*
X86982142Y-137119629D02*
X86982142Y-136369629D01*
X86982142Y-136369629D02*
X86910714Y-136476772D01*
X86910714Y-136476772D02*
X86839285Y-136548200D01*
X86839285Y-136548200D02*
X86767857Y-136583915D01*
D11*
X82382142Y-139837445D02*
X82334523Y-139885065D01*
X82334523Y-139885065D02*
X82191666Y-139932684D01*
X82191666Y-139932684D02*
X82096428Y-139932684D01*
X82096428Y-139932684D02*
X81953571Y-139885065D01*
X81953571Y-139885065D02*
X81858333Y-139789826D01*
X81858333Y-139789826D02*
X81810714Y-139694588D01*
X81810714Y-139694588D02*
X81763095Y-139504112D01*
X81763095Y-139504112D02*
X81763095Y-139361255D01*
X81763095Y-139361255D02*
X81810714Y-139170779D01*
X81810714Y-139170779D02*
X81858333Y-139075541D01*
X81858333Y-139075541D02*
X81953571Y-138980303D01*
X81953571Y-138980303D02*
X82096428Y-138932684D01*
X82096428Y-138932684D02*
X82191666Y-138932684D01*
X82191666Y-138932684D02*
X82334523Y-138980303D01*
X82334523Y-138980303D02*
X82382142Y-139027922D01*
X83334523Y-139932684D02*
X82763095Y-139932684D01*
X83048809Y-139932684D02*
X83048809Y-138932684D01*
X83048809Y-138932684D02*
X82953571Y-139075541D01*
X82953571Y-139075541D02*
X82858333Y-139170779D01*
X82858333Y-139170779D02*
X82763095Y-139218398D01*
X84286904Y-139932684D02*
X83715476Y-139932684D01*
X84001190Y-139932684D02*
X84001190Y-138932684D01*
X84001190Y-138932684D02*
X83905952Y-139075541D01*
X83905952Y-139075541D02*
X83810714Y-139170779D01*
X83810714Y-139170779D02*
X83715476Y-139218398D01*
X111765476Y-47292319D02*
X111765476Y-46292319D01*
X111765476Y-46292319D02*
X112098809Y-47006604D01*
X112098809Y-47006604D02*
X112432142Y-46292319D01*
X112432142Y-46292319D02*
X112432142Y-47292319D01*
X113432142Y-47292319D02*
X112860714Y-47292319D01*
X113146428Y-47292319D02*
X113146428Y-46292319D01*
X113146428Y-46292319D02*
X113051190Y-46435176D01*
X113051190Y-46435176D02*
X112955952Y-46530414D01*
X112955952Y-46530414D02*
X112860714Y-46578033D01*
X47665476Y-46942319D02*
X47665476Y-45942319D01*
X47665476Y-45942319D02*
X47998809Y-46656604D01*
X47998809Y-46656604D02*
X48332142Y-45942319D01*
X48332142Y-45942319D02*
X48332142Y-46942319D01*
X48760714Y-46037557D02*
X48808333Y-45989938D01*
X48808333Y-45989938D02*
X48903571Y-45942319D01*
X48903571Y-45942319D02*
X49141666Y-45942319D01*
X49141666Y-45942319D02*
X49236904Y-45989938D01*
X49236904Y-45989938D02*
X49284523Y-46037557D01*
X49284523Y-46037557D02*
X49332142Y-46132795D01*
X49332142Y-46132795D02*
X49332142Y-46228033D01*
X49332142Y-46228033D02*
X49284523Y-46370890D01*
X49284523Y-46370890D02*
X48713095Y-46942319D01*
X48713095Y-46942319D02*
X49332142Y-46942319D01*
D12*
X94503571Y-129506535D02*
X94479762Y-129542250D01*
X94479762Y-129542250D02*
X94408333Y-129577964D01*
X94408333Y-129577964D02*
X94360714Y-129577964D01*
X94360714Y-129577964D02*
X94289286Y-129542250D01*
X94289286Y-129542250D02*
X94241667Y-129470821D01*
X94241667Y-129470821D02*
X94217857Y-129399392D01*
X94217857Y-129399392D02*
X94194048Y-129256535D01*
X94194048Y-129256535D02*
X94194048Y-129149392D01*
X94194048Y-129149392D02*
X94217857Y-129006535D01*
X94217857Y-129006535D02*
X94241667Y-128935107D01*
X94241667Y-128935107D02*
X94289286Y-128863678D01*
X94289286Y-128863678D02*
X94360714Y-128827964D01*
X94360714Y-128827964D02*
X94408333Y-128827964D01*
X94408333Y-128827964D02*
X94479762Y-128863678D01*
X94479762Y-128863678D02*
X94503571Y-128899392D01*
X94979762Y-129577964D02*
X94694048Y-129577964D01*
X94836905Y-129577964D02*
X94836905Y-128827964D01*
X94836905Y-128827964D02*
X94789286Y-128935107D01*
X94789286Y-128935107D02*
X94741667Y-129006535D01*
X94741667Y-129006535D02*
X94694048Y-129042250D01*
X95432142Y-128827964D02*
X95194047Y-128827964D01*
X95194047Y-128827964D02*
X95170238Y-129185107D01*
X95170238Y-129185107D02*
X95194047Y-129149392D01*
X95194047Y-129149392D02*
X95241666Y-129113678D01*
X95241666Y-129113678D02*
X95360714Y-129113678D01*
X95360714Y-129113678D02*
X95408333Y-129149392D01*
X95408333Y-129149392D02*
X95432142Y-129185107D01*
X95432142Y-129185107D02*
X95455952Y-129256535D01*
X95455952Y-129256535D02*
X95455952Y-129435107D01*
X95455952Y-129435107D02*
X95432142Y-129506535D01*
X95432142Y-129506535D02*
X95408333Y-129542250D01*
X95408333Y-129542250D02*
X95360714Y-129577964D01*
X95360714Y-129577964D02*
X95241666Y-129577964D01*
X95241666Y-129577964D02*
X95194047Y-129542250D01*
X95194047Y-129542250D02*
X95170238Y-129506535D01*
D11*
X72054819Y-130869047D02*
X71578628Y-131202380D01*
X72054819Y-131440475D02*
X71054819Y-131440475D01*
X71054819Y-131440475D02*
X71054819Y-131059523D01*
X71054819Y-131059523D02*
X71102438Y-130964285D01*
X71102438Y-130964285D02*
X71150057Y-130916666D01*
X71150057Y-130916666D02*
X71245295Y-130869047D01*
X71245295Y-130869047D02*
X71388152Y-130869047D01*
X71388152Y-130869047D02*
X71483390Y-130916666D01*
X71483390Y-130916666D02*
X71531009Y-130964285D01*
X71531009Y-130964285D02*
X71578628Y-131059523D01*
X71578628Y-131059523D02*
X71578628Y-131440475D01*
X71388152Y-130440475D02*
X72054819Y-130440475D01*
X71483390Y-130440475D02*
X71435771Y-130392856D01*
X71435771Y-130392856D02*
X71388152Y-130297618D01*
X71388152Y-130297618D02*
X71388152Y-130154761D01*
X71388152Y-130154761D02*
X71435771Y-130059523D01*
X71435771Y-130059523D02*
X71531009Y-130011904D01*
X71531009Y-130011904D02*
X72054819Y-130011904D01*
X71150057Y-129583332D02*
X71102438Y-129535713D01*
X71102438Y-129535713D02*
X71054819Y-129440475D01*
X71054819Y-129440475D02*
X71054819Y-129202380D01*
X71054819Y-129202380D02*
X71102438Y-129107142D01*
X71102438Y-129107142D02*
X71150057Y-129059523D01*
X71150057Y-129059523D02*
X71245295Y-129011904D01*
X71245295Y-129011904D02*
X71340533Y-129011904D01*
X71340533Y-129011904D02*
X71483390Y-129059523D01*
X71483390Y-129059523D02*
X72054819Y-129630951D01*
X72054819Y-129630951D02*
X72054819Y-129011904D01*
X92652195Y-126226664D02*
X93152195Y-126976664D01*
X93152195Y-126226664D02*
X92652195Y-126976664D01*
X93402196Y-126298092D02*
X93437910Y-126262378D01*
X93437910Y-126262378D02*
X93509339Y-126226664D01*
X93509339Y-126226664D02*
X93687910Y-126226664D01*
X93687910Y-126226664D02*
X93759339Y-126262378D01*
X93759339Y-126262378D02*
X93795053Y-126298092D01*
X93795053Y-126298092D02*
X93830767Y-126369521D01*
X93830767Y-126369521D02*
X93830767Y-126440950D01*
X93830767Y-126440950D02*
X93795053Y-126548092D01*
X93795053Y-126548092D02*
X93366481Y-126976664D01*
X93366481Y-126976664D02*
X93830767Y-126976664D01*
X84532735Y-136102865D02*
X84568450Y-136138579D01*
X84568450Y-136138579D02*
X84604164Y-136245722D01*
X84604164Y-136245722D02*
X84604164Y-136317150D01*
X84604164Y-136317150D02*
X84568450Y-136424293D01*
X84568450Y-136424293D02*
X84497021Y-136495722D01*
X84497021Y-136495722D02*
X84425592Y-136531436D01*
X84425592Y-136531436D02*
X84282735Y-136567150D01*
X84282735Y-136567150D02*
X84175592Y-136567150D01*
X84175592Y-136567150D02*
X84032735Y-136531436D01*
X84032735Y-136531436D02*
X83961307Y-136495722D01*
X83961307Y-136495722D02*
X83889878Y-136424293D01*
X83889878Y-136424293D02*
X83854164Y-136317150D01*
X83854164Y-136317150D02*
X83854164Y-136245722D01*
X83854164Y-136245722D02*
X83889878Y-136138579D01*
X83889878Y-136138579D02*
X83925592Y-136102865D01*
X83854164Y-135424293D02*
X83854164Y-135781436D01*
X83854164Y-135781436D02*
X84211307Y-135817150D01*
X84211307Y-135817150D02*
X84175592Y-135781436D01*
X84175592Y-135781436D02*
X84139878Y-135710008D01*
X84139878Y-135710008D02*
X84139878Y-135531436D01*
X84139878Y-135531436D02*
X84175592Y-135460008D01*
X84175592Y-135460008D02*
X84211307Y-135424293D01*
X84211307Y-135424293D02*
X84282735Y-135388579D01*
X84282735Y-135388579D02*
X84461307Y-135388579D01*
X84461307Y-135388579D02*
X84532735Y-135424293D01*
X84532735Y-135424293D02*
X84568450Y-135460008D01*
X84568450Y-135460008D02*
X84604164Y-135531436D01*
X84604164Y-135531436D02*
X84604164Y-135710008D01*
X84604164Y-135710008D02*
X84568450Y-135781436D01*
X84568450Y-135781436D02*
X84532735Y-135817150D01*
D10*
X62917856Y-133570335D02*
X62882142Y-133606050D01*
X62882142Y-133606050D02*
X62774999Y-133641764D01*
X62774999Y-133641764D02*
X62703571Y-133641764D01*
X62703571Y-133641764D02*
X62596428Y-133606050D01*
X62596428Y-133606050D02*
X62524999Y-133534621D01*
X62524999Y-133534621D02*
X62489285Y-133463192D01*
X62489285Y-133463192D02*
X62453571Y-133320335D01*
X62453571Y-133320335D02*
X62453571Y-133213192D01*
X62453571Y-133213192D02*
X62489285Y-133070335D01*
X62489285Y-133070335D02*
X62524999Y-132998907D01*
X62524999Y-132998907D02*
X62596428Y-132927478D01*
X62596428Y-132927478D02*
X62703571Y-132891764D01*
X62703571Y-132891764D02*
X62774999Y-132891764D01*
X62774999Y-132891764D02*
X62882142Y-132927478D01*
X62882142Y-132927478D02*
X62917856Y-132963192D01*
X63632142Y-133641764D02*
X63203571Y-133641764D01*
X63417856Y-133641764D02*
X63417856Y-132891764D01*
X63417856Y-132891764D02*
X63346428Y-132998907D01*
X63346428Y-132998907D02*
X63274999Y-133070335D01*
X63274999Y-133070335D02*
X63203571Y-133106050D01*
X63882142Y-132891764D02*
X64382142Y-132891764D01*
X64382142Y-132891764D02*
X64060714Y-133641764D01*
D11*
X73979819Y-128804166D02*
X73979819Y-129280356D01*
X73979819Y-129280356D02*
X72979819Y-129280356D01*
X73979819Y-127947023D02*
X73979819Y-128518451D01*
X73979819Y-128232737D02*
X72979819Y-128232737D01*
X72979819Y-128232737D02*
X73122676Y-128327975D01*
X73122676Y-128327975D02*
X73217914Y-128423213D01*
X73217914Y-128423213D02*
X73265533Y-128518451D01*
D12*
X94553571Y-130706535D02*
X94529762Y-130742250D01*
X94529762Y-130742250D02*
X94458333Y-130777964D01*
X94458333Y-130777964D02*
X94410714Y-130777964D01*
X94410714Y-130777964D02*
X94339286Y-130742250D01*
X94339286Y-130742250D02*
X94291667Y-130670821D01*
X94291667Y-130670821D02*
X94267857Y-130599392D01*
X94267857Y-130599392D02*
X94244048Y-130456535D01*
X94244048Y-130456535D02*
X94244048Y-130349392D01*
X94244048Y-130349392D02*
X94267857Y-130206535D01*
X94267857Y-130206535D02*
X94291667Y-130135107D01*
X94291667Y-130135107D02*
X94339286Y-130063678D01*
X94339286Y-130063678D02*
X94410714Y-130027964D01*
X94410714Y-130027964D02*
X94458333Y-130027964D01*
X94458333Y-130027964D02*
X94529762Y-130063678D01*
X94529762Y-130063678D02*
X94553571Y-130099392D01*
X95029762Y-130777964D02*
X94744048Y-130777964D01*
X94886905Y-130777964D02*
X94886905Y-130027964D01*
X94886905Y-130027964D02*
X94839286Y-130135107D01*
X94839286Y-130135107D02*
X94791667Y-130206535D01*
X94791667Y-130206535D02*
X94744048Y-130242250D01*
X95196428Y-130027964D02*
X95505952Y-130027964D01*
X95505952Y-130027964D02*
X95339285Y-130313678D01*
X95339285Y-130313678D02*
X95410714Y-130313678D01*
X95410714Y-130313678D02*
X95458333Y-130349392D01*
X95458333Y-130349392D02*
X95482142Y-130385107D01*
X95482142Y-130385107D02*
X95505952Y-130456535D01*
X95505952Y-130456535D02*
X95505952Y-130635107D01*
X95505952Y-130635107D02*
X95482142Y-130706535D01*
X95482142Y-130706535D02*
X95458333Y-130742250D01*
X95458333Y-130742250D02*
X95410714Y-130777964D01*
X95410714Y-130777964D02*
X95267857Y-130777964D01*
X95267857Y-130777964D02*
X95220238Y-130742250D01*
X95220238Y-130742250D02*
X95196428Y-130706535D01*
D11*
X69554819Y-130944047D02*
X69078628Y-131277380D01*
X69554819Y-131515475D02*
X68554819Y-131515475D01*
X68554819Y-131515475D02*
X68554819Y-131134523D01*
X68554819Y-131134523D02*
X68602438Y-131039285D01*
X68602438Y-131039285D02*
X68650057Y-130991666D01*
X68650057Y-130991666D02*
X68745295Y-130944047D01*
X68745295Y-130944047D02*
X68888152Y-130944047D01*
X68888152Y-130944047D02*
X68983390Y-130991666D01*
X68983390Y-130991666D02*
X69031009Y-131039285D01*
X69031009Y-131039285D02*
X69078628Y-131134523D01*
X69078628Y-131134523D02*
X69078628Y-131515475D01*
X68888152Y-130515475D02*
X69554819Y-130515475D01*
X68983390Y-130515475D02*
X68935771Y-130467856D01*
X68935771Y-130467856D02*
X68888152Y-130372618D01*
X68888152Y-130372618D02*
X68888152Y-130229761D01*
X68888152Y-130229761D02*
X68935771Y-130134523D01*
X68935771Y-130134523D02*
X69031009Y-130086904D01*
X69031009Y-130086904D02*
X69554819Y-130086904D01*
X68554819Y-129705951D02*
X68554819Y-129086904D01*
X68554819Y-129086904D02*
X68935771Y-129420237D01*
X68935771Y-129420237D02*
X68935771Y-129277380D01*
X68935771Y-129277380D02*
X68983390Y-129182142D01*
X68983390Y-129182142D02*
X69031009Y-129134523D01*
X69031009Y-129134523D02*
X69126247Y-129086904D01*
X69126247Y-129086904D02*
X69364342Y-129086904D01*
X69364342Y-129086904D02*
X69459580Y-129134523D01*
X69459580Y-129134523D02*
X69507200Y-129182142D01*
X69507200Y-129182142D02*
X69554819Y-129277380D01*
X69554819Y-129277380D02*
X69554819Y-129563094D01*
X69554819Y-129563094D02*
X69507200Y-129658332D01*
X69507200Y-129658332D02*
X69459580Y-129705951D01*
X111570238Y-60918509D02*
X111236905Y-60918509D01*
X111236905Y-61442319D02*
X111236905Y-60442319D01*
X111236905Y-60442319D02*
X111713095Y-60442319D01*
X112094048Y-61442319D02*
X112094048Y-60442319D01*
X112094048Y-60442319D02*
X112427381Y-61156604D01*
X112427381Y-61156604D02*
X112760714Y-60442319D01*
X112760714Y-60442319D02*
X112760714Y-61442319D01*
X113189286Y-60537557D02*
X113236905Y-60489938D01*
X113236905Y-60489938D02*
X113332143Y-60442319D01*
X113332143Y-60442319D02*
X113570238Y-60442319D01*
X113570238Y-60442319D02*
X113665476Y-60489938D01*
X113665476Y-60489938D02*
X113713095Y-60537557D01*
X113713095Y-60537557D02*
X113760714Y-60632795D01*
X113760714Y-60632795D02*
X113760714Y-60728033D01*
X113760714Y-60728033D02*
X113713095Y-60870890D01*
X113713095Y-60870890D02*
X113141667Y-61442319D01*
X113141667Y-61442319D02*
X113760714Y-61442319D01*
D10*
X80766764Y-128662499D02*
X80766764Y-129019642D01*
X80766764Y-129019642D02*
X80016764Y-129019642D01*
X80088192Y-128448213D02*
X80052478Y-128412499D01*
X80052478Y-128412499D02*
X80016764Y-128341071D01*
X80016764Y-128341071D02*
X80016764Y-128162499D01*
X80016764Y-128162499D02*
X80052478Y-128091071D01*
X80052478Y-128091071D02*
X80088192Y-128055356D01*
X80088192Y-128055356D02*
X80159621Y-128019642D01*
X80159621Y-128019642D02*
X80231050Y-128019642D01*
X80231050Y-128019642D02*
X80338192Y-128055356D01*
X80338192Y-128055356D02*
X80766764Y-128483928D01*
X80766764Y-128483928D02*
X80766764Y-128019642D01*
D11*
X111665476Y-136142319D02*
X111665476Y-135142319D01*
X111665476Y-135142319D02*
X111998809Y-135856604D01*
X111998809Y-135856604D02*
X112332142Y-135142319D01*
X112332142Y-135142319D02*
X112332142Y-136142319D01*
X113236904Y-135475652D02*
X113236904Y-136142319D01*
X112998809Y-135094700D02*
X112760714Y-135808985D01*
X112760714Y-135808985D02*
X113379761Y-135808985D01*
X89079819Y-132786904D02*
X89889342Y-132786904D01*
X89889342Y-132786904D02*
X89984580Y-132739285D01*
X89984580Y-132739285D02*
X90032200Y-132691666D01*
X90032200Y-132691666D02*
X90079819Y-132596428D01*
X90079819Y-132596428D02*
X90079819Y-132405952D01*
X90079819Y-132405952D02*
X90032200Y-132310714D01*
X90032200Y-132310714D02*
X89984580Y-132263095D01*
X89984580Y-132263095D02*
X89889342Y-132215476D01*
X89889342Y-132215476D02*
X89079819Y-132215476D01*
X89079819Y-131834523D02*
X89079819Y-131215476D01*
X89079819Y-131215476D02*
X89460771Y-131548809D01*
X89460771Y-131548809D02*
X89460771Y-131405952D01*
X89460771Y-131405952D02*
X89508390Y-131310714D01*
X89508390Y-131310714D02*
X89556009Y-131263095D01*
X89556009Y-131263095D02*
X89651247Y-131215476D01*
X89651247Y-131215476D02*
X89889342Y-131215476D01*
X89889342Y-131215476D02*
X89984580Y-131263095D01*
X89984580Y-131263095D02*
X90032200Y-131310714D01*
X90032200Y-131310714D02*
X90079819Y-131405952D01*
X90079819Y-131405952D02*
X90079819Y-131691666D01*
X90079819Y-131691666D02*
X90032200Y-131786904D01*
X90032200Y-131786904D02*
X89984580Y-131834523D01*
X85079819Y-136577864D02*
X85317914Y-136577864D01*
X85222676Y-136815959D02*
X85317914Y-136577864D01*
X85317914Y-136577864D02*
X85222676Y-136339769D01*
X85508390Y-136720721D02*
X85317914Y-136577864D01*
X85317914Y-136577864D02*
X85508390Y-136435007D01*
D13*
%TO.C,REF\u002A\u002A5*%
X57340000Y-45287500D02*
X57340000Y-47572500D01*
X57340000Y-47572500D02*
X58810000Y-47572500D01*
X58810000Y-47572500D02*
X58810000Y-45287500D01*
%TO.C,REF\u002A\u002A43*%
X51340000Y-48287500D02*
X51340000Y-50572500D01*
X51340000Y-50572500D02*
X52810000Y-50572500D01*
X52810000Y-50572500D02*
X52810000Y-48287500D01*
%TO.C,REF\u002A\u002A136*%
X72340000Y-60287500D02*
X72340000Y-62572500D01*
X72340000Y-62572500D02*
X73810000Y-62572500D01*
X73810000Y-62572500D02*
X73810000Y-60287500D01*
%TO.C,REF\u002A\u002A327*%
X57340000Y-90287500D02*
X57340000Y-92572500D01*
X57340000Y-92572500D02*
X58810000Y-92572500D01*
X58810000Y-92572500D02*
X58810000Y-90287500D01*
%TO.C,REF\u002A\u002A340*%
X78340000Y-90287500D02*
X78340000Y-92572500D01*
X78340000Y-92572500D02*
X79810000Y-92572500D01*
X79810000Y-92572500D02*
X79810000Y-90287500D01*
%TO.C,REF\u002A\u002A313*%
X99340000Y-87287500D02*
X99340000Y-89572500D01*
X99340000Y-89572500D02*
X100810000Y-89572500D01*
X100810000Y-89572500D02*
X100810000Y-87287500D01*
%TO.C,REF\u002A\u002A405*%
X57340000Y-105287500D02*
X57340000Y-107572500D01*
X57340000Y-107572500D02*
X58810000Y-107572500D01*
X58810000Y-107572500D02*
X58810000Y-105287500D01*
%TO.C,REF\u002A\u002A27*%
X87340000Y-42287500D02*
X87340000Y-44572500D01*
X87340000Y-44572500D02*
X88810000Y-44572500D01*
X88810000Y-44572500D02*
X88810000Y-42287500D01*
%TO.C,REF\u002A\u002A318*%
X108340000Y-87287500D02*
X108340000Y-89572500D01*
X108340000Y-89572500D02*
X109810000Y-89572500D01*
X109810000Y-89572500D02*
X109810000Y-87287500D01*
%TO.C,REF\u002A\u002A512*%
X96340000Y-114287500D02*
X96340000Y-116572500D01*
X96340000Y-116572500D02*
X97810000Y-116572500D01*
X97810000Y-116572500D02*
X97810000Y-114287500D01*
%TO.C,REF\u002A\u002A464*%
X84340000Y-108287500D02*
X84340000Y-110572500D01*
X84340000Y-110572500D02*
X85810000Y-110572500D01*
X85810000Y-110572500D02*
X85810000Y-108287500D01*
%TO.C,REF\u002A\u002A164*%
X54340000Y-66287500D02*
X54340000Y-68572500D01*
X54340000Y-68572500D02*
X55810000Y-68572500D01*
X55810000Y-68572500D02*
X55810000Y-66287500D01*
%TO.C,REF\u002A\u002A528*%
X60340000Y-120287500D02*
X60340000Y-122572500D01*
X60340000Y-122572500D02*
X61810000Y-122572500D01*
X61810000Y-122572500D02*
X61810000Y-120287500D01*
%TO.C,REF\u002A\u002A295*%
X69340000Y-84287500D02*
X69340000Y-86572500D01*
X69340000Y-86572500D02*
X70810000Y-86572500D01*
X70810000Y-86572500D02*
X70810000Y-84287500D01*
%TO.C,REF\u002A\u002A18*%
X78340000Y-45287500D02*
X78340000Y-47572500D01*
X78340000Y-47572500D02*
X79810000Y-47572500D01*
X79810000Y-47572500D02*
X79810000Y-45287500D01*
%TO.C,REF\u002A\u002A309*%
X93340000Y-87287500D02*
X93340000Y-89572500D01*
X93340000Y-89572500D02*
X94810000Y-89572500D01*
X94810000Y-89572500D02*
X94810000Y-87287500D01*
%TO.C,REF\u002A\u002A8*%
X60340000Y-42287500D02*
X60340000Y-44572500D01*
X60340000Y-44572500D02*
X61810000Y-44572500D01*
X61810000Y-44572500D02*
X61810000Y-42287500D01*
%TO.C,REF\u002A\u002A266*%
X90340000Y-81287500D02*
X90340000Y-83572500D01*
X90340000Y-83572500D02*
X91810000Y-83572500D01*
X91810000Y-83572500D02*
X91810000Y-81287500D01*
%TO.C,REF\u002A\u002A270*%
X96340000Y-81287500D02*
X96340000Y-83572500D01*
X96340000Y-83572500D02*
X97810000Y-83572500D01*
X97810000Y-83572500D02*
X97810000Y-81287500D01*
%TO.C,REF\u002A\u002A524*%
X54340000Y-120287500D02*
X54340000Y-122572500D01*
X54340000Y-122572500D02*
X55810000Y-122572500D01*
X55810000Y-122572500D02*
X55810000Y-120287500D01*
%TO.C,REF\u002A\u002A75*%
X99340000Y-48287500D02*
X99340000Y-50572500D01*
X99340000Y-50572500D02*
X100810000Y-50572500D01*
X100810000Y-50572500D02*
X100810000Y-48287500D01*
%TO.C,REF\u002A\u002A143*%
X81340000Y-60287500D02*
X81340000Y-62572500D01*
X81340000Y-62572500D02*
X82810000Y-62572500D01*
X82810000Y-62572500D02*
X82810000Y-60287500D01*
%TO.C,REF\u002A\u002A50*%
X66340000Y-51287500D02*
X66340000Y-53572500D01*
X66340000Y-53572500D02*
X67810000Y-53572500D01*
X67810000Y-53572500D02*
X67810000Y-51287500D01*
%TO.C,REF\u002A\u002A268*%
X90340000Y-78287500D02*
X90340000Y-80572500D01*
X90340000Y-80572500D02*
X91810000Y-80572500D01*
X91810000Y-80572500D02*
X91810000Y-78287500D01*
%TO.C,REF\u002A\u002A228*%
X90340000Y-72287500D02*
X90340000Y-74572500D01*
X90340000Y-74572500D02*
X91810000Y-74572500D01*
X91810000Y-74572500D02*
X91810000Y-72287500D01*
%TO.C,REF\u002A\u002A379*%
X75340000Y-96287500D02*
X75340000Y-98572500D01*
X75340000Y-98572500D02*
X76810000Y-98572500D01*
X76810000Y-98572500D02*
X76810000Y-96287500D01*
%TO.C,REF\u002A\u002A337*%
X75340000Y-93287500D02*
X75340000Y-95572500D01*
X75340000Y-95572500D02*
X76810000Y-95572500D01*
X76810000Y-95572500D02*
X76810000Y-93287500D01*
%TO.C,REF\u002A\u002A209*%
X63340000Y-75287500D02*
X63340000Y-77572500D01*
X63340000Y-77572500D02*
X64810000Y-77572500D01*
X64810000Y-77572500D02*
X64810000Y-75287500D01*
%TO.C,REF\u002A\u002A86*%
X60340000Y-57287500D02*
X60340000Y-59572500D01*
X60340000Y-59572500D02*
X61810000Y-59572500D01*
X61810000Y-59572500D02*
X61810000Y-57287500D01*
%TO.C,REF\u002A\u002A517*%
X105340000Y-117287500D02*
X105340000Y-119572500D01*
X105340000Y-119572500D02*
X106810000Y-119572500D01*
X106810000Y-119572500D02*
X106810000Y-117287500D01*
%TO.C,REF\u002A\u002A173*%
X69340000Y-69287500D02*
X69340000Y-71572500D01*
X69340000Y-71572500D02*
X70810000Y-71572500D01*
X70810000Y-71572500D02*
X70810000Y-69287500D01*
%TO.C,REF\u002A\u002A251*%
X63340000Y-78287500D02*
X63340000Y-80572500D01*
X63340000Y-80572500D02*
X64810000Y-80572500D01*
X64810000Y-80572500D02*
X64810000Y-78287500D01*
%TO.C,REF\u002A\u002A409*%
X63340000Y-105287500D02*
X63340000Y-107572500D01*
X63340000Y-107572500D02*
X64810000Y-107572500D01*
X64810000Y-107572500D02*
X64810000Y-105287500D01*
%TO.C,REF\u002A\u002A415*%
X69340000Y-102287500D02*
X69340000Y-104572500D01*
X69340000Y-104572500D02*
X70810000Y-104572500D01*
X70810000Y-104572500D02*
X70810000Y-102287500D01*
%TO.C,REF\u002A\u002A508*%
X90340000Y-114287500D02*
X90340000Y-116572500D01*
X90340000Y-116572500D02*
X91810000Y-116572500D01*
X91810000Y-116572500D02*
X91810000Y-114287500D01*
%TO.C,REF\u002A\u002A254*%
X72340000Y-81287500D02*
X72340000Y-83572500D01*
X72340000Y-83572500D02*
X73810000Y-83572500D01*
X73810000Y-83572500D02*
X73810000Y-81287500D01*
%TO.C,REF\u002A\u002A34*%
X102340000Y-45287500D02*
X102340000Y-47572500D01*
X102340000Y-47572500D02*
X103810000Y-47572500D01*
X103810000Y-47572500D02*
X103810000Y-45287500D01*
%TO.C,REF\u002A\u002A463*%
X81340000Y-108287500D02*
X81340000Y-110572500D01*
X81340000Y-110572500D02*
X82810000Y-110572500D01*
X82810000Y-110572500D02*
X82810000Y-108287500D01*
%TO.C,REF\u002A\u002A128*%
X60340000Y-60287500D02*
X60340000Y-62572500D01*
X60340000Y-62572500D02*
X61810000Y-62572500D01*
X61810000Y-62572500D02*
X61810000Y-60287500D01*
%TO.C,REF\u002A\u002A269*%
X93340000Y-81287500D02*
X93340000Y-83572500D01*
X93340000Y-83572500D02*
X94810000Y-83572500D01*
X94810000Y-83572500D02*
X94810000Y-81287500D01*
%TO.C,REF\u002A\u002A468*%
X90340000Y-108287500D02*
X90340000Y-110572500D01*
X90340000Y-110572500D02*
X91810000Y-110572500D01*
X91810000Y-110572500D02*
X91810000Y-108287500D01*
%TO.C,REF\u002A\u002A208*%
X60340000Y-72287500D02*
X60340000Y-74572500D01*
X60340000Y-74572500D02*
X61810000Y-74572500D01*
X61810000Y-74572500D02*
X61810000Y-72287500D01*
%TO.C,REF\u002A\u002A354*%
X102340000Y-93287500D02*
X102340000Y-95572500D01*
X102340000Y-95572500D02*
X103810000Y-95572500D01*
X103810000Y-95572500D02*
X103810000Y-93287500D01*
%TO.C,REF\u002A\u002A191*%
X93340000Y-66287500D02*
X93340000Y-68572500D01*
X93340000Y-68572500D02*
X94810000Y-68572500D01*
X94810000Y-68572500D02*
X94810000Y-66287500D01*
%TO.C,REF\u002A\u002A391*%
X93340000Y-96287500D02*
X93340000Y-98572500D01*
X93340000Y-98572500D02*
X94810000Y-98572500D01*
X94810000Y-98572500D02*
X94810000Y-96287500D01*
%TO.C,REF\u002A\u002A348*%
X90340000Y-90287500D02*
X90340000Y-92572500D01*
X90340000Y-92572500D02*
X91810000Y-92572500D01*
X91810000Y-92572500D02*
X91810000Y-90287500D01*
%TO.C,C18*%
X80065580Y-130440000D02*
X79784420Y-130440000D01*
X80065580Y-131460000D02*
X79784420Y-131460000D01*
%TO.C,REF\u002A\u002A204*%
X54340000Y-72287500D02*
X54340000Y-74572500D01*
X54340000Y-74572500D02*
X55810000Y-74572500D01*
X55810000Y-74572500D02*
X55810000Y-72287500D01*
%TO.C,REF\u002A\u002A504*%
X84340000Y-114287500D02*
X84340000Y-116572500D01*
X84340000Y-116572500D02*
X85810000Y-116572500D01*
X85810000Y-116572500D02*
X85810000Y-114287500D01*
%TO.C,REF\u002A\u002A535*%
X69340000Y-120287500D02*
X69340000Y-122572500D01*
X69340000Y-122572500D02*
X70810000Y-122572500D01*
X70810000Y-122572500D02*
X70810000Y-120287500D01*
%TO.C,REF\u002A\u002A300*%
X78340000Y-84287500D02*
X78340000Y-86572500D01*
X78340000Y-86572500D02*
X79810000Y-86572500D01*
X79810000Y-86572500D02*
X79810000Y-84287500D01*
%TO.C,REF\u002A\u002A134*%
X72340000Y-63287500D02*
X72340000Y-65572500D01*
X72340000Y-65572500D02*
X73810000Y-65572500D01*
X73810000Y-65572500D02*
X73810000Y-63287500D01*
%TO.C,REF\u002A\u002A448*%
X60340000Y-108287500D02*
X60340000Y-110572500D01*
X60340000Y-110572500D02*
X61810000Y-110572500D01*
X61810000Y-110572500D02*
X61810000Y-108287500D01*
%TO.C,REF\u002A\u002A118*%
X108340000Y-57287500D02*
X108340000Y-59572500D01*
X108340000Y-59572500D02*
X109810000Y-59572500D01*
X109810000Y-59572500D02*
X109810000Y-57287500D01*
%TO.C,REF\u002A\u002A533*%
X69340000Y-123287500D02*
X69340000Y-125572500D01*
X69340000Y-125572500D02*
X70810000Y-125572500D01*
X70810000Y-125572500D02*
X70810000Y-123287500D01*
%TO.C,REF\u002A\u002A453*%
X69340000Y-111287500D02*
X69340000Y-113572500D01*
X69340000Y-113572500D02*
X70810000Y-113572500D01*
X70810000Y-113572500D02*
X70810000Y-111287500D01*
%TO.C,REF\u002A\u002A352*%
X96340000Y-90287500D02*
X96340000Y-92572500D01*
X96340000Y-92572500D02*
X97810000Y-92572500D01*
X97810000Y-92572500D02*
X97810000Y-90287500D01*
%TO.C,REF\u002A\u002A514*%
X102340000Y-117287500D02*
X102340000Y-119572500D01*
X102340000Y-119572500D02*
X103810000Y-119572500D01*
X103810000Y-119572500D02*
X103810000Y-117287500D01*
%TO.C,REF\u002A\u002A23*%
X81340000Y-42287500D02*
X81340000Y-44572500D01*
X81340000Y-44572500D02*
X82810000Y-44572500D01*
X82810000Y-44572500D02*
X82810000Y-42287500D01*
%TO.C,REF\u002A\u002A511*%
X93340000Y-114287500D02*
X93340000Y-116572500D01*
X93340000Y-116572500D02*
X94810000Y-116572500D01*
X94810000Y-116572500D02*
X94810000Y-114287500D01*
%TO.C,REF\u002A\u002A454*%
X72340000Y-111287500D02*
X72340000Y-113572500D01*
X72340000Y-113572500D02*
X73810000Y-113572500D01*
X73810000Y-113572500D02*
X73810000Y-111287500D01*
%TO.C,REF\u002A\u002A162*%
X54340000Y-69287500D02*
X54340000Y-71572500D01*
X54340000Y-71572500D02*
X55810000Y-71572500D01*
X55810000Y-71572500D02*
X55810000Y-69287500D01*
%TO.C,REF\u002A\u002A444*%
X54340000Y-108287500D02*
X54340000Y-110572500D01*
X54340000Y-110572500D02*
X55810000Y-110572500D01*
X55810000Y-110572500D02*
X55810000Y-108287500D01*
%TO.C,REF\u002A\u002A434*%
X102340000Y-105287500D02*
X102340000Y-107572500D01*
X102340000Y-107572500D02*
X103810000Y-107572500D01*
X103810000Y-107572500D02*
X103810000Y-105287500D01*
%TO.C,REF\u002A\u002A390*%
X96340000Y-99287500D02*
X96340000Y-101572500D01*
X96340000Y-101572500D02*
X97810000Y-101572500D01*
X97810000Y-101572500D02*
X97810000Y-99287500D01*
%TO.C,REF\u002A\u002A99*%
X75340000Y-54287500D02*
X75340000Y-56572500D01*
X75340000Y-56572500D02*
X76810000Y-56572500D01*
X76810000Y-56572500D02*
X76810000Y-54287500D01*
%TO.C,REF\u002A\u002A243*%
X51340000Y-78287500D02*
X51340000Y-80572500D01*
X51340000Y-80572500D02*
X52810000Y-80572500D01*
X52810000Y-80572500D02*
X52810000Y-78287500D01*
%TO.C,REF\u002A\u002A410*%
X66340000Y-105287500D02*
X66340000Y-107572500D01*
X66340000Y-107572500D02*
X67810000Y-107572500D01*
X67810000Y-107572500D02*
X67810000Y-105287500D01*
%TO.C,REF\u002A\u002A98*%
X78340000Y-57287500D02*
X78340000Y-59572500D01*
X78340000Y-59572500D02*
X79810000Y-59572500D01*
X79810000Y-59572500D02*
X79810000Y-57287500D01*
%TO.C,REF\u002A\u002A180*%
X78340000Y-66287500D02*
X78340000Y-68572500D01*
X78340000Y-68572500D02*
X79810000Y-68572500D01*
X79810000Y-68572500D02*
X79810000Y-66287500D01*
%TO.C,REF\u002A\u002A239*%
X105340000Y-72287500D02*
X105340000Y-74572500D01*
X105340000Y-74572500D02*
X106810000Y-74572500D01*
X106810000Y-74572500D02*
X106810000Y-72287500D01*
%TO.C,REF\u002A\u002A224*%
X84340000Y-72287500D02*
X84340000Y-74572500D01*
X84340000Y-74572500D02*
X85810000Y-74572500D01*
X85810000Y-74572500D02*
X85810000Y-72287500D01*
%TO.C,REF\u002A\u002A46*%
X60340000Y-51287500D02*
X60340000Y-53572500D01*
X60340000Y-53572500D02*
X61810000Y-53572500D01*
X61810000Y-53572500D02*
X61810000Y-51287500D01*
%TO.C,REF\u002A\u002A276*%
X102340000Y-78287500D02*
X102340000Y-80572500D01*
X102340000Y-80572500D02*
X103810000Y-80572500D01*
X103810000Y-80572500D02*
X103810000Y-78287500D01*
%TO.C,REF\u002A\u002A186*%
X90340000Y-69287500D02*
X90340000Y-71572500D01*
X90340000Y-71572500D02*
X91810000Y-71572500D01*
X91810000Y-71572500D02*
X91810000Y-69287500D01*
%TO.C,REF\u002A\u002A114*%
X102340000Y-57287500D02*
X102340000Y-59572500D01*
X102340000Y-59572500D02*
X103810000Y-59572500D01*
X103810000Y-59572500D02*
X103810000Y-57287500D01*
%TO.C,REF\u002A\u002A413*%
X69340000Y-105287500D02*
X69340000Y-107572500D01*
X69340000Y-107572500D02*
X70810000Y-107572500D01*
X70810000Y-107572500D02*
X70810000Y-105287500D01*
%TO.C,REF\u002A\u002A446*%
X60340000Y-111287500D02*
X60340000Y-113572500D01*
X60340000Y-113572500D02*
X61810000Y-113572500D01*
X61810000Y-113572500D02*
X61810000Y-111287500D01*
%TO.C,REF\u002A\u002A79*%
X105340000Y-48287500D02*
X105340000Y-50572500D01*
X105340000Y-50572500D02*
X106810000Y-50572500D01*
X106810000Y-50572500D02*
X106810000Y-48287500D01*
%TO.C,REF\u002A\u002A52*%
X66340000Y-48287500D02*
X66340000Y-50572500D01*
X66340000Y-50572500D02*
X67810000Y-50572500D01*
X67810000Y-50572500D02*
X67810000Y-48287500D01*
%TO.C,REF\u002A\u002A185*%
X87340000Y-69287500D02*
X87340000Y-71572500D01*
X87340000Y-71572500D02*
X88810000Y-71572500D01*
X88810000Y-71572500D02*
X88810000Y-69287500D01*
%TO.C,REF\u002A\u002A290*%
X66340000Y-87287500D02*
X66340000Y-89572500D01*
X66340000Y-89572500D02*
X67810000Y-89572500D01*
X67810000Y-89572500D02*
X67810000Y-87287500D01*
%TO.C,REF\u002A\u002A393*%
X99340000Y-99287500D02*
X99340000Y-101572500D01*
X99340000Y-101572500D02*
X100810000Y-101572500D01*
X100810000Y-101572500D02*
X100810000Y-99287500D01*
%TO.C,REF\u002A\u002A233*%
X99340000Y-75287500D02*
X99340000Y-77572500D01*
X99340000Y-77572500D02*
X100810000Y-77572500D01*
X100810000Y-77572500D02*
X100810000Y-75287500D01*
%TO.C,REF\u002A\u002A234*%
X102340000Y-75287500D02*
X102340000Y-77572500D01*
X102340000Y-77572500D02*
X103810000Y-77572500D01*
X103810000Y-77572500D02*
X103810000Y-75287500D01*
%TO.C,REF\u002A\u002A282*%
X54340000Y-87287500D02*
X54340000Y-89572500D01*
X54340000Y-89572500D02*
X55810000Y-89572500D01*
X55810000Y-89572500D02*
X55810000Y-87287500D01*
%TO.C,REF\u002A\u002A457*%
X75340000Y-111287500D02*
X75340000Y-113572500D01*
X75340000Y-113572500D02*
X76810000Y-113572500D01*
X76810000Y-113572500D02*
X76810000Y-111287500D01*
%TO.C,REF\u002A\u002A31*%
X93340000Y-42287500D02*
X93340000Y-44572500D01*
X93340000Y-44572500D02*
X94810000Y-44572500D01*
X94810000Y-44572500D02*
X94810000Y-42287500D01*
%TO.C,REF\u002A\u002A48*%
X60340000Y-48287500D02*
X60340000Y-50572500D01*
X60340000Y-50572500D02*
X61810000Y-50572500D01*
X61810000Y-50572500D02*
X61810000Y-48287500D01*
%TO.C,REF\u002A\u002A124*%
X54340000Y-60287500D02*
X54340000Y-62572500D01*
X54340000Y-62572500D02*
X55810000Y-62572500D01*
X55810000Y-62572500D02*
X55810000Y-60287500D01*
%TO.C,REF\u002A\u002A492*%
X66340000Y-114287500D02*
X66340000Y-116572500D01*
X66340000Y-116572500D02*
X67810000Y-116572500D01*
X67810000Y-116572500D02*
X67810000Y-114287500D01*
%TO.C,REF\u002A\u002A367*%
X57340000Y-96287500D02*
X57340000Y-98572500D01*
X57340000Y-98572500D02*
X58810000Y-98572500D01*
X58810000Y-98572500D02*
X58810000Y-96287500D01*
%TO.C,REF\u002A\u002A170*%
X66340000Y-69287500D02*
X66340000Y-71572500D01*
X66340000Y-71572500D02*
X67810000Y-71572500D01*
X67810000Y-71572500D02*
X67810000Y-69287500D01*
%TO.C,REF\u002A\u002A329*%
X63340000Y-93287500D02*
X63340000Y-95572500D01*
X63340000Y-95572500D02*
X64810000Y-95572500D01*
X64810000Y-95572500D02*
X64810000Y-93287500D01*
%TO.C,REF\u002A\u002A472*%
X96340000Y-108287500D02*
X96340000Y-110572500D01*
X96340000Y-110572500D02*
X97810000Y-110572500D01*
X97810000Y-110572500D02*
X97810000Y-108287500D01*
%TO.C,REF\u002A\u002A179*%
X75340000Y-66287500D02*
X75340000Y-68572500D01*
X75340000Y-68572500D02*
X76810000Y-68572500D01*
X76810000Y-68572500D02*
X76810000Y-66287500D01*
%TO.C,REF\u002A\u002A241*%
X51340000Y-81287500D02*
X51340000Y-83572500D01*
X51340000Y-83572500D02*
X52810000Y-83572500D01*
X52810000Y-83572500D02*
X52810000Y-81287500D01*
%TO.C,REF\u002A\u002A452*%
X66340000Y-108287500D02*
X66340000Y-110572500D01*
X66340000Y-110572500D02*
X67810000Y-110572500D01*
X67810000Y-110572500D02*
X67810000Y-108287500D01*
%TO.C,REF\u002A\u002A123*%
X51340000Y-60287500D02*
X51340000Y-62572500D01*
X51340000Y-62572500D02*
X52810000Y-62572500D01*
X52810000Y-62572500D02*
X52810000Y-60287500D01*
%TO.C,REF\u002A\u002A429*%
X93340000Y-105287500D02*
X93340000Y-107572500D01*
X93340000Y-107572500D02*
X94810000Y-107572500D01*
X94810000Y-107572500D02*
X94810000Y-105287500D01*
%TO.C,REF\u002A\u002A112*%
X96340000Y-54287500D02*
X96340000Y-56572500D01*
X96340000Y-56572500D02*
X97810000Y-56572500D01*
X97810000Y-56572500D02*
X97810000Y-54287500D01*
%TO.C,REF\u002A\u002A365*%
X57340000Y-99287500D02*
X57340000Y-101572500D01*
X57340000Y-101572500D02*
X58810000Y-101572500D01*
X58810000Y-101572500D02*
X58810000Y-99287500D01*
%TO.C,REF\u002A\u002A211*%
X63340000Y-72287500D02*
X63340000Y-74572500D01*
X63340000Y-74572500D02*
X64810000Y-74572500D01*
X64810000Y-74572500D02*
X64810000Y-72287500D01*
%TO.C,REF\u002A\u002A304*%
X84340000Y-84287500D02*
X84340000Y-86572500D01*
X84340000Y-86572500D02*
X85810000Y-86572500D01*
X85810000Y-86572500D02*
X85810000Y-84287500D01*
%TO.C,REF\u002A\u002A176*%
X72340000Y-66287500D02*
X72340000Y-68572500D01*
X72340000Y-68572500D02*
X73810000Y-68572500D01*
X73810000Y-68572500D02*
X73810000Y-66287500D01*
%TO.C,REF\u002A\u002A349*%
X93340000Y-93287500D02*
X93340000Y-95572500D01*
X93340000Y-95572500D02*
X94810000Y-95572500D01*
X94810000Y-95572500D02*
X94810000Y-93287500D01*
%TO.C,REF\u002A\u002A206*%
X60340000Y-75287500D02*
X60340000Y-77572500D01*
X60340000Y-77572500D02*
X61810000Y-77572500D01*
X61810000Y-77572500D02*
X61810000Y-75287500D01*
%TO.C,REF\u002A\u002A291*%
X63340000Y-84287500D02*
X63340000Y-86572500D01*
X63340000Y-86572500D02*
X64810000Y-86572500D01*
X64810000Y-86572500D02*
X64810000Y-84287500D01*
%TO.C,REF\u002A\u002A411*%
X63340000Y-102287500D02*
X63340000Y-104572500D01*
X63340000Y-104572500D02*
X64810000Y-104572500D01*
X64810000Y-104572500D02*
X64810000Y-102287500D01*
%TO.C,REF\u002A\u002A484*%
X54340000Y-114287500D02*
X54340000Y-116572500D01*
X54340000Y-116572500D02*
X55810000Y-116572500D01*
X55810000Y-116572500D02*
X55810000Y-114287500D01*
%TO.C,REF\u002A\u002A265*%
X87340000Y-81287500D02*
X87340000Y-83572500D01*
X87340000Y-83572500D02*
X88810000Y-83572500D01*
X88810000Y-83572500D02*
X88810000Y-81287500D01*
%TO.C,REF\u002A\u002A13*%
X69340000Y-45287500D02*
X69340000Y-47572500D01*
X69340000Y-47572500D02*
X70810000Y-47572500D01*
X70810000Y-47572500D02*
X70810000Y-45287500D01*
%TO.C,REF\u002A\u002A538*%
X78340000Y-123287500D02*
X78340000Y-125572500D01*
X78340000Y-125572500D02*
X79810000Y-125572500D01*
X79810000Y-125572500D02*
X79810000Y-123287500D01*
D14*
%TO.C,VR_MCU1*%
X52428500Y-129724000D02*
X55371500Y-129724000D01*
X52428500Y-136376000D02*
X52428500Y-129724000D01*
X55371500Y-129724000D02*
X55371500Y-136376000D01*
X55371500Y-136376000D02*
X52428500Y-136376000D01*
D13*
%TO.C,REF\u002A\u002A368*%
X60340000Y-96287500D02*
X60340000Y-98572500D01*
X60340000Y-98572500D02*
X61810000Y-98572500D01*
X61810000Y-98572500D02*
X61810000Y-96287500D01*
%TO.C,REF\u002A\u002A500*%
X78340000Y-114287500D02*
X78340000Y-116572500D01*
X78340000Y-116572500D02*
X79810000Y-116572500D01*
X79810000Y-116572500D02*
X79810000Y-114287500D01*
%TO.C,REF\u002A\u002A421*%
X81340000Y-105287500D02*
X81340000Y-107572500D01*
X81340000Y-107572500D02*
X82810000Y-107572500D01*
X82810000Y-107572500D02*
X82810000Y-105287500D01*
%TO.C,REF\u002A\u002A230*%
X96340000Y-75287500D02*
X96340000Y-77572500D01*
X96340000Y-77572500D02*
X97810000Y-77572500D01*
X97810000Y-77572500D02*
X97810000Y-75287500D01*
%TO.C,REF\u002A\u002A129*%
X63340000Y-63287500D02*
X63340000Y-65572500D01*
X63340000Y-65572500D02*
X64810000Y-65572500D01*
X64810000Y-65572500D02*
X64810000Y-63287500D01*
%TO.C,REF\u002A\u002A59*%
X75340000Y-48287500D02*
X75340000Y-50572500D01*
X75340000Y-50572500D02*
X76810000Y-50572500D01*
X76810000Y-50572500D02*
X76810000Y-48287500D01*
%TO.C,REF\u002A\u002A549*%
X93340000Y-123287500D02*
X93340000Y-125572500D01*
X93340000Y-125572500D02*
X94810000Y-125572500D01*
X94810000Y-125572500D02*
X94810000Y-123287500D01*
%TO.C,REF\u002A\u002A56*%
X72340000Y-48287500D02*
X72340000Y-50572500D01*
X72340000Y-50572500D02*
X73810000Y-50572500D01*
X73810000Y-50572500D02*
X73810000Y-48287500D01*
%TO.C,REF\u002A\u002A342*%
X84340000Y-93287500D02*
X84340000Y-95572500D01*
X84340000Y-95572500D02*
X85810000Y-95572500D01*
X85810000Y-95572500D02*
X85810000Y-93287500D01*
%TO.C,REF\u002A\u002A192*%
X96340000Y-66287500D02*
X96340000Y-68572500D01*
X96340000Y-68572500D02*
X97810000Y-68572500D01*
X97810000Y-68572500D02*
X97810000Y-66287500D01*
%TO.C,REF\u002A\u002A181*%
X81340000Y-69287500D02*
X81340000Y-71572500D01*
X81340000Y-71572500D02*
X82810000Y-71572500D01*
X82810000Y-71572500D02*
X82810000Y-69287500D01*
%TO.C,REF\u002A\u002A145*%
X87340000Y-63287500D02*
X87340000Y-65572500D01*
X87340000Y-65572500D02*
X88810000Y-65572500D01*
X88810000Y-65572500D02*
X88810000Y-63287500D01*
%TO.C,REF\u002A\u002A175*%
X69340000Y-66287500D02*
X69340000Y-68572500D01*
X69340000Y-68572500D02*
X70810000Y-68572500D01*
X70810000Y-68572500D02*
X70810000Y-66287500D01*
%TO.C,REF\u002A\u002A556*%
X102340000Y-120287500D02*
X102340000Y-122572500D01*
X102340000Y-122572500D02*
X103810000Y-122572500D01*
X103810000Y-122572500D02*
X103810000Y-120287500D01*
%TO.C,REF\u002A\u002A287*%
X57340000Y-84287500D02*
X57340000Y-86572500D01*
X57340000Y-86572500D02*
X58810000Y-86572500D01*
X58810000Y-86572500D02*
X58810000Y-84287500D01*
%TO.C,REF\u002A\u002A144*%
X84340000Y-60287500D02*
X84340000Y-62572500D01*
X84340000Y-62572500D02*
X85810000Y-62572500D01*
X85810000Y-62572500D02*
X85810000Y-60287500D01*
%TO.C,REF\u002A\u002A203*%
X51340000Y-72287500D02*
X51340000Y-74572500D01*
X51340000Y-74572500D02*
X52810000Y-74572500D01*
X52810000Y-74572500D02*
X52810000Y-72287500D01*
%TO.C,REF\u002A\u002A473*%
X99340000Y-111287500D02*
X99340000Y-113572500D01*
X99340000Y-113572500D02*
X100810000Y-113572500D01*
X100810000Y-113572500D02*
X100810000Y-111287500D01*
%TO.C,REF\u002A\u002A132*%
X66340000Y-60287500D02*
X66340000Y-62572500D01*
X66340000Y-62572500D02*
X67810000Y-62572500D01*
X67810000Y-62572500D02*
X67810000Y-60287500D01*
%TO.C,REF\u002A\u002A534*%
X72340000Y-123287500D02*
X72340000Y-125572500D01*
X72340000Y-125572500D02*
X73810000Y-125572500D01*
X73810000Y-125572500D02*
X73810000Y-123287500D01*
%TO.C,REF\u002A\u002A242*%
X54340000Y-81287500D02*
X54340000Y-83572500D01*
X54340000Y-83572500D02*
X55810000Y-83572500D01*
X55810000Y-83572500D02*
X55810000Y-81287500D01*
%TO.C,REF\u002A\u002A432*%
X96340000Y-102287500D02*
X96340000Y-104572500D01*
X96340000Y-104572500D02*
X97810000Y-104572500D01*
X97810000Y-104572500D02*
X97810000Y-102287500D01*
%TO.C,REF\u002A\u002A439*%
X105340000Y-102287500D02*
X105340000Y-104572500D01*
X105340000Y-104572500D02*
X106810000Y-104572500D01*
X106810000Y-104572500D02*
X106810000Y-102287500D01*
%TO.C,REF\u002A\u002A67*%
X87340000Y-48287500D02*
X87340000Y-50572500D01*
X87340000Y-50572500D02*
X88810000Y-50572500D01*
X88810000Y-50572500D02*
X88810000Y-48287500D01*
%TO.C,REF\u002A\u002A526*%
X60340000Y-123287500D02*
X60340000Y-125572500D01*
X60340000Y-125572500D02*
X61810000Y-125572500D01*
X61810000Y-125572500D02*
X61810000Y-123287500D01*
%TO.C,REF\u002A\u002A40*%
X108340000Y-42287500D02*
X108340000Y-44572500D01*
X108340000Y-44572500D02*
X109810000Y-44572500D01*
X109810000Y-44572500D02*
X109810000Y-42287500D01*
%TO.C,REF\u002A\u002A257*%
X75340000Y-81287500D02*
X75340000Y-83572500D01*
X75340000Y-83572500D02*
X76810000Y-83572500D01*
X76810000Y-83572500D02*
X76810000Y-81287500D01*
%TO.C,REF\u002A\u002A127*%
X57340000Y-60287500D02*
X57340000Y-62572500D01*
X57340000Y-62572500D02*
X58810000Y-62572500D01*
X58810000Y-62572500D02*
X58810000Y-60287500D01*
%TO.C,REF\u002A\u002A530*%
X66340000Y-123287500D02*
X66340000Y-125572500D01*
X66340000Y-125572500D02*
X67810000Y-125572500D01*
X67810000Y-125572500D02*
X67810000Y-123287500D01*
%TO.C,REF\u002A\u002A331*%
X63340000Y-90287500D02*
X63340000Y-92572500D01*
X63340000Y-92572500D02*
X64810000Y-92572500D01*
X64810000Y-92572500D02*
X64810000Y-90287500D01*
%TO.C,REF\u002A\u002A341*%
X81340000Y-93287500D02*
X81340000Y-95572500D01*
X81340000Y-95572500D02*
X82810000Y-95572500D01*
X82810000Y-95572500D02*
X82810000Y-93287500D01*
%TO.C,REF\u002A\u002A395*%
X99340000Y-96287500D02*
X99340000Y-98572500D01*
X99340000Y-98572500D02*
X100810000Y-98572500D01*
X100810000Y-98572500D02*
X100810000Y-96287500D01*
%TO.C,REF\u002A\u002A302*%
X84340000Y-87287500D02*
X84340000Y-89572500D01*
X84340000Y-89572500D02*
X85810000Y-89572500D01*
X85810000Y-89572500D02*
X85810000Y-87287500D01*
%TO.C,REF\u002A\u002A370*%
X66340000Y-99287500D02*
X66340000Y-101572500D01*
X66340000Y-101572500D02*
X67810000Y-101572500D01*
X67810000Y-101572500D02*
X67810000Y-99287500D01*
%TO.C,REF\u002A\u002A344*%
X84340000Y-90287500D02*
X84340000Y-92572500D01*
X84340000Y-92572500D02*
X85810000Y-92572500D01*
X85810000Y-92572500D02*
X85810000Y-90287500D01*
%TO.C,REF\u002A\u002A193*%
X99340000Y-69287500D02*
X99340000Y-71572500D01*
X99340000Y-71572500D02*
X100810000Y-71572500D01*
X100810000Y-71572500D02*
X100810000Y-69287500D01*
%TO.C,REF\u002A\u002A171*%
X63340000Y-66287500D02*
X63340000Y-68572500D01*
X63340000Y-68572500D02*
X64810000Y-68572500D01*
X64810000Y-68572500D02*
X64810000Y-66287500D01*
%TO.C,REF\u002A\u002A525*%
X57340000Y-123287500D02*
X57340000Y-125572500D01*
X57340000Y-125572500D02*
X58810000Y-125572500D01*
X58810000Y-125572500D02*
X58810000Y-123287500D01*
%TO.C,REF\u002A\u002A384*%
X84340000Y-96287500D02*
X84340000Y-98572500D01*
X84340000Y-98572500D02*
X85810000Y-98572500D01*
X85810000Y-98572500D02*
X85810000Y-96287500D01*
%TO.C,REF\u002A\u002A246*%
X60340000Y-81287500D02*
X60340000Y-83572500D01*
X60340000Y-83572500D02*
X61810000Y-83572500D01*
X61810000Y-83572500D02*
X61810000Y-81287500D01*
%TO.C,REF\u002A\u002A84*%
X54340000Y-54287500D02*
X54340000Y-56572500D01*
X54340000Y-56572500D02*
X55810000Y-56572500D01*
X55810000Y-56572500D02*
X55810000Y-54287500D01*
%TO.C,REF\u002A\u002A198*%
X108340000Y-69287500D02*
X108340000Y-71572500D01*
X108340000Y-71572500D02*
X109810000Y-71572500D01*
X109810000Y-71572500D02*
X109810000Y-69287500D01*
%TO.C,REF\u002A\u002A159*%
X105340000Y-60287500D02*
X105340000Y-62572500D01*
X105340000Y-62572500D02*
X106810000Y-62572500D01*
X106810000Y-62572500D02*
X106810000Y-60287500D01*
%TO.C,REF\u002A\u002A520*%
X108340000Y-114287500D02*
X108340000Y-116572500D01*
X108340000Y-116572500D02*
X109810000Y-116572500D01*
X109810000Y-116572500D02*
X109810000Y-114287500D01*
%TO.C,REF\u002A\u002A93*%
X69340000Y-57287500D02*
X69340000Y-59572500D01*
X69340000Y-59572500D02*
X70810000Y-59572500D01*
X70810000Y-59572500D02*
X70810000Y-57287500D01*
%TO.C,REF\u002A\u002A187*%
X87340000Y-66287500D02*
X87340000Y-68572500D01*
X87340000Y-68572500D02*
X88810000Y-68572500D01*
X88810000Y-68572500D02*
X88810000Y-66287500D01*
%TO.C,REF\u002A\u002A303*%
X81340000Y-84287500D02*
X81340000Y-86572500D01*
X81340000Y-86572500D02*
X82810000Y-86572500D01*
X82810000Y-86572500D02*
X82810000Y-84287500D01*
%TO.C,REF\u002A\u002A412*%
X66340000Y-102287500D02*
X66340000Y-104572500D01*
X66340000Y-104572500D02*
X67810000Y-104572500D01*
X67810000Y-104572500D02*
X67810000Y-102287500D01*
%TO.C,REF\u002A\u002A20*%
X78340000Y-42287500D02*
X78340000Y-44572500D01*
X78340000Y-44572500D02*
X79810000Y-44572500D01*
X79810000Y-44572500D02*
X79810000Y-42287500D01*
%TO.C,REF\u002A\u002A443*%
X51340000Y-108287500D02*
X51340000Y-110572500D01*
X51340000Y-110572500D02*
X52810000Y-110572500D01*
X52810000Y-110572500D02*
X52810000Y-108287500D01*
%TO.C,REF\u002A\u002A61*%
X81340000Y-51287500D02*
X81340000Y-53572500D01*
X81340000Y-53572500D02*
X82810000Y-53572500D01*
X82810000Y-53572500D02*
X82810000Y-51287500D01*
%TO.C,REF\u002A\u002A399*%
X105340000Y-96287500D02*
X105340000Y-98572500D01*
X105340000Y-98572500D02*
X106810000Y-98572500D01*
X106810000Y-98572500D02*
X106810000Y-96287500D01*
%TO.C,REF\u002A\u002A210*%
X66340000Y-75287500D02*
X66340000Y-77572500D01*
X66340000Y-77572500D02*
X67810000Y-77572500D01*
X67810000Y-77572500D02*
X67810000Y-75287500D01*
%TO.C,C7*%
X60159420Y-130290000D02*
X60440580Y-130290000D01*
X60159420Y-131310000D02*
X60440580Y-131310000D01*
%TO.C,REF\u002A\u002A169*%
X63340000Y-69287500D02*
X63340000Y-71572500D01*
X63340000Y-71572500D02*
X64810000Y-71572500D01*
X64810000Y-71572500D02*
X64810000Y-69287500D01*
%TO.C,REF\u002A\u002A85*%
X57340000Y-57287500D02*
X57340000Y-59572500D01*
X57340000Y-59572500D02*
X58810000Y-59572500D01*
X58810000Y-59572500D02*
X58810000Y-57287500D01*
%TO.C,REF\u002A\u002A376*%
X72340000Y-96287500D02*
X72340000Y-98572500D01*
X72340000Y-98572500D02*
X73810000Y-98572500D01*
X73810000Y-98572500D02*
X73810000Y-96287500D01*
%TO.C,REF\u002A\u002A316*%
X102340000Y-84287500D02*
X102340000Y-86572500D01*
X102340000Y-86572500D02*
X103810000Y-86572500D01*
X103810000Y-86572500D02*
X103810000Y-84287500D01*
%TO.C,REF\u002A\u002A104*%
X84340000Y-54287500D02*
X84340000Y-56572500D01*
X84340000Y-56572500D02*
X85810000Y-56572500D01*
X85810000Y-56572500D02*
X85810000Y-54287500D01*
%TO.C,REF\u002A\u002A451*%
X63340000Y-108287500D02*
X63340000Y-110572500D01*
X63340000Y-110572500D02*
X64810000Y-110572500D01*
X64810000Y-110572500D02*
X64810000Y-108287500D01*
%TO.C,REF\u002A\u002A71*%
X93340000Y-48287500D02*
X93340000Y-50572500D01*
X93340000Y-50572500D02*
X94810000Y-50572500D01*
X94810000Y-50572500D02*
X94810000Y-48287500D01*
%TO.C,REF\u002A\u002A358*%
X108340000Y-93287500D02*
X108340000Y-95572500D01*
X108340000Y-95572500D02*
X109810000Y-95572500D01*
X109810000Y-95572500D02*
X109810000Y-93287500D01*
%TO.C,C10*%
X83679724Y-137455365D02*
X83170276Y-137455365D01*
X83679724Y-138500365D02*
X83170276Y-138500365D01*
%TO.C,REF\u002A\u002A202*%
X54340000Y-75287500D02*
X54340000Y-77572500D01*
X54340000Y-77572500D02*
X55810000Y-77572500D01*
X55810000Y-77572500D02*
X55810000Y-75287500D01*
%TO.C,REF\u002A\u002A377*%
X75340000Y-99287500D02*
X75340000Y-101572500D01*
X75340000Y-101572500D02*
X76810000Y-101572500D01*
X76810000Y-101572500D02*
X76810000Y-99287500D01*
%TO.C,REF\u002A\u002A388*%
X90340000Y-96287500D02*
X90340000Y-98572500D01*
X90340000Y-98572500D02*
X91810000Y-98572500D01*
X91810000Y-98572500D02*
X91810000Y-96287500D01*
%TO.C,REF\u002A\u002A499*%
X75340000Y-114287500D02*
X75340000Y-116572500D01*
X75340000Y-116572500D02*
X76810000Y-116572500D01*
X76810000Y-116572500D02*
X76810000Y-114287500D01*
%TO.C,REF\u002A\u002A546*%
X90340000Y-123287500D02*
X90340000Y-125572500D01*
X90340000Y-125572500D02*
X91810000Y-125572500D01*
X91810000Y-125572500D02*
X91810000Y-123287500D01*
%TO.C,REF\u002A\u002A470*%
X96340000Y-111287500D02*
X96340000Y-113572500D01*
X96340000Y-113572500D02*
X97810000Y-113572500D01*
X97810000Y-113572500D02*
X97810000Y-111287500D01*
%TO.C,REF\u002A\u002A87*%
X57340000Y-54287500D02*
X57340000Y-56572500D01*
X57340000Y-56572500D02*
X58810000Y-56572500D01*
X58810000Y-56572500D02*
X58810000Y-54287500D01*
%TO.C,REF\u002A\u002A218*%
X78340000Y-75287500D02*
X78340000Y-77572500D01*
X78340000Y-77572500D02*
X79810000Y-77572500D01*
X79810000Y-77572500D02*
X79810000Y-75287500D01*
%TO.C,REF\u002A\u002A165*%
X57340000Y-69287500D02*
X57340000Y-71572500D01*
X57340000Y-71572500D02*
X58810000Y-71572500D01*
X58810000Y-71572500D02*
X58810000Y-69287500D01*
%TO.C,REF\u002A\u002A469*%
X93340000Y-111287500D02*
X93340000Y-113572500D01*
X93340000Y-113572500D02*
X94810000Y-113572500D01*
X94810000Y-113572500D02*
X94810000Y-111287500D01*
%TO.C,REF\u002A\u002A261*%
X81340000Y-81287500D02*
X81340000Y-83572500D01*
X81340000Y-83572500D02*
X82810000Y-83572500D01*
X82810000Y-83572500D02*
X82810000Y-81287500D01*
%TO.C,REF\u002A\u002A397*%
X105340000Y-99287500D02*
X105340000Y-101572500D01*
X105340000Y-101572500D02*
X106810000Y-101572500D01*
X106810000Y-101572500D02*
X106810000Y-99287500D01*
%TO.C,REF\u002A\u002A523*%
X51340000Y-120287500D02*
X51340000Y-122572500D01*
X51340000Y-122572500D02*
X52810000Y-122572500D01*
X52810000Y-122572500D02*
X52810000Y-120287500D01*
%TO.C,REF\u002A\u002A539*%
X75340000Y-120287500D02*
X75340000Y-122572500D01*
X75340000Y-122572500D02*
X76810000Y-122572500D01*
X76810000Y-122572500D02*
X76810000Y-120287500D01*
%TO.C,REF\u002A\u002A24*%
X84340000Y-42287500D02*
X84340000Y-44572500D01*
X84340000Y-44572500D02*
X85810000Y-44572500D01*
X85810000Y-44572500D02*
X85810000Y-42287500D01*
%TO.C,REF\u002A\u002A68*%
X90340000Y-48287500D02*
X90340000Y-50572500D01*
X90340000Y-50572500D02*
X91810000Y-50572500D01*
X91810000Y-50572500D02*
X91810000Y-48287500D01*
%TO.C,REF\u002A\u002A315*%
X99340000Y-84287500D02*
X99340000Y-86572500D01*
X99340000Y-86572500D02*
X100810000Y-86572500D01*
X100810000Y-86572500D02*
X100810000Y-84287500D01*
%TO.C,REF\u002A\u002A369*%
X63340000Y-99287500D02*
X63340000Y-101572500D01*
X63340000Y-101572500D02*
X64810000Y-101572500D01*
X64810000Y-101572500D02*
X64810000Y-99287500D01*
%TO.C,REF\u002A\u002A537*%
X75340000Y-123287500D02*
X75340000Y-125572500D01*
X75340000Y-125572500D02*
X76810000Y-125572500D01*
X76810000Y-125572500D02*
X76810000Y-123287500D01*
%TO.C,REF\u002A\u002A140*%
X78340000Y-60287500D02*
X78340000Y-62572500D01*
X78340000Y-62572500D02*
X79810000Y-62572500D01*
X79810000Y-62572500D02*
X79810000Y-60287500D01*
%TO.C,REF\u002A\u002A529*%
X63340000Y-123287500D02*
X63340000Y-125572500D01*
X63340000Y-125572500D02*
X64810000Y-125572500D01*
X64810000Y-125572500D02*
X64810000Y-123287500D01*
%TO.C,REF\u002A\u002A197*%
X105340000Y-69287500D02*
X105340000Y-71572500D01*
X105340000Y-71572500D02*
X106810000Y-71572500D01*
X106810000Y-71572500D02*
X106810000Y-69287500D01*
%TO.C,REF\u002A\u002A213*%
X69340000Y-75287500D02*
X69340000Y-77572500D01*
X69340000Y-77572500D02*
X70810000Y-77572500D01*
X70810000Y-77572500D02*
X70810000Y-75287500D01*
%TO.C,REF\u002A\u002A220*%
X78340000Y-72287500D02*
X78340000Y-74572500D01*
X78340000Y-74572500D02*
X79810000Y-74572500D01*
X79810000Y-74572500D02*
X79810000Y-72287500D01*
%TO.C,REF\u002A\u002A157*%
X105340000Y-63287500D02*
X105340000Y-65572500D01*
X105340000Y-65572500D02*
X106810000Y-65572500D01*
X106810000Y-65572500D02*
X106810000Y-63287500D01*
%TO.C,REF\u002A\u002A305*%
X87340000Y-87287500D02*
X87340000Y-89572500D01*
X87340000Y-89572500D02*
X88810000Y-89572500D01*
X88810000Y-89572500D02*
X88810000Y-87287500D01*
%TO.C,REF\u002A\u002A297*%
X75340000Y-87287500D02*
X75340000Y-89572500D01*
X75340000Y-89572500D02*
X76810000Y-89572500D01*
X76810000Y-89572500D02*
X76810000Y-87287500D01*
%TO.C,REF\u002A\u002A324*%
X54340000Y-90287500D02*
X54340000Y-92572500D01*
X54340000Y-92572500D02*
X55810000Y-92572500D01*
X55810000Y-92572500D02*
X55810000Y-90287500D01*
%TO.C,REF\u002A\u002A458*%
X78340000Y-111287500D02*
X78340000Y-113572500D01*
X78340000Y-113572500D02*
X79810000Y-113572500D01*
X79810000Y-113572500D02*
X79810000Y-111287500D01*
%TO.C,REF\u002A\u002A285*%
X57340000Y-87287500D02*
X57340000Y-89572500D01*
X57340000Y-89572500D02*
X58810000Y-89572500D01*
X58810000Y-89572500D02*
X58810000Y-87287500D01*
%TO.C,Rn1*%
X88077500Y-139754724D02*
X88077500Y-139245276D01*
X89122500Y-139754724D02*
X89122500Y-139245276D01*
%TO.C,REF\u002A\u002A495*%
X69340000Y-114287500D02*
X69340000Y-116572500D01*
X69340000Y-116572500D02*
X70810000Y-116572500D01*
X70810000Y-116572500D02*
X70810000Y-114287500D01*
%TO.C,REF\u002A\u002A422*%
X84340000Y-105287500D02*
X84340000Y-107572500D01*
X84340000Y-107572500D02*
X85810000Y-107572500D01*
X85810000Y-107572500D02*
X85810000Y-105287500D01*
%TO.C,REF\u002A\u002A49*%
X63340000Y-51287500D02*
X63340000Y-53572500D01*
X63340000Y-53572500D02*
X64810000Y-53572500D01*
X64810000Y-53572500D02*
X64810000Y-51287500D01*
%TO.C,REF\u002A\u002A262*%
X84340000Y-81287500D02*
X84340000Y-83572500D01*
X84340000Y-83572500D02*
X85810000Y-83572500D01*
X85810000Y-83572500D02*
X85810000Y-81287500D01*
%TO.C,REF\u002A\u002A440*%
X108340000Y-102287500D02*
X108340000Y-104572500D01*
X108340000Y-104572500D02*
X109810000Y-104572500D01*
X109810000Y-104572500D02*
X109810000Y-102287500D01*
%TO.C,REF\u002A\u002A45*%
X57340000Y-51287500D02*
X57340000Y-53572500D01*
X57340000Y-53572500D02*
X58810000Y-53572500D01*
X58810000Y-53572500D02*
X58810000Y-51287500D01*
%TO.C,REF\u002A\u002A247*%
X57340000Y-78287500D02*
X57340000Y-80572500D01*
X57340000Y-80572500D02*
X58810000Y-80572500D01*
X58810000Y-80572500D02*
X58810000Y-78287500D01*
%TO.C,REF\u002A\u002A226*%
X90340000Y-75287500D02*
X90340000Y-77572500D01*
X90340000Y-77572500D02*
X91810000Y-77572500D01*
X91810000Y-77572500D02*
X91810000Y-75287500D01*
%TO.C,REF\u002A\u002A184*%
X84340000Y-66287500D02*
X84340000Y-68572500D01*
X84340000Y-68572500D02*
X85810000Y-68572500D01*
X85810000Y-68572500D02*
X85810000Y-66287500D01*
%TO.C,REF\u002A\u002A441*%
X51340000Y-111287500D02*
X51340000Y-113572500D01*
X51340000Y-113572500D02*
X52810000Y-113572500D01*
X52810000Y-113572500D02*
X52810000Y-111287500D01*
%TO.C,REF\u002A\u002A167*%
X57340000Y-66287500D02*
X57340000Y-68572500D01*
X57340000Y-68572500D02*
X58810000Y-68572500D01*
X58810000Y-68572500D02*
X58810000Y-66287500D01*
%TO.C,REF\u002A\u002A155*%
X99340000Y-60287500D02*
X99340000Y-62572500D01*
X99340000Y-62572500D02*
X100810000Y-62572500D01*
X100810000Y-62572500D02*
X100810000Y-60287500D01*
%TO.C,REF\u002A\u002A26*%
X90340000Y-45287500D02*
X90340000Y-47572500D01*
X90340000Y-47572500D02*
X91810000Y-47572500D01*
X91810000Y-47572500D02*
X91810000Y-45287500D01*
%TO.C,REF\u002A\u002A10*%
X66340000Y-45287500D02*
X66340000Y-47572500D01*
X66340000Y-47572500D02*
X67810000Y-47572500D01*
X67810000Y-47572500D02*
X67810000Y-45287500D01*
%TO.C,REF\u002A\u002A482*%
X54340000Y-117287500D02*
X54340000Y-119572500D01*
X54340000Y-119572500D02*
X55810000Y-119572500D01*
X55810000Y-119572500D02*
X55810000Y-117287500D01*
%TO.C,REF\u002A\u002A221*%
X81340000Y-75287500D02*
X81340000Y-77572500D01*
X81340000Y-77572500D02*
X82810000Y-77572500D01*
X82810000Y-77572500D02*
X82810000Y-75287500D01*
%TO.C,REF\u002A\u002A205*%
X57340000Y-75287500D02*
X57340000Y-77572500D01*
X57340000Y-77572500D02*
X58810000Y-77572500D01*
X58810000Y-77572500D02*
X58810000Y-75287500D01*
%TO.C,REF\u002A\u002A353*%
X99340000Y-93287500D02*
X99340000Y-95572500D01*
X99340000Y-95572500D02*
X100810000Y-95572500D01*
X100810000Y-95572500D02*
X100810000Y-93287500D01*
%TO.C,REF\u002A\u002A373*%
X69340000Y-99287500D02*
X69340000Y-101572500D01*
X69340000Y-101572500D02*
X70810000Y-101572500D01*
X70810000Y-101572500D02*
X70810000Y-99287500D01*
%TO.C,REF\u002A\u002A550*%
X96340000Y-123287500D02*
X96340000Y-125572500D01*
X96340000Y-125572500D02*
X97810000Y-125572500D01*
X97810000Y-125572500D02*
X97810000Y-123287500D01*
%TO.C,REF\u002A\u002A519*%
X105340000Y-114287500D02*
X105340000Y-116572500D01*
X105340000Y-116572500D02*
X106810000Y-116572500D01*
X106810000Y-116572500D02*
X106810000Y-114287500D01*
%TO.C,REF\u002A\u002A531*%
X63340000Y-120287500D02*
X63340000Y-122572500D01*
X63340000Y-122572500D02*
X64810000Y-122572500D01*
X64810000Y-122572500D02*
X64810000Y-120287500D01*
%TO.C,REF\u002A\u002A64*%
X84340000Y-48287500D02*
X84340000Y-50572500D01*
X84340000Y-50572500D02*
X85810000Y-50572500D01*
X85810000Y-50572500D02*
X85810000Y-48287500D01*
%TO.C,REF\u002A\u002A146*%
X90340000Y-63287500D02*
X90340000Y-65572500D01*
X90340000Y-65572500D02*
X91810000Y-65572500D01*
X91810000Y-65572500D02*
X91810000Y-63287500D01*
%TO.C,REF\u002A\u002A100*%
X78340000Y-54287500D02*
X78340000Y-56572500D01*
X78340000Y-56572500D02*
X79810000Y-56572500D01*
X79810000Y-56572500D02*
X79810000Y-54287500D01*
%TO.C,REF\u002A\u002A222*%
X84340000Y-75287500D02*
X84340000Y-77572500D01*
X84340000Y-77572500D02*
X85810000Y-77572500D01*
X85810000Y-77572500D02*
X85810000Y-75287500D01*
%TO.C,REF\u002A\u002A425*%
X87340000Y-105287500D02*
X87340000Y-107572500D01*
X87340000Y-107572500D02*
X88810000Y-107572500D01*
X88810000Y-107572500D02*
X88810000Y-105287500D01*
%TO.C,REF\u002A\u002A3*%
X51340000Y-42287500D02*
X51340000Y-44572500D01*
X51340000Y-44572500D02*
X52810000Y-44572500D01*
X52810000Y-44572500D02*
X52810000Y-42287500D01*
%TO.C,REF\u002A\u002A260*%
X78340000Y-78287500D02*
X78340000Y-80572500D01*
X78340000Y-80572500D02*
X79810000Y-80572500D01*
X79810000Y-80572500D02*
X79810000Y-78287500D01*
%TO.C,REF\u002A\u002A151*%
X93340000Y-60287500D02*
X93340000Y-62572500D01*
X93340000Y-62572500D02*
X94810000Y-62572500D01*
X94810000Y-62572500D02*
X94810000Y-60287500D01*
%TO.C,REF\u002A\u002A461*%
X81340000Y-111287500D02*
X81340000Y-113572500D01*
X81340000Y-113572500D02*
X82810000Y-113572500D01*
X82810000Y-113572500D02*
X82810000Y-111287500D01*
%TO.C,REF\u002A\u002A474*%
X102340000Y-111287500D02*
X102340000Y-113572500D01*
X102340000Y-113572500D02*
X103810000Y-113572500D01*
X103810000Y-113572500D02*
X103810000Y-111287500D01*
%TO.C,REF\u002A\u002A347*%
X87340000Y-90287500D02*
X87340000Y-92572500D01*
X87340000Y-92572500D02*
X88810000Y-92572500D01*
X88810000Y-92572500D02*
X88810000Y-90287500D01*
%TO.C,C12*%
X98415000Y-132122164D02*
X98415000Y-132337836D01*
X99135000Y-132122164D02*
X99135000Y-132337836D01*
%TO.C,REF\u002A\u002A312*%
X96340000Y-84287500D02*
X96340000Y-86572500D01*
X96340000Y-86572500D02*
X97810000Y-86572500D01*
X97810000Y-86572500D02*
X97810000Y-84287500D01*
%TO.C,REF\u002A\u002A111*%
X93340000Y-54287500D02*
X93340000Y-56572500D01*
X93340000Y-56572500D02*
X94810000Y-56572500D01*
X94810000Y-56572500D02*
X94810000Y-54287500D01*
%TO.C,REF\u002A\u002A106*%
X90340000Y-57287500D02*
X90340000Y-59572500D01*
X90340000Y-59572500D02*
X91810000Y-59572500D01*
X91810000Y-59572500D02*
X91810000Y-57287500D01*
%TO.C,REF\u002A\u002A149*%
X93340000Y-63287500D02*
X93340000Y-65572500D01*
X93340000Y-65572500D02*
X94810000Y-65572500D01*
X94810000Y-65572500D02*
X94810000Y-63287500D01*
%TO.C,REF\u002A\u002A19*%
X75340000Y-42287500D02*
X75340000Y-44572500D01*
X75340000Y-44572500D02*
X76810000Y-44572500D01*
X76810000Y-44572500D02*
X76810000Y-42287500D01*
%TO.C,REF\u002A\u002A39*%
X105340000Y-42287500D02*
X105340000Y-44572500D01*
X105340000Y-44572500D02*
X106810000Y-44572500D01*
X106810000Y-44572500D02*
X106810000Y-42287500D01*
%TO.C,REF\u002A\u002A475*%
X99340000Y-108287500D02*
X99340000Y-110572500D01*
X99340000Y-110572500D02*
X100810000Y-110572500D01*
X100810000Y-110572500D02*
X100810000Y-108287500D01*
%TO.C,REF\u002A\u002A476*%
X102340000Y-108287500D02*
X102340000Y-110572500D01*
X102340000Y-110572500D02*
X103810000Y-110572500D01*
X103810000Y-110572500D02*
X103810000Y-108287500D01*
%TO.C,REF\u002A\u002A465*%
X87340000Y-111287500D02*
X87340000Y-113572500D01*
X87340000Y-113572500D02*
X88810000Y-113572500D01*
X88810000Y-113572500D02*
X88810000Y-111287500D01*
%TO.C,REF\u002A\u002A542*%
X84340000Y-123287500D02*
X84340000Y-125572500D01*
X84340000Y-125572500D02*
X85810000Y-125572500D01*
X85810000Y-125572500D02*
X85810000Y-123287500D01*
%TO.C,REF\u002A\u002A42*%
X54340000Y-51287500D02*
X54340000Y-53572500D01*
X54340000Y-53572500D02*
X55810000Y-53572500D01*
X55810000Y-53572500D02*
X55810000Y-51287500D01*
%TO.C,REF\u002A\u002A333*%
X69340000Y-93287500D02*
X69340000Y-95572500D01*
X69340000Y-95572500D02*
X70810000Y-95572500D01*
X70810000Y-95572500D02*
X70810000Y-93287500D01*
%TO.C,REF\u002A\u002A317*%
X105340000Y-87287500D02*
X105340000Y-89572500D01*
X105340000Y-89572500D02*
X106810000Y-89572500D01*
X106810000Y-89572500D02*
X106810000Y-87287500D01*
%TO.C,REF\u002A\u002A437*%
X105340000Y-105287500D02*
X105340000Y-107572500D01*
X105340000Y-107572500D02*
X106810000Y-107572500D01*
X106810000Y-107572500D02*
X106810000Y-105287500D01*
%TO.C,REF\u002A\u002A516*%
X102340000Y-114287500D02*
X102340000Y-116572500D01*
X102340000Y-116572500D02*
X103810000Y-116572500D01*
X103810000Y-116572500D02*
X103810000Y-114287500D01*
%TO.C,REF\u002A\u002A462*%
X84340000Y-111287500D02*
X84340000Y-113572500D01*
X84340000Y-113572500D02*
X85810000Y-113572500D01*
X85810000Y-113572500D02*
X85810000Y-111287500D01*
%TO.C,REF\u002A\u002A445*%
X57340000Y-111287500D02*
X57340000Y-113572500D01*
X57340000Y-113572500D02*
X58810000Y-113572500D01*
X58810000Y-113572500D02*
X58810000Y-111287500D01*
%TO.C,REF\u002A\u002A513*%
X99340000Y-117287500D02*
X99340000Y-119572500D01*
X99340000Y-119572500D02*
X100810000Y-119572500D01*
X100810000Y-119572500D02*
X100810000Y-117287500D01*
%TO.C,REF\u002A\u002A427*%
X87340000Y-102287500D02*
X87340000Y-104572500D01*
X87340000Y-104572500D02*
X88810000Y-104572500D01*
X88810000Y-104572500D02*
X88810000Y-102287500D01*
%TO.C,REF\u002A\u002A30*%
X96340000Y-45287500D02*
X96340000Y-47572500D01*
X96340000Y-47572500D02*
X97810000Y-47572500D01*
X97810000Y-47572500D02*
X97810000Y-45287500D01*
%TO.C,REF\u002A\u002A392*%
X96340000Y-96287500D02*
X96340000Y-98572500D01*
X96340000Y-98572500D02*
X97810000Y-98572500D01*
X97810000Y-98572500D02*
X97810000Y-96287500D01*
%TO.C,REF\u002A\u002A174*%
X72340000Y-69287500D02*
X72340000Y-71572500D01*
X72340000Y-71572500D02*
X73810000Y-71572500D01*
X73810000Y-71572500D02*
X73810000Y-69287500D01*
%TO.C,REF\u002A\u002A33*%
X99340000Y-45287500D02*
X99340000Y-47572500D01*
X99340000Y-47572500D02*
X100810000Y-47572500D01*
X100810000Y-47572500D02*
X100810000Y-45287500D01*
%TO.C,REF\u002A\u002A460*%
X78340000Y-108287500D02*
X78340000Y-110572500D01*
X78340000Y-110572500D02*
X79810000Y-110572500D01*
X79810000Y-110572500D02*
X79810000Y-108287500D01*
%TO.C,REF\u002A\u002A518*%
X108340000Y-117287500D02*
X108340000Y-119572500D01*
X108340000Y-119572500D02*
X109810000Y-119572500D01*
X109810000Y-119572500D02*
X109810000Y-117287500D01*
%TO.C,REF\u002A\u002A54*%
X72340000Y-51287500D02*
X72340000Y-53572500D01*
X72340000Y-53572500D02*
X73810000Y-53572500D01*
X73810000Y-53572500D02*
X73810000Y-51287500D01*
%TO.C,REF\u002A\u002A325*%
X57340000Y-93287500D02*
X57340000Y-95572500D01*
X57340000Y-95572500D02*
X58810000Y-95572500D01*
X58810000Y-95572500D02*
X58810000Y-93287500D01*
%TO.C,REF\u002A\u002A116*%
X102340000Y-54287500D02*
X102340000Y-56572500D01*
X102340000Y-56572500D02*
X103810000Y-56572500D01*
X103810000Y-56572500D02*
X103810000Y-54287500D01*
%TO.C,REF\u002A\u002A178*%
X78340000Y-69287500D02*
X78340000Y-71572500D01*
X78340000Y-71572500D02*
X79810000Y-71572500D01*
X79810000Y-71572500D02*
X79810000Y-69287500D01*
%TO.C,REF\u002A\u002A245*%
X57340000Y-81287500D02*
X57340000Y-83572500D01*
X57340000Y-83572500D02*
X58810000Y-83572500D01*
X58810000Y-83572500D02*
X58810000Y-81287500D01*
%TO.C,REF\u002A\u002A505*%
X87340000Y-117287500D02*
X87340000Y-119572500D01*
X87340000Y-119572500D02*
X88810000Y-119572500D01*
X88810000Y-119572500D02*
X88810000Y-117287500D01*
%TO.C,REF\u002A\u002A280*%
X108340000Y-78287500D02*
X108340000Y-80572500D01*
X108340000Y-80572500D02*
X109810000Y-80572500D01*
X109810000Y-80572500D02*
X109810000Y-78287500D01*
%TO.C,REF\u002A\u002A189*%
X93340000Y-69287500D02*
X93340000Y-71572500D01*
X93340000Y-71572500D02*
X94810000Y-71572500D01*
X94810000Y-71572500D02*
X94810000Y-69287500D01*
%TO.C,REF\u002A\u002A323*%
X51340000Y-90287500D02*
X51340000Y-92572500D01*
X51340000Y-92572500D02*
X52810000Y-92572500D01*
X52810000Y-92572500D02*
X52810000Y-90287500D01*
%TO.C,REF\u002A\u002A277*%
X105340000Y-81287500D02*
X105340000Y-83572500D01*
X105340000Y-83572500D02*
X106810000Y-83572500D01*
X106810000Y-83572500D02*
X106810000Y-81287500D01*
%TO.C,REF\u002A\u002A406*%
X60340000Y-105287500D02*
X60340000Y-107572500D01*
X60340000Y-107572500D02*
X61810000Y-107572500D01*
X61810000Y-107572500D02*
X61810000Y-105287500D01*
%TO.C,REF\u002A\u002A430*%
X96340000Y-105287500D02*
X96340000Y-107572500D01*
X96340000Y-107572500D02*
X97810000Y-107572500D01*
X97810000Y-107572500D02*
X97810000Y-105287500D01*
%TO.C,REF\u002A\u002A481*%
X51340000Y-117287500D02*
X51340000Y-119572500D01*
X51340000Y-119572500D02*
X52810000Y-119572500D01*
X52810000Y-119572500D02*
X52810000Y-117287500D01*
%TO.C,REF\u002A\u002A256*%
X72340000Y-78287500D02*
X72340000Y-80572500D01*
X72340000Y-80572500D02*
X73810000Y-80572500D01*
X73810000Y-80572500D02*
X73810000Y-78287500D01*
%TO.C,REF\u002A\u002A32*%
X96340000Y-42287500D02*
X96340000Y-44572500D01*
X96340000Y-44572500D02*
X97810000Y-44572500D01*
X97810000Y-44572500D02*
X97810000Y-42287500D01*
%TO.C,REF\u002A\u002A466*%
X90340000Y-111287500D02*
X90340000Y-113572500D01*
X90340000Y-113572500D02*
X91810000Y-113572500D01*
X91810000Y-113572500D02*
X91810000Y-111287500D01*
%TO.C,REF\u002A\u002A335*%
X69340000Y-90287500D02*
X69340000Y-92572500D01*
X69340000Y-92572500D02*
X70810000Y-92572500D01*
X70810000Y-92572500D02*
X70810000Y-90287500D01*
%TO.C,REF\u002A\u002A147*%
X87340000Y-60287500D02*
X87340000Y-62572500D01*
X87340000Y-62572500D02*
X88810000Y-62572500D01*
X88810000Y-62572500D02*
X88810000Y-60287500D01*
%TO.C,REF\u002A\u002A488*%
X60340000Y-114287500D02*
X60340000Y-116572500D01*
X60340000Y-116572500D02*
X61810000Y-116572500D01*
X61810000Y-116572500D02*
X61810000Y-114287500D01*
D14*
%TO.C,X1*%
X85196500Y-137249365D02*
X87653500Y-137249365D01*
X85196500Y-138706365D02*
X85196500Y-137249365D01*
X87653500Y-137249365D02*
X87653500Y-138706365D01*
X87653500Y-138706365D02*
X85196500Y-138706365D01*
D13*
%TO.C,REF\u002A\u002A387*%
X87340000Y-96287500D02*
X87340000Y-98572500D01*
X87340000Y-98572500D02*
X88810000Y-98572500D01*
X88810000Y-98572500D02*
X88810000Y-96287500D01*
%TO.C,REF\u002A\u002A83*%
X51340000Y-54287500D02*
X51340000Y-56572500D01*
X51340000Y-56572500D02*
X52810000Y-56572500D01*
X52810000Y-56572500D02*
X52810000Y-54287500D01*
%TO.C,REF\u002A\u002A389*%
X93340000Y-99287500D02*
X93340000Y-101572500D01*
X93340000Y-101572500D02*
X94810000Y-101572500D01*
X94810000Y-101572500D02*
X94810000Y-99287500D01*
%TO.C,REF\u002A\u002A330*%
X66340000Y-93287500D02*
X66340000Y-95572500D01*
X66340000Y-95572500D02*
X67810000Y-95572500D01*
X67810000Y-95572500D02*
X67810000Y-93287500D01*
%TO.C,REF\u002A\u002A194*%
X102340000Y-69287500D02*
X102340000Y-71572500D01*
X102340000Y-71572500D02*
X103810000Y-71572500D01*
X103810000Y-71572500D02*
X103810000Y-69287500D01*
%TO.C,REF\u002A\u002A148*%
X90340000Y-60287500D02*
X90340000Y-62572500D01*
X90340000Y-62572500D02*
X91810000Y-62572500D01*
X91810000Y-62572500D02*
X91810000Y-60287500D01*
%TO.C,REF\u002A\u002A442*%
X54340000Y-111287500D02*
X54340000Y-113572500D01*
X54340000Y-113572500D02*
X55810000Y-113572500D01*
X55810000Y-113572500D02*
X55810000Y-111287500D01*
%TO.C,REF\u002A\u002A386*%
X90340000Y-99287500D02*
X90340000Y-101572500D01*
X90340000Y-101572500D02*
X91810000Y-101572500D01*
X91810000Y-101572500D02*
X91810000Y-99287500D01*
%TO.C,REF\u002A\u002A416*%
X72340000Y-102287500D02*
X72340000Y-104572500D01*
X72340000Y-104572500D02*
X73810000Y-104572500D01*
X73810000Y-104572500D02*
X73810000Y-102287500D01*
%TO.C,REF\u002A\u002A237*%
X105340000Y-75287500D02*
X105340000Y-77572500D01*
X105340000Y-77572500D02*
X106810000Y-77572500D01*
X106810000Y-77572500D02*
X106810000Y-75287500D01*
%TO.C,C11*%
X86167224Y-139055365D02*
X85657776Y-139055365D01*
X86167224Y-140100365D02*
X85657776Y-140100365D01*
%TO.C,REF\u002A\u002A60*%
X78340000Y-48287500D02*
X78340000Y-50572500D01*
X78340000Y-50572500D02*
X79810000Y-50572500D01*
X79810000Y-50572500D02*
X79810000Y-48287500D01*
%TO.C,REF\u002A\u002A238*%
X108340000Y-75287500D02*
X108340000Y-77572500D01*
X108340000Y-77572500D02*
X109810000Y-77572500D01*
X109810000Y-77572500D02*
X109810000Y-75287500D01*
%TO.C,REF\u002A\u002A11*%
X63340000Y-42287500D02*
X63340000Y-44572500D01*
X63340000Y-44572500D02*
X64810000Y-44572500D01*
X64810000Y-44572500D02*
X64810000Y-42287500D01*
%TO.C,REF\u002A\u002A491*%
X63340000Y-114287500D02*
X63340000Y-116572500D01*
X63340000Y-116572500D02*
X64810000Y-116572500D01*
X64810000Y-116572500D02*
X64810000Y-114287500D01*
%TO.C,REF\u002A\u002A361*%
X51340000Y-99287500D02*
X51340000Y-101572500D01*
X51340000Y-101572500D02*
X52810000Y-101572500D01*
X52810000Y-101572500D02*
X52810000Y-99287500D01*
%TO.C,REF\u002A\u002A372*%
X66340000Y-96287500D02*
X66340000Y-98572500D01*
X66340000Y-98572500D02*
X67810000Y-98572500D01*
X67810000Y-98572500D02*
X67810000Y-96287500D01*
%TO.C,REF\u002A\u002A137*%
X75340000Y-63287500D02*
X75340000Y-65572500D01*
X75340000Y-65572500D02*
X76810000Y-65572500D01*
X76810000Y-65572500D02*
X76810000Y-63287500D01*
%TO.C,REF\u002A\u002A77*%
X105340000Y-51287500D02*
X105340000Y-53572500D01*
X105340000Y-53572500D02*
X106810000Y-53572500D01*
X106810000Y-53572500D02*
X106810000Y-51287500D01*
%TO.C,REF\u002A\u002A366*%
X60340000Y-99287500D02*
X60340000Y-101572500D01*
X60340000Y-101572500D02*
X61810000Y-101572500D01*
X61810000Y-101572500D02*
X61810000Y-99287500D01*
%TO.C,REF\u002A\u002A74*%
X102340000Y-51287500D02*
X102340000Y-53572500D01*
X102340000Y-53572500D02*
X103810000Y-53572500D01*
X103810000Y-53572500D02*
X103810000Y-51287500D01*
%TO.C,REF\u002A\u002A166*%
X60340000Y-69287500D02*
X60340000Y-71572500D01*
X60340000Y-71572500D02*
X61810000Y-71572500D01*
X61810000Y-71572500D02*
X61810000Y-69287500D01*
%TO.C,REF\u002A\u002A408*%
X60340000Y-102287500D02*
X60340000Y-104572500D01*
X60340000Y-104572500D02*
X61810000Y-104572500D01*
X61810000Y-104572500D02*
X61810000Y-102287500D01*
%TO.C,REF\u002A\u002A37*%
X105340000Y-45287500D02*
X105340000Y-47572500D01*
X105340000Y-47572500D02*
X106810000Y-47572500D01*
X106810000Y-47572500D02*
X106810000Y-45287500D01*
%TO.C,REF\u002A\u002A489*%
X63340000Y-117287500D02*
X63340000Y-119572500D01*
X63340000Y-119572500D02*
X64810000Y-119572500D01*
X64810000Y-119572500D02*
X64810000Y-117287500D01*
%TO.C,REF\u002A\u002A293*%
X69340000Y-87287500D02*
X69340000Y-89572500D01*
X69340000Y-89572500D02*
X70810000Y-89572500D01*
X70810000Y-89572500D02*
X70810000Y-87287500D01*
%TO.C,REF\u002A\u002A486*%
X60340000Y-117287500D02*
X60340000Y-119572500D01*
X60340000Y-119572500D02*
X61810000Y-119572500D01*
X61810000Y-119572500D02*
X61810000Y-117287500D01*
%TO.C,REF\u002A\u002A483*%
X51340000Y-114287500D02*
X51340000Y-116572500D01*
X51340000Y-116572500D02*
X52810000Y-116572500D01*
X52810000Y-116572500D02*
X52810000Y-114287500D01*
%TO.C,REF\u002A\u002A467*%
X87340000Y-108287500D02*
X87340000Y-110572500D01*
X87340000Y-110572500D02*
X88810000Y-110572500D01*
X88810000Y-110572500D02*
X88810000Y-108287500D01*
%TO.C,REF\u002A\u002A76*%
X102340000Y-48287500D02*
X102340000Y-50572500D01*
X102340000Y-50572500D02*
X103810000Y-50572500D01*
X103810000Y-50572500D02*
X103810000Y-48287500D01*
%TO.C,REF\u002A\u002A183*%
X81340000Y-66287500D02*
X81340000Y-68572500D01*
X81340000Y-68572500D02*
X82810000Y-68572500D01*
X82810000Y-68572500D02*
X82810000Y-66287500D01*
%TO.C,REF\u002A\u002A314*%
X102340000Y-87287500D02*
X102340000Y-89572500D01*
X102340000Y-89572500D02*
X103810000Y-89572500D01*
X103810000Y-89572500D02*
X103810000Y-87287500D01*
%TO.C,REF\u002A\u002A424*%
X84340000Y-102287500D02*
X84340000Y-104572500D01*
X84340000Y-104572500D02*
X85810000Y-104572500D01*
X85810000Y-104572500D02*
X85810000Y-102287500D01*
%TO.C,REF\u002A\u002A160*%
X108340000Y-60287500D02*
X108340000Y-62572500D01*
X108340000Y-62572500D02*
X109810000Y-62572500D01*
X109810000Y-62572500D02*
X109810000Y-60287500D01*
%TO.C,REF\u002A\u002A360*%
X108340000Y-90287500D02*
X108340000Y-92572500D01*
X108340000Y-92572500D02*
X109810000Y-92572500D01*
X109810000Y-92572500D02*
X109810000Y-90287500D01*
%TO.C,REF\u002A\u002A275*%
X99340000Y-78287500D02*
X99340000Y-80572500D01*
X99340000Y-80572500D02*
X100810000Y-80572500D01*
X100810000Y-80572500D02*
X100810000Y-78287500D01*
%TO.C,REF\u002A\u002A125*%
X57340000Y-63287500D02*
X57340000Y-65572500D01*
X57340000Y-65572500D02*
X58810000Y-65572500D01*
X58810000Y-65572500D02*
X58810000Y-63287500D01*
%TO.C,REF\u002A\u002A22*%
X84340000Y-45287500D02*
X84340000Y-47572500D01*
X84340000Y-47572500D02*
X85810000Y-47572500D01*
X85810000Y-47572500D02*
X85810000Y-45287500D01*
%TO.C,REF\u002A\u002A62*%
X84340000Y-51287500D02*
X84340000Y-53572500D01*
X84340000Y-53572500D02*
X85810000Y-53572500D01*
X85810000Y-53572500D02*
X85810000Y-51287500D01*
%TO.C,REF\u002A\u002A120*%
X108340000Y-54287500D02*
X108340000Y-56572500D01*
X108340000Y-56572500D02*
X109810000Y-56572500D01*
X109810000Y-56572500D02*
X109810000Y-54287500D01*
%TO.C,REF\u002A\u002A182*%
X84340000Y-69287500D02*
X84340000Y-71572500D01*
X84340000Y-71572500D02*
X85810000Y-71572500D01*
X85810000Y-71572500D02*
X85810000Y-69287500D01*
%TO.C,REF\u002A\u002A108*%
X90340000Y-54287500D02*
X90340000Y-56572500D01*
X90340000Y-56572500D02*
X91810000Y-56572500D01*
X91810000Y-56572500D02*
X91810000Y-54287500D01*
%TO.C,REF\u002A\u002A311*%
X93340000Y-84287500D02*
X93340000Y-86572500D01*
X93340000Y-86572500D02*
X94810000Y-86572500D01*
X94810000Y-86572500D02*
X94810000Y-84287500D01*
%TO.C,REF\u002A\u002A433*%
X99340000Y-105287500D02*
X99340000Y-107572500D01*
X99340000Y-107572500D02*
X100810000Y-107572500D01*
X100810000Y-107572500D02*
X100810000Y-105287500D01*
%TO.C,REF\u002A\u002A501*%
X81340000Y-117287500D02*
X81340000Y-119572500D01*
X81340000Y-119572500D02*
X82810000Y-119572500D01*
X82810000Y-119572500D02*
X82810000Y-117287500D01*
%TO.C,REF\u002A\u002A47*%
X57340000Y-48287500D02*
X57340000Y-50572500D01*
X57340000Y-50572500D02*
X58810000Y-50572500D01*
X58810000Y-50572500D02*
X58810000Y-48287500D01*
%TO.C,REF\u002A\u002A383*%
X81340000Y-96287500D02*
X81340000Y-98572500D01*
X81340000Y-98572500D02*
X82810000Y-98572500D01*
X82810000Y-98572500D02*
X82810000Y-96287500D01*
%TO.C,REF\u002A\u002A227*%
X87340000Y-72287500D02*
X87340000Y-74572500D01*
X87340000Y-74572500D02*
X88810000Y-74572500D01*
X88810000Y-74572500D02*
X88810000Y-72287500D01*
%TO.C,REF\u002A\u002A510*%
X96340000Y-117287500D02*
X96340000Y-119572500D01*
X96340000Y-119572500D02*
X97810000Y-119572500D01*
X97810000Y-119572500D02*
X97810000Y-117287500D01*
%TO.C,REF\u002A\u002A380*%
X78340000Y-96287500D02*
X78340000Y-98572500D01*
X78340000Y-98572500D02*
X79810000Y-98572500D01*
X79810000Y-98572500D02*
X79810000Y-96287500D01*
%TO.C,REF\u002A\u002A326*%
X60340000Y-93287500D02*
X60340000Y-95572500D01*
X60340000Y-95572500D02*
X61810000Y-95572500D01*
X61810000Y-95572500D02*
X61810000Y-93287500D01*
%TO.C,REF\u002A\u002A14*%
X72340000Y-45287500D02*
X72340000Y-47572500D01*
X72340000Y-47572500D02*
X73810000Y-47572500D01*
X73810000Y-47572500D02*
X73810000Y-45287500D01*
%TO.C,REF\u002A\u002A35*%
X99340000Y-42287500D02*
X99340000Y-44572500D01*
X99340000Y-44572500D02*
X100810000Y-44572500D01*
X100810000Y-44572500D02*
X100810000Y-42287500D01*
%TO.C,REF\u002A\u002A235*%
X99340000Y-72287500D02*
X99340000Y-74572500D01*
X99340000Y-74572500D02*
X100810000Y-74572500D01*
X100810000Y-74572500D02*
X100810000Y-72287500D01*
%TO.C,REF\u002A\u002A554*%
X102340000Y-123287500D02*
X102340000Y-125572500D01*
X102340000Y-125572500D02*
X103810000Y-125572500D01*
X103810000Y-125572500D02*
X103810000Y-123287500D01*
%TO.C,REF\u002A\u002A6*%
X60340000Y-45287500D02*
X60340000Y-47572500D01*
X60340000Y-47572500D02*
X61810000Y-47572500D01*
X61810000Y-47572500D02*
X61810000Y-45287500D01*
%TO.C,REF\u002A\u002A69*%
X93340000Y-51287500D02*
X93340000Y-53572500D01*
X93340000Y-53572500D02*
X94810000Y-53572500D01*
X94810000Y-53572500D02*
X94810000Y-51287500D01*
%TO.C,REF\u002A\u002A248*%
X60340000Y-78287500D02*
X60340000Y-80572500D01*
X60340000Y-80572500D02*
X61810000Y-80572500D01*
X61810000Y-80572500D02*
X61810000Y-78287500D01*
%TO.C,REF\u002A\u002A91*%
X63340000Y-54287500D02*
X63340000Y-56572500D01*
X63340000Y-56572500D02*
X64810000Y-56572500D01*
X64810000Y-56572500D02*
X64810000Y-54287500D01*
%TO.C,REF\u002A\u002A477*%
X105340000Y-111287500D02*
X105340000Y-113572500D01*
X105340000Y-113572500D02*
X106810000Y-113572500D01*
X106810000Y-113572500D02*
X106810000Y-111287500D01*
%TO.C,REF\u002A\u002A96*%
X72340000Y-54287500D02*
X72340000Y-56572500D01*
X72340000Y-56572500D02*
X73810000Y-56572500D01*
X73810000Y-56572500D02*
X73810000Y-54287500D01*
%TO.C,REF\u002A\u002A497*%
X75340000Y-117287500D02*
X75340000Y-119572500D01*
X75340000Y-119572500D02*
X76810000Y-119572500D01*
X76810000Y-119572500D02*
X76810000Y-117287500D01*
%TO.C,REF\u002A\u002A371*%
X63340000Y-96287500D02*
X63340000Y-98572500D01*
X63340000Y-98572500D02*
X64810000Y-98572500D01*
X64810000Y-98572500D02*
X64810000Y-96287500D01*
%TO.C,REF\u002A\u002A217*%
X75340000Y-75287500D02*
X75340000Y-77572500D01*
X75340000Y-77572500D02*
X76810000Y-77572500D01*
X76810000Y-77572500D02*
X76810000Y-75287500D01*
%TO.C,REF\u002A\u002A502*%
X84340000Y-117287500D02*
X84340000Y-119572500D01*
X84340000Y-119572500D02*
X85810000Y-119572500D01*
X85810000Y-119572500D02*
X85810000Y-117287500D01*
%TO.C,REF\u002A\u002A350*%
X96340000Y-93287500D02*
X96340000Y-95572500D01*
X96340000Y-95572500D02*
X97810000Y-95572500D01*
X97810000Y-95572500D02*
X97810000Y-93287500D01*
%TO.C,REF\u002A\u002A296*%
X72340000Y-84287500D02*
X72340000Y-86572500D01*
X72340000Y-86572500D02*
X73810000Y-86572500D01*
X73810000Y-86572500D02*
X73810000Y-84287500D01*
%TO.C,REF\u002A\u002A547*%
X87340000Y-120287500D02*
X87340000Y-122572500D01*
X87340000Y-122572500D02*
X88810000Y-122572500D01*
X88810000Y-122572500D02*
X88810000Y-120287500D01*
%TO.C,REF\u002A\u002A17*%
X75340000Y-45287500D02*
X75340000Y-47572500D01*
X75340000Y-47572500D02*
X76810000Y-47572500D01*
X76810000Y-47572500D02*
X76810000Y-45287500D01*
%TO.C,REF\u002A\u002A161*%
X51340000Y-69287500D02*
X51340000Y-71572500D01*
X51340000Y-71572500D02*
X52810000Y-71572500D01*
X52810000Y-71572500D02*
X52810000Y-69287500D01*
%TO.C,REF\u002A\u002A284*%
X54340000Y-84287500D02*
X54340000Y-86572500D01*
X54340000Y-86572500D02*
X55810000Y-86572500D01*
X55810000Y-86572500D02*
X55810000Y-84287500D01*
%TO.C,REF\u002A\u002A172*%
X66340000Y-66287500D02*
X66340000Y-68572500D01*
X66340000Y-68572500D02*
X67810000Y-68572500D01*
X67810000Y-68572500D02*
X67810000Y-66287500D01*
%TO.C,REF\u002A\u002A338*%
X78340000Y-93287500D02*
X78340000Y-95572500D01*
X78340000Y-95572500D02*
X79810000Y-95572500D01*
X79810000Y-95572500D02*
X79810000Y-93287500D01*
%TO.C,REF\u002A\u002A103*%
X81340000Y-54287500D02*
X81340000Y-56572500D01*
X81340000Y-56572500D02*
X82810000Y-56572500D01*
X82810000Y-56572500D02*
X82810000Y-54287500D01*
%TO.C,REF\u002A\u002A58*%
X78340000Y-51287500D02*
X78340000Y-53572500D01*
X78340000Y-53572500D02*
X79810000Y-53572500D01*
X79810000Y-53572500D02*
X79810000Y-51287500D01*
%TO.C,REF\u002A\u002A70*%
X96340000Y-51287500D02*
X96340000Y-53572500D01*
X96340000Y-53572500D02*
X97810000Y-53572500D01*
X97810000Y-53572500D02*
X97810000Y-51287500D01*
%TO.C,REF\u002A\u002A485*%
X57340000Y-117287500D02*
X57340000Y-119572500D01*
X57340000Y-119572500D02*
X58810000Y-119572500D01*
X58810000Y-119572500D02*
X58810000Y-117287500D01*
%TO.C,REF\u002A\u002A299*%
X75340000Y-84287500D02*
X75340000Y-86572500D01*
X75340000Y-86572500D02*
X76810000Y-86572500D01*
X76810000Y-86572500D02*
X76810000Y-84287500D01*
%TO.C,REF\u002A\u002A97*%
X75340000Y-57287500D02*
X75340000Y-59572500D01*
X75340000Y-59572500D02*
X76810000Y-59572500D01*
X76810000Y-59572500D02*
X76810000Y-57287500D01*
%TO.C,REF\u002A\u002A264*%
X84340000Y-78287500D02*
X84340000Y-80572500D01*
X84340000Y-80572500D02*
X85810000Y-80572500D01*
X85810000Y-80572500D02*
X85810000Y-78287500D01*
%TO.C,REF\u002A\u002A355*%
X99340000Y-90287500D02*
X99340000Y-92572500D01*
X99340000Y-92572500D02*
X100810000Y-92572500D01*
X100810000Y-92572500D02*
X100810000Y-90287500D01*
%TO.C,REF\u002A\u002A154*%
X102340000Y-63287500D02*
X102340000Y-65572500D01*
X102340000Y-65572500D02*
X103810000Y-65572500D01*
X103810000Y-65572500D02*
X103810000Y-63287500D01*
%TO.C,REF\u002A\u002A51*%
X63340000Y-48287500D02*
X63340000Y-50572500D01*
X63340000Y-50572500D02*
X64810000Y-50572500D01*
X64810000Y-50572500D02*
X64810000Y-48287500D01*
%TO.C,REF\u002A\u002A426*%
X90340000Y-105287500D02*
X90340000Y-107572500D01*
X90340000Y-107572500D02*
X91810000Y-107572500D01*
X91810000Y-107572500D02*
X91810000Y-105287500D01*
%TO.C,REF\u002A\u002A231*%
X93340000Y-72287500D02*
X93340000Y-74572500D01*
X93340000Y-74572500D02*
X94810000Y-74572500D01*
X94810000Y-74572500D02*
X94810000Y-72287500D01*
%TO.C,REF\u002A\u002A322*%
X54340000Y-93287500D02*
X54340000Y-95572500D01*
X54340000Y-95572500D02*
X55810000Y-95572500D01*
X55810000Y-95572500D02*
X55810000Y-93287500D01*
%TO.C,REF\u002A\u002A141*%
X81340000Y-63287500D02*
X81340000Y-65572500D01*
X81340000Y-65572500D02*
X82810000Y-65572500D01*
X82810000Y-65572500D02*
X82810000Y-63287500D01*
%TO.C,REF\u002A\u002A153*%
X99340000Y-63287500D02*
X99340000Y-65572500D01*
X99340000Y-65572500D02*
X100810000Y-65572500D01*
X100810000Y-65572500D02*
X100810000Y-63287500D01*
%TO.C,REF\u002A\u002A101*%
X81340000Y-57287500D02*
X81340000Y-59572500D01*
X81340000Y-59572500D02*
X82810000Y-59572500D01*
X82810000Y-59572500D02*
X82810000Y-57287500D01*
%TO.C,C15*%
X96652836Y-128817865D02*
X96437164Y-128817865D01*
X96652836Y-129537865D02*
X96437164Y-129537865D01*
%TO.C,REF\u002A\u002A81*%
X51340000Y-57287500D02*
X51340000Y-59572500D01*
X51340000Y-59572500D02*
X52810000Y-59572500D01*
X52810000Y-59572500D02*
X52810000Y-57287500D01*
%TO.C,REF\u002A\u002A249*%
X63340000Y-81287500D02*
X63340000Y-83572500D01*
X63340000Y-83572500D02*
X64810000Y-83572500D01*
X64810000Y-83572500D02*
X64810000Y-81287500D01*
%TO.C,Rn2*%
X71127500Y-133917224D02*
X71127500Y-133407776D01*
X72172500Y-133917224D02*
X72172500Y-133407776D01*
%TO.C,REF\u002A\u002A487*%
X57340000Y-114287500D02*
X57340000Y-116572500D01*
X57340000Y-116572500D02*
X58810000Y-116572500D01*
X58810000Y-116572500D02*
X58810000Y-114287500D01*
%TO.C,REF\u002A\u002A336*%
X72340000Y-90287500D02*
X72340000Y-92572500D01*
X72340000Y-92572500D02*
X73810000Y-92572500D01*
X73810000Y-92572500D02*
X73810000Y-90287500D01*
%TO.C,REF\u002A\u002A29*%
X93340000Y-45287500D02*
X93340000Y-47572500D01*
X93340000Y-47572500D02*
X94810000Y-47572500D01*
X94810000Y-47572500D02*
X94810000Y-45287500D01*
%TO.C,REF\u002A\u002A398*%
X108340000Y-99287500D02*
X108340000Y-101572500D01*
X108340000Y-101572500D02*
X109810000Y-101572500D01*
X109810000Y-101572500D02*
X109810000Y-99287500D01*
%TO.C,REF\u002A\u002A130*%
X66340000Y-63287500D02*
X66340000Y-65572500D01*
X66340000Y-65572500D02*
X67810000Y-65572500D01*
X67810000Y-65572500D02*
X67810000Y-63287500D01*
%TO.C,REF\u002A\u002A156*%
X102340000Y-60287500D02*
X102340000Y-62572500D01*
X102340000Y-62572500D02*
X103810000Y-62572500D01*
X103810000Y-62572500D02*
X103810000Y-60287500D01*
%TO.C,REF\u002A\u002A545*%
X87340000Y-123287500D02*
X87340000Y-125572500D01*
X87340000Y-125572500D02*
X88810000Y-125572500D01*
X88810000Y-125572500D02*
X88810000Y-123287500D01*
%TO.C,REF\u002A\u002A110*%
X96340000Y-57287500D02*
X96340000Y-59572500D01*
X96340000Y-59572500D02*
X97810000Y-59572500D01*
X97810000Y-59572500D02*
X97810000Y-57287500D01*
%TO.C,REF\u002A\u002A536*%
X72340000Y-120287500D02*
X72340000Y-122572500D01*
X72340000Y-122572500D02*
X73810000Y-122572500D01*
X73810000Y-122572500D02*
X73810000Y-120287500D01*
%TO.C,REF\u002A\u002A363*%
X51340000Y-96287500D02*
X51340000Y-98572500D01*
X51340000Y-98572500D02*
X52810000Y-98572500D01*
X52810000Y-98572500D02*
X52810000Y-96287500D01*
%TO.C,REF\u002A\u002A450*%
X66340000Y-111287500D02*
X66340000Y-113572500D01*
X66340000Y-113572500D02*
X67810000Y-113572500D01*
X67810000Y-113572500D02*
X67810000Y-111287500D01*
%TO.C,REF\u002A\u002A436*%
X102340000Y-102287500D02*
X102340000Y-104572500D01*
X102340000Y-104572500D02*
X103810000Y-104572500D01*
X103810000Y-104572500D02*
X103810000Y-102287500D01*
%TO.C,REF\u002A\u002A229*%
X93340000Y-75287500D02*
X93340000Y-77572500D01*
X93340000Y-77572500D02*
X94810000Y-77572500D01*
X94810000Y-77572500D02*
X94810000Y-75287500D01*
%TO.C,REF\u002A\u002A117*%
X105340000Y-57287500D02*
X105340000Y-59572500D01*
X105340000Y-59572500D02*
X106810000Y-59572500D01*
X106810000Y-59572500D02*
X106810000Y-57287500D01*
%TO.C,REF\u002A\u002A540*%
X78340000Y-120287500D02*
X78340000Y-122572500D01*
X78340000Y-122572500D02*
X79810000Y-122572500D01*
X79810000Y-122572500D02*
X79810000Y-120287500D01*
%TO.C,REF\u002A\u002A381*%
X81340000Y-99287500D02*
X81340000Y-101572500D01*
X81340000Y-101572500D02*
X82810000Y-101572500D01*
X82810000Y-101572500D02*
X82810000Y-99287500D01*
%TO.C,REF\u002A\u002A*%
X108340000Y-120287500D02*
X108340000Y-122572500D01*
X108340000Y-122572500D02*
X109810000Y-122572500D01*
X109810000Y-122572500D02*
X109810000Y-120287500D01*
%TO.C,REF\u002A\u002A271*%
X93340000Y-78287500D02*
X93340000Y-80572500D01*
X93340000Y-80572500D02*
X94810000Y-80572500D01*
X94810000Y-80572500D02*
X94810000Y-78287500D01*
%TO.C,REF\u002A\u002A126*%
X60340000Y-63287500D02*
X60340000Y-65572500D01*
X60340000Y-65572500D02*
X61810000Y-65572500D01*
X61810000Y-65572500D02*
X61810000Y-63287500D01*
%TO.C,REF\u002A\u002A102*%
X84340000Y-57287500D02*
X84340000Y-59572500D01*
X84340000Y-59572500D02*
X85810000Y-59572500D01*
X85810000Y-59572500D02*
X85810000Y-57287500D01*
%TO.C,REF\u002A\u002A196*%
X102340000Y-66287500D02*
X102340000Y-68572500D01*
X102340000Y-68572500D02*
X103810000Y-68572500D01*
X103810000Y-68572500D02*
X103810000Y-66287500D01*
%TO.C,REF\u002A\u002A431*%
X93340000Y-102287500D02*
X93340000Y-104572500D01*
X93340000Y-104572500D02*
X94810000Y-104572500D01*
X94810000Y-104572500D02*
X94810000Y-102287500D01*
%TO.C,REF\u002A\u002A493*%
X69340000Y-117287500D02*
X69340000Y-119572500D01*
X69340000Y-119572500D02*
X70810000Y-119572500D01*
X70810000Y-119572500D02*
X70810000Y-117287500D01*
%TO.C,REF\u002A\u002A420*%
X78340000Y-102287500D02*
X78340000Y-104572500D01*
X78340000Y-104572500D02*
X79810000Y-104572500D01*
X79810000Y-104572500D02*
X79810000Y-102287500D01*
%TO.C,REF\u002A\u002A551*%
X93340000Y-120287500D02*
X93340000Y-122572500D01*
X93340000Y-122572500D02*
X94810000Y-122572500D01*
X94810000Y-122572500D02*
X94810000Y-120287500D01*
%TO.C,REF\u002A\u002A63*%
X81340000Y-48287500D02*
X81340000Y-50572500D01*
X81340000Y-50572500D02*
X82810000Y-50572500D01*
X82810000Y-50572500D02*
X82810000Y-48287500D01*
%TO.C,REF\u002A\u002A94*%
X72340000Y-57287500D02*
X72340000Y-59572500D01*
X72340000Y-59572500D02*
X73810000Y-59572500D01*
X73810000Y-59572500D02*
X73810000Y-57287500D01*
%TO.C,REF\u002A\u002A490*%
X66340000Y-117287500D02*
X66340000Y-119572500D01*
X66340000Y-119572500D02*
X67810000Y-119572500D01*
X67810000Y-119572500D02*
X67810000Y-117287500D01*
%TO.C,REF\u002A\u002A382*%
X84340000Y-99287500D02*
X84340000Y-101572500D01*
X84340000Y-101572500D02*
X85810000Y-101572500D01*
X85810000Y-101572500D02*
X85810000Y-99287500D01*
%TO.C,REF\u002A\u002A362*%
X54340000Y-99287500D02*
X54340000Y-101572500D01*
X54340000Y-101572500D02*
X55810000Y-101572500D01*
X55810000Y-101572500D02*
X55810000Y-99287500D01*
%TO.C,REF\u002A\u002A82*%
X54340000Y-57287500D02*
X54340000Y-59572500D01*
X54340000Y-59572500D02*
X55810000Y-59572500D01*
X55810000Y-59572500D02*
X55810000Y-57287500D01*
%TO.C,REF\u002A\u002A177*%
X75340000Y-69287500D02*
X75340000Y-71572500D01*
X75340000Y-71572500D02*
X76810000Y-71572500D01*
X76810000Y-71572500D02*
X76810000Y-69287500D01*
%TO.C,REF\u002A\u002A89*%
X63340000Y-57287500D02*
X63340000Y-59572500D01*
X63340000Y-59572500D02*
X64810000Y-59572500D01*
X64810000Y-59572500D02*
X64810000Y-57287500D01*
%TO.C,REF\u002A\u002A109*%
X93340000Y-57287500D02*
X93340000Y-59572500D01*
X93340000Y-59572500D02*
X94810000Y-59572500D01*
X94810000Y-59572500D02*
X94810000Y-57287500D01*
%TO.C,REF\u002A\u002A92*%
X66340000Y-54287500D02*
X66340000Y-56572500D01*
X66340000Y-56572500D02*
X67810000Y-56572500D01*
X67810000Y-56572500D02*
X67810000Y-54287500D01*
%TO.C,REF\u002A\u002A131*%
X63340000Y-60287500D02*
X63340000Y-62572500D01*
X63340000Y-62572500D02*
X64810000Y-62572500D01*
X64810000Y-62572500D02*
X64810000Y-60287500D01*
%TO.C,REF\u002A\u002A135*%
X69340000Y-60287500D02*
X69340000Y-62572500D01*
X69340000Y-62572500D02*
X70810000Y-62572500D01*
X70810000Y-62572500D02*
X70810000Y-60287500D01*
%TO.C,REF\u002A\u002A418*%
X78340000Y-105287500D02*
X78340000Y-107572500D01*
X78340000Y-107572500D02*
X79810000Y-107572500D01*
X79810000Y-107572500D02*
X79810000Y-105287500D01*
%TO.C,REF\u002A\u002A152*%
X96340000Y-60287500D02*
X96340000Y-62572500D01*
X96340000Y-62572500D02*
X97810000Y-62572500D01*
X97810000Y-62572500D02*
X97810000Y-60287500D01*
%TO.C,REF\u002A\u002A240*%
X108340000Y-72287500D02*
X108340000Y-74572500D01*
X108340000Y-74572500D02*
X109810000Y-74572500D01*
X109810000Y-74572500D02*
X109810000Y-72287500D01*
%TO.C,REF\u002A\u002A351*%
X93340000Y-90287500D02*
X93340000Y-92572500D01*
X93340000Y-92572500D02*
X94810000Y-92572500D01*
X94810000Y-92572500D02*
X94810000Y-90287500D01*
%TO.C,REF\u002A\u002A294*%
X72340000Y-87287500D02*
X72340000Y-89572500D01*
X72340000Y-89572500D02*
X73810000Y-89572500D01*
X73810000Y-89572500D02*
X73810000Y-87287500D01*
%TO.C,REF\u002A\u002A105*%
X87340000Y-57287500D02*
X87340000Y-59572500D01*
X87340000Y-59572500D02*
X88810000Y-59572500D01*
X88810000Y-59572500D02*
X88810000Y-57287500D01*
%TO.C,REF\u002A\u002A515*%
X99340000Y-114287500D02*
X99340000Y-116572500D01*
X99340000Y-116572500D02*
X100810000Y-116572500D01*
X100810000Y-116572500D02*
X100810000Y-114287500D01*
%TO.C,REF\u002A\u002A142*%
X84340000Y-63287500D02*
X84340000Y-65572500D01*
X84340000Y-65572500D02*
X85810000Y-65572500D01*
X85810000Y-65572500D02*
X85810000Y-63287500D01*
%TO.C,REF\u002A\u002A407*%
X57340000Y-102287500D02*
X57340000Y-104572500D01*
X57340000Y-104572500D02*
X58810000Y-104572500D01*
X58810000Y-104572500D02*
X58810000Y-102287500D01*
%TO.C,X2*%
X94275000Y-125925000D02*
X94275000Y-128225000D01*
X94275000Y-128225000D02*
X96975000Y-128225000D01*
%TO.C,REF\u002A\u002A12*%
X66340000Y-42287500D02*
X66340000Y-44572500D01*
X66340000Y-44572500D02*
X67810000Y-44572500D01*
X67810000Y-44572500D02*
X67810000Y-42287500D01*
%TO.C,REF\u002A\u002A455*%
X69340000Y-108287500D02*
X69340000Y-110572500D01*
X69340000Y-110572500D02*
X70810000Y-110572500D01*
X70810000Y-110572500D02*
X70810000Y-108287500D01*
%TO.C,REF\u002A\u002A80*%
X108340000Y-48287500D02*
X108340000Y-50572500D01*
X108340000Y-50572500D02*
X109810000Y-50572500D01*
X109810000Y-50572500D02*
X109810000Y-48287500D01*
%TO.C,REF\u002A\u002A438*%
X108340000Y-105287500D02*
X108340000Y-107572500D01*
X108340000Y-107572500D02*
X109810000Y-107572500D01*
X109810000Y-107572500D02*
X109810000Y-105287500D01*
%TO.C,REF\u002A\u002A25*%
X87340000Y-45287500D02*
X87340000Y-47572500D01*
X87340000Y-47572500D02*
X88810000Y-47572500D01*
X88810000Y-47572500D02*
X88810000Y-45287500D01*
%TO.C,REF\u002A\u002A225*%
X87340000Y-75287500D02*
X87340000Y-77572500D01*
X87340000Y-77572500D02*
X88810000Y-77572500D01*
X88810000Y-77572500D02*
X88810000Y-75287500D01*
%TO.C,REF\u002A\u002A378*%
X78340000Y-99287500D02*
X78340000Y-101572500D01*
X78340000Y-101572500D02*
X79810000Y-101572500D01*
X79810000Y-101572500D02*
X79810000Y-99287500D01*
%TO.C,REF\u002A\u002A38*%
X108340000Y-45287500D02*
X108340000Y-47572500D01*
X108340000Y-47572500D02*
X109810000Y-47572500D01*
X109810000Y-47572500D02*
X109810000Y-45287500D01*
%TO.C,REF\u002A\u002A449*%
X63340000Y-111287500D02*
X63340000Y-113572500D01*
X63340000Y-113572500D02*
X64810000Y-113572500D01*
X64810000Y-113572500D02*
X64810000Y-111287500D01*
%TO.C,REF\u002A\u002A168*%
X60340000Y-66287500D02*
X60340000Y-68572500D01*
X60340000Y-68572500D02*
X61810000Y-68572500D01*
X61810000Y-68572500D02*
X61810000Y-66287500D01*
%TO.C,C5*%
X84265000Y-135870029D02*
X84265000Y-136085701D01*
X84985000Y-135870029D02*
X84985000Y-136085701D01*
%TO.C,C17*%
X60159420Y-132590000D02*
X60440580Y-132590000D01*
X60159420Y-133610000D02*
X60440580Y-133610000D01*
%TO.C,REF\u002A\u002A88*%
X60340000Y-54287500D02*
X60340000Y-56572500D01*
X60340000Y-56572500D02*
X61810000Y-56572500D01*
X61810000Y-56572500D02*
X61810000Y-54287500D01*
%TO.C,REF\u002A\u002A357*%
X105340000Y-93287500D02*
X105340000Y-95572500D01*
X105340000Y-95572500D02*
X106810000Y-95572500D01*
X106810000Y-95572500D02*
X106810000Y-93287500D01*
%TO.C,REF\u002A\u002A301*%
X81340000Y-87287500D02*
X81340000Y-89572500D01*
X81340000Y-89572500D02*
X82810000Y-89572500D01*
X82810000Y-89572500D02*
X82810000Y-87287500D01*
%TO.C,REF\u002A\u002A521*%
X51340000Y-123287500D02*
X51340000Y-125572500D01*
X51340000Y-125572500D02*
X52810000Y-125572500D01*
X52810000Y-125572500D02*
X52810000Y-123287500D01*
%TO.C,REF\u002A\u002A478*%
X108340000Y-111287500D02*
X108340000Y-113572500D01*
X108340000Y-113572500D02*
X109810000Y-113572500D01*
X109810000Y-113572500D02*
X109810000Y-111287500D01*
%TO.C,REF\u002A\u002A396*%
X102340000Y-96287500D02*
X102340000Y-98572500D01*
X102340000Y-98572500D02*
X103810000Y-98572500D01*
X103810000Y-98572500D02*
X103810000Y-96287500D01*
%TO.C,L1*%
X74590000Y-127040000D02*
X74590000Y-127190000D01*
X74590000Y-130560000D02*
X74590000Y-130410000D01*
X78110000Y-127040000D02*
X74590000Y-127040000D01*
X78110000Y-127040000D02*
X78110000Y-127190000D01*
X78110000Y-130560000D02*
X74590000Y-130560000D01*
X78110000Y-130560000D02*
X78110000Y-130410000D01*
%TO.C,REF\u002A\u002A9*%
X63340000Y-45287500D02*
X63340000Y-47572500D01*
X63340000Y-47572500D02*
X64810000Y-47572500D01*
X64810000Y-47572500D02*
X64810000Y-45287500D01*
%TO.C,REF\u002A\u002A394*%
X102340000Y-99287500D02*
X102340000Y-101572500D01*
X102340000Y-101572500D02*
X103810000Y-101572500D01*
X103810000Y-101572500D02*
X103810000Y-99287500D01*
%TO.C,REF\u002A\u002A199*%
X105340000Y-66287500D02*
X105340000Y-68572500D01*
X105340000Y-68572500D02*
X106810000Y-68572500D01*
X106810000Y-68572500D02*
X106810000Y-66287500D01*
%TO.C,REF\u002A\u002A55*%
X69340000Y-48287500D02*
X69340000Y-50572500D01*
X69340000Y-50572500D02*
X70810000Y-50572500D01*
X70810000Y-50572500D02*
X70810000Y-48287500D01*
%TO.C,REF\u002A\u002A190*%
X96340000Y-69287500D02*
X96340000Y-71572500D01*
X96340000Y-71572500D02*
X97810000Y-71572500D01*
X97810000Y-71572500D02*
X97810000Y-69287500D01*
%TO.C,REF\u002A\u002A188*%
X90340000Y-66287500D02*
X90340000Y-68572500D01*
X90340000Y-68572500D02*
X91810000Y-68572500D01*
X91810000Y-68572500D02*
X91810000Y-66287500D01*
%TO.C,REF\u002A\u002A272*%
X96340000Y-78287500D02*
X96340000Y-80572500D01*
X96340000Y-80572500D02*
X97810000Y-80572500D01*
X97810000Y-80572500D02*
X97810000Y-78287500D01*
%TO.C,REF\u002A\u002A417*%
X75340000Y-105287500D02*
X75340000Y-107572500D01*
X75340000Y-107572500D02*
X76810000Y-107572500D01*
X76810000Y-107572500D02*
X76810000Y-105287500D01*
%TO.C,REF\u002A\u002A72*%
X96340000Y-48287500D02*
X96340000Y-50572500D01*
X96340000Y-50572500D02*
X97810000Y-50572500D01*
X97810000Y-50572500D02*
X97810000Y-48287500D01*
%TO.C,REF\u002A\u002A555*%
X99340000Y-120287500D02*
X99340000Y-122572500D01*
X99340000Y-122572500D02*
X100810000Y-122572500D01*
X100810000Y-122572500D02*
X100810000Y-120287500D01*
%TO.C,REF\u002A\u002A150*%
X96340000Y-63287500D02*
X96340000Y-65572500D01*
X96340000Y-65572500D02*
X97810000Y-65572500D01*
X97810000Y-65572500D02*
X97810000Y-63287500D01*
%TO.C,REF\u002A\u002A435*%
X99340000Y-102287500D02*
X99340000Y-104572500D01*
X99340000Y-104572500D02*
X100810000Y-104572500D01*
X100810000Y-104572500D02*
X100810000Y-102287500D01*
%TO.C,REF\u002A\u002A403*%
X51340000Y-102287500D02*
X51340000Y-104572500D01*
X51340000Y-104572500D02*
X52810000Y-104572500D01*
X52810000Y-104572500D02*
X52810000Y-102287500D01*
%TO.C,REF\u002A\u002A308*%
X90340000Y-84287500D02*
X90340000Y-86572500D01*
X90340000Y-86572500D02*
X91810000Y-86572500D01*
X91810000Y-86572500D02*
X91810000Y-84287500D01*
%TO.C,REF\u002A\u002A250*%
X66340000Y-81287500D02*
X66340000Y-83572500D01*
X66340000Y-83572500D02*
X67810000Y-83572500D01*
X67810000Y-83572500D02*
X67810000Y-81287500D01*
%TO.C,REF\u002A\u002A236*%
X102340000Y-72287500D02*
X102340000Y-74572500D01*
X102340000Y-74572500D02*
X103810000Y-74572500D01*
X103810000Y-74572500D02*
X103810000Y-72287500D01*
%TO.C,REF\u002A\u002A244*%
X54340000Y-78287500D02*
X54340000Y-80572500D01*
X54340000Y-80572500D02*
X55810000Y-80572500D01*
X55810000Y-80572500D02*
X55810000Y-78287500D01*
%TO.C,REF\u002A\u002A356*%
X102340000Y-90287500D02*
X102340000Y-92572500D01*
X102340000Y-92572500D02*
X103810000Y-92572500D01*
X103810000Y-92572500D02*
X103810000Y-90287500D01*
%TO.C,REF\u002A\u002A28*%
X90340000Y-42287500D02*
X90340000Y-44572500D01*
X90340000Y-44572500D02*
X91810000Y-44572500D01*
X91810000Y-44572500D02*
X91810000Y-42287500D01*
%TO.C,REF\u002A\u002A307*%
X87340000Y-84287500D02*
X87340000Y-86572500D01*
X87340000Y-86572500D02*
X88810000Y-86572500D01*
X88810000Y-86572500D02*
X88810000Y-84287500D01*
%TO.C,REF\u002A\u002A212*%
X66340000Y-72287500D02*
X66340000Y-74572500D01*
X66340000Y-74572500D02*
X67810000Y-74572500D01*
X67810000Y-74572500D02*
X67810000Y-72287500D01*
%TO.C,REF\u002A\u002A306*%
X90340000Y-87287500D02*
X90340000Y-89572500D01*
X90340000Y-89572500D02*
X91810000Y-89572500D01*
X91810000Y-89572500D02*
X91810000Y-87287500D01*
%TO.C,REF\u002A\u002A279*%
X105340000Y-78287500D02*
X105340000Y-80572500D01*
X105340000Y-80572500D02*
X106810000Y-80572500D01*
X106810000Y-80572500D02*
X106810000Y-78287500D01*
%TO.C,REF\u002A\u002A459*%
X75340000Y-108287500D02*
X75340000Y-110572500D01*
X75340000Y-110572500D02*
X76810000Y-110572500D01*
X76810000Y-110572500D02*
X76810000Y-108287500D01*
%TO.C,REF\u002A\u002A320*%
X108340000Y-84287500D02*
X108340000Y-86572500D01*
X108340000Y-86572500D02*
X109810000Y-86572500D01*
X109810000Y-86572500D02*
X109810000Y-84287500D01*
%TO.C,REF\u002A\u002A374*%
X72340000Y-99287500D02*
X72340000Y-101572500D01*
X72340000Y-101572500D02*
X73810000Y-101572500D01*
X73810000Y-101572500D02*
X73810000Y-99287500D01*
%TO.C,REF\u002A\u002A506*%
X90340000Y-117287500D02*
X90340000Y-119572500D01*
X90340000Y-119572500D02*
X91810000Y-119572500D01*
X91810000Y-119572500D02*
X91810000Y-117287500D01*
%TO.C,REF\u002A\u002A288*%
X60340000Y-84287500D02*
X60340000Y-86572500D01*
X60340000Y-86572500D02*
X61810000Y-86572500D01*
X61810000Y-86572500D02*
X61810000Y-84287500D01*
%TO.C,REF\u002A\u002A2*%
X54340000Y-45287500D02*
X54340000Y-47572500D01*
X54340000Y-47572500D02*
X55810000Y-47572500D01*
X55810000Y-47572500D02*
X55810000Y-45287500D01*
%TO.C,REF\u002A\u002A73*%
X99340000Y-51287500D02*
X99340000Y-53572500D01*
X99340000Y-53572500D02*
X100810000Y-53572500D01*
X100810000Y-53572500D02*
X100810000Y-51287500D01*
%TO.C,REF\u002A\u002A263*%
X81340000Y-78287500D02*
X81340000Y-80572500D01*
X81340000Y-80572500D02*
X82810000Y-80572500D01*
X82810000Y-80572500D02*
X82810000Y-78287500D01*
%TO.C,REF\u002A\u002A319*%
X105340000Y-84287500D02*
X105340000Y-86572500D01*
X105340000Y-86572500D02*
X106810000Y-86572500D01*
X106810000Y-86572500D02*
X106810000Y-84287500D01*
%TO.C,REF\u002A\u002A41*%
X51340000Y-51287500D02*
X51340000Y-53572500D01*
X51340000Y-53572500D02*
X52810000Y-53572500D01*
X52810000Y-53572500D02*
X52810000Y-51287500D01*
%TO.C,REF\u002A\u002A78*%
X108340000Y-51287500D02*
X108340000Y-53572500D01*
X108340000Y-53572500D02*
X109810000Y-53572500D01*
X109810000Y-53572500D02*
X109810000Y-51287500D01*
%TO.C,REF\u002A\u002A321*%
X51340000Y-93287500D02*
X51340000Y-95572500D01*
X51340000Y-95572500D02*
X52810000Y-95572500D01*
X52810000Y-95572500D02*
X52810000Y-93287500D01*
%TO.C,REF\u002A\u002A414*%
X72340000Y-105287500D02*
X72340000Y-107572500D01*
X72340000Y-107572500D02*
X73810000Y-107572500D01*
X73810000Y-107572500D02*
X73810000Y-105287500D01*
%TO.C,REF\u002A\u002A15*%
X69340000Y-42287500D02*
X69340000Y-44572500D01*
X69340000Y-44572500D02*
X70810000Y-44572500D01*
X70810000Y-44572500D02*
X70810000Y-42287500D01*
%TO.C,REF\u002A\u002A163*%
X51340000Y-66287500D02*
X51340000Y-68572500D01*
X51340000Y-68572500D02*
X52810000Y-68572500D01*
X52810000Y-68572500D02*
X52810000Y-66287500D01*
%TO.C,REF\u002A\u002A278*%
X108340000Y-81287500D02*
X108340000Y-83572500D01*
X108340000Y-83572500D02*
X109810000Y-83572500D01*
X109810000Y-83572500D02*
X109810000Y-81287500D01*
%TO.C,REF\u002A\u002A346*%
X90340000Y-93287500D02*
X90340000Y-95572500D01*
X90340000Y-95572500D02*
X91810000Y-95572500D01*
X91810000Y-95572500D02*
X91810000Y-93287500D01*
%TO.C,REF\u002A\u002A36*%
X102340000Y-42287500D02*
X102340000Y-44572500D01*
X102340000Y-44572500D02*
X103810000Y-44572500D01*
X103810000Y-44572500D02*
X103810000Y-42287500D01*
%TO.C,REF\u002A\u002A107*%
X87340000Y-54287500D02*
X87340000Y-56572500D01*
X87340000Y-56572500D02*
X88810000Y-56572500D01*
X88810000Y-56572500D02*
X88810000Y-54287500D01*
%TO.C,REF\u002A\u002A507*%
X87340000Y-114287500D02*
X87340000Y-116572500D01*
X87340000Y-116572500D02*
X88810000Y-116572500D01*
X88810000Y-116572500D02*
X88810000Y-114287500D01*
%TO.C,REF\u002A\u002A274*%
X102340000Y-81287500D02*
X102340000Y-83572500D01*
X102340000Y-83572500D02*
X103810000Y-83572500D01*
X103810000Y-83572500D02*
X103810000Y-81287500D01*
%TO.C,REF\u002A\u002A119*%
X105340000Y-54287500D02*
X105340000Y-56572500D01*
X105340000Y-56572500D02*
X106810000Y-56572500D01*
X106810000Y-56572500D02*
X106810000Y-54287500D01*
%TO.C,REF\u002A\u002A*%
X105340000Y-123287500D02*
X105340000Y-125572500D01*
X105340000Y-125572500D02*
X106810000Y-125572500D01*
X106810000Y-125572500D02*
X106810000Y-123287500D01*
%TO.C,REF\u002A\u002A552*%
X96340000Y-120287500D02*
X96340000Y-122572500D01*
X96340000Y-122572500D02*
X97810000Y-122572500D01*
X97810000Y-122572500D02*
X97810000Y-120287500D01*
%TO.C,REF\u002A\u002A428*%
X90340000Y-102287500D02*
X90340000Y-104572500D01*
X90340000Y-104572500D02*
X91810000Y-104572500D01*
X91810000Y-104572500D02*
X91810000Y-102287500D01*
%TO.C,REF\u002A\u002A541*%
X81340000Y-123287500D02*
X81340000Y-125572500D01*
X81340000Y-125572500D02*
X82810000Y-125572500D01*
X82810000Y-125572500D02*
X82810000Y-123287500D01*
%TO.C,REF\u002A\u002A400*%
X108340000Y-96287500D02*
X108340000Y-98572500D01*
X108340000Y-98572500D02*
X109810000Y-98572500D01*
X109810000Y-98572500D02*
X109810000Y-96287500D01*
%TO.C,REF\u002A\u002A423*%
X81340000Y-102287500D02*
X81340000Y-104572500D01*
X81340000Y-104572500D02*
X82810000Y-104572500D01*
X82810000Y-104572500D02*
X82810000Y-102287500D01*
%TO.C,REF\u002A\u002A65*%
X87340000Y-51287500D02*
X87340000Y-53572500D01*
X87340000Y-53572500D02*
X88810000Y-53572500D01*
X88810000Y-53572500D02*
X88810000Y-51287500D01*
%TO.C,REF\u002A\u002A53*%
X69340000Y-51287500D02*
X69340000Y-53572500D01*
X69340000Y-53572500D02*
X70810000Y-53572500D01*
X70810000Y-53572500D02*
X70810000Y-51287500D01*
%TO.C,REF\u002A\u002A115*%
X99340000Y-54287500D02*
X99340000Y-56572500D01*
X99340000Y-56572500D02*
X100810000Y-56572500D01*
X100810000Y-56572500D02*
X100810000Y-54287500D01*
%TO.C,REF\u002A\u002A339*%
X75340000Y-90287500D02*
X75340000Y-92572500D01*
X75340000Y-92572500D02*
X76810000Y-92572500D01*
X76810000Y-92572500D02*
X76810000Y-90287500D01*
%TO.C,REF\u002A\u002A158*%
X108340000Y-63287500D02*
X108340000Y-65572500D01*
X108340000Y-65572500D02*
X109810000Y-65572500D01*
X109810000Y-65572500D02*
X109810000Y-63287500D01*
%TO.C,REF\u002A\u002A471*%
X93340000Y-108287500D02*
X93340000Y-110572500D01*
X93340000Y-110572500D02*
X94810000Y-110572500D01*
X94810000Y-110572500D02*
X94810000Y-108287500D01*
%TO.C,REF\u002A\u002A138*%
X78340000Y-63287500D02*
X78340000Y-65572500D01*
X78340000Y-65572500D02*
X79810000Y-65572500D01*
X79810000Y-65572500D02*
X79810000Y-63287500D01*
%TO.C,REF\u002A\u002A283*%
X51340000Y-84287500D02*
X51340000Y-86572500D01*
X51340000Y-86572500D02*
X52810000Y-86572500D01*
X52810000Y-86572500D02*
X52810000Y-84287500D01*
%TO.C,REF\u002A\u002A195*%
X99340000Y-66287500D02*
X99340000Y-68572500D01*
X99340000Y-68572500D02*
X100810000Y-68572500D01*
X100810000Y-68572500D02*
X100810000Y-66287500D01*
%TO.C,REF\u002A\u002A401*%
X51340000Y-105287500D02*
X51340000Y-107572500D01*
X51340000Y-107572500D02*
X52810000Y-107572500D01*
X52810000Y-107572500D02*
X52810000Y-105287500D01*
%TO.C,REF\u002A\u002A479*%
X105340000Y-108287500D02*
X105340000Y-110572500D01*
X105340000Y-110572500D02*
X106810000Y-110572500D01*
X106810000Y-110572500D02*
X106810000Y-108287500D01*
%TO.C,REF\u002A\u002A90*%
X66340000Y-57287500D02*
X66340000Y-59572500D01*
X66340000Y-59572500D02*
X67810000Y-59572500D01*
X67810000Y-59572500D02*
X67810000Y-57287500D01*
%TO.C,REF\u002A\u002A139*%
X75340000Y-60287500D02*
X75340000Y-62572500D01*
X75340000Y-62572500D02*
X76810000Y-62572500D01*
X76810000Y-62572500D02*
X76810000Y-60287500D01*
%TO.C,REF\u002A\u002A419*%
X75340000Y-102287500D02*
X75340000Y-104572500D01*
X75340000Y-104572500D02*
X76810000Y-104572500D01*
X76810000Y-104572500D02*
X76810000Y-102287500D01*
%TO.C,REF\u002A\u002A*%
X108340000Y-123287500D02*
X108340000Y-125572500D01*
X108340000Y-125572500D02*
X109810000Y-125572500D01*
X109810000Y-125572500D02*
X109810000Y-123287500D01*
%TO.C,REF\u002A\u002A255*%
X69340000Y-78287500D02*
X69340000Y-80572500D01*
X69340000Y-80572500D02*
X70810000Y-80572500D01*
X70810000Y-80572500D02*
X70810000Y-78287500D01*
%TO.C,REF\u002A\u002A522*%
X54340000Y-123287500D02*
X54340000Y-125572500D01*
X54340000Y-125572500D02*
X55810000Y-125572500D01*
X55810000Y-125572500D02*
X55810000Y-123287500D01*
%TO.C,REF\u002A\u002A289*%
X63340000Y-87287500D02*
X63340000Y-89572500D01*
X63340000Y-89572500D02*
X64810000Y-89572500D01*
X64810000Y-89572500D02*
X64810000Y-87287500D01*
%TO.C,REF\u002A\u002A1*%
X51340000Y-45287500D02*
X51340000Y-47572500D01*
X51340000Y-47572500D02*
X52810000Y-47572500D01*
X52810000Y-47572500D02*
X52810000Y-45287500D01*
%TO.C,REF\u002A\u002A252*%
X66340000Y-78287500D02*
X66340000Y-80572500D01*
X66340000Y-80572500D02*
X67810000Y-80572500D01*
X67810000Y-80572500D02*
X67810000Y-78287500D01*
%TO.C,REF\u002A\u002A57*%
X75340000Y-51287500D02*
X75340000Y-53572500D01*
X75340000Y-53572500D02*
X76810000Y-53572500D01*
X76810000Y-53572500D02*
X76810000Y-51287500D01*
%TO.C,REF\u002A\u002A133*%
X69340000Y-63287500D02*
X69340000Y-65572500D01*
X69340000Y-65572500D02*
X70810000Y-65572500D01*
X70810000Y-65572500D02*
X70810000Y-63287500D01*
%TO.C,REF\u002A\u002A253*%
X69340000Y-81287500D02*
X69340000Y-83572500D01*
X69340000Y-83572500D02*
X70810000Y-83572500D01*
X70810000Y-83572500D02*
X70810000Y-81287500D01*
%TO.C,REF\u002A\u002A95*%
X69340000Y-54287500D02*
X69340000Y-56572500D01*
X69340000Y-56572500D02*
X70810000Y-56572500D01*
X70810000Y-56572500D02*
X70810000Y-54287500D01*
%TO.C,REF\u002A\u002A214*%
X72340000Y-75287500D02*
X72340000Y-77572500D01*
X72340000Y-77572500D02*
X73810000Y-77572500D01*
X73810000Y-77572500D02*
X73810000Y-75287500D01*
%TO.C,REF\u002A\u002A503*%
X81340000Y-114287500D02*
X81340000Y-116572500D01*
X81340000Y-116572500D02*
X82810000Y-116572500D01*
X82810000Y-116572500D02*
X82810000Y-114287500D01*
%TO.C,REF\u002A\u002A201*%
X51340000Y-75287500D02*
X51340000Y-77572500D01*
X51340000Y-77572500D02*
X52810000Y-77572500D01*
X52810000Y-77572500D02*
X52810000Y-75287500D01*
%TO.C,REF\u002A\u002A44*%
X54340000Y-48287500D02*
X54340000Y-50572500D01*
X54340000Y-50572500D02*
X55810000Y-50572500D01*
X55810000Y-50572500D02*
X55810000Y-48287500D01*
%TO.C,REF\u002A\u002A498*%
X78340000Y-117287500D02*
X78340000Y-119572500D01*
X78340000Y-119572500D02*
X79810000Y-119572500D01*
X79810000Y-119572500D02*
X79810000Y-117287500D01*
%TO.C,REF\u002A\u002A298*%
X78340000Y-87287500D02*
X78340000Y-89572500D01*
X78340000Y-89572500D02*
X79810000Y-89572500D01*
X79810000Y-89572500D02*
X79810000Y-87287500D01*
%TO.C,REF\u002A\u002A*%
X105340000Y-120287500D02*
X105340000Y-122572500D01*
X105340000Y-122572500D02*
X106810000Y-122572500D01*
X106810000Y-122572500D02*
X106810000Y-120287500D01*
%TO.C,REF\u002A\u002A21*%
X81340000Y-45287500D02*
X81340000Y-47572500D01*
X81340000Y-47572500D02*
X82810000Y-47572500D01*
X82810000Y-47572500D02*
X82810000Y-45287500D01*
%TO.C,C13*%
X96437164Y-130015000D02*
X96652836Y-130015000D01*
X96437164Y-130735000D02*
X96652836Y-130735000D01*
%TO.C,REF\u002A\u002A375*%
X69340000Y-96287500D02*
X69340000Y-98572500D01*
X69340000Y-98572500D02*
X70810000Y-98572500D01*
X70810000Y-98572500D02*
X70810000Y-96287500D01*
%TO.C,Rn3*%
X68627500Y-133967224D02*
X68627500Y-133457776D01*
X69672500Y-133967224D02*
X69672500Y-133457776D01*
%TO.C,REF\u002A\u002A310*%
X96340000Y-87287500D02*
X96340000Y-89572500D01*
X96340000Y-89572500D02*
X97810000Y-89572500D01*
X97810000Y-89572500D02*
X97810000Y-87287500D01*
%TO.C,REF\u002A\u002A509*%
X93340000Y-117287500D02*
X93340000Y-119572500D01*
X93340000Y-119572500D02*
X94810000Y-119572500D01*
X94810000Y-119572500D02*
X94810000Y-117287500D01*
%TO.C,REF\u002A\u002A447*%
X57340000Y-108287500D02*
X57340000Y-110572500D01*
X57340000Y-110572500D02*
X58810000Y-110572500D01*
X58810000Y-110572500D02*
X58810000Y-108287500D01*
%TO.C,REF\u002A\u002A122*%
X54340000Y-63287500D02*
X54340000Y-65572500D01*
X54340000Y-65572500D02*
X55810000Y-65572500D01*
X55810000Y-65572500D02*
X55810000Y-63287500D01*
%TO.C,REF\u002A\u002A66*%
X90340000Y-51287500D02*
X90340000Y-53572500D01*
X90340000Y-53572500D02*
X91810000Y-53572500D01*
X91810000Y-53572500D02*
X91810000Y-51287500D01*
%TO.C,REF\u002A\u002A219*%
X75340000Y-72287500D02*
X75340000Y-74572500D01*
X75340000Y-74572500D02*
X76810000Y-74572500D01*
X76810000Y-74572500D02*
X76810000Y-72287500D01*
%TO.C,REF\u002A\u002A7*%
X57340000Y-42287500D02*
X57340000Y-44572500D01*
X57340000Y-44572500D02*
X58810000Y-44572500D01*
X58810000Y-44572500D02*
X58810000Y-42287500D01*
%TO.C,L2*%
X78590000Y-128374721D02*
X78590000Y-128700279D01*
X79610000Y-128374721D02*
X79610000Y-128700279D01*
%TO.C,REF\u002A\u002A404*%
X54340000Y-102287500D02*
X54340000Y-104572500D01*
X54340000Y-104572500D02*
X55810000Y-104572500D01*
X55810000Y-104572500D02*
X55810000Y-102287500D01*
%TO.C,REF\u002A\u002A343*%
X81340000Y-90287500D02*
X81340000Y-92572500D01*
X81340000Y-92572500D02*
X82810000Y-92572500D01*
X82810000Y-92572500D02*
X82810000Y-90287500D01*
%TO.C,REF\u002A\u002A232*%
X96340000Y-72287500D02*
X96340000Y-74572500D01*
X96340000Y-74572500D02*
X97810000Y-74572500D01*
X97810000Y-74572500D02*
X97810000Y-72287500D01*
%TO.C,REF\u002A\u002A496*%
X72340000Y-114287500D02*
X72340000Y-116572500D01*
X72340000Y-116572500D02*
X73810000Y-116572500D01*
X73810000Y-116572500D02*
X73810000Y-114287500D01*
%TO.C,REF\u002A\u002A121*%
X51340000Y-63287500D02*
X51340000Y-65572500D01*
X51340000Y-65572500D02*
X52810000Y-65572500D01*
X52810000Y-65572500D02*
X52810000Y-63287500D01*
%TO.C,REF\u002A\u002A334*%
X72340000Y-93287500D02*
X72340000Y-95572500D01*
X72340000Y-95572500D02*
X73810000Y-95572500D01*
X73810000Y-95572500D02*
X73810000Y-93287500D01*
%TO.C,REF\u002A\u002A332*%
X66340000Y-90287500D02*
X66340000Y-92572500D01*
X66340000Y-92572500D02*
X67810000Y-92572500D01*
X67810000Y-92572500D02*
X67810000Y-90287500D01*
%TO.C,REF\u002A\u002A16*%
X72340000Y-42287500D02*
X72340000Y-44572500D01*
X72340000Y-44572500D02*
X73810000Y-44572500D01*
X73810000Y-44572500D02*
X73810000Y-42287500D01*
%TO.C,REF\u002A\u002A527*%
X57340000Y-120287500D02*
X57340000Y-122572500D01*
X57340000Y-122572500D02*
X58810000Y-122572500D01*
X58810000Y-122572500D02*
X58810000Y-120287500D01*
%TO.C,REF\u002A\u002A328*%
X60340000Y-90287500D02*
X60340000Y-92572500D01*
X60340000Y-92572500D02*
X61810000Y-92572500D01*
X61810000Y-92572500D02*
X61810000Y-90287500D01*
%TO.C,REF\u002A\u002A553*%
X99340000Y-123287500D02*
X99340000Y-125572500D01*
X99340000Y-125572500D02*
X100810000Y-125572500D01*
X100810000Y-125572500D02*
X100810000Y-123287500D01*
%TO.C,REF\u002A\u002A207*%
X57340000Y-72287500D02*
X57340000Y-74572500D01*
X57340000Y-74572500D02*
X58810000Y-74572500D01*
X58810000Y-74572500D02*
X58810000Y-72287500D01*
%TO.C,REF\u002A\u002A292*%
X66340000Y-84287500D02*
X66340000Y-86572500D01*
X66340000Y-86572500D02*
X67810000Y-86572500D01*
X67810000Y-86572500D02*
X67810000Y-84287500D01*
%TO.C,REF\u002A\u002A4*%
X54340000Y-42287500D02*
X54340000Y-44572500D01*
X54340000Y-44572500D02*
X55810000Y-44572500D01*
X55810000Y-44572500D02*
X55810000Y-42287500D01*
%TO.C,REF\u002A\u002A456*%
X72340000Y-108287500D02*
X72340000Y-110572500D01*
X72340000Y-110572500D02*
X73810000Y-110572500D01*
X73810000Y-110572500D02*
X73810000Y-108287500D01*
%TO.C,REF\u002A\u002A200*%
X108340000Y-66287500D02*
X108340000Y-68572500D01*
X108340000Y-68572500D02*
X109810000Y-68572500D01*
X109810000Y-68572500D02*
X109810000Y-66287500D01*
%TO.C,REF\u002A\u002A364*%
X54340000Y-96287500D02*
X54340000Y-98572500D01*
X54340000Y-98572500D02*
X55810000Y-98572500D01*
X55810000Y-98572500D02*
X55810000Y-96287500D01*
D15*
%TO.C,U3*%
X85421300Y-127821300D02*
X85421300Y-128390661D01*
X85421300Y-135659339D02*
X85421300Y-136228700D01*
X85421300Y-136228700D02*
X85990661Y-136228700D01*
X85990661Y-127821300D02*
X85421300Y-127821300D01*
X93259339Y-136228700D02*
X93828700Y-136228700D01*
X93828700Y-127821300D02*
X93259339Y-127821300D01*
X93828700Y-128390661D02*
X93828700Y-127821300D01*
X93828700Y-136228700D02*
X93828700Y-135659339D01*
D16*
G36*
X85091100Y-132215500D02*
G01*
X84837100Y-132215500D01*
X84837100Y-131834500D01*
X85091100Y-131834500D01*
X85091100Y-132215500D01*
G37*
G36*
X87015501Y-127491100D02*
G01*
X86634501Y-127491100D01*
X86634501Y-127237100D01*
X87015501Y-127237100D01*
X87015501Y-127491100D01*
G37*
G36*
X90215499Y-136812900D02*
G01*
X89834499Y-136812900D01*
X89834499Y-136558900D01*
X90215499Y-136558900D01*
X90215499Y-136812900D01*
G37*
G36*
X91015500Y-127491100D02*
G01*
X90634500Y-127491100D01*
X90634500Y-127237100D01*
X91015500Y-127237100D01*
X91015500Y-127491100D01*
G37*
G36*
X94412900Y-130615501D02*
G01*
X94158900Y-130615501D01*
X94158900Y-130234501D01*
X94412900Y-130234501D01*
X94412900Y-130615501D01*
G37*
G36*
X94412900Y-134615500D02*
G01*
X94158900Y-134615500D01*
X94158900Y-134234500D01*
X94412900Y-134234500D01*
X94412900Y-134615500D01*
G37*
D13*
%TO.C,REF\u002A\u002A532*%
X66340000Y-120287500D02*
X66340000Y-122572500D01*
X66340000Y-122572500D02*
X67810000Y-122572500D01*
X67810000Y-122572500D02*
X67810000Y-120287500D01*
%TO.C,REF\u002A\u002A215*%
X69340000Y-72287500D02*
X69340000Y-74572500D01*
X69340000Y-74572500D02*
X70810000Y-74572500D01*
X70810000Y-74572500D02*
X70810000Y-72287500D01*
%TO.C,REF\u002A\u002A223*%
X81340000Y-72287500D02*
X81340000Y-74572500D01*
X81340000Y-74572500D02*
X82810000Y-74572500D01*
X82810000Y-74572500D02*
X82810000Y-72287500D01*
%TO.C,REF\u002A\u002A267*%
X87340000Y-78287500D02*
X87340000Y-80572500D01*
X87340000Y-80572500D02*
X88810000Y-80572500D01*
X88810000Y-80572500D02*
X88810000Y-78287500D01*
%TO.C,REF\u002A\u002A385*%
X87340000Y-99287500D02*
X87340000Y-101572500D01*
X87340000Y-101572500D02*
X88810000Y-101572500D01*
X88810000Y-101572500D02*
X88810000Y-99287500D01*
%TO.C,REF\u002A\u002A273*%
X99340000Y-81287500D02*
X99340000Y-83572500D01*
X99340000Y-83572500D02*
X100810000Y-83572500D01*
X100810000Y-83572500D02*
X100810000Y-81287500D01*
%TO.C,REF\u002A\u002A359*%
X105340000Y-90287500D02*
X105340000Y-92572500D01*
X105340000Y-92572500D02*
X106810000Y-92572500D01*
X106810000Y-92572500D02*
X106810000Y-90287500D01*
%TO.C,REF\u002A\u002A259*%
X75340000Y-78287500D02*
X75340000Y-80572500D01*
X75340000Y-80572500D02*
X76810000Y-80572500D01*
X76810000Y-80572500D02*
X76810000Y-78287500D01*
%TO.C,REF\u002A\u002A548*%
X90340000Y-120287500D02*
X90340000Y-122572500D01*
X90340000Y-122572500D02*
X91810000Y-122572500D01*
X91810000Y-122572500D02*
X91810000Y-120287500D01*
%TO.C,REF\u002A\u002A216*%
X72340000Y-72287500D02*
X72340000Y-74572500D01*
X72340000Y-74572500D02*
X73810000Y-74572500D01*
X73810000Y-74572500D02*
X73810000Y-72287500D01*
%TO.C,REF\u002A\u002A281*%
X51340000Y-87287500D02*
X51340000Y-89572500D01*
X51340000Y-89572500D02*
X52810000Y-89572500D01*
X52810000Y-89572500D02*
X52810000Y-87287500D01*
%TO.C,REF\u002A\u002A543*%
X81340000Y-120287500D02*
X81340000Y-122572500D01*
X81340000Y-122572500D02*
X82810000Y-122572500D01*
X82810000Y-122572500D02*
X82810000Y-120287500D01*
%TO.C,REF\u002A\u002A286*%
X60340000Y-87287500D02*
X60340000Y-89572500D01*
X60340000Y-89572500D02*
X61810000Y-89572500D01*
X61810000Y-89572500D02*
X61810000Y-87287500D01*
%TO.C,REF\u002A\u002A480*%
X108340000Y-108287500D02*
X108340000Y-110572500D01*
X108340000Y-110572500D02*
X109810000Y-110572500D01*
X109810000Y-110572500D02*
X109810000Y-108287500D01*
%TO.C,REF\u002A\u002A402*%
X54340000Y-105287500D02*
X54340000Y-107572500D01*
X54340000Y-107572500D02*
X55810000Y-107572500D01*
X55810000Y-107572500D02*
X55810000Y-105287500D01*
%TO.C,REF\u002A\u002A345*%
X87340000Y-93287500D02*
X87340000Y-95572500D01*
X87340000Y-95572500D02*
X88810000Y-95572500D01*
X88810000Y-95572500D02*
X88810000Y-93287500D01*
%TO.C,REF\u002A\u002A544*%
X84340000Y-120287500D02*
X84340000Y-122572500D01*
X84340000Y-122572500D02*
X85810000Y-122572500D01*
X85810000Y-122572500D02*
X85810000Y-120287500D01*
%TO.C,REF\u002A\u002A258*%
X78340000Y-81287500D02*
X78340000Y-83572500D01*
X78340000Y-83572500D02*
X79810000Y-83572500D01*
X79810000Y-83572500D02*
X79810000Y-81287500D01*
%TO.C,REF\u002A\u002A494*%
X72340000Y-117287500D02*
X72340000Y-119572500D01*
X72340000Y-119572500D02*
X73810000Y-119572500D01*
X73810000Y-119572500D02*
X73810000Y-117287500D01*
%TO.C,REF\u002A\u002A113*%
X99340000Y-57287500D02*
X99340000Y-59572500D01*
X99340000Y-59572500D02*
X100810000Y-59572500D01*
X100810000Y-59572500D02*
X100810000Y-57287500D01*
%TD*%
%LPC*%
D17*
%TO.C,REF\u002A\u002A5*%
X58075000Y-46875000D03*
X58075000Y-45300000D03*
%TD*%
%TO.C,REF\u002A\u002A43*%
X52075000Y-49875000D03*
X52075000Y-48300000D03*
%TD*%
%TO.C,REF\u002A\u002A136*%
X73075000Y-61875000D03*
X73075000Y-60300000D03*
%TD*%
%TO.C,REF\u002A\u002A327*%
X58075000Y-91875000D03*
X58075000Y-90300000D03*
%TD*%
%TO.C,REF\u002A\u002A340*%
X79075000Y-91875000D03*
X79075000Y-90300000D03*
%TD*%
%TO.C,REF\u002A\u002A313*%
X100075000Y-88875000D03*
X100075000Y-87300000D03*
%TD*%
%TO.C,REF\u002A\u002A405*%
X58075000Y-106875000D03*
X58075000Y-105300000D03*
%TD*%
%TO.C,REF\u002A\u002A27*%
X88075000Y-43875000D03*
X88075000Y-42300000D03*
%TD*%
%TO.C,REF\u002A\u002A318*%
X109075000Y-88875000D03*
X109075000Y-87300000D03*
%TD*%
%TO.C,REF\u002A\u002A512*%
X97075000Y-115875000D03*
X97075000Y-114300000D03*
%TD*%
%TO.C,REF\u002A\u002A464*%
X85075000Y-109875000D03*
X85075000Y-108300000D03*
%TD*%
%TO.C,REF\u002A\u002A164*%
X55075000Y-67875000D03*
X55075000Y-66300000D03*
%TD*%
%TO.C,REF\u002A\u002A528*%
X61075000Y-121875000D03*
X61075000Y-120300000D03*
%TD*%
%TO.C,REF\u002A\u002A295*%
X70075000Y-85875000D03*
X70075000Y-84300000D03*
%TD*%
%TO.C,REF\u002A\u002A18*%
X79075000Y-46875000D03*
X79075000Y-45300000D03*
%TD*%
%TO.C,REF\u002A\u002A309*%
X94075000Y-88875000D03*
X94075000Y-87300000D03*
%TD*%
%TO.C,REF\u002A\u002A8*%
X61075000Y-43875000D03*
X61075000Y-42300000D03*
%TD*%
%TO.C,REF\u002A\u002A266*%
X91075000Y-82875000D03*
X91075000Y-81300000D03*
%TD*%
%TO.C,REF\u002A\u002A270*%
X97075000Y-82875000D03*
X97075000Y-81300000D03*
%TD*%
%TO.C,REF\u002A\u002A524*%
X55075000Y-121875000D03*
X55075000Y-120300000D03*
%TD*%
%TO.C,REF\u002A\u002A75*%
X100075000Y-49875000D03*
X100075000Y-48300000D03*
%TD*%
%TO.C,REF\u002A\u002A143*%
X82075000Y-61875000D03*
X82075000Y-60300000D03*
%TD*%
%TO.C,REF\u002A\u002A50*%
X67075000Y-52875000D03*
X67075000Y-51300000D03*
%TD*%
%TO.C,REF\u002A\u002A268*%
X91075000Y-79875000D03*
X91075000Y-78300000D03*
%TD*%
%TO.C,REF\u002A\u002A228*%
X91075000Y-73875000D03*
X91075000Y-72300000D03*
%TD*%
%TO.C,REF\u002A\u002A379*%
X76075000Y-97875000D03*
X76075000Y-96300000D03*
%TD*%
%TO.C,REF\u002A\u002A337*%
X76075000Y-94875000D03*
X76075000Y-93300000D03*
%TD*%
D18*
%TO.C,FM1*%
X48475000Y-63437500D03*
%TD*%
D17*
%TO.C,REF\u002A\u002A209*%
X64075000Y-76875000D03*
X64075000Y-75300000D03*
%TD*%
%TO.C,REF\u002A\u002A86*%
X61075000Y-58875000D03*
X61075000Y-57300000D03*
%TD*%
%TO.C,REF\u002A\u002A517*%
X106075000Y-118875000D03*
X106075000Y-117300000D03*
%TD*%
%TO.C,REF\u002A\u002A173*%
X70075000Y-70875000D03*
X70075000Y-69300000D03*
%TD*%
%TO.C,REF\u002A\u002A251*%
X64075000Y-79875000D03*
X64075000Y-78300000D03*
%TD*%
%TO.C,REF\u002A\u002A409*%
X64075000Y-106875000D03*
X64075000Y-105300000D03*
%TD*%
%TO.C,REF\u002A\u002A415*%
X70075000Y-103875000D03*
X70075000Y-102300000D03*
%TD*%
%TO.C,REF\u002A\u002A508*%
X91075000Y-115875000D03*
X91075000Y-114300000D03*
%TD*%
%TO.C,REF\u002A\u002A254*%
X73075000Y-82875000D03*
X73075000Y-81300000D03*
%TD*%
%TO.C,REF\u002A\u002A34*%
X103075000Y-46875000D03*
X103075000Y-45300000D03*
%TD*%
%TO.C,REF\u002A\u002A463*%
X82075000Y-109875000D03*
X82075000Y-108300000D03*
%TD*%
%TO.C,REF\u002A\u002A128*%
X61075000Y-61875000D03*
X61075000Y-60300000D03*
%TD*%
%TO.C,REF\u002A\u002A269*%
X94075000Y-82875000D03*
X94075000Y-81300000D03*
%TD*%
%TO.C,REF\u002A\u002A468*%
X91075000Y-109875000D03*
X91075000Y-108300000D03*
%TD*%
%TO.C,REF\u002A\u002A208*%
X61075000Y-73875000D03*
X61075000Y-72300000D03*
%TD*%
%TO.C,REF\u002A\u002A354*%
X103075000Y-94875000D03*
X103075000Y-93300000D03*
%TD*%
%TO.C,REF\u002A\u002A191*%
X94075000Y-67875000D03*
X94075000Y-66300000D03*
%TD*%
%TO.C,REF\u002A\u002A391*%
X94075000Y-97875000D03*
X94075000Y-96300000D03*
%TD*%
%TO.C,REF\u002A\u002A348*%
X91075000Y-91875000D03*
X91075000Y-90300000D03*
%TD*%
D19*
%TO.C,C18*%
X80700000Y-130950000D03*
X79150000Y-130950000D03*
%TD*%
D17*
%TO.C,REF\u002A\u002A204*%
X55075000Y-73875000D03*
X55075000Y-72300000D03*
%TD*%
%TO.C,REF\u002A\u002A504*%
X85075000Y-115875000D03*
X85075000Y-114300000D03*
%TD*%
%TO.C,REF\u002A\u002A535*%
X70075000Y-121875000D03*
X70075000Y-120300000D03*
%TD*%
%TO.C,REF\u002A\u002A300*%
X79075000Y-85875000D03*
X79075000Y-84300000D03*
%TD*%
%TO.C,REF\u002A\u002A134*%
X73075000Y-64875000D03*
X73075000Y-63300000D03*
%TD*%
%TO.C,REF\u002A\u002A448*%
X61075000Y-109875000D03*
X61075000Y-108300000D03*
%TD*%
%TO.C,REF\u002A\u002A118*%
X109075000Y-58875000D03*
X109075000Y-57300000D03*
%TD*%
%TO.C,REF\u002A\u002A533*%
X70075000Y-124875000D03*
X70075000Y-123300000D03*
%TD*%
%TO.C,REF\u002A\u002A453*%
X70075000Y-112875000D03*
X70075000Y-111300000D03*
%TD*%
%TO.C,REF\u002A\u002A352*%
X97075000Y-91875000D03*
X97075000Y-90300000D03*
%TD*%
%TO.C,REF\u002A\u002A514*%
X103075000Y-118875000D03*
X103075000Y-117300000D03*
%TD*%
%TO.C,REF\u002A\u002A23*%
X82075000Y-43875000D03*
X82075000Y-42300000D03*
%TD*%
%TO.C,REF\u002A\u002A511*%
X94075000Y-115875000D03*
X94075000Y-114300000D03*
%TD*%
%TO.C,REF\u002A\u002A454*%
X73075000Y-112875000D03*
X73075000Y-111300000D03*
%TD*%
%TO.C,REF\u002A\u002A162*%
X55075000Y-70875000D03*
X55075000Y-69300000D03*
%TD*%
%TO.C,REF\u002A\u002A444*%
X55075000Y-109875000D03*
X55075000Y-108300000D03*
%TD*%
%TO.C,REF\u002A\u002A434*%
X103075000Y-106875000D03*
X103075000Y-105300000D03*
%TD*%
%TO.C,REF\u002A\u002A390*%
X97075000Y-100875000D03*
X97075000Y-99300000D03*
%TD*%
%TO.C,REF\u002A\u002A99*%
X76075000Y-55875000D03*
X76075000Y-54300000D03*
%TD*%
%TO.C,REF\u002A\u002A243*%
X52075000Y-79875000D03*
X52075000Y-78300000D03*
%TD*%
%TO.C,REF\u002A\u002A410*%
X67075000Y-106875000D03*
X67075000Y-105300000D03*
%TD*%
%TO.C,REF\u002A\u002A98*%
X79075000Y-58875000D03*
X79075000Y-57300000D03*
%TD*%
%TO.C,REF\u002A\u002A180*%
X79075000Y-67875000D03*
X79075000Y-66300000D03*
%TD*%
%TO.C,REF\u002A\u002A239*%
X106075000Y-73875000D03*
X106075000Y-72300000D03*
%TD*%
%TO.C,REF\u002A\u002A224*%
X85075000Y-73875000D03*
X85075000Y-72300000D03*
%TD*%
%TO.C,REF\u002A\u002A46*%
X61075000Y-52875000D03*
X61075000Y-51300000D03*
%TD*%
%TO.C,REF\u002A\u002A276*%
X103075000Y-79875000D03*
X103075000Y-78300000D03*
%TD*%
%TO.C,REF\u002A\u002A186*%
X91075000Y-70875000D03*
X91075000Y-69300000D03*
%TD*%
%TO.C,REF\u002A\u002A114*%
X103075000Y-58875000D03*
X103075000Y-57300000D03*
%TD*%
%TO.C,REF\u002A\u002A413*%
X70075000Y-106875000D03*
X70075000Y-105300000D03*
%TD*%
%TO.C,REF\u002A\u002A446*%
X61075000Y-112875000D03*
X61075000Y-111300000D03*
%TD*%
%TO.C,REF\u002A\u002A79*%
X106075000Y-49875000D03*
X106075000Y-48300000D03*
%TD*%
%TO.C,REF\u002A\u002A52*%
X67075000Y-49875000D03*
X67075000Y-48300000D03*
%TD*%
%TO.C,REF\u002A\u002A185*%
X88075000Y-70875000D03*
X88075000Y-69300000D03*
%TD*%
%TO.C,REF\u002A\u002A290*%
X67075000Y-88875000D03*
X67075000Y-87300000D03*
%TD*%
%TO.C,REF\u002A\u002A393*%
X100075000Y-100875000D03*
X100075000Y-99300000D03*
%TD*%
%TO.C,REF\u002A\u002A233*%
X100075000Y-76875000D03*
X100075000Y-75300000D03*
%TD*%
%TO.C,REF\u002A\u002A234*%
X103075000Y-76875000D03*
X103075000Y-75300000D03*
%TD*%
%TO.C,REF\u002A\u002A282*%
X55075000Y-88875000D03*
X55075000Y-87300000D03*
%TD*%
%TO.C,REF\u002A\u002A457*%
X76075000Y-112875000D03*
X76075000Y-111300000D03*
%TD*%
%TO.C,REF\u002A\u002A31*%
X94075000Y-43875000D03*
X94075000Y-42300000D03*
%TD*%
%TO.C,REF\u002A\u002A48*%
X61075000Y-49875000D03*
X61075000Y-48300000D03*
%TD*%
%TO.C,REF\u002A\u002A124*%
X55075000Y-61875000D03*
X55075000Y-60300000D03*
%TD*%
%TO.C,REF\u002A\u002A492*%
X67075000Y-115875000D03*
X67075000Y-114300000D03*
%TD*%
%TO.C,REF\u002A\u002A367*%
X58075000Y-97875000D03*
X58075000Y-96300000D03*
%TD*%
%TO.C,REF\u002A\u002A170*%
X67075000Y-70875000D03*
X67075000Y-69300000D03*
%TD*%
%TO.C,REF\u002A\u002A329*%
X64075000Y-94875000D03*
X64075000Y-93300000D03*
%TD*%
%TO.C,REF\u002A\u002A472*%
X97075000Y-109875000D03*
X97075000Y-108300000D03*
%TD*%
%TO.C,REF\u002A\u002A179*%
X76075000Y-67875000D03*
X76075000Y-66300000D03*
%TD*%
%TO.C,REF\u002A\u002A241*%
X52075000Y-82875000D03*
X52075000Y-81300000D03*
%TD*%
%TO.C,REF\u002A\u002A452*%
X67075000Y-109875000D03*
X67075000Y-108300000D03*
%TD*%
%TO.C,REF\u002A\u002A123*%
X52075000Y-61875000D03*
X52075000Y-60300000D03*
%TD*%
%TO.C,REF\u002A\u002A429*%
X94075000Y-106875000D03*
X94075000Y-105300000D03*
%TD*%
%TO.C,REF\u002A\u002A112*%
X97075000Y-55875000D03*
X97075000Y-54300000D03*
%TD*%
%TO.C,REF\u002A\u002A365*%
X58075000Y-100875000D03*
X58075000Y-99300000D03*
%TD*%
%TO.C,REF\u002A\u002A211*%
X64075000Y-73875000D03*
X64075000Y-72300000D03*
%TD*%
%TO.C,REF\u002A\u002A304*%
X85075000Y-85875000D03*
X85075000Y-84300000D03*
%TD*%
%TO.C,REF\u002A\u002A176*%
X73075000Y-67875000D03*
X73075000Y-66300000D03*
%TD*%
%TO.C,REF\u002A\u002A349*%
X94075000Y-94875000D03*
X94075000Y-93300000D03*
%TD*%
%TO.C,REF\u002A\u002A206*%
X61075000Y-76875000D03*
X61075000Y-75300000D03*
%TD*%
%TO.C,REF\u002A\u002A291*%
X64075000Y-85875000D03*
X64075000Y-84300000D03*
%TD*%
%TO.C,REF\u002A\u002A411*%
X64075000Y-103875000D03*
X64075000Y-102300000D03*
%TD*%
%TO.C,REF\u002A\u002A484*%
X55075000Y-115875000D03*
X55075000Y-114300000D03*
%TD*%
%TO.C,REF\u002A\u002A265*%
X88075000Y-82875000D03*
X88075000Y-81300000D03*
%TD*%
%TO.C,REF\u002A\u002A13*%
X70075000Y-46875000D03*
X70075000Y-45300000D03*
%TD*%
%TO.C,REF\u002A\u002A538*%
X79075000Y-124875000D03*
X79075000Y-123300000D03*
%TD*%
D20*
%TO.C,VR_MCU1*%
X56970000Y-135350000D03*
X56970000Y-133050000D03*
X56970000Y-130750000D03*
D21*
X51030000Y-133050000D03*
%TD*%
D17*
%TO.C,REF\u002A\u002A368*%
X61075000Y-97875000D03*
X61075000Y-96300000D03*
%TD*%
%TO.C,REF\u002A\u002A500*%
X79075000Y-115875000D03*
X79075000Y-114300000D03*
%TD*%
%TO.C,REF\u002A\u002A421*%
X82075000Y-106875000D03*
X82075000Y-105300000D03*
%TD*%
%TO.C,REF\u002A\u002A230*%
X97075000Y-76875000D03*
X97075000Y-75300000D03*
%TD*%
%TO.C,REF\u002A\u002A129*%
X64075000Y-64875000D03*
X64075000Y-63300000D03*
%TD*%
%TO.C,REF\u002A\u002A59*%
X76075000Y-49875000D03*
X76075000Y-48300000D03*
%TD*%
%TO.C,REF\u002A\u002A549*%
X94075000Y-124875000D03*
X94075000Y-123300000D03*
%TD*%
%TO.C,REF\u002A\u002A56*%
X73075000Y-49875000D03*
X73075000Y-48300000D03*
%TD*%
%TO.C,REF\u002A\u002A342*%
X85075000Y-94875000D03*
X85075000Y-93300000D03*
%TD*%
%TO.C,REF\u002A\u002A192*%
X97075000Y-67875000D03*
X97075000Y-66300000D03*
%TD*%
%TO.C,REF\u002A\u002A181*%
X82075000Y-70875000D03*
X82075000Y-69300000D03*
%TD*%
%TO.C,REF\u002A\u002A145*%
X88075000Y-64875000D03*
X88075000Y-63300000D03*
%TD*%
D22*
%TO.C,LPF_1*%
X98346400Y-130559600D03*
D23*
X98117800Y-129950000D03*
D22*
X98346400Y-129340400D03*
D23*
X98575000Y-129950000D03*
%TD*%
D17*
%TO.C,REF\u002A\u002A175*%
X70075000Y-67875000D03*
X70075000Y-66300000D03*
%TD*%
%TO.C,REF\u002A\u002A556*%
X103075000Y-121875000D03*
X103075000Y-120300000D03*
%TD*%
%TO.C,REF\u002A\u002A287*%
X58075000Y-85875000D03*
X58075000Y-84300000D03*
%TD*%
%TO.C,REF\u002A\u002A144*%
X85075000Y-61875000D03*
X85075000Y-60300000D03*
%TD*%
%TO.C,REF\u002A\u002A203*%
X52075000Y-73875000D03*
X52075000Y-72300000D03*
%TD*%
%TO.C,REF\u002A\u002A473*%
X100075000Y-112875000D03*
X100075000Y-111300000D03*
%TD*%
%TO.C,REF\u002A\u002A132*%
X67075000Y-61875000D03*
X67075000Y-60300000D03*
%TD*%
%TO.C,REF\u002A\u002A534*%
X73075000Y-124875000D03*
X73075000Y-123300000D03*
%TD*%
%TO.C,REF\u002A\u002A242*%
X55075000Y-82875000D03*
X55075000Y-81300000D03*
%TD*%
%TO.C,REF\u002A\u002A432*%
X97075000Y-103875000D03*
X97075000Y-102300000D03*
%TD*%
%TO.C,REF\u002A\u002A439*%
X106075000Y-103875000D03*
X106075000Y-102300000D03*
%TD*%
%TO.C,REF\u002A\u002A67*%
X88075000Y-49875000D03*
X88075000Y-48300000D03*
%TD*%
%TO.C,REF\u002A\u002A526*%
X61075000Y-124875000D03*
X61075000Y-123300000D03*
%TD*%
%TO.C,REF\u002A\u002A40*%
X109075000Y-43875000D03*
X109075000Y-42300000D03*
%TD*%
%TO.C,REF\u002A\u002A257*%
X76075000Y-82875000D03*
X76075000Y-81300000D03*
%TD*%
%TO.C,REF\u002A\u002A127*%
X58075000Y-61875000D03*
X58075000Y-60300000D03*
%TD*%
%TO.C,REF\u002A\u002A530*%
X67075000Y-124875000D03*
X67075000Y-123300000D03*
%TD*%
%TO.C,REF\u002A\u002A331*%
X64075000Y-91875000D03*
X64075000Y-90300000D03*
%TD*%
%TO.C,REF\u002A\u002A341*%
X82075000Y-94875000D03*
X82075000Y-93300000D03*
%TD*%
%TO.C,REF\u002A\u002A395*%
X100075000Y-97875000D03*
X100075000Y-96300000D03*
%TD*%
%TO.C,REF\u002A\u002A302*%
X85075000Y-88875000D03*
X85075000Y-87300000D03*
%TD*%
%TO.C,REF\u002A\u002A370*%
X67075000Y-100875000D03*
X67075000Y-99300000D03*
%TD*%
%TO.C,REF\u002A\u002A344*%
X85075000Y-91875000D03*
X85075000Y-90300000D03*
%TD*%
%TO.C,REF\u002A\u002A193*%
X100075000Y-70875000D03*
X100075000Y-69300000D03*
%TD*%
%TO.C,REF\u002A\u002A171*%
X64075000Y-67875000D03*
X64075000Y-66300000D03*
%TD*%
%TO.C,REF\u002A\u002A525*%
X58075000Y-124875000D03*
X58075000Y-123300000D03*
%TD*%
%TO.C,REF\u002A\u002A384*%
X85075000Y-97875000D03*
X85075000Y-96300000D03*
%TD*%
%TO.C,REF\u002A\u002A246*%
X61075000Y-82875000D03*
X61075000Y-81300000D03*
%TD*%
%TO.C,REF\u002A\u002A84*%
X55075000Y-55875000D03*
X55075000Y-54300000D03*
%TD*%
%TO.C,REF\u002A\u002A198*%
X109075000Y-70875000D03*
X109075000Y-69300000D03*
%TD*%
%TO.C,REF\u002A\u002A159*%
X106075000Y-61875000D03*
X106075000Y-60300000D03*
%TD*%
%TO.C,REF\u002A\u002A520*%
X109075000Y-115875000D03*
X109075000Y-114300000D03*
%TD*%
%TO.C,REF\u002A\u002A93*%
X70075000Y-58875000D03*
X70075000Y-57300000D03*
%TD*%
%TO.C,REF\u002A\u002A187*%
X88075000Y-67875000D03*
X88075000Y-66300000D03*
%TD*%
%TO.C,REF\u002A\u002A303*%
X82075000Y-85875000D03*
X82075000Y-84300000D03*
%TD*%
%TO.C,REF\u002A\u002A412*%
X67075000Y-103875000D03*
X67075000Y-102300000D03*
%TD*%
%TO.C,REF\u002A\u002A20*%
X79075000Y-43875000D03*
X79075000Y-42300000D03*
%TD*%
%TO.C,REF\u002A\u002A443*%
X52075000Y-109875000D03*
X52075000Y-108300000D03*
%TD*%
%TO.C,REF\u002A\u002A61*%
X82075000Y-52875000D03*
X82075000Y-51300000D03*
%TD*%
%TO.C,REF\u002A\u002A399*%
X106075000Y-97875000D03*
X106075000Y-96300000D03*
%TD*%
%TO.C,REF\u002A\u002A210*%
X67075000Y-76875000D03*
X67075000Y-75300000D03*
%TD*%
D24*
%TO.C,C7*%
X59525000Y-130800000D03*
X61075000Y-130800000D03*
%TD*%
D17*
%TO.C,REF\u002A\u002A169*%
X64075000Y-70875000D03*
X64075000Y-69300000D03*
%TD*%
%TO.C,REF\u002A\u002A85*%
X58075000Y-58875000D03*
X58075000Y-57300000D03*
%TD*%
%TO.C,REF\u002A\u002A376*%
X73075000Y-97875000D03*
X73075000Y-96300000D03*
%TD*%
%TO.C,REF\u002A\u002A316*%
X103075000Y-85875000D03*
X103075000Y-84300000D03*
%TD*%
%TO.C,REF\u002A\u002A104*%
X85075000Y-55875000D03*
X85075000Y-54300000D03*
%TD*%
%TO.C,REF\u002A\u002A451*%
X64075000Y-109875000D03*
X64075000Y-108300000D03*
%TD*%
%TO.C,REF\u002A\u002A71*%
X94075000Y-49875000D03*
X94075000Y-48300000D03*
%TD*%
%TO.C,REF\u002A\u002A358*%
X109075000Y-94875000D03*
X109075000Y-93300000D03*
%TD*%
D25*
%TO.C,C10*%
X84337500Y-137977865D03*
X82512500Y-137977865D03*
%TD*%
D17*
%TO.C,REF\u002A\u002A202*%
X55075000Y-76875000D03*
X55075000Y-75300000D03*
%TD*%
%TO.C,REF\u002A\u002A377*%
X76075000Y-100875000D03*
X76075000Y-99300000D03*
%TD*%
%TO.C,REF\u002A\u002A388*%
X91075000Y-97875000D03*
X91075000Y-96300000D03*
%TD*%
%TO.C,REF\u002A\u002A499*%
X76075000Y-115875000D03*
X76075000Y-114300000D03*
%TD*%
%TO.C,REF\u002A\u002A546*%
X91075000Y-124875000D03*
X91075000Y-123300000D03*
%TD*%
%TO.C,REF\u002A\u002A470*%
X97075000Y-112875000D03*
X97075000Y-111300000D03*
%TD*%
%TO.C,REF\u002A\u002A87*%
X58075000Y-55875000D03*
X58075000Y-54300000D03*
%TD*%
%TO.C,REF\u002A\u002A218*%
X79075000Y-76875000D03*
X79075000Y-75300000D03*
%TD*%
%TO.C,REF\u002A\u002A165*%
X58075000Y-70875000D03*
X58075000Y-69300000D03*
%TD*%
%TO.C,REF\u002A\u002A469*%
X94075000Y-112875000D03*
X94075000Y-111300000D03*
%TD*%
%TO.C,REF\u002A\u002A261*%
X82075000Y-82875000D03*
X82075000Y-81300000D03*
%TD*%
%TO.C,REF\u002A\u002A397*%
X106075000Y-100875000D03*
X106075000Y-99300000D03*
%TD*%
%TO.C,REF\u002A\u002A523*%
X52075000Y-121875000D03*
X52075000Y-120300000D03*
%TD*%
%TO.C,REF\u002A\u002A539*%
X76075000Y-121875000D03*
X76075000Y-120300000D03*
%TD*%
%TO.C,REF\u002A\u002A24*%
X85075000Y-43875000D03*
X85075000Y-42300000D03*
%TD*%
%TO.C,REF\u002A\u002A68*%
X91075000Y-49875000D03*
X91075000Y-48300000D03*
%TD*%
%TO.C,REF\u002A\u002A315*%
X100075000Y-85875000D03*
X100075000Y-84300000D03*
%TD*%
%TO.C,REF\u002A\u002A369*%
X64075000Y-100875000D03*
X64075000Y-99300000D03*
%TD*%
%TO.C,REF\u002A\u002A537*%
X76075000Y-124875000D03*
X76075000Y-123300000D03*
%TD*%
%TO.C,REF\u002A\u002A140*%
X79075000Y-61875000D03*
X79075000Y-60300000D03*
%TD*%
%TO.C,REF\u002A\u002A529*%
X64075000Y-124875000D03*
X64075000Y-123300000D03*
%TD*%
D26*
%TO.C,L3*%
X96625000Y-131987500D03*
X97595000Y-131987500D03*
%TD*%
D17*
%TO.C,REF\u002A\u002A197*%
X106075000Y-70875000D03*
X106075000Y-69300000D03*
%TD*%
%TO.C,REF\u002A\u002A213*%
X70075000Y-76875000D03*
X70075000Y-75300000D03*
%TD*%
%TO.C,REF\u002A\u002A220*%
X79075000Y-73875000D03*
X79075000Y-72300000D03*
%TD*%
%TO.C,REF\u002A\u002A157*%
X106075000Y-64875000D03*
X106075000Y-63300000D03*
%TD*%
%TO.C,REF\u002A\u002A305*%
X88075000Y-88875000D03*
X88075000Y-87300000D03*
%TD*%
%TO.C,REF\u002A\u002A297*%
X76075000Y-88875000D03*
X76075000Y-87300000D03*
%TD*%
%TO.C,REF\u002A\u002A324*%
X55075000Y-91875000D03*
X55075000Y-90300000D03*
%TD*%
%TO.C,REF\u002A\u002A458*%
X79075000Y-112875000D03*
X79075000Y-111300000D03*
%TD*%
%TO.C,REF\u002A\u002A285*%
X58075000Y-88875000D03*
X58075000Y-87300000D03*
%TD*%
D27*
%TO.C,Rn1*%
X88600000Y-140412500D03*
X88600000Y-138587500D03*
%TD*%
D17*
%TO.C,REF\u002A\u002A495*%
X70075000Y-115875000D03*
X70075000Y-114300000D03*
%TD*%
%TO.C,REF\u002A\u002A422*%
X85075000Y-106875000D03*
X85075000Y-105300000D03*
%TD*%
%TO.C,REF\u002A\u002A49*%
X64075000Y-52875000D03*
X64075000Y-51300000D03*
%TD*%
%TO.C,REF\u002A\u002A262*%
X85075000Y-82875000D03*
X85075000Y-81300000D03*
%TD*%
%TO.C,REF\u002A\u002A440*%
X109075000Y-103875000D03*
X109075000Y-102300000D03*
%TD*%
%TO.C,REF\u002A\u002A45*%
X58075000Y-52875000D03*
X58075000Y-51300000D03*
%TD*%
D18*
%TO.C,FM4*%
X97475000Y-138437500D03*
%TD*%
D17*
%TO.C,REF\u002A\u002A247*%
X58075000Y-79875000D03*
X58075000Y-78300000D03*
%TD*%
%TO.C,REF\u002A\u002A226*%
X91075000Y-76875000D03*
X91075000Y-75300000D03*
%TD*%
%TO.C,REF\u002A\u002A184*%
X85075000Y-67875000D03*
X85075000Y-66300000D03*
%TD*%
%TO.C,REF\u002A\u002A441*%
X52075000Y-112875000D03*
X52075000Y-111300000D03*
%TD*%
%TO.C,REF\u002A\u002A167*%
X58075000Y-67875000D03*
X58075000Y-66300000D03*
%TD*%
%TO.C,REF\u002A\u002A155*%
X100075000Y-61875000D03*
X100075000Y-60300000D03*
%TD*%
%TO.C,REF\u002A\u002A26*%
X91075000Y-46875000D03*
X91075000Y-45300000D03*
%TD*%
%TO.C,REF\u002A\u002A10*%
X67075000Y-46875000D03*
X67075000Y-45300000D03*
%TD*%
%TO.C,REF\u002A\u002A482*%
X55075000Y-118875000D03*
X55075000Y-117300000D03*
%TD*%
%TO.C,REF\u002A\u002A221*%
X82075000Y-76875000D03*
X82075000Y-75300000D03*
%TD*%
%TO.C,REF\u002A\u002A205*%
X58075000Y-76875000D03*
X58075000Y-75300000D03*
%TD*%
%TO.C,REF\u002A\u002A353*%
X100075000Y-94875000D03*
X100075000Y-93300000D03*
%TD*%
%TO.C,REF\u002A\u002A373*%
X70075000Y-100875000D03*
X70075000Y-99300000D03*
%TD*%
%TO.C,REF\u002A\u002A550*%
X97075000Y-124875000D03*
X97075000Y-123300000D03*
%TD*%
%TO.C,REF\u002A\u002A519*%
X106075000Y-115875000D03*
X106075000Y-114300000D03*
%TD*%
%TO.C,REF\u002A\u002A531*%
X64075000Y-121875000D03*
X64075000Y-120300000D03*
%TD*%
%TO.C,REF\u002A\u002A64*%
X85075000Y-49875000D03*
X85075000Y-48300000D03*
%TD*%
%TO.C,REF\u002A\u002A146*%
X91075000Y-64875000D03*
X91075000Y-63300000D03*
%TD*%
%TO.C,REF\u002A\u002A100*%
X79075000Y-55875000D03*
X79075000Y-54300000D03*
%TD*%
%TO.C,REF\u002A\u002A222*%
X85075000Y-76875000D03*
X85075000Y-75300000D03*
%TD*%
%TO.C,REF\u002A\u002A425*%
X88075000Y-106875000D03*
X88075000Y-105300000D03*
%TD*%
%TO.C,REF\u002A\u002A3*%
X52075000Y-43875000D03*
X52075000Y-42300000D03*
%TD*%
%TO.C,REF\u002A\u002A260*%
X79075000Y-79875000D03*
X79075000Y-78300000D03*
%TD*%
%TO.C,REF\u002A\u002A151*%
X94075000Y-61875000D03*
X94075000Y-60300000D03*
%TD*%
%TO.C,REF\u002A\u002A461*%
X82075000Y-112875000D03*
X82075000Y-111300000D03*
%TD*%
%TO.C,REF\u002A\u002A474*%
X103075000Y-112875000D03*
X103075000Y-111300000D03*
%TD*%
%TO.C,REF\u002A\u002A347*%
X88075000Y-91875000D03*
X88075000Y-90300000D03*
%TD*%
D28*
%TO.C,C12*%
X98775000Y-131750000D03*
X98775000Y-132710000D03*
%TD*%
D17*
%TO.C,REF\u002A\u002A312*%
X97075000Y-85875000D03*
X97075000Y-84300000D03*
%TD*%
%TO.C,REF\u002A\u002A111*%
X94075000Y-55875000D03*
X94075000Y-54300000D03*
%TD*%
%TO.C,REF\u002A\u002A106*%
X91075000Y-58875000D03*
X91075000Y-57300000D03*
%TD*%
%TO.C,REF\u002A\u002A149*%
X94075000Y-64875000D03*
X94075000Y-63300000D03*
%TD*%
%TO.C,REF\u002A\u002A19*%
X76075000Y-43875000D03*
X76075000Y-42300000D03*
%TD*%
%TO.C,REF\u002A\u002A39*%
X106075000Y-43875000D03*
X106075000Y-42300000D03*
%TD*%
%TO.C,REF\u002A\u002A475*%
X100075000Y-109875000D03*
X100075000Y-108300000D03*
%TD*%
%TO.C,REF\u002A\u002A476*%
X103075000Y-109875000D03*
X103075000Y-108300000D03*
%TD*%
%TO.C,REF\u002A\u002A465*%
X88075000Y-112875000D03*
X88075000Y-111300000D03*
%TD*%
%TO.C,REF\u002A\u002A542*%
X85075000Y-124875000D03*
X85075000Y-123300000D03*
%TD*%
%TO.C,REF\u002A\u002A42*%
X55075000Y-52875000D03*
X55075000Y-51300000D03*
%TD*%
%TO.C,REF\u002A\u002A333*%
X70075000Y-94875000D03*
X70075000Y-93300000D03*
%TD*%
%TO.C,REF\u002A\u002A317*%
X106075000Y-88875000D03*
X106075000Y-87300000D03*
%TD*%
%TO.C,REF\u002A\u002A437*%
X106075000Y-106875000D03*
X106075000Y-105300000D03*
%TD*%
%TO.C,REF\u002A\u002A516*%
X103075000Y-115875000D03*
X103075000Y-114300000D03*
%TD*%
%TO.C,REF\u002A\u002A462*%
X85075000Y-112875000D03*
X85075000Y-111300000D03*
%TD*%
D29*
%TO.C,M3*%
X48475000Y-138437500D03*
D30*
X48475000Y-138437500D03*
%TD*%
D18*
%TO.C,FM3*%
X59475000Y-138437500D03*
%TD*%
D17*
%TO.C,REF\u002A\u002A445*%
X58075000Y-112875000D03*
X58075000Y-111300000D03*
%TD*%
%TO.C,REF\u002A\u002A513*%
X100075000Y-118875000D03*
X100075000Y-117300000D03*
%TD*%
%TO.C,REF\u002A\u002A427*%
X88075000Y-103875000D03*
X88075000Y-102300000D03*
%TD*%
%TO.C,REF\u002A\u002A30*%
X97075000Y-46875000D03*
X97075000Y-45300000D03*
%TD*%
%TO.C,REF\u002A\u002A392*%
X97075000Y-97875000D03*
X97075000Y-96300000D03*
%TD*%
%TO.C,REF\u002A\u002A174*%
X73075000Y-70875000D03*
X73075000Y-69300000D03*
%TD*%
%TO.C,REF\u002A\u002A33*%
X100075000Y-46875000D03*
X100075000Y-45300000D03*
%TD*%
%TO.C,REF\u002A\u002A460*%
X79075000Y-109875000D03*
X79075000Y-108300000D03*
%TD*%
%TO.C,REF\u002A\u002A518*%
X109075000Y-118875000D03*
X109075000Y-117300000D03*
%TD*%
%TO.C,REF\u002A\u002A54*%
X73075000Y-52875000D03*
X73075000Y-51300000D03*
%TD*%
%TO.C,REF\u002A\u002A325*%
X58075000Y-94875000D03*
X58075000Y-93300000D03*
%TD*%
%TO.C,REF\u002A\u002A116*%
X103075000Y-55875000D03*
X103075000Y-54300000D03*
%TD*%
%TO.C,REF\u002A\u002A178*%
X79075000Y-70875000D03*
X79075000Y-69300000D03*
%TD*%
%TO.C,REF\u002A\u002A245*%
X58075000Y-82875000D03*
X58075000Y-81300000D03*
%TD*%
%TO.C,REF\u002A\u002A505*%
X88075000Y-118875000D03*
X88075000Y-117300000D03*
%TD*%
%TO.C,REF\u002A\u002A280*%
X109075000Y-79875000D03*
X109075000Y-78300000D03*
%TD*%
%TO.C,REF\u002A\u002A189*%
X94075000Y-70875000D03*
X94075000Y-69300000D03*
%TD*%
%TO.C,REF\u002A\u002A323*%
X52075000Y-91875000D03*
X52075000Y-90300000D03*
%TD*%
%TO.C,REF\u002A\u002A277*%
X106075000Y-82875000D03*
X106075000Y-81300000D03*
%TD*%
%TO.C,REF\u002A\u002A406*%
X61075000Y-106875000D03*
X61075000Y-105300000D03*
%TD*%
%TO.C,REF\u002A\u002A430*%
X97075000Y-106875000D03*
X97075000Y-105300000D03*
%TD*%
%TO.C,REF\u002A\u002A481*%
X52075000Y-118875000D03*
X52075000Y-117300000D03*
%TD*%
%TO.C,REF\u002A\u002A256*%
X73075000Y-79875000D03*
X73075000Y-78300000D03*
%TD*%
%TO.C,REF\u002A\u002A32*%
X97075000Y-43875000D03*
X97075000Y-42300000D03*
%TD*%
%TO.C,REF\u002A\u002A466*%
X91075000Y-112875000D03*
X91075000Y-111300000D03*
%TD*%
%TO.C,REF\u002A\u002A335*%
X70075000Y-91875000D03*
X70075000Y-90300000D03*
%TD*%
%TO.C,REF\u002A\u002A147*%
X88075000Y-61875000D03*
X88075000Y-60300000D03*
%TD*%
%TO.C,REF\u002A\u002A488*%
X61075000Y-115875000D03*
X61075000Y-114300000D03*
%TD*%
D31*
%TO.C,X1*%
X87025000Y-137977865D03*
X85825000Y-137977865D03*
%TD*%
D17*
%TO.C,REF\u002A\u002A387*%
X88075000Y-97875000D03*
X88075000Y-96300000D03*
%TD*%
%TO.C,REF\u002A\u002A83*%
X52075000Y-55875000D03*
X52075000Y-54300000D03*
%TD*%
%TO.C,REF\u002A\u002A389*%
X94075000Y-100875000D03*
X94075000Y-99300000D03*
%TD*%
%TO.C,REF\u002A\u002A330*%
X67075000Y-94875000D03*
X67075000Y-93300000D03*
%TD*%
%TO.C,REF\u002A\u002A194*%
X103075000Y-70875000D03*
X103075000Y-69300000D03*
%TD*%
%TO.C,REF\u002A\u002A148*%
X91075000Y-61875000D03*
X91075000Y-60300000D03*
%TD*%
%TO.C,REF\u002A\u002A442*%
X55075000Y-112875000D03*
X55075000Y-111300000D03*
%TD*%
%TO.C,REF\u002A\u002A386*%
X91075000Y-100875000D03*
X91075000Y-99300000D03*
%TD*%
%TO.C,REF\u002A\u002A416*%
X73075000Y-103875000D03*
X73075000Y-102300000D03*
%TD*%
%TO.C,REF\u002A\u002A237*%
X106075000Y-76875000D03*
X106075000Y-75300000D03*
%TD*%
D25*
%TO.C,C11*%
X86825000Y-139577865D03*
X85000000Y-139577865D03*
%TD*%
D17*
%TO.C,REF\u002A\u002A60*%
X79075000Y-49875000D03*
X79075000Y-48300000D03*
%TD*%
%TO.C,REF\u002A\u002A238*%
X109075000Y-76875000D03*
X109075000Y-75300000D03*
%TD*%
%TO.C,REF\u002A\u002A11*%
X64075000Y-43875000D03*
X64075000Y-42300000D03*
%TD*%
%TO.C,REF\u002A\u002A491*%
X64075000Y-115875000D03*
X64075000Y-114300000D03*
%TD*%
%TO.C,REF\u002A\u002A361*%
X52075000Y-100875000D03*
X52075000Y-99300000D03*
%TD*%
%TO.C,REF\u002A\u002A372*%
X67075000Y-97875000D03*
X67075000Y-96300000D03*
%TD*%
%TO.C,REF\u002A\u002A137*%
X76075000Y-64875000D03*
X76075000Y-63300000D03*
%TD*%
%TO.C,REF\u002A\u002A77*%
X106075000Y-52875000D03*
X106075000Y-51300000D03*
%TD*%
%TO.C,REF\u002A\u002A366*%
X61075000Y-100875000D03*
X61075000Y-99300000D03*
%TD*%
%TO.C,REF\u002A\u002A74*%
X103075000Y-52875000D03*
X103075000Y-51300000D03*
%TD*%
%TO.C,REF\u002A\u002A166*%
X61075000Y-70875000D03*
X61075000Y-69300000D03*
%TD*%
%TO.C,REF\u002A\u002A408*%
X61075000Y-103875000D03*
X61075000Y-102300000D03*
%TD*%
%TO.C,REF\u002A\u002A37*%
X106075000Y-46875000D03*
X106075000Y-45300000D03*
%TD*%
%TO.C,REF\u002A\u002A489*%
X64075000Y-118875000D03*
X64075000Y-117300000D03*
%TD*%
%TO.C,REF\u002A\u002A293*%
X70075000Y-88875000D03*
X70075000Y-87300000D03*
%TD*%
%TO.C,REF\u002A\u002A486*%
X61075000Y-118875000D03*
X61075000Y-117300000D03*
%TD*%
%TO.C,REF\u002A\u002A483*%
X52075000Y-115875000D03*
X52075000Y-114300000D03*
%TD*%
%TO.C,REF\u002A\u002A467*%
X88075000Y-109875000D03*
X88075000Y-108300000D03*
%TD*%
%TO.C,REF\u002A\u002A76*%
X103075000Y-49875000D03*
X103075000Y-48300000D03*
%TD*%
%TO.C,REF\u002A\u002A183*%
X82075000Y-67875000D03*
X82075000Y-66300000D03*
%TD*%
%TO.C,REF\u002A\u002A314*%
X103075000Y-88875000D03*
X103075000Y-87300000D03*
%TD*%
%TO.C,REF\u002A\u002A424*%
X85075000Y-103875000D03*
X85075000Y-102300000D03*
%TD*%
%TO.C,REF\u002A\u002A160*%
X109075000Y-61875000D03*
X109075000Y-60300000D03*
%TD*%
%TO.C,REF\u002A\u002A360*%
X109075000Y-91875000D03*
X109075000Y-90300000D03*
%TD*%
%TO.C,REF\u002A\u002A275*%
X100075000Y-79875000D03*
X100075000Y-78300000D03*
%TD*%
%TO.C,REF\u002A\u002A125*%
X58075000Y-64875000D03*
X58075000Y-63300000D03*
%TD*%
%TO.C,REF\u002A\u002A22*%
X85075000Y-46875000D03*
X85075000Y-45300000D03*
%TD*%
%TO.C,REF\u002A\u002A62*%
X85075000Y-52875000D03*
X85075000Y-51300000D03*
%TD*%
%TO.C,REF\u002A\u002A120*%
X109075000Y-55875000D03*
X109075000Y-54300000D03*
%TD*%
%TO.C,REF\u002A\u002A182*%
X85075000Y-70875000D03*
X85075000Y-69300000D03*
%TD*%
%TO.C,REF\u002A\u002A108*%
X91075000Y-55875000D03*
X91075000Y-54300000D03*
%TD*%
%TO.C,REF\u002A\u002A311*%
X94075000Y-85875000D03*
X94075000Y-84300000D03*
%TD*%
%TO.C,REF\u002A\u002A433*%
X100075000Y-106875000D03*
X100075000Y-105300000D03*
%TD*%
%TO.C,REF\u002A\u002A501*%
X82075000Y-118875000D03*
X82075000Y-117300000D03*
%TD*%
%TO.C,REF\u002A\u002A47*%
X58075000Y-49875000D03*
X58075000Y-48300000D03*
%TD*%
%TO.C,REF\u002A\u002A383*%
X82075000Y-97875000D03*
X82075000Y-96300000D03*
%TD*%
%TO.C,REF\u002A\u002A227*%
X88075000Y-73875000D03*
X88075000Y-72300000D03*
%TD*%
%TO.C,REF\u002A\u002A510*%
X97075000Y-118875000D03*
X97075000Y-117300000D03*
%TD*%
%TO.C,REF\u002A\u002A380*%
X79075000Y-97875000D03*
X79075000Y-96300000D03*
%TD*%
%TO.C,REF\u002A\u002A326*%
X61075000Y-94875000D03*
X61075000Y-93300000D03*
%TD*%
%TO.C,REF\u002A\u002A14*%
X73075000Y-46875000D03*
X73075000Y-45300000D03*
%TD*%
%TO.C,REF\u002A\u002A35*%
X100075000Y-43875000D03*
X100075000Y-42300000D03*
%TD*%
%TO.C,REF\u002A\u002A235*%
X100075000Y-73875000D03*
X100075000Y-72300000D03*
%TD*%
%TO.C,REF\u002A\u002A554*%
X103075000Y-124875000D03*
X103075000Y-123300000D03*
%TD*%
%TO.C,REF\u002A\u002A6*%
X61075000Y-46875000D03*
X61075000Y-45300000D03*
%TD*%
%TO.C,REF\u002A\u002A69*%
X94075000Y-52875000D03*
X94075000Y-51300000D03*
%TD*%
%TO.C,REF\u002A\u002A248*%
X61075000Y-79875000D03*
X61075000Y-78300000D03*
%TD*%
%TO.C,REF\u002A\u002A91*%
X64075000Y-55875000D03*
X64075000Y-54300000D03*
%TD*%
%TO.C,REF\u002A\u002A477*%
X106075000Y-112875000D03*
X106075000Y-111300000D03*
%TD*%
%TO.C,REF\u002A\u002A96*%
X73075000Y-55875000D03*
X73075000Y-54300000D03*
%TD*%
%TO.C,REF\u002A\u002A497*%
X76075000Y-118875000D03*
X76075000Y-117300000D03*
%TD*%
%TO.C,REF\u002A\u002A371*%
X64075000Y-97875000D03*
X64075000Y-96300000D03*
%TD*%
%TO.C,REF\u002A\u002A217*%
X76075000Y-76875000D03*
X76075000Y-75300000D03*
%TD*%
%TO.C,REF\u002A\u002A502*%
X85075000Y-118875000D03*
X85075000Y-117300000D03*
%TD*%
%TO.C,REF\u002A\u002A350*%
X97075000Y-94875000D03*
X97075000Y-93300000D03*
%TD*%
%TO.C,REF\u002A\u002A296*%
X73075000Y-85875000D03*
X73075000Y-84300000D03*
%TD*%
D29*
%TO.C,M1*%
X112475000Y-43437500D03*
D30*
X112475000Y-43437500D03*
%TD*%
D17*
%TO.C,REF\u002A\u002A547*%
X88075000Y-121875000D03*
X88075000Y-120300000D03*
%TD*%
%TO.C,REF\u002A\u002A17*%
X76075000Y-46875000D03*
X76075000Y-45300000D03*
%TD*%
%TO.C,REF\u002A\u002A161*%
X52075000Y-70875000D03*
X52075000Y-69300000D03*
%TD*%
%TO.C,REF\u002A\u002A284*%
X55075000Y-85875000D03*
X55075000Y-84300000D03*
%TD*%
%TO.C,REF\u002A\u002A172*%
X67075000Y-67875000D03*
X67075000Y-66300000D03*
%TD*%
D29*
%TO.C,M2*%
X48475000Y-43437500D03*
D30*
X48475000Y-43437500D03*
%TD*%
D17*
%TO.C,REF\u002A\u002A338*%
X79075000Y-94875000D03*
X79075000Y-93300000D03*
%TD*%
%TO.C,REF\u002A\u002A103*%
X82075000Y-55875000D03*
X82075000Y-54300000D03*
%TD*%
%TO.C,REF\u002A\u002A58*%
X79075000Y-52875000D03*
X79075000Y-51300000D03*
%TD*%
%TO.C,REF\u002A\u002A70*%
X97075000Y-52875000D03*
X97075000Y-51300000D03*
%TD*%
%TO.C,REF\u002A\u002A485*%
X58075000Y-118875000D03*
X58075000Y-117300000D03*
%TD*%
%TO.C,REF\u002A\u002A299*%
X76075000Y-85875000D03*
X76075000Y-84300000D03*
%TD*%
%TO.C,REF\u002A\u002A97*%
X76075000Y-58875000D03*
X76075000Y-57300000D03*
%TD*%
%TO.C,REF\u002A\u002A264*%
X85075000Y-79875000D03*
X85075000Y-78300000D03*
%TD*%
%TO.C,REF\u002A\u002A355*%
X100075000Y-91875000D03*
X100075000Y-90300000D03*
%TD*%
%TO.C,REF\u002A\u002A154*%
X103075000Y-64875000D03*
X103075000Y-63300000D03*
%TD*%
%TO.C,REF\u002A\u002A51*%
X64075000Y-49875000D03*
X64075000Y-48300000D03*
%TD*%
%TO.C,REF\u002A\u002A426*%
X91075000Y-106875000D03*
X91075000Y-105300000D03*
%TD*%
%TO.C,REF\u002A\u002A231*%
X94075000Y-73875000D03*
X94075000Y-72300000D03*
%TD*%
%TO.C,REF\u002A\u002A322*%
X55075000Y-94875000D03*
X55075000Y-93300000D03*
%TD*%
%TO.C,REF\u002A\u002A141*%
X82075000Y-64875000D03*
X82075000Y-63300000D03*
%TD*%
%TO.C,REF\u002A\u002A153*%
X100075000Y-64875000D03*
X100075000Y-63300000D03*
%TD*%
%TO.C,REF\u002A\u002A101*%
X82075000Y-58875000D03*
X82075000Y-57300000D03*
%TD*%
D32*
%TO.C,C15*%
X97025000Y-129177865D03*
X96065000Y-129177865D03*
%TD*%
D17*
%TO.C,REF\u002A\u002A81*%
X52075000Y-58875000D03*
X52075000Y-57300000D03*
%TD*%
%TO.C,REF\u002A\u002A249*%
X64075000Y-82875000D03*
X64075000Y-81300000D03*
%TD*%
D27*
%TO.C,Rn2*%
X71650000Y-134575000D03*
X71650000Y-132750000D03*
%TD*%
D17*
%TO.C,REF\u002A\u002A487*%
X58075000Y-115875000D03*
X58075000Y-114300000D03*
%TD*%
%TO.C,REF\u002A\u002A336*%
X73075000Y-91875000D03*
X73075000Y-90300000D03*
%TD*%
%TO.C,REF\u002A\u002A29*%
X94075000Y-46875000D03*
X94075000Y-45300000D03*
%TD*%
%TO.C,REF\u002A\u002A398*%
X109075000Y-100875000D03*
X109075000Y-99300000D03*
%TD*%
%TO.C,REF\u002A\u002A130*%
X67075000Y-64875000D03*
X67075000Y-63300000D03*
%TD*%
%TO.C,REF\u002A\u002A156*%
X103075000Y-61875000D03*
X103075000Y-60300000D03*
%TD*%
%TO.C,REF\u002A\u002A545*%
X88075000Y-124875000D03*
X88075000Y-123300000D03*
%TD*%
%TO.C,REF\u002A\u002A110*%
X97075000Y-58875000D03*
X97075000Y-57300000D03*
%TD*%
%TO.C,REF\u002A\u002A536*%
X73075000Y-121875000D03*
X73075000Y-120300000D03*
%TD*%
%TO.C,REF\u002A\u002A363*%
X52075000Y-97875000D03*
X52075000Y-96300000D03*
%TD*%
%TO.C,REF\u002A\u002A450*%
X67075000Y-112875000D03*
X67075000Y-111300000D03*
%TD*%
%TO.C,REF\u002A\u002A436*%
X103075000Y-103875000D03*
X103075000Y-102300000D03*
%TD*%
%TO.C,REF\u002A\u002A229*%
X94075000Y-76875000D03*
X94075000Y-75300000D03*
%TD*%
%TO.C,REF\u002A\u002A117*%
X106075000Y-58875000D03*
X106075000Y-57300000D03*
%TD*%
%TO.C,REF\u002A\u002A540*%
X79075000Y-121875000D03*
X79075000Y-120300000D03*
%TD*%
%TO.C,REF\u002A\u002A381*%
X82075000Y-100875000D03*
X82075000Y-99300000D03*
%TD*%
%TO.C,REF\u002A\u002A*%
X109075000Y-121875000D03*
X109075000Y-120300000D03*
%TD*%
%TO.C,REF\u002A\u002A271*%
X94075000Y-79875000D03*
X94075000Y-78300000D03*
%TD*%
%TO.C,REF\u002A\u002A126*%
X61075000Y-64875000D03*
X61075000Y-63300000D03*
%TD*%
%TO.C,REF\u002A\u002A102*%
X85075000Y-58875000D03*
X85075000Y-57300000D03*
%TD*%
%TO.C,REF\u002A\u002A196*%
X103075000Y-67875000D03*
X103075000Y-66300000D03*
%TD*%
%TO.C,REF\u002A\u002A431*%
X94075000Y-103875000D03*
X94075000Y-102300000D03*
%TD*%
%TO.C,REF\u002A\u002A493*%
X70075000Y-118875000D03*
X70075000Y-117300000D03*
%TD*%
%TO.C,REF\u002A\u002A420*%
X79075000Y-103875000D03*
X79075000Y-102300000D03*
%TD*%
%TO.C,REF\u002A\u002A551*%
X94075000Y-121875000D03*
X94075000Y-120300000D03*
%TD*%
%TO.C,REF\u002A\u002A63*%
X82075000Y-49875000D03*
X82075000Y-48300000D03*
%TD*%
%TO.C,REF\u002A\u002A94*%
X73075000Y-58875000D03*
X73075000Y-57300000D03*
%TD*%
%TO.C,REF\u002A\u002A490*%
X67075000Y-118875000D03*
X67075000Y-117300000D03*
%TD*%
%TO.C,REF\u002A\u002A382*%
X85075000Y-100875000D03*
X85075000Y-99300000D03*
%TD*%
%TO.C,REF\u002A\u002A362*%
X55075000Y-100875000D03*
X55075000Y-99300000D03*
%TD*%
%TO.C,REF\u002A\u002A82*%
X55075000Y-58875000D03*
X55075000Y-57300000D03*
%TD*%
%TO.C,REF\u002A\u002A177*%
X76075000Y-70875000D03*
X76075000Y-69300000D03*
%TD*%
%TO.C,REF\u002A\u002A89*%
X64075000Y-58875000D03*
X64075000Y-57300000D03*
%TD*%
%TO.C,REF\u002A\u002A109*%
X94075000Y-58875000D03*
X94075000Y-57300000D03*
%TD*%
%TO.C,REF\u002A\u002A92*%
X67075000Y-55875000D03*
X67075000Y-54300000D03*
%TD*%
%TO.C,REF\u002A\u002A131*%
X64075000Y-61875000D03*
X64075000Y-60300000D03*
%TD*%
%TO.C,REF\u002A\u002A135*%
X70075000Y-61875000D03*
X70075000Y-60300000D03*
%TD*%
%TO.C,REF\u002A\u002A418*%
X79075000Y-106875000D03*
X79075000Y-105300000D03*
%TD*%
%TO.C,REF\u002A\u002A152*%
X97075000Y-61875000D03*
X97075000Y-60300000D03*
%TD*%
%TO.C,REF\u002A\u002A240*%
X109075000Y-73875000D03*
X109075000Y-72300000D03*
%TD*%
%TO.C,REF\u002A\u002A351*%
X94075000Y-91875000D03*
X94075000Y-90300000D03*
%TD*%
%TO.C,REF\u002A\u002A294*%
X73075000Y-88875000D03*
X73075000Y-87300000D03*
%TD*%
%TO.C,REF\u002A\u002A105*%
X88075000Y-58875000D03*
X88075000Y-57300000D03*
%TD*%
%TO.C,REF\u002A\u002A515*%
X100075000Y-115875000D03*
X100075000Y-114300000D03*
%TD*%
%TO.C,REF\u002A\u002A142*%
X85075000Y-64875000D03*
X85075000Y-63300000D03*
%TD*%
%TO.C,REF\u002A\u002A407*%
X58075000Y-103875000D03*
X58075000Y-102300000D03*
%TD*%
D33*
%TO.C,X2*%
X94925000Y-127625000D03*
X96325000Y-127625000D03*
X96325000Y-126525000D03*
X94925000Y-126525000D03*
%TD*%
D17*
%TO.C,REF\u002A\u002A12*%
X67075000Y-43875000D03*
X67075000Y-42300000D03*
%TD*%
%TO.C,REF\u002A\u002A455*%
X70075000Y-109875000D03*
X70075000Y-108300000D03*
%TD*%
%TO.C,REF\u002A\u002A80*%
X109075000Y-49875000D03*
X109075000Y-48300000D03*
%TD*%
%TO.C,REF\u002A\u002A438*%
X109075000Y-106875000D03*
X109075000Y-105300000D03*
%TD*%
%TO.C,REF\u002A\u002A25*%
X88075000Y-46875000D03*
X88075000Y-45300000D03*
%TD*%
%TO.C,REF\u002A\u002A225*%
X88075000Y-76875000D03*
X88075000Y-75300000D03*
%TD*%
%TO.C,REF\u002A\u002A378*%
X79075000Y-100875000D03*
X79075000Y-99300000D03*
%TD*%
%TO.C,REF\u002A\u002A38*%
X109075000Y-46875000D03*
X109075000Y-45300000D03*
%TD*%
%TO.C,REF\u002A\u002A449*%
X64075000Y-112875000D03*
X64075000Y-111300000D03*
%TD*%
%TO.C,REF\u002A\u002A168*%
X61075000Y-67875000D03*
X61075000Y-66300000D03*
%TD*%
D28*
%TO.C,C5*%
X84625000Y-135497865D03*
X84625000Y-136457865D03*
%TD*%
D24*
%TO.C,C17*%
X59525000Y-133100000D03*
X61075000Y-133100000D03*
%TD*%
D17*
%TO.C,REF\u002A\u002A88*%
X61075000Y-55875000D03*
X61075000Y-54300000D03*
%TD*%
%TO.C,REF\u002A\u002A357*%
X106075000Y-94875000D03*
X106075000Y-93300000D03*
%TD*%
%TO.C,REF\u002A\u002A301*%
X82075000Y-88875000D03*
X82075000Y-87300000D03*
%TD*%
%TO.C,REF\u002A\u002A521*%
X52075000Y-124875000D03*
X52075000Y-123300000D03*
%TD*%
%TO.C,REF\u002A\u002A478*%
X109075000Y-112875000D03*
X109075000Y-111300000D03*
%TD*%
%TO.C,REF\u002A\u002A396*%
X103075000Y-97875000D03*
X103075000Y-96300000D03*
%TD*%
D34*
%TO.C,L1*%
X77400000Y-128800000D03*
X75300000Y-128800000D03*
%TD*%
D17*
%TO.C,REF\u002A\u002A9*%
X64075000Y-46875000D03*
X64075000Y-45300000D03*
%TD*%
%TO.C,REF\u002A\u002A394*%
X103075000Y-100875000D03*
X103075000Y-99300000D03*
%TD*%
%TO.C,REF\u002A\u002A199*%
X106075000Y-67875000D03*
X106075000Y-66300000D03*
%TD*%
%TO.C,REF\u002A\u002A55*%
X70075000Y-49875000D03*
X70075000Y-48300000D03*
%TD*%
%TO.C,REF\u002A\u002A190*%
X97075000Y-70875000D03*
X97075000Y-69300000D03*
%TD*%
%TO.C,REF\u002A\u002A188*%
X91075000Y-67875000D03*
X91075000Y-66300000D03*
%TD*%
%TO.C,REF\u002A\u002A272*%
X97075000Y-79875000D03*
X97075000Y-78300000D03*
%TD*%
%TO.C,REF\u002A\u002A417*%
X76075000Y-106875000D03*
X76075000Y-105300000D03*
%TD*%
%TO.C,REF\u002A\u002A72*%
X97075000Y-49875000D03*
X97075000Y-48300000D03*
%TD*%
%TO.C,REF\u002A\u002A555*%
X100075000Y-121875000D03*
X100075000Y-120300000D03*
%TD*%
%TO.C,REF\u002A\u002A150*%
X97075000Y-64875000D03*
X97075000Y-63300000D03*
%TD*%
%TO.C,REF\u002A\u002A435*%
X100075000Y-103875000D03*
X100075000Y-102300000D03*
%TD*%
%TO.C,REF\u002A\u002A403*%
X52075000Y-103875000D03*
X52075000Y-102300000D03*
%TD*%
%TO.C,REF\u002A\u002A308*%
X91075000Y-85875000D03*
X91075000Y-84300000D03*
%TD*%
%TO.C,REF\u002A\u002A250*%
X67075000Y-82875000D03*
X67075000Y-81300000D03*
%TD*%
%TO.C,REF\u002A\u002A236*%
X103075000Y-73875000D03*
X103075000Y-72300000D03*
%TD*%
%TO.C,REF\u002A\u002A244*%
X55075000Y-79875000D03*
X55075000Y-78300000D03*
%TD*%
%TO.C,REF\u002A\u002A356*%
X103075000Y-91875000D03*
X103075000Y-90300000D03*
%TD*%
%TO.C,REF\u002A\u002A28*%
X91075000Y-43875000D03*
X91075000Y-42300000D03*
%TD*%
%TO.C,REF\u002A\u002A307*%
X88075000Y-85875000D03*
X88075000Y-84300000D03*
%TD*%
%TO.C,REF\u002A\u002A212*%
X67075000Y-73875000D03*
X67075000Y-72300000D03*
%TD*%
%TO.C,REF\u002A\u002A306*%
X91075000Y-88875000D03*
X91075000Y-87300000D03*
%TD*%
%TO.C,REF\u002A\u002A279*%
X106075000Y-79875000D03*
X106075000Y-78300000D03*
%TD*%
%TO.C,REF\u002A\u002A459*%
X76075000Y-109875000D03*
X76075000Y-108300000D03*
%TD*%
%TO.C,REF\u002A\u002A320*%
X109075000Y-85875000D03*
X109075000Y-84300000D03*
%TD*%
%TO.C,REF\u002A\u002A374*%
X73075000Y-100875000D03*
X73075000Y-99300000D03*
%TD*%
%TO.C,REF\u002A\u002A506*%
X91075000Y-118875000D03*
X91075000Y-117300000D03*
%TD*%
%TO.C,REF\u002A\u002A288*%
X61075000Y-85875000D03*
X61075000Y-84300000D03*
%TD*%
%TO.C,REF\u002A\u002A2*%
X55075000Y-46875000D03*
X55075000Y-45300000D03*
%TD*%
%TO.C,REF\u002A\u002A73*%
X100075000Y-52875000D03*
X100075000Y-51300000D03*
%TD*%
%TO.C,REF\u002A\u002A263*%
X82075000Y-79875000D03*
X82075000Y-78300000D03*
%TD*%
%TO.C,REF\u002A\u002A319*%
X106075000Y-85875000D03*
X106075000Y-84300000D03*
%TD*%
%TO.C,REF\u002A\u002A41*%
X52075000Y-52875000D03*
X52075000Y-51300000D03*
%TD*%
%TO.C,REF\u002A\u002A78*%
X109075000Y-52875000D03*
X109075000Y-51300000D03*
%TD*%
%TO.C,REF\u002A\u002A321*%
X52075000Y-94875000D03*
X52075000Y-93300000D03*
%TD*%
%TO.C,REF\u002A\u002A414*%
X73075000Y-106875000D03*
X73075000Y-105300000D03*
%TD*%
%TO.C,REF\u002A\u002A15*%
X70075000Y-43875000D03*
X70075000Y-42300000D03*
%TD*%
%TO.C,REF\u002A\u002A163*%
X52075000Y-67875000D03*
X52075000Y-66300000D03*
%TD*%
%TO.C,REF\u002A\u002A278*%
X109075000Y-82875000D03*
X109075000Y-81300000D03*
%TD*%
%TO.C,REF\u002A\u002A346*%
X91075000Y-94875000D03*
X91075000Y-93300000D03*
%TD*%
%TO.C,REF\u002A\u002A36*%
X103075000Y-43875000D03*
X103075000Y-42300000D03*
%TD*%
%TO.C,REF\u002A\u002A107*%
X88075000Y-55875000D03*
X88075000Y-54300000D03*
%TD*%
%TO.C,REF\u002A\u002A507*%
X88075000Y-115875000D03*
X88075000Y-114300000D03*
%TD*%
%TO.C,REF\u002A\u002A274*%
X103075000Y-82875000D03*
X103075000Y-81300000D03*
%TD*%
%TO.C,REF\u002A\u002A119*%
X106075000Y-55875000D03*
X106075000Y-54300000D03*
%TD*%
%TO.C,REF\u002A\u002A*%
X106075000Y-124875000D03*
X106075000Y-123300000D03*
%TD*%
%TO.C,REF\u002A\u002A552*%
X97075000Y-121875000D03*
X97075000Y-120300000D03*
%TD*%
%TO.C,REF\u002A\u002A428*%
X91075000Y-103875000D03*
X91075000Y-102300000D03*
%TD*%
%TO.C,REF\u002A\u002A541*%
X82075000Y-124875000D03*
X82075000Y-123300000D03*
%TD*%
%TO.C,REF\u002A\u002A400*%
X109075000Y-97875000D03*
X109075000Y-96300000D03*
%TD*%
%TO.C,REF\u002A\u002A423*%
X82075000Y-103875000D03*
X82075000Y-102300000D03*
%TD*%
%TO.C,REF\u002A\u002A65*%
X88075000Y-52875000D03*
X88075000Y-51300000D03*
%TD*%
%TO.C,REF\u002A\u002A53*%
X70075000Y-52875000D03*
X70075000Y-51300000D03*
%TD*%
%TO.C,REF\u002A\u002A115*%
X100075000Y-55875000D03*
X100075000Y-54300000D03*
%TD*%
%TO.C,REF\u002A\u002A339*%
X76075000Y-91875000D03*
X76075000Y-90300000D03*
%TD*%
%TO.C,REF\u002A\u002A158*%
X109075000Y-64875000D03*
X109075000Y-63300000D03*
%TD*%
%TO.C,REF\u002A\u002A471*%
X94075000Y-109875000D03*
X94075000Y-108300000D03*
%TD*%
%TO.C,REF\u002A\u002A138*%
X79075000Y-64875000D03*
X79075000Y-63300000D03*
%TD*%
%TO.C,REF\u002A\u002A283*%
X52075000Y-85875000D03*
X52075000Y-84300000D03*
%TD*%
%TO.C,REF\u002A\u002A195*%
X100075000Y-67875000D03*
X100075000Y-66300000D03*
%TD*%
%TO.C,REF\u002A\u002A401*%
X52075000Y-106875000D03*
X52075000Y-105300000D03*
%TD*%
%TO.C,REF\u002A\u002A479*%
X106075000Y-109875000D03*
X106075000Y-108300000D03*
%TD*%
%TO.C,REF\u002A\u002A90*%
X67075000Y-58875000D03*
X67075000Y-57300000D03*
%TD*%
%TO.C,REF\u002A\u002A139*%
X76075000Y-61875000D03*
X76075000Y-60300000D03*
%TD*%
%TO.C,REF\u002A\u002A419*%
X76075000Y-103875000D03*
X76075000Y-102300000D03*
%TD*%
%TO.C,REF\u002A\u002A*%
X109075000Y-124875000D03*
X109075000Y-123300000D03*
%TD*%
%TO.C,REF\u002A\u002A255*%
X70075000Y-79875000D03*
X70075000Y-78300000D03*
%TD*%
%TO.C,REF\u002A\u002A522*%
X55075000Y-124875000D03*
X55075000Y-123300000D03*
%TD*%
%TO.C,REF\u002A\u002A289*%
X64075000Y-88875000D03*
X64075000Y-87300000D03*
%TD*%
%TO.C,REF\u002A\u002A1*%
X52075000Y-46875000D03*
X52075000Y-45300000D03*
%TD*%
%TO.C,REF\u002A\u002A252*%
X67075000Y-79875000D03*
X67075000Y-78300000D03*
%TD*%
%TO.C,REF\u002A\u002A57*%
X76075000Y-52875000D03*
X76075000Y-51300000D03*
%TD*%
%TO.C,REF\u002A\u002A133*%
X70075000Y-64875000D03*
X70075000Y-63300000D03*
%TD*%
%TO.C,REF\u002A\u002A253*%
X70075000Y-82875000D03*
X70075000Y-81300000D03*
%TD*%
%TO.C,REF\u002A\u002A95*%
X70075000Y-55875000D03*
X70075000Y-54300000D03*
%TD*%
%TO.C,REF\u002A\u002A214*%
X73075000Y-76875000D03*
X73075000Y-75300000D03*
%TD*%
%TO.C,REF\u002A\u002A503*%
X82075000Y-115875000D03*
X82075000Y-114300000D03*
%TD*%
%TO.C,REF\u002A\u002A201*%
X52075000Y-76875000D03*
X52075000Y-75300000D03*
%TD*%
%TO.C,REF\u002A\u002A44*%
X55075000Y-49875000D03*
X55075000Y-48300000D03*
%TD*%
%TO.C,REF\u002A\u002A498*%
X79075000Y-118875000D03*
X79075000Y-117300000D03*
%TD*%
%TO.C,REF\u002A\u002A298*%
X79075000Y-88875000D03*
X79075000Y-87300000D03*
%TD*%
%TO.C,REF\u002A\u002A*%
X106075000Y-121875000D03*
X106075000Y-120300000D03*
%TD*%
%TO.C,REF\u002A\u002A21*%
X82075000Y-46875000D03*
X82075000Y-45300000D03*
%TD*%
D35*
%TO.C,C13*%
X96065000Y-130375000D03*
X97025000Y-130375000D03*
%TD*%
D17*
%TO.C,REF\u002A\u002A375*%
X70075000Y-97875000D03*
X70075000Y-96300000D03*
%TD*%
D27*
%TO.C,Rn3*%
X69150000Y-134625000D03*
X69150000Y-132800000D03*
%TD*%
D17*
%TO.C,REF\u002A\u002A310*%
X97075000Y-88875000D03*
X97075000Y-87300000D03*
%TD*%
%TO.C,REF\u002A\u002A509*%
X94075000Y-118875000D03*
X94075000Y-117300000D03*
%TD*%
D18*
%TO.C,FM2*%
X112475000Y-63437500D03*
%TD*%
D17*
%TO.C,REF\u002A\u002A447*%
X58075000Y-109875000D03*
X58075000Y-108300000D03*
%TD*%
%TO.C,REF\u002A\u002A122*%
X55075000Y-64875000D03*
X55075000Y-63300000D03*
%TD*%
%TO.C,REF\u002A\u002A66*%
X91075000Y-52875000D03*
X91075000Y-51300000D03*
%TD*%
%TO.C,REF\u002A\u002A219*%
X76075000Y-73875000D03*
X76075000Y-72300000D03*
%TD*%
%TO.C,REF\u002A\u002A7*%
X58075000Y-43875000D03*
X58075000Y-42300000D03*
%TD*%
D36*
%TO.C,L2*%
X79100000Y-127750000D03*
X79100000Y-129325000D03*
%TD*%
D17*
%TO.C,REF\u002A\u002A404*%
X55075000Y-103875000D03*
X55075000Y-102300000D03*
%TD*%
%TO.C,REF\u002A\u002A343*%
X82075000Y-91875000D03*
X82075000Y-90300000D03*
%TD*%
%TO.C,REF\u002A\u002A232*%
X97075000Y-73875000D03*
X97075000Y-72300000D03*
%TD*%
%TO.C,REF\u002A\u002A496*%
X73075000Y-115875000D03*
X73075000Y-114300000D03*
%TD*%
%TO.C,REF\u002A\u002A121*%
X52075000Y-64875000D03*
X52075000Y-63300000D03*
%TD*%
%TO.C,REF\u002A\u002A334*%
X73075000Y-94875000D03*
X73075000Y-93300000D03*
%TD*%
%TO.C,REF\u002A\u002A332*%
X67075000Y-91875000D03*
X67075000Y-90300000D03*
%TD*%
%TO.C,REF\u002A\u002A16*%
X73075000Y-43875000D03*
X73075000Y-42300000D03*
%TD*%
%TO.C,REF\u002A\u002A527*%
X58075000Y-121875000D03*
X58075000Y-120300000D03*
%TD*%
D29*
%TO.C,M4*%
X112475000Y-138437500D03*
D30*
X112475000Y-138437500D03*
%TD*%
D17*
%TO.C,REF\u002A\u002A328*%
X61075000Y-91875000D03*
X61075000Y-90300000D03*
%TD*%
%TO.C,REF\u002A\u002A553*%
X100075000Y-124875000D03*
X100075000Y-123300000D03*
%TD*%
%TO.C,REF\u002A\u002A207*%
X58075000Y-73875000D03*
X58075000Y-72300000D03*
%TD*%
%TO.C,REF\u002A\u002A292*%
X67075000Y-85875000D03*
X67075000Y-84300000D03*
%TD*%
%TO.C,REF\u002A\u002A4*%
X55075000Y-43875000D03*
X55075000Y-42300000D03*
%TD*%
%TO.C,REF\u002A\u002A456*%
X73075000Y-109875000D03*
X73075000Y-108300000D03*
%TD*%
%TO.C,REF\u002A\u002A200*%
X109075000Y-67875000D03*
X109075000Y-66300000D03*
%TD*%
%TO.C,REF\u002A\u002A364*%
X55075000Y-97875000D03*
X55075000Y-96300000D03*
%TD*%
D37*
%TO.C,U3*%
X86425001Y-135898500D03*
X86825001Y-135898500D03*
X87225000Y-135898500D03*
X87624999Y-135898500D03*
X88025001Y-135898500D03*
X88425000Y-135898500D03*
X88824999Y-135898500D03*
X89225001Y-135898500D03*
X89625000Y-135898500D03*
X90024999Y-135898500D03*
X90425001Y-135898500D03*
X90825000Y-135898500D03*
X91224999Y-135898500D03*
X91624999Y-135898500D03*
X92025000Y-135898500D03*
X92424999Y-135898500D03*
X92824999Y-135898500D03*
D38*
X93498500Y-135224999D03*
X93498500Y-134824999D03*
X93498500Y-134425000D03*
X93498500Y-134024999D03*
X93498500Y-133624999D03*
X93498500Y-133225000D03*
X93498500Y-132825001D03*
X93498500Y-132424999D03*
X93498500Y-132025000D03*
X93498500Y-131625001D03*
X93498500Y-131224999D03*
X93498500Y-130825000D03*
X93498500Y-130425001D03*
X93498500Y-130025001D03*
X93498500Y-129625000D03*
X93498500Y-129225001D03*
X93498500Y-128825001D03*
D37*
X92824999Y-128151500D03*
X92424999Y-128151500D03*
X92025000Y-128151500D03*
X91624999Y-128151500D03*
X91224999Y-128151500D03*
X90825000Y-128151500D03*
X90425001Y-128151500D03*
X90024999Y-128151500D03*
X89625000Y-128151500D03*
X89225001Y-128151500D03*
X88824999Y-128151500D03*
X88425000Y-128151500D03*
X88025001Y-128151500D03*
X87625001Y-128151500D03*
X87225000Y-128151500D03*
X86825001Y-128151500D03*
X86425001Y-128151500D03*
D38*
X85751500Y-128825001D03*
X85751500Y-129225001D03*
X85751500Y-129625000D03*
X85751500Y-130025001D03*
X85751500Y-130425001D03*
X85751500Y-130825000D03*
X85751500Y-131224999D03*
X85751500Y-131625001D03*
X85751500Y-132025000D03*
X85751500Y-132424999D03*
X85751500Y-132825001D03*
X85751500Y-133225000D03*
X85751500Y-133624999D03*
X85751500Y-134024999D03*
X85751500Y-134425000D03*
X85751500Y-134824999D03*
X85751500Y-135224999D03*
D39*
X89625000Y-132025000D03*
%TD*%
D17*
%TO.C,REF\u002A\u002A532*%
X67075000Y-121875000D03*
X67075000Y-120300000D03*
%TD*%
%TO.C,REF\u002A\u002A215*%
X70075000Y-73875000D03*
X70075000Y-72300000D03*
%TD*%
%TO.C,REF\u002A\u002A223*%
X82075000Y-73875000D03*
X82075000Y-72300000D03*
%TD*%
%TO.C,REF\u002A\u002A267*%
X88075000Y-79875000D03*
X88075000Y-78300000D03*
%TD*%
%TO.C,REF\u002A\u002A385*%
X88075000Y-100875000D03*
X88075000Y-99300000D03*
%TD*%
%TO.C,REF\u002A\u002A273*%
X100075000Y-82875000D03*
X100075000Y-81300000D03*
%TD*%
%TO.C,REF\u002A\u002A359*%
X106075000Y-91875000D03*
X106075000Y-90300000D03*
%TD*%
%TO.C,REF\u002A\u002A259*%
X76075000Y-79875000D03*
X76075000Y-78300000D03*
%TD*%
%TO.C,REF\u002A\u002A548*%
X91075000Y-121875000D03*
X91075000Y-120300000D03*
%TD*%
%TO.C,REF\u002A\u002A216*%
X73075000Y-73875000D03*
X73075000Y-72300000D03*
%TD*%
%TO.C,REF\u002A\u002A281*%
X52075000Y-88875000D03*
X52075000Y-87300000D03*
%TD*%
%TO.C,REF\u002A\u002A543*%
X82075000Y-121875000D03*
X82075000Y-120300000D03*
%TD*%
%TO.C,REF\u002A\u002A286*%
X61075000Y-88875000D03*
X61075000Y-87300000D03*
%TD*%
%TO.C,REF\u002A\u002A480*%
X109075000Y-109875000D03*
X109075000Y-108300000D03*
%TD*%
%TO.C,REF\u002A\u002A402*%
X55075000Y-106875000D03*
X55075000Y-105300000D03*
%TD*%
%TO.C,REF\u002A\u002A345*%
X88075000Y-94875000D03*
X88075000Y-93300000D03*
%TD*%
%TO.C,REF\u002A\u002A544*%
X85075000Y-121875000D03*
X85075000Y-120300000D03*
%TD*%
%TO.C,REF\u002A\u002A258*%
X79075000Y-82875000D03*
X79075000Y-81300000D03*
%TD*%
%TO.C,REF\u002A\u002A494*%
X73075000Y-118875000D03*
X73075000Y-117300000D03*
%TD*%
%TO.C,REF\u002A\u002A113*%
X100075000Y-58875000D03*
X100075000Y-57300000D03*
%TD*%
%LPD*%
M02*
