%TF.GenerationSoftware,KiCad,Pcbnew,9.0.1*%
%TF.CreationDate,2025-10-31T14:17:25-04:00*%
%TF.ProjectId,main_display_board,6d61696e-5f64-4697-9370-6c61795f626f,rev?*%
%TF.SameCoordinates,Original*%
%TF.FileFunction,Copper,L4,Bot*%
%TF.FilePolarity,Positive*%
%FSLAX46Y46*%
G04 Gerber Fmt 4.6, Leading zero omitted, Abs format (unit mm)*
G04 Created by KiCad (PCBNEW 9.0.1) date 2025-10-31 14:17:25*
%MOMM*%
%LPD*%
G01*
G04 APERTURE LIST*
%TA.AperFunction,ComponentPad*%
%ADD10C,2.600000*%
%TD*%
%TA.AperFunction,ConnectorPad*%
%ADD11C,3.500000*%
%TD*%
%TA.AperFunction,ViaPad*%
%ADD12C,0.600000*%
%TD*%
%TA.AperFunction,ViaPad*%
%ADD13C,1.000000*%
%TD*%
%TA.AperFunction,Conductor*%
%ADD14C,0.150000*%
%TD*%
%TA.AperFunction,Conductor*%
%ADD15C,0.200000*%
%TD*%
%TA.AperFunction,Conductor*%
%ADD16C,0.400000*%
%TD*%
G04 APERTURE END LIST*
D10*
%TO.P,M3,1,1*%
%TO.N,GND*%
X48475000Y-138437500D03*
D11*
X48475000Y-138437500D03*
%TD*%
D10*
%TO.P,M1,1,1*%
%TO.N,GND*%
X112475000Y-43437500D03*
D11*
X112475000Y-43437500D03*
%TD*%
D10*
%TO.P,M2,1,1*%
%TO.N,GND*%
X48475000Y-43437500D03*
D11*
X48475000Y-43437500D03*
%TD*%
D10*
%TO.P,M4,1,1*%
%TO.N,GND*%
X112475000Y-138437500D03*
D11*
X112475000Y-138437500D03*
%TD*%
D12*
%TO.N,/SMPSLX*%
X89850001Y-126787500D03*
X80125000Y-127737500D03*
%TO.N,/3.3V_PHONE*%
X88824999Y-126927866D03*
X95204624Y-130502865D03*
X83575000Y-129987500D03*
D13*
X51100000Y-133050000D03*
D12*
X59975000Y-134312500D03*
X91025000Y-136927865D03*
X83625000Y-135577865D03*
X94510501Y-128873001D03*
X95507337Y-140304894D03*
%TO.N,LED_6*%
X80575000Y-95625000D03*
X74575000Y-89625000D03*
X101575000Y-116625000D03*
X68575000Y-83625000D03*
X104575000Y-119625000D03*
X83575000Y-98625000D03*
X98575000Y-113625000D03*
X107575000Y-122625000D03*
X77575000Y-92625000D03*
X54280054Y-68575266D03*
X89575000Y-104625000D03*
X62575000Y-77625000D03*
X71575000Y-86625000D03*
X92575000Y-107625000D03*
X56575000Y-71625000D03*
X65575000Y-80625000D03*
X59575000Y-74625000D03*
X99175000Y-136287500D03*
X110575000Y-125625000D03*
X86575000Y-101625000D03*
X95575000Y-110625000D03*
X101975000Y-125337500D03*
%TO.N,LED_28*%
X71575000Y-122625000D03*
X87200000Y-126950000D03*
X54277458Y-104572187D03*
X68575000Y-119625000D03*
X74575000Y-125625000D03*
X59575000Y-110625000D03*
X62575000Y-113625000D03*
X86106985Y-120005515D03*
X65575000Y-116625000D03*
X56575000Y-107625000D03*
%TO.N,LED_19*%
X65600000Y-117850000D03*
X110575000Y-47625000D03*
X66030515Y-101193015D03*
X65500000Y-123850000D03*
X65600000Y-111650000D03*
X65600000Y-113650000D03*
X65800000Y-107550000D03*
X104981351Y-42031351D03*
X67602183Y-126182092D03*
X107575000Y-44625000D03*
X65600000Y-105650000D03*
X54269301Y-89562172D03*
X65600000Y-119650000D03*
%TO.N,LED_2*%
X86575000Y-59625000D03*
X80575000Y-53625000D03*
X83575000Y-56625000D03*
X95575000Y-68625000D03*
X71575000Y-44625000D03*
X77575000Y-50625000D03*
X53425000Y-51775000D03*
X98575000Y-71625000D03*
X74575000Y-47625000D03*
X92319279Y-138931329D03*
X92575000Y-65625000D03*
X107575000Y-80625000D03*
X89575000Y-62625000D03*
X101575000Y-74625000D03*
X110575000Y-83625000D03*
X104575000Y-77625000D03*
X68981351Y-42031351D03*
%TO.N,LED_16*%
X92575000Y-113625000D03*
X89575000Y-110625000D03*
X56575000Y-77625000D03*
X62575000Y-83625000D03*
X59575000Y-80625000D03*
X96100000Y-132750000D03*
X104575000Y-125625000D03*
X86575000Y-107625000D03*
X83575000Y-104625000D03*
X74575000Y-95625000D03*
X71575000Y-92625000D03*
X68575000Y-89625000D03*
X65575000Y-86625000D03*
X98575000Y-119625000D03*
X54225000Y-74587500D03*
X101575000Y-122625000D03*
X95789989Y-124765662D03*
X80575000Y-101625000D03*
X77575000Y-98625000D03*
X95575000Y-116625000D03*
%TO.N,LED_9*%
X92725000Y-120637500D03*
X71575000Y-68625000D03*
X95575000Y-92625000D03*
X110575000Y-107625000D03*
X86575000Y-83625000D03*
X104575000Y-101625000D03*
X56575000Y-53625000D03*
X62575000Y-59625000D03*
X107575000Y-104625000D03*
X77575000Y-74625000D03*
X68575000Y-65625000D03*
X92575000Y-89625000D03*
X59575000Y-56625000D03*
X65575000Y-62625000D03*
X89575000Y-86625000D03*
X74575000Y-71625000D03*
X80575000Y-77625000D03*
X98575000Y-95625000D03*
X97748000Y-134339984D03*
X53575000Y-50625000D03*
X101575000Y-98625000D03*
X83575000Y-80625000D03*
%TO.N,LED_11*%
X80675000Y-104637500D03*
X80738770Y-108770662D03*
X83300000Y-126050000D03*
X80900000Y-116550000D03*
X80600000Y-120650000D03*
X80925000Y-110487500D03*
X80625000Y-102787500D03*
X80534171Y-114706284D03*
%TO.N,LED_15*%
X59575000Y-104625000D03*
X77575000Y-122625000D03*
X90100067Y-125123461D03*
X56575000Y-101625000D03*
X71575000Y-116625000D03*
X80575000Y-125625000D03*
X89775000Y-123687500D03*
X54274713Y-98568874D03*
X68575000Y-113625000D03*
X74575000Y-119625000D03*
X62575000Y-107625000D03*
X65575000Y-110625000D03*
%TO.N,LED_20*%
X62586787Y-120815129D03*
X56975000Y-98337500D03*
X66806422Y-126099818D03*
X62648750Y-108750000D03*
X62600000Y-116650000D03*
X62648750Y-110771025D03*
X62600000Y-114850000D03*
X62650000Y-105100000D03*
%TO.N,LED_23*%
X53975000Y-77637500D03*
X89397551Y-137654098D03*
X92981351Y-42031351D03*
X98575000Y-47625000D03*
X101575000Y-50625000D03*
X104575000Y-53625000D03*
X110575000Y-59625000D03*
X95575000Y-44625000D03*
X107575000Y-56625000D03*
%TO.N,LED_25*%
X95400000Y-131300000D03*
X54239146Y-110654972D03*
X89675000Y-111737500D03*
X89825000Y-113737500D03*
X59575000Y-116625000D03*
X89575000Y-117737500D03*
X68575000Y-125625000D03*
X65575000Y-122625000D03*
X56575000Y-113625000D03*
X62575000Y-119625000D03*
%TO.N,LED_10*%
X83500000Y-117850000D03*
X83725000Y-111737500D03*
X83925000Y-107537500D03*
X53575000Y-122625000D03*
X83775000Y-105737500D03*
X83690164Y-123588694D03*
X84151000Y-113537500D03*
X56575000Y-125625000D03*
X84105114Y-125186625D03*
X83500000Y-119650000D03*
%TO.N,LED_4*%
X101575000Y-92625000D03*
X74575000Y-65625000D03*
X95575000Y-86625000D03*
X107575000Y-98625000D03*
X83575000Y-74625000D03*
X80575000Y-71625000D03*
X110575000Y-101625000D03*
X65575000Y-56625000D03*
X89575000Y-80625000D03*
X98575000Y-89625000D03*
X77575000Y-68625000D03*
X62575000Y-53625000D03*
X71575000Y-62625000D03*
X53575000Y-44625000D03*
X92575000Y-83625000D03*
X104575000Y-95625000D03*
X59575000Y-50625000D03*
X56575000Y-47625000D03*
X68575000Y-59625000D03*
X86575000Y-77625000D03*
X94102318Y-137333083D03*
%TO.N,LED_8*%
X65575000Y-68625000D03*
X104575000Y-107625000D03*
X56575000Y-59625000D03*
X83575000Y-86625000D03*
X68575000Y-71625000D03*
X53575000Y-56625000D03*
X95475000Y-123487500D03*
X86575000Y-89625000D03*
X62575000Y-65625000D03*
X98575000Y-101625000D03*
X59575000Y-62625000D03*
X77575000Y-80625000D03*
X98074738Y-135109091D03*
X89575000Y-92625000D03*
X92575000Y-95625000D03*
X95575000Y-98625000D03*
X74575000Y-77625000D03*
X71575000Y-74625000D03*
X101575000Y-104625000D03*
X80575000Y-83625000D03*
X107575000Y-110625000D03*
X110575000Y-113625000D03*
%TO.N,LED_3*%
X62981351Y-42031351D03*
X93400000Y-136950000D03*
X95575000Y-74625000D03*
X86575000Y-65625000D03*
X89575000Y-68625000D03*
X107575000Y-86625000D03*
X110575000Y-89625000D03*
X104575000Y-83625000D03*
X98575000Y-77625000D03*
X65575000Y-44625000D03*
X101575000Y-80625000D03*
X80575000Y-59625000D03*
X77575000Y-56625000D03*
X68575000Y-47625000D03*
X71575000Y-50625000D03*
X83575000Y-62625000D03*
X92575000Y-71625000D03*
X53600000Y-47500000D03*
X74575000Y-53625000D03*
%TO.N,LED_5*%
X74575000Y-59625000D03*
X68575000Y-53625000D03*
X95575000Y-80625000D03*
X104575000Y-89625000D03*
X89575000Y-74625000D03*
X65575000Y-50625000D03*
X71575000Y-56625000D03*
X80575000Y-65625000D03*
X110575000Y-95625000D03*
X86575000Y-71625000D03*
X94621046Y-137942119D03*
X59575000Y-44625000D03*
X98575000Y-83625000D03*
X92575000Y-77625000D03*
X56981351Y-42031351D03*
X101575000Y-86625000D03*
X77575000Y-62625000D03*
X62575000Y-47625000D03*
X83575000Y-68625000D03*
X107575000Y-92625000D03*
%TO.N,LED_27*%
X86875000Y-110737500D03*
X62575000Y-125625000D03*
X59575000Y-122625000D03*
X86625000Y-114687500D03*
X87075000Y-116237500D03*
X56575000Y-119625000D03*
X86675000Y-108687500D03*
X86813970Y-120712500D03*
X54225000Y-116587500D03*
X87897999Y-126050000D03*
%TO.N,LED_22*%
X110575000Y-65625000D03*
X92575000Y-47625000D03*
X88600001Y-137591542D03*
X101575000Y-56625000D03*
X95575000Y-50625000D03*
X53625000Y-69837500D03*
X104575000Y-59625000D03*
X107575000Y-62625000D03*
X98575000Y-53625000D03*
X89575000Y-44625000D03*
X86981351Y-42031351D03*
%TO.N,LED_0*%
X107575000Y-68625000D03*
X83575000Y-44625000D03*
X80981351Y-42031351D03*
X89575000Y-50625000D03*
X101575000Y-62625000D03*
X91300000Y-137700000D03*
X98575000Y-59625000D03*
X92575000Y-53625000D03*
X86575000Y-47625000D03*
X104575000Y-65625000D03*
X53425000Y-63987500D03*
X110575000Y-71625000D03*
X95575000Y-56625000D03*
%TO.N,LED_18*%
X68900000Y-110350000D03*
X68800000Y-104550000D03*
X77309424Y-125475000D03*
X56925000Y-92337500D03*
X68600000Y-114850000D03*
X68600000Y-108750000D03*
%TO.N,LED_1*%
X110575000Y-77625000D03*
X89575000Y-56625000D03*
X80575000Y-47625000D03*
X107575000Y-74625000D03*
X92575000Y-59625000D03*
X104575000Y-71625000D03*
X53175000Y-59687500D03*
X98575000Y-65625000D03*
X95575000Y-62625000D03*
X77575000Y-44625000D03*
X91900000Y-138250000D03*
X101575000Y-68625000D03*
X83575000Y-50625000D03*
X86575000Y-53625000D03*
X74981351Y-42031351D03*
%TO.N,LED_21*%
X104575000Y-47625000D03*
X66009145Y-126165794D03*
X59581250Y-113931250D03*
X110575000Y-53625000D03*
X59396061Y-111850576D03*
X101575000Y-44625000D03*
X107575000Y-50625000D03*
X59725000Y-101687500D03*
X59575000Y-89887500D03*
X98981351Y-42031351D03*
X59500000Y-117800000D03*
X59575000Y-105787500D03*
X59175000Y-94187500D03*
X59475000Y-99787500D03*
X59625000Y-107787500D03*
X59850000Y-95812500D03*
X54225000Y-83587500D03*
%TO.N,LED_12*%
X78125000Y-107587500D03*
X82423838Y-125987011D03*
X77600000Y-117550000D03*
X77600000Y-111750000D03*
X77575000Y-99587500D03*
X77975000Y-101637500D03*
X77600000Y-113550000D03*
X77725000Y-105787500D03*
%TO.N,LED_7*%
X56575000Y-65625000D03*
X95575000Y-104625000D03*
X62575000Y-71625000D03*
X98575000Y-107625000D03*
X71575000Y-80625000D03*
X104575000Y-113625000D03*
X59575000Y-68625000D03*
X98600000Y-135712500D03*
X65575000Y-74625000D03*
X80575000Y-89625000D03*
X86575000Y-95625000D03*
X74575000Y-83625000D03*
X110575000Y-119625000D03*
X89575000Y-98625000D03*
X107575000Y-116625000D03*
X92575000Y-101625000D03*
X101575000Y-110625000D03*
X101375000Y-123837500D03*
X53575000Y-62625000D03*
X68575000Y-77625000D03*
X77575000Y-86625000D03*
X83575000Y-92625000D03*
%TO.N,LED_24*%
X83575000Y-110625000D03*
X92575000Y-119625000D03*
X56575000Y-83625000D03*
X80575000Y-107625000D03*
X74575000Y-101625000D03*
X86575000Y-113625000D03*
X95453215Y-132098231D03*
X98569588Y-125486011D03*
X77575000Y-104625000D03*
X65575000Y-92625000D03*
X54273798Y-80567757D03*
X71575000Y-98625000D03*
X68575000Y-95625000D03*
X62575000Y-89625000D03*
X59575000Y-86625000D03*
X89575000Y-116625000D03*
X95575000Y-122625000D03*
%TO.N,LED_14*%
X54290712Y-86587404D03*
X85981250Y-119031250D03*
X80575000Y-113625000D03*
X74575000Y-107625000D03*
X65575000Y-98625000D03*
X68575000Y-101625000D03*
X62575000Y-95625000D03*
X77575000Y-110625000D03*
X59575000Y-92625000D03*
X56575000Y-89625000D03*
X89575000Y-122625000D03*
X83575000Y-116625000D03*
X92575000Y-125625000D03*
X71575000Y-104625000D03*
%TO.N,/SMPSFB*%
X82947787Y-132477213D03*
X90649999Y-126212500D03*
%TO.N,LED_13*%
X74500000Y-108750000D03*
X68759024Y-98381883D03*
X74500000Y-114750000D03*
X81520248Y-125946187D03*
X74875000Y-104387500D03*
X75100000Y-110250000D03*
%TO.N,GND*%
X97230558Y-133269463D03*
X58750000Y-135350000D03*
X89775000Y-132527865D03*
X96750000Y-129787500D03*
X62150000Y-133100000D03*
X92275000Y-134477865D03*
X89825000Y-136977865D03*
X87425000Y-129577865D03*
X92325000Y-129627865D03*
X87275000Y-134327865D03*
X95205624Y-129352865D03*
X62150000Y-130800000D03*
X82425000Y-136777865D03*
X77925000Y-131187500D03*
X83625000Y-136457865D03*
X98059525Y-127347025D03*
X83700000Y-139506329D03*
X89525000Y-130327865D03*
X64175000Y-135487500D03*
X99425000Y-130225000D03*
X93851897Y-127187026D03*
%TO.N,SERIAL_D+*%
X81150000Y-134175000D03*
X84375000Y-129037500D03*
%TO.N,SERIAL_D-*%
X80100000Y-133225000D03*
X84800000Y-128312500D03*
%TO.N,/ANTENNA*%
X99565572Y-129365482D03*
%TO.N,LED_17*%
X71615129Y-117597461D03*
X78100612Y-125140009D03*
X71500000Y-105850000D03*
X71850000Y-107800000D03*
X71800000Y-113450000D03*
X71875000Y-101937500D03*
X71600000Y-111750000D03*
X65825000Y-95537500D03*
%TO.N,LED_26*%
X68575000Y-107625000D03*
X77575000Y-116625000D03*
X62575000Y-101625000D03*
X59575000Y-98625000D03*
X54280054Y-92575266D03*
X83575000Y-122625000D03*
X65575000Y-104625000D03*
X56575000Y-95625000D03*
X86575000Y-125625000D03*
X74575000Y-113625000D03*
X71575000Y-110625000D03*
X80575000Y-119625000D03*
%TD*%
D14*
%TO.N,/SMPSLX*%
X88900001Y-127737500D02*
X89850001Y-126787500D01*
X80125000Y-127737500D02*
X88900001Y-127737500D01*
X89850001Y-126787500D02*
X89625000Y-126787500D01*
D15*
%TO.N,LED_6*%
X59575000Y-74625000D02*
X62575000Y-77625000D01*
D14*
X99025000Y-130639588D02*
X98849000Y-130463588D01*
D15*
X68575000Y-83625000D02*
X71575000Y-86625000D01*
D14*
X101475000Y-125787500D02*
X101925000Y-125337500D01*
D15*
X83575000Y-98625000D02*
X86575000Y-101625000D01*
X56575000Y-71625000D02*
X59575000Y-74625000D01*
X107575000Y-122625000D02*
X110575000Y-125625000D01*
X92575000Y-107625000D02*
X95575000Y-110625000D01*
X95575000Y-110625000D02*
X98575000Y-113625000D01*
D14*
X98849000Y-129986412D02*
X99025000Y-129810412D01*
X99025000Y-129091466D02*
X99025000Y-128187500D01*
X99475000Y-127737500D02*
X99475000Y-125787500D01*
D15*
X77575000Y-92625000D02*
X80575000Y-95625000D01*
X54280054Y-68575266D02*
X54280054Y-69330054D01*
X71575000Y-86625000D02*
X74575000Y-89625000D01*
X74575000Y-89625000D02*
X77575000Y-92625000D01*
X62575000Y-77625000D02*
X65575000Y-80625000D01*
X65575000Y-80625000D02*
X68575000Y-83625000D01*
D14*
X99475000Y-125787500D02*
X101475000Y-125787500D01*
X99025000Y-129639498D02*
X98989572Y-129604070D01*
D15*
X104575000Y-119625000D02*
X107575000Y-122625000D01*
D14*
X98849000Y-130463588D02*
X98849000Y-129986412D01*
X99025000Y-135025000D02*
X99025000Y-130639588D01*
X98989572Y-129126894D02*
X99025000Y-129091466D01*
D15*
X98575000Y-113625000D02*
X101575000Y-116625000D01*
X80575000Y-95625000D02*
X83575000Y-98625000D01*
X101575000Y-116625000D02*
X104575000Y-119625000D01*
D14*
X99025000Y-128187500D02*
X99475000Y-127737500D01*
X99175000Y-136287500D02*
X99175000Y-135175000D01*
D15*
X54280054Y-69330054D02*
X56575000Y-71625000D01*
D14*
X99175000Y-135175000D02*
X99025000Y-135025000D01*
X99025000Y-129810412D02*
X99025000Y-129639498D01*
D15*
X86575000Y-101625000D02*
X89575000Y-104625000D01*
D14*
X98989572Y-129604070D02*
X98989572Y-129126894D01*
D15*
X89575000Y-104625000D02*
X92575000Y-107625000D01*
D14*
%TO.N,LED_28*%
X85975000Y-120137500D02*
X86106985Y-120005515D01*
X86500000Y-123050000D02*
X85975000Y-122525000D01*
D15*
X59575000Y-110625000D02*
X62575000Y-113625000D01*
D14*
X85975000Y-122525000D02*
X85975000Y-120137500D01*
D15*
X71575000Y-122625000D02*
X74575000Y-125625000D01*
X54277458Y-104572187D02*
X54175000Y-104674645D01*
X65575000Y-116625000D02*
X68575000Y-119625000D01*
D14*
X87200000Y-123750000D02*
X86500000Y-123050000D01*
D15*
X68575000Y-119625000D02*
X71575000Y-122625000D01*
D14*
X87200000Y-126950000D02*
X87200000Y-123750000D01*
D15*
X56575000Y-107625000D02*
X59575000Y-110625000D01*
X54175000Y-105225000D02*
X56575000Y-107625000D01*
X54175000Y-104674645D02*
X54175000Y-105225000D01*
X62575000Y-113625000D02*
X65575000Y-116625000D01*
D14*
%TO.N,LED_19*%
X65600000Y-113650000D02*
X65600000Y-111650000D01*
X65700000Y-105850000D02*
X65700000Y-105750000D01*
X65800000Y-107550000D02*
X65800000Y-105950000D01*
X65700000Y-105750000D02*
X65600000Y-105650000D01*
X65800000Y-105950000D02*
X65700000Y-105850000D01*
X67602183Y-125466771D02*
X65985412Y-123850000D01*
X54101162Y-91113662D02*
X64180515Y-101193015D01*
X65985412Y-123850000D02*
X65500000Y-123850000D01*
D15*
X107575000Y-44625000D02*
X110575000Y-47625000D01*
D14*
X65600000Y-119650000D02*
X65600000Y-117850000D01*
X67602183Y-126182092D02*
X67602183Y-125466771D01*
D15*
X104981351Y-42031351D02*
X107575000Y-44625000D01*
D14*
X54269301Y-89562172D02*
X54101162Y-89730311D01*
X64180515Y-101193015D02*
X66030515Y-101193015D01*
X54101162Y-89730311D02*
X54101162Y-91113662D01*
D15*
%TO.N,LED_2*%
X89575000Y-62625000D02*
X92575000Y-65625000D01*
D14*
X53425000Y-51775000D02*
X53450000Y-51750000D01*
D15*
X104575000Y-77625000D02*
X107575000Y-80625000D01*
X95575000Y-68625000D02*
X98575000Y-71625000D01*
D14*
X75425000Y-128451000D02*
X64980418Y-128451000D01*
X92319279Y-138931329D02*
X81868829Y-138931329D01*
D15*
X83575000Y-56625000D02*
X86575000Y-59625000D01*
D14*
X52174000Y-51787500D02*
X53412500Y-51787500D01*
D15*
X86575000Y-59625000D02*
X89575000Y-62625000D01*
X107575000Y-80625000D02*
X110575000Y-83625000D01*
X77575000Y-50625000D02*
X80575000Y-53625000D01*
X98575000Y-71625000D02*
X101575000Y-74625000D01*
X80575000Y-53625000D02*
X83575000Y-56625000D01*
X92575000Y-65625000D02*
X95575000Y-68625000D01*
D14*
X61099738Y-127735291D02*
X52174000Y-118809553D01*
X52174000Y-118809553D02*
X52174000Y-51787500D01*
D15*
X74575000Y-47625000D02*
X77575000Y-50625000D01*
D14*
X81868829Y-138931329D02*
X75425000Y-132487500D01*
D15*
X71575000Y-44625000D02*
X74575000Y-47625000D01*
X101575000Y-74625000D02*
X104575000Y-77625000D01*
D14*
X75425000Y-132487500D02*
X75425000Y-128451000D01*
D15*
X68981351Y-42031351D02*
X71575000Y-44625000D01*
D14*
X53412500Y-51787500D02*
X53425000Y-51775000D01*
X64264709Y-127735291D02*
X61099738Y-127735291D01*
X64980418Y-128451000D02*
X64264709Y-127735291D01*
%TO.N,LED_16*%
X95917678Y-124955178D02*
X96125000Y-125162500D01*
X96125000Y-125237500D02*
X97125000Y-126237500D01*
D15*
X89575000Y-110625000D02*
X92575000Y-113625000D01*
X80575000Y-101625000D02*
X83575000Y-104625000D01*
X68575000Y-89625000D02*
X71575000Y-92625000D01*
X92575000Y-113625000D02*
X95575000Y-116625000D01*
X101575000Y-122625000D02*
X104575000Y-125625000D01*
X83575000Y-104625000D02*
X86575000Y-107625000D01*
X71575000Y-92625000D02*
X74575000Y-95625000D01*
X62575000Y-83625000D02*
X65575000Y-86625000D01*
X65575000Y-86625000D02*
X68575000Y-89625000D01*
D14*
X97326000Y-131524000D02*
X96100000Y-132750000D01*
D15*
X98575000Y-119625000D02*
X101575000Y-122625000D01*
D14*
X97125000Y-126237500D02*
X97125000Y-127741889D01*
D15*
X77575000Y-98625000D02*
X80575000Y-101625000D01*
X95575000Y-116625000D02*
X98575000Y-119625000D01*
X54225000Y-75275000D02*
X56575000Y-77625000D01*
X74575000Y-95625000D02*
X77575000Y-98625000D01*
X54225000Y-74587500D02*
X54225000Y-75275000D01*
X86575000Y-107625000D02*
X89575000Y-110625000D01*
D14*
X97125000Y-127741889D02*
X97326000Y-127942889D01*
X95917678Y-124893351D02*
X95917678Y-124955178D01*
D15*
X56575000Y-77625000D02*
X59575000Y-80625000D01*
X59575000Y-80625000D02*
X62575000Y-83625000D01*
D14*
X96025000Y-125000674D02*
X96025000Y-125237500D01*
X95789989Y-124765662D02*
X96025000Y-125000674D01*
X97326000Y-127942889D02*
X97326000Y-131524000D01*
X96125000Y-125162500D02*
X96125000Y-125237500D01*
X95789989Y-124765662D02*
X95917678Y-124893351D01*
D15*
%TO.N,LED_9*%
X104575000Y-101625000D02*
X107575000Y-104625000D01*
X74575000Y-71625000D02*
X77575000Y-74625000D01*
X95575000Y-92625000D02*
X98575000Y-95625000D01*
D14*
X97972000Y-134187500D02*
X97900484Y-134187500D01*
D15*
X62575000Y-59625000D02*
X65575000Y-62625000D01*
D14*
X95713588Y-124063500D02*
X95739588Y-124037500D01*
X97667550Y-125894950D02*
X97483525Y-126078975D01*
X95739588Y-124037500D02*
X95875000Y-124037500D01*
X97972000Y-131382889D02*
X97972000Y-134187500D01*
D15*
X98575000Y-95625000D02*
X101575000Y-98625000D01*
D14*
X92725000Y-120637500D02*
X92725000Y-121587500D01*
D15*
X53575000Y-50625000D02*
X56575000Y-53625000D01*
D14*
X92725000Y-121587500D02*
X95175000Y-124037500D01*
D15*
X77575000Y-74625000D02*
X80575000Y-77625000D01*
X59575000Y-56625000D02*
X62575000Y-59625000D01*
X65575000Y-62625000D02*
X68575000Y-65625000D01*
D14*
X95236412Y-124063500D02*
X95713588Y-124063500D01*
D15*
X92575000Y-89625000D02*
X95575000Y-92625000D01*
D14*
X97642588Y-125809221D02*
X97642588Y-125869987D01*
D15*
X101575000Y-98625000D02*
X104575000Y-101625000D01*
D14*
X97900484Y-134187500D02*
X97748000Y-134339984D01*
D15*
X83575000Y-80625000D02*
X86575000Y-83625000D01*
X68575000Y-65625000D02*
X71575000Y-68625000D01*
D14*
X97483525Y-126078975D02*
X97483525Y-127604025D01*
D15*
X89575000Y-86625000D02*
X92575000Y-89625000D01*
X107575000Y-104625000D02*
X110575000Y-107625000D01*
D14*
X97642588Y-125869987D02*
X97667550Y-125894950D01*
X97796000Y-131206888D02*
X97972000Y-131382889D01*
X97548000Y-125714632D02*
X97642588Y-125809221D01*
D15*
X71575000Y-68625000D02*
X74575000Y-71625000D01*
D14*
X97796000Y-127916500D02*
X97796000Y-131206888D01*
D15*
X80575000Y-77625000D02*
X83575000Y-80625000D01*
D14*
X95175000Y-124037500D02*
X95210412Y-124037500D01*
D15*
X56575000Y-53625000D02*
X59575000Y-56625000D01*
D14*
X95210412Y-124037500D02*
X95236412Y-124063500D01*
X95875000Y-124037500D02*
X97548000Y-125710500D01*
X97483525Y-127604025D02*
X97796000Y-127916500D01*
D15*
X86575000Y-83625000D02*
X89575000Y-86625000D01*
D14*
X97548000Y-125710500D02*
X97548000Y-125714632D01*
%TO.N,LED_11*%
X80675000Y-104637500D02*
X80675000Y-102837500D01*
X80925000Y-110487500D02*
X80925000Y-108987500D01*
X80600000Y-123350000D02*
X80600000Y-120650000D01*
X80925000Y-108987500D02*
X80725000Y-108787500D01*
X83300000Y-126050000D02*
X80600000Y-123350000D01*
X80675000Y-102837500D02*
X80625000Y-102787500D01*
X80900000Y-116550000D02*
X80900000Y-115050000D01*
X80900000Y-115050000D02*
X80600000Y-114750000D01*
%TO.N,LED_15*%
X90100067Y-125123461D02*
X89843143Y-124866537D01*
X89843143Y-124866537D02*
X89843143Y-123755643D01*
D15*
X71575000Y-116625000D02*
X74575000Y-119625000D01*
X65575000Y-110625000D02*
X68575000Y-113625000D01*
X59575000Y-104625000D02*
X62575000Y-107625000D01*
X54175000Y-99225000D02*
X56575000Y-101625000D01*
X56575000Y-101625000D02*
X59575000Y-104625000D01*
X62575000Y-107625000D02*
X65575000Y-110625000D01*
X54175000Y-98668587D02*
X54175000Y-99225000D01*
X77575000Y-122625000D02*
X80575000Y-125625000D01*
X74575000Y-119625000D02*
X77575000Y-122625000D01*
X54274713Y-98568874D02*
X54175000Y-98668587D01*
X68575000Y-113625000D02*
X71575000Y-116625000D01*
D14*
X89843143Y-123755643D02*
X89775000Y-123687500D01*
%TO.N,LED_20*%
X62500000Y-102550000D02*
X59487500Y-102550000D01*
X62700000Y-120850000D02*
X62600000Y-120850000D01*
X56975000Y-100037500D02*
X56975000Y-98337500D01*
X59487500Y-102550000D02*
X56975000Y-100037500D01*
X62650000Y-105100000D02*
X62500000Y-104950000D01*
X66806422Y-126099818D02*
X64800000Y-124093396D01*
X62648750Y-108750000D02*
X62648750Y-108698750D01*
X62500000Y-104950000D02*
X62500000Y-102550000D01*
X64800000Y-124093396D02*
X64800000Y-122950000D01*
X64800000Y-122950000D02*
X62700000Y-120850000D01*
X62600000Y-116650000D02*
X62600000Y-114850000D01*
X62648750Y-110771025D02*
X62648750Y-108750000D01*
D15*
%TO.N,LED_23*%
X98575000Y-47625000D02*
X101575000Y-50625000D01*
D14*
X87098047Y-135275000D02*
X84552000Y-135275000D01*
X56700000Y-120600000D02*
X53649000Y-117549000D01*
X53649000Y-90513500D02*
X53649000Y-81113500D01*
X77745389Y-126949000D02*
X65545388Y-126949000D01*
X82698000Y-135275000D02*
X80558888Y-135275000D01*
X61551000Y-126201000D02*
X61500000Y-126150000D01*
X53675000Y-77937500D02*
X53975000Y-77637500D01*
X61500000Y-126150000D02*
X61500000Y-125400000D01*
X84552000Y-135275000D02*
X84552000Y-135193888D01*
X82698000Y-135193889D02*
X82698000Y-135275000D01*
X61500000Y-125400000D02*
X56700000Y-120600000D01*
D15*
X107575000Y-56625000D02*
X110575000Y-59625000D01*
D14*
X77025000Y-127669389D02*
X77745389Y-126949000D01*
X53649000Y-117549000D02*
X53649000Y-105563500D01*
X53675000Y-105537500D02*
X53626000Y-105488500D01*
X53675000Y-81087500D02*
X53675000Y-77937500D01*
X65545388Y-126949000D02*
X64797388Y-126201000D01*
X77025000Y-131741112D02*
X77025000Y-127669389D01*
X83241024Y-134650865D02*
X82698000Y-135193889D01*
X53626000Y-105488500D02*
X53626000Y-90538500D01*
X64797388Y-126201000D02*
X61551000Y-126201000D01*
X84552000Y-135193888D02*
X84008976Y-134650865D01*
D15*
X101575000Y-50625000D02*
X104575000Y-53625000D01*
X95575000Y-44625000D02*
X98575000Y-47625000D01*
D14*
X80558888Y-135275000D02*
X77025000Y-131741112D01*
X84008976Y-134650865D02*
X83241024Y-134650865D01*
X53649000Y-105563500D02*
X53675000Y-105537500D01*
D15*
X92981351Y-42031351D02*
X95575000Y-44625000D01*
D14*
X89397551Y-137574504D02*
X87098047Y-135275000D01*
X89397551Y-137654098D02*
X89397551Y-137574504D01*
X53625000Y-90537500D02*
X53649000Y-90513500D01*
D15*
X104575000Y-53625000D02*
X107575000Y-56625000D01*
D14*
X53626000Y-90538500D02*
X53625000Y-90537500D01*
X53649000Y-81113500D02*
X53675000Y-81087500D01*
%TO.N,LED_25*%
X90125000Y-118137500D02*
X90125000Y-121737500D01*
D15*
X56575000Y-113625000D02*
X59575000Y-116625000D01*
X54239146Y-111289146D02*
X56575000Y-113625000D01*
D14*
X95780624Y-127393124D02*
X95780624Y-130919376D01*
X89575000Y-117737500D02*
X89825000Y-117737500D01*
X89825000Y-113737500D02*
X89825000Y-111887500D01*
D15*
X62575000Y-119625000D02*
X65575000Y-122625000D01*
D14*
X89575000Y-117737500D02*
X89725000Y-117737500D01*
X89825000Y-111887500D02*
X89675000Y-111737500D01*
D15*
X59575000Y-116625000D02*
X62575000Y-119625000D01*
X54239146Y-110654972D02*
X54239146Y-111289146D01*
X65575000Y-122625000D02*
X68575000Y-125625000D01*
D14*
X95780624Y-130919376D02*
X95400000Y-131300000D01*
X89725000Y-117737500D02*
X90125000Y-118137500D01*
X90125000Y-121737500D02*
X95780624Y-127393124D01*
%TO.N,LED_10*%
X83950000Y-111962500D02*
X83725000Y-111737500D01*
X84105114Y-123955114D02*
X84056584Y-123955114D01*
X84056584Y-123955114D02*
X83690164Y-123588694D01*
X84151000Y-112213500D02*
X83950000Y-112012500D01*
X83925000Y-105887500D02*
X83775000Y-105737500D01*
D15*
X53575000Y-122625000D02*
X56575000Y-125625000D01*
D14*
X84151000Y-113537500D02*
X84151000Y-112213500D01*
X83500000Y-119650000D02*
X83500000Y-117850000D01*
X83950000Y-112012500D02*
X83950000Y-111962500D01*
X83950000Y-112012500D02*
X83775000Y-111837500D01*
X83925000Y-107537500D02*
X83925000Y-105887500D01*
X84105114Y-125186625D02*
X84105114Y-123955114D01*
%TO.N,LED_4*%
X53650000Y-46400000D02*
X53650000Y-45612500D01*
D15*
X92575000Y-83625000D02*
X95575000Y-86625000D01*
D14*
X93751000Y-138810584D02*
X92210584Y-140351000D01*
X84162842Y-140351000D02*
X84080512Y-140433329D01*
X83316024Y-140433329D02*
X83233694Y-140351000D01*
X83233694Y-140351000D02*
X82188500Y-140351000D01*
D15*
X56575000Y-47625000D02*
X59575000Y-50625000D01*
X59575000Y-50625000D02*
X62575000Y-53625000D01*
X89575000Y-80625000D02*
X92575000Y-83625000D01*
D14*
X58154612Y-128551000D02*
X51472000Y-121868388D01*
D15*
X107575000Y-98625000D02*
X110575000Y-101625000D01*
X80575000Y-71625000D02*
X83575000Y-74625000D01*
D14*
X64554611Y-129301000D02*
X63804612Y-128551000D01*
X82188500Y-140351000D02*
X74725000Y-132887500D01*
X63804612Y-128551000D02*
X58154612Y-128551000D01*
D15*
X104575000Y-95625000D02*
X107575000Y-98625000D01*
D14*
X94102318Y-137333083D02*
X93751000Y-137684401D01*
D15*
X95575000Y-86625000D02*
X98575000Y-89625000D01*
X98575000Y-89625000D02*
X101575000Y-92625000D01*
D14*
X51472000Y-48578000D02*
X53650000Y-46400000D01*
D15*
X53575000Y-44625000D02*
X54106250Y-45156250D01*
X54106250Y-45156250D02*
X56575000Y-47625000D01*
D14*
X53650000Y-44700000D02*
X53575000Y-44625000D01*
X74725000Y-129301000D02*
X64554611Y-129301000D01*
X84080512Y-140433329D02*
X83316024Y-140433329D01*
X93751000Y-137684401D02*
X93751000Y-138810584D01*
D15*
X74575000Y-65625000D02*
X77575000Y-68625000D01*
D14*
X53650000Y-45612500D02*
X54106250Y-45156250D01*
D15*
X101575000Y-92625000D02*
X104575000Y-95625000D01*
D14*
X51472000Y-121868388D02*
X51472000Y-48578000D01*
D15*
X83575000Y-74625000D02*
X86575000Y-77625000D01*
D14*
X74725000Y-132887500D02*
X74725000Y-129301000D01*
D15*
X77575000Y-68625000D02*
X80575000Y-71625000D01*
X62575000Y-53625000D02*
X65575000Y-56625000D01*
X86575000Y-77625000D02*
X89575000Y-80625000D01*
X71575000Y-62625000D02*
X74575000Y-65625000D01*
X68575000Y-59625000D02*
X71575000Y-62625000D01*
X65575000Y-56625000D02*
X68575000Y-59625000D01*
D14*
X92210584Y-140351000D02*
X84162842Y-140351000D01*
D15*
%TO.N,LED_8*%
X101575000Y-104625000D02*
X104575000Y-107625000D01*
X56575000Y-59625000D02*
X59575000Y-62625000D01*
D14*
X98323000Y-134860829D02*
X98323000Y-130932889D01*
D15*
X95575000Y-98625000D02*
X98575000Y-101625000D01*
X83575000Y-86625000D02*
X86575000Y-89625000D01*
D14*
X97993588Y-125663832D02*
X97899000Y-125569244D01*
X98323000Y-130932889D02*
X98147000Y-130756888D01*
D15*
X59575000Y-62625000D02*
X62575000Y-65625000D01*
D14*
X97899000Y-125569244D02*
X97899000Y-125511500D01*
D15*
X98575000Y-101625000D02*
X101575000Y-104625000D01*
D14*
X98147000Y-128074138D02*
X98287572Y-127933566D01*
D15*
X104575000Y-107625000D02*
X107575000Y-110625000D01*
X65575000Y-68625000D02*
X68575000Y-71625000D01*
X62575000Y-65625000D02*
X65575000Y-68625000D01*
X71575000Y-74625000D02*
X74575000Y-77625000D01*
X53575000Y-56625000D02*
X56575000Y-59625000D01*
D14*
X97899000Y-125511500D02*
X95875000Y-123487500D01*
X97993588Y-125724599D02*
X97993588Y-125663832D01*
X98287572Y-127932151D02*
X98635525Y-127584199D01*
X98331000Y-126062011D02*
X97993588Y-125724599D01*
X98635525Y-127584199D02*
X98635525Y-126248025D01*
X98147000Y-130756888D02*
X98147000Y-128074138D01*
X95875000Y-123487500D02*
X95525000Y-123487500D01*
X98635525Y-126248025D02*
X98449511Y-126062011D01*
D15*
X92575000Y-95625000D02*
X95575000Y-98625000D01*
X86575000Y-89625000D02*
X89575000Y-92625000D01*
D14*
X53425000Y-56625000D02*
X53575000Y-56625000D01*
D15*
X68575000Y-71625000D02*
X71575000Y-74625000D01*
D14*
X98074738Y-135109091D02*
X98323000Y-134860829D01*
D15*
X80575000Y-83625000D02*
X83575000Y-86625000D01*
D14*
X98449511Y-126062011D02*
X98331000Y-126062011D01*
D15*
X74575000Y-77625000D02*
X77575000Y-80625000D01*
X77575000Y-80625000D02*
X80575000Y-83625000D01*
D14*
X98287572Y-127933566D02*
X98287572Y-127932151D01*
D15*
X107575000Y-110625000D02*
X110575000Y-113625000D01*
X89575000Y-92625000D02*
X92575000Y-95625000D01*
D14*
%TO.N,LED_3*%
X51823000Y-121723000D02*
X51823000Y-49889500D01*
X58300000Y-128200000D02*
X51823000Y-121723000D01*
X84017453Y-140000000D02*
X83935124Y-140082329D01*
X83935124Y-140082329D02*
X83461412Y-140082329D01*
D15*
X65575000Y-44625000D02*
X68575000Y-47625000D01*
D14*
X63950000Y-128200000D02*
X58300000Y-128200000D01*
X83461412Y-140082329D02*
X83305815Y-139926732D01*
D15*
X86575000Y-65625000D02*
X89575000Y-68625000D01*
D14*
X82437500Y-140000000D02*
X75075000Y-132637500D01*
D15*
X74575000Y-53625000D02*
X77575000Y-56625000D01*
D14*
X53025000Y-48687500D02*
X53025000Y-48075000D01*
X93400000Y-136950000D02*
X93400000Y-138665196D01*
D15*
X77575000Y-56625000D02*
X80575000Y-59625000D01*
D14*
X64700000Y-128950000D02*
X63950000Y-128200000D01*
X92065196Y-140000000D02*
X84017453Y-140000000D01*
D15*
X98575000Y-77625000D02*
X101575000Y-80625000D01*
X101575000Y-80625000D02*
X104575000Y-83625000D01*
D14*
X83305815Y-139926732D02*
X83232547Y-140000000D01*
D15*
X95575000Y-74625000D02*
X98575000Y-77625000D01*
D14*
X83232547Y-140000000D02*
X82437500Y-140000000D01*
X75075000Y-128950000D02*
X64700000Y-128950000D01*
X75075000Y-132637500D02*
X75075000Y-128950000D01*
D15*
X104575000Y-83625000D02*
X107575000Y-86625000D01*
X71575000Y-50625000D02*
X74575000Y-53625000D01*
X107575000Y-86625000D02*
X110575000Y-89625000D01*
X89575000Y-68625000D02*
X92575000Y-71625000D01*
X68575000Y-47625000D02*
X71575000Y-50625000D01*
D14*
X51823000Y-49889500D02*
X53025000Y-48687500D01*
X93400000Y-138665196D02*
X92065196Y-140000000D01*
D15*
X92575000Y-71625000D02*
X95575000Y-74625000D01*
X83575000Y-62625000D02*
X86575000Y-65625000D01*
D14*
X53025000Y-48075000D02*
X53600000Y-47500000D01*
D15*
X80575000Y-59625000D02*
X83575000Y-62625000D01*
X62981351Y-42031351D02*
X65575000Y-44625000D01*
D14*
%TO.N,LED_5*%
X57950000Y-129000000D02*
X51100000Y-122150000D01*
D15*
X86575000Y-71625000D02*
X89575000Y-74625000D01*
X92575000Y-77625000D02*
X95575000Y-80625000D01*
X68575000Y-53625000D02*
X71575000Y-56625000D01*
X104575000Y-89625000D02*
X107575000Y-92625000D01*
D14*
X63650000Y-129000000D02*
X57950000Y-129000000D01*
X55862702Y-43150000D02*
X56981351Y-42031351D01*
D15*
X80575000Y-65625000D02*
X83575000Y-68625000D01*
X62575000Y-47625000D02*
X65575000Y-50625000D01*
D14*
X92711695Y-140824000D02*
X82011500Y-140824000D01*
D15*
X71575000Y-56625000D02*
X74575000Y-59625000D01*
D14*
X64400000Y-129750000D02*
X63650000Y-129000000D01*
X53000000Y-43650000D02*
X53500000Y-43150000D01*
D15*
X65575000Y-50625000D02*
X68575000Y-53625000D01*
X95575000Y-80625000D02*
X98575000Y-83625000D01*
D14*
X53500000Y-43150000D02*
X55862702Y-43150000D01*
X53000000Y-46250000D02*
X53000000Y-43650000D01*
X74325000Y-129750000D02*
X64400000Y-129750000D01*
X82011500Y-140824000D02*
X74325000Y-133137500D01*
X74325000Y-133137500D02*
X74325000Y-129750000D01*
D15*
X107575000Y-92625000D02*
X110575000Y-95625000D01*
X89575000Y-74625000D02*
X92575000Y-77625000D01*
D14*
X94102000Y-139433695D02*
X92711695Y-140824000D01*
D15*
X83575000Y-68625000D02*
X86575000Y-71625000D01*
X59575000Y-44625000D02*
X62575000Y-47625000D01*
X74575000Y-59625000D02*
X77575000Y-62625000D01*
X77575000Y-62625000D02*
X80575000Y-65625000D01*
D14*
X94102000Y-138461165D02*
X94102000Y-139433695D01*
D15*
X101575000Y-86625000D02*
X104575000Y-89625000D01*
D14*
X94621046Y-137942119D02*
X94102000Y-138461165D01*
X51100000Y-122150000D02*
X51100000Y-48150000D01*
D15*
X56981351Y-42031351D02*
X59575000Y-44625000D01*
X98575000Y-83625000D02*
X101575000Y-86625000D01*
D14*
X51100000Y-48150000D02*
X53000000Y-46250000D01*
D15*
%TO.N,LED_27*%
X54225000Y-116587500D02*
X54225000Y-117275000D01*
D14*
X86875000Y-108937500D02*
X86675000Y-108737500D01*
X86675000Y-108737500D02*
X86675000Y-108687500D01*
X86813970Y-120712500D02*
X86813970Y-121063970D01*
D15*
X56575000Y-119625000D02*
X59575000Y-122625000D01*
D14*
X86813970Y-121063970D02*
X87897999Y-122147999D01*
X87075000Y-116237500D02*
X87075000Y-115087500D01*
D15*
X54225000Y-117275000D02*
X56575000Y-119625000D01*
D14*
X87897999Y-122147999D02*
X87897999Y-126050000D01*
D15*
X59575000Y-122625000D02*
X62575000Y-125625000D01*
D14*
X86875000Y-110737500D02*
X86875000Y-108937500D01*
X87075000Y-115087500D02*
X86725000Y-114737500D01*
%TO.N,LED_22*%
X53275000Y-69787500D02*
X53625000Y-69787500D01*
D15*
X98575000Y-53625000D02*
X101575000Y-56625000D01*
D14*
X64750000Y-126650000D02*
X62200000Y-126650000D01*
X61405612Y-126552000D02*
X61149000Y-126295388D01*
D15*
X107575000Y-62625000D02*
X110575000Y-65625000D01*
D14*
X56400000Y-121150000D02*
X56250000Y-121150000D01*
X83386412Y-135001865D02*
X83049000Y-135339277D01*
X86733459Y-135725000D02*
X84201000Y-135725000D01*
D15*
X95575000Y-50625000D02*
X98575000Y-53625000D01*
D14*
X62200000Y-126650000D02*
X62102000Y-126552000D01*
X83049000Y-135339277D02*
X83049000Y-135725000D01*
X62102000Y-126552000D02*
X61405612Y-126552000D01*
X84201000Y-135339277D02*
X83863588Y-135001865D01*
D15*
X92575000Y-47625000D02*
X95575000Y-50625000D01*
D14*
X83863588Y-135001865D02*
X83386412Y-135001865D01*
X80512500Y-135725000D02*
X76575000Y-131787500D01*
X83049000Y-135725000D02*
X80512500Y-135725000D01*
X84201000Y-135725000D02*
X84201000Y-135339277D01*
D15*
X86981351Y-42031351D02*
X89575000Y-44625000D01*
X89575000Y-44625000D02*
X92575000Y-47625000D01*
D14*
X61149000Y-126295388D02*
X61149000Y-125899000D01*
X65399999Y-127300000D02*
X64750000Y-126650000D01*
X88600001Y-137591542D02*
X86733459Y-135725000D01*
X61149000Y-125899000D02*
X56400000Y-121150000D01*
D15*
X104575000Y-59625000D02*
X107575000Y-62625000D01*
D14*
X76575000Y-131787500D02*
X76575000Y-127300000D01*
X76575000Y-127300000D02*
X65399999Y-127300000D01*
X56250000Y-121150000D02*
X55100000Y-120000000D01*
D15*
X101575000Y-56625000D02*
X104575000Y-59625000D01*
D14*
X55100000Y-120000000D02*
X55046388Y-120000000D01*
X53275000Y-118228612D02*
X53275000Y-69787500D01*
X55046388Y-120000000D02*
X53275000Y-118228612D01*
D15*
%TO.N,LED_0*%
X86575000Y-47625000D02*
X89575000Y-50625000D01*
D14*
X76175000Y-132141112D02*
X76175000Y-127700000D01*
D15*
X95575000Y-56625000D02*
X98575000Y-59625000D01*
D14*
X82263986Y-138230098D02*
X76175000Y-132141112D01*
X52925000Y-90487500D02*
X52925000Y-64487500D01*
D15*
X83575000Y-44625000D02*
X86575000Y-47625000D01*
X107575000Y-68625000D02*
X110575000Y-71625000D01*
D14*
X60650000Y-126000000D02*
X60550000Y-126000000D01*
D15*
X92575000Y-53625000D02*
X95575000Y-56625000D01*
D14*
X52925000Y-64487500D02*
X53425000Y-63987500D01*
X64626806Y-127023194D02*
X61380418Y-127023194D01*
X90769902Y-138230098D02*
X82263986Y-138230098D01*
X60650000Y-126292776D02*
X60650000Y-126000000D01*
D15*
X101575000Y-62625000D02*
X104575000Y-65625000D01*
X80981351Y-42031351D02*
X83575000Y-44625000D01*
D14*
X61380418Y-127023194D02*
X60650000Y-126292776D01*
X76175000Y-127700000D02*
X65303609Y-127700000D01*
X65303609Y-127700000D02*
X64626806Y-127023194D01*
X52924000Y-118374000D02*
X52924000Y-90488500D01*
X91300000Y-137700000D02*
X90769902Y-138230098D01*
D15*
X89575000Y-50625000D02*
X92575000Y-53625000D01*
X98575000Y-59625000D02*
X101575000Y-62625000D01*
X104575000Y-65625000D02*
X107575000Y-68625000D01*
D14*
X60550000Y-126000000D02*
X52924000Y-118374000D01*
X52924000Y-90488500D02*
X52925000Y-90487500D01*
%TO.N,LED_18*%
X68900000Y-110350000D02*
X68900000Y-109050000D01*
X60425000Y-94487500D02*
X60425000Y-94437500D01*
X71039129Y-117836049D02*
X71039129Y-117589129D01*
X68600000Y-115150000D02*
X68600000Y-114850000D01*
X77300000Y-123950000D02*
X77300000Y-123946388D01*
X71039129Y-117589129D02*
X68600000Y-115150000D01*
X60425000Y-94437500D02*
X58175000Y-92187500D01*
X68800000Y-104550000D02*
X68800000Y-103150000D01*
X56975000Y-92337500D02*
X56925000Y-92337500D01*
X67175000Y-101525000D02*
X67175000Y-101237500D01*
X68800000Y-103150000D02*
X68600000Y-102950000D01*
X67175000Y-101237500D02*
X60425000Y-94487500D01*
X68600000Y-102950000D02*
X67175000Y-101525000D01*
X77300000Y-123946388D02*
X71527072Y-118173461D01*
X58175000Y-92187500D02*
X57125000Y-92187500D01*
X71527072Y-118173461D02*
X71376541Y-118173461D01*
X71376541Y-118173461D02*
X71039129Y-117836049D01*
X68900000Y-109050000D02*
X68700000Y-108850000D01*
X77309424Y-123959424D02*
X77300000Y-123950000D01*
X68700000Y-108850000D02*
X68600000Y-108750000D01*
X57125000Y-92187500D02*
X56975000Y-92337500D01*
X77309424Y-125475000D02*
X77309424Y-123959424D01*
%TO.N,LED_1*%
X82118598Y-138581098D02*
X75775000Y-132237500D01*
D15*
X101575000Y-68625000D02*
X104575000Y-71625000D01*
X80575000Y-47625000D02*
X83575000Y-50625000D01*
X86575000Y-53625000D02*
X89575000Y-56625000D01*
X77575000Y-44625000D02*
X80575000Y-47625000D01*
X98575000Y-65625000D02*
X101575000Y-68625000D01*
X107575000Y-74625000D02*
X110575000Y-77625000D01*
D14*
X52550000Y-118689165D02*
X52550000Y-59587500D01*
D15*
X83575000Y-50625000D02*
X86575000Y-53625000D01*
X95575000Y-62625000D02*
X98575000Y-65625000D01*
D14*
X75775000Y-128100000D02*
X65125806Y-128100000D01*
D15*
X104575000Y-71625000D02*
X107575000Y-74625000D01*
X92575000Y-59625000D02*
X95575000Y-62625000D01*
D14*
X75775000Y-132237500D02*
X75775000Y-128100000D01*
D15*
X53075000Y-59587500D02*
X52550000Y-59587500D01*
D14*
X65125806Y-128100000D02*
X64400000Y-127374194D01*
D15*
X53175000Y-59687500D02*
X53075000Y-59587500D01*
D14*
X91900000Y-138250000D02*
X91568902Y-138581098D01*
D15*
X89575000Y-56625000D02*
X92575000Y-59625000D01*
D14*
X61235029Y-127374194D02*
X52550000Y-118689165D01*
X91568902Y-138581098D02*
X82118598Y-138581098D01*
D15*
X74981351Y-42031351D02*
X77575000Y-44625000D01*
D14*
X64400000Y-127374194D02*
X61235029Y-127374194D01*
D15*
%TO.N,LED_21*%
X98981351Y-42031351D02*
X101575000Y-44625000D01*
D14*
X59175000Y-95137500D02*
X59175000Y-94187500D01*
D15*
X59581250Y-113931250D02*
X59581250Y-112193750D01*
D14*
X66009145Y-126165794D02*
X61350000Y-121506649D01*
X59575000Y-89887500D02*
X59575000Y-88937500D01*
X59725000Y-101687500D02*
X59725000Y-100037500D01*
X61350000Y-121506649D02*
X61350000Y-119800000D01*
X59725000Y-100037500D02*
X59475000Y-99787500D01*
X61350000Y-119600000D02*
X59550000Y-117800000D01*
D15*
X104575000Y-47625000D02*
X107575000Y-50625000D01*
X101575000Y-44625000D02*
X104575000Y-47625000D01*
D14*
X59575000Y-88937500D02*
X54225000Y-83587500D01*
D15*
X107575000Y-50625000D02*
X110575000Y-53625000D01*
D14*
X59625000Y-105837500D02*
X59575000Y-105787500D01*
X61350000Y-119800000D02*
X61350000Y-119600000D01*
D15*
X59581250Y-112193750D02*
X59275000Y-111887500D01*
D14*
X59850000Y-95812500D02*
X59175000Y-95137500D01*
X59625000Y-107787500D02*
X59625000Y-105837500D01*
%TO.N,LED_12*%
X78125000Y-107587500D02*
X78125000Y-106187500D01*
X82423838Y-125670226D02*
X81951806Y-125198194D01*
X78100000Y-118150000D02*
X77600000Y-117650000D01*
X77600000Y-113550000D02*
X77600000Y-111750000D01*
X78100000Y-119050000D02*
X78100000Y-118150000D01*
X78125000Y-106187500D02*
X77725000Y-105787500D01*
X77975000Y-101637500D02*
X77975000Y-100037500D01*
X80100000Y-123346388D02*
X80100000Y-122150000D01*
X82423838Y-125987011D02*
X82423838Y-125670226D01*
X77975000Y-100037500D02*
X77525000Y-99587500D01*
X78100000Y-120150000D02*
X78100000Y-119050000D01*
X81951806Y-125198194D02*
X80100000Y-123346388D01*
X80100000Y-122150000D02*
X78100000Y-120150000D01*
D15*
%TO.N,LED_7*%
X74575000Y-83625000D02*
X77575000Y-86625000D01*
X95575000Y-104625000D02*
X98575000Y-107625000D01*
X101575000Y-110625000D02*
X104575000Y-113625000D01*
D14*
X98638572Y-129287500D02*
X98638572Y-128077540D01*
D15*
X92575000Y-101625000D02*
X95575000Y-104625000D01*
X56575000Y-65625000D02*
X59575000Y-68625000D01*
X71575000Y-80625000D02*
X74575000Y-83625000D01*
D14*
X98638572Y-128077540D02*
X99124000Y-127592112D01*
D15*
X107575000Y-116625000D02*
X110575000Y-119625000D01*
X53575000Y-62625000D02*
X56575000Y-65625000D01*
D14*
X101175000Y-125237500D02*
X101375000Y-125037500D01*
D15*
X86575000Y-95625000D02*
X89575000Y-98625000D01*
X62575000Y-71625000D02*
X65575000Y-74625000D01*
X83575000Y-92625000D02*
X86575000Y-95625000D01*
D14*
X99124000Y-125638500D02*
X99525000Y-125237500D01*
D15*
X104575000Y-113625000D02*
X107575000Y-116625000D01*
D14*
X101375000Y-125037500D02*
X101375000Y-123837500D01*
X99124000Y-127592112D02*
X99124000Y-125638500D01*
X98600000Y-135712500D02*
X98674000Y-135638500D01*
D15*
X68575000Y-77625000D02*
X71575000Y-80625000D01*
X77575000Y-86625000D02*
X80575000Y-89625000D01*
X89575000Y-98625000D02*
X92575000Y-101625000D01*
X59575000Y-68625000D02*
X62575000Y-71625000D01*
D14*
X99525000Y-125237500D02*
X101175000Y-125237500D01*
D15*
X98575000Y-107625000D02*
X101575000Y-110625000D01*
D14*
X98498000Y-130611500D02*
X98498000Y-129428072D01*
X98674000Y-135638500D02*
X98674000Y-130787500D01*
X98498000Y-129428072D02*
X98638572Y-129287500D01*
D15*
X80575000Y-89625000D02*
X83575000Y-92625000D01*
D14*
X98674000Y-130787500D02*
X98498000Y-130611500D01*
D15*
X65575000Y-74625000D02*
X68575000Y-77625000D01*
%TO.N,LED_24*%
X71575000Y-98625000D02*
X74575000Y-101625000D01*
D14*
X92149000Y-120051000D02*
X92575000Y-119625000D01*
D15*
X80575000Y-107625000D02*
X83575000Y-110625000D01*
X56575000Y-83625000D02*
X59575000Y-86625000D01*
X65575000Y-92625000D02*
X68575000Y-95625000D01*
X98569588Y-125486011D02*
X98347511Y-125486011D01*
X92575000Y-119625000D02*
X95575000Y-122625000D01*
X68575000Y-95625000D02*
X71575000Y-98625000D01*
X98275000Y-125325000D02*
X95575000Y-122625000D01*
X89575000Y-116625000D02*
X92575000Y-119625000D01*
D14*
X95551401Y-125341662D02*
X95213989Y-125004250D01*
D15*
X54325000Y-80618959D02*
X54325000Y-81375000D01*
D14*
X92149000Y-121911500D02*
X92149000Y-120051000D01*
X96175000Y-125937500D02*
X95579162Y-125341662D01*
D15*
X59575000Y-86625000D02*
X62575000Y-89625000D01*
X98275000Y-125413500D02*
X98275000Y-125325000D01*
X62575000Y-89625000D02*
X65575000Y-92625000D01*
D14*
X95213989Y-125004250D02*
X95213989Y-124976489D01*
D15*
X77575000Y-104625000D02*
X80575000Y-107625000D01*
D14*
X95213989Y-124976489D02*
X92149000Y-121911500D01*
D15*
X86575000Y-113625000D02*
X89575000Y-116625000D01*
X74575000Y-101625000D02*
X77575000Y-104625000D01*
D14*
X95453215Y-132098231D02*
X96175000Y-131376446D01*
D15*
X83575000Y-110625000D02*
X86575000Y-113625000D01*
X54325000Y-81375000D02*
X56575000Y-83625000D01*
X98347511Y-125486011D02*
X98275000Y-125413500D01*
D14*
X96175000Y-131376446D02*
X96175000Y-125937500D01*
X95579162Y-125341662D02*
X95551401Y-125341662D01*
D15*
X54273798Y-80567757D02*
X54325000Y-80618959D01*
%TO.N,LED_14*%
X74575000Y-107625000D02*
X77575000Y-110625000D01*
X80575000Y-113625000D02*
X83575000Y-116625000D01*
X54275000Y-87325000D02*
X56575000Y-89625000D01*
X59575000Y-92625000D02*
X62575000Y-95625000D01*
X83575000Y-116625000D02*
X85981250Y-119031250D01*
X89575000Y-122625000D02*
X92575000Y-125625000D01*
X71575000Y-104625000D02*
X74575000Y-107625000D01*
X54290712Y-86587404D02*
X54275000Y-86603116D01*
X85981250Y-119031250D02*
X89575000Y-122625000D01*
X65575000Y-98625000D02*
X68575000Y-101625000D01*
X56575000Y-89625000D02*
X59575000Y-92625000D01*
X77575000Y-110625000D02*
X80575000Y-113625000D01*
X62575000Y-95625000D02*
X65575000Y-98625000D01*
X68575000Y-101625000D02*
X71575000Y-104625000D01*
X54275000Y-86603116D02*
X54275000Y-87325000D01*
D14*
%TO.N,/SMPSFB*%
X86100000Y-128250000D02*
X90925000Y-128250000D01*
X84347787Y-132477213D02*
X84900000Y-131925000D01*
X86100000Y-128277088D02*
X86100000Y-128250000D01*
X90925000Y-128250000D02*
X90925000Y-126487501D01*
X84900000Y-129477088D02*
X86100000Y-128277088D01*
X82947787Y-132477213D02*
X84347787Y-132477213D01*
X84900000Y-131925000D02*
X84900000Y-129477088D01*
X90925000Y-126487501D02*
X90649999Y-126212500D01*
%TO.N,LED_13*%
X74500000Y-118242776D02*
X74500000Y-114750000D01*
X75100000Y-109350000D02*
X74500000Y-108750000D01*
X69825000Y-97937500D02*
X69225000Y-97937500D01*
X81520248Y-125946187D02*
X81520248Y-125263024D01*
X74875000Y-104387500D02*
X74875000Y-102987500D01*
X75100000Y-110250000D02*
X75100000Y-109350000D01*
X74875000Y-102987500D02*
X69825000Y-97937500D01*
X81520248Y-125263024D02*
X74500000Y-118242776D01*
X69225000Y-97937500D02*
X68775000Y-98387500D01*
D15*
%TO.N,SERIAL_D+*%
X83675057Y-129037500D02*
X84375000Y-129037500D01*
X82300000Y-130412557D02*
X83675057Y-129037500D01*
X81150000Y-134175000D02*
X82300000Y-133025000D01*
X82300000Y-133025000D02*
X82300000Y-130412557D01*
%TO.N,SERIAL_D-*%
X81800000Y-130345457D02*
X81800000Y-132075000D01*
X80650000Y-133225000D02*
X80100000Y-133225000D01*
X84800000Y-128312500D02*
X83832957Y-128312500D01*
X81800000Y-132075000D02*
X80650000Y-133225000D01*
X83832957Y-128312500D02*
X81800000Y-130345457D01*
D16*
%TO.N,/ANTENNA*%
X105725000Y-135800000D02*
X105725000Y-129400000D01*
X103325000Y-135800000D02*
X103325000Y-126900000D01*
X100925000Y-129400000D02*
X100925000Y-126900000D01*
X103325000Y-126900000D02*
X104525000Y-126900000D01*
X104525000Y-126900000D02*
X104525000Y-135800000D01*
X102125000Y-126900000D02*
X102125000Y-135800000D01*
X104525000Y-135800000D02*
X105725000Y-135800000D01*
X99625000Y-129400000D02*
X100925000Y-129400000D01*
X100925000Y-126900000D02*
X102125000Y-126900000D01*
X102125000Y-135800000D02*
X103325000Y-135800000D01*
D14*
%TO.N,LED_17*%
X71500000Y-105850000D02*
X71400000Y-105750000D01*
X78100612Y-124250612D02*
X71700000Y-117850000D01*
X71800000Y-111950000D02*
X71600000Y-111750000D01*
X78100612Y-125140009D02*
X78100612Y-124250612D01*
X71800000Y-113450000D02*
X71800000Y-111950000D01*
X71700000Y-117850000D02*
X71700000Y-117650000D01*
X71500053Y-101937500D02*
X65825000Y-96262447D01*
X65825000Y-96262447D02*
X65825000Y-95537500D01*
X71700000Y-117650000D02*
X71600000Y-117550000D01*
X71850000Y-106200000D02*
X71500000Y-105850000D01*
X71850000Y-107800000D02*
X71850000Y-106200000D01*
X71875000Y-101937500D02*
X71500053Y-101937500D01*
D15*
%TO.N,LED_26*%
X54280054Y-92575266D02*
X54280054Y-93330054D01*
X68575000Y-107625000D02*
X71575000Y-110625000D01*
X54280054Y-93330054D02*
X56575000Y-95625000D01*
X74575000Y-113625000D02*
X77575000Y-116625000D01*
X77575000Y-116625000D02*
X80575000Y-119625000D01*
X56575000Y-95625000D02*
X59575000Y-98625000D01*
X62575000Y-101625000D02*
X65575000Y-104625000D01*
X59575000Y-98625000D02*
X62575000Y-101625000D01*
X80575000Y-119625000D02*
X83575000Y-122625000D01*
X83575000Y-122625000D02*
X86575000Y-125625000D01*
X71575000Y-110625000D02*
X74575000Y-113625000D01*
X65575000Y-104625000D02*
X68575000Y-107625000D01*
%TD*%
M02*
