%TF.GenerationSoftware,KiCad,Pcbnew,9.0.1*%
%TF.CreationDate,2025-10-31T14:17:24-04:00*%
%TF.ProjectId,main_display_board,6d61696e-5f64-4697-9370-6c61795f626f,rev?*%
%TF.SameCoordinates,Original*%
%TF.FileFunction,Drillmap*%
%TF.FilePolarity,Positive*%
%FSLAX45Y45*%
G04 Gerber Fmt 4.5, Leading zero omitted, Abs format (unit mm)*
G04 Created by KiCad (PCBNEW 9.0.1) date 2025-10-31 14:17:24*
%MOMM*%
%LPD*%
G01*
G04 APERTURE LIST*
%ADD10C,0.100000*%
%ADD11C,0.200000*%
%ADD12C,0.220000*%
G04 APERTURE END LIST*
D10*
X4535000Y-4165000D02*
G75*
G02*
X4635000Y-4065000I100000J0D01*
G01*
X4635000Y-14140000D02*
G75*
G02*
X4535000Y-14040000I0J100000D01*
G01*
X4735000Y-4065000D02*
X4635000Y-4065000D01*
X4535000Y-4265000D02*
X4535000Y-4165000D01*
X4535000Y-13940000D02*
X4535000Y-14040000D01*
X4735000Y-14140000D02*
X4635000Y-14140000D01*
X11535000Y-4265000D02*
X11535000Y-13940000D01*
X4785000Y-4065000D02*
X11285000Y-4065000D01*
X4785000Y-4065000D02*
X4735000Y-4065000D01*
X11435000Y-4065000D02*
G75*
G02*
X11535000Y-4165000I0J-100000D01*
G01*
X11285000Y-4065000D02*
X11435000Y-4065000D01*
X11535000Y-13940000D02*
X11535000Y-14040000D01*
X11285000Y-14140000D02*
X11435000Y-14140000D01*
X11535000Y-14040000D02*
G75*
G02*
X11435000Y-14140000I-100000J0D01*
G01*
X4785000Y-14140000D02*
X4735000Y-14140000D01*
X4535000Y-13940000D02*
X4535000Y-4265000D01*
X11535000Y-4265000D02*
X11535000Y-4165000D01*
X11285000Y-14140000D02*
X4785000Y-14140000D01*
D11*
D10*
X5302500Y-5953750D02*
X5332500Y-5983750D01*
X5332500Y-5953750D02*
X5302500Y-5983750D01*
X5327500Y-5162500D02*
X5357500Y-5192500D01*
X5357500Y-5162500D02*
X5327500Y-5192500D01*
X5327500Y-6383750D02*
X5357500Y-6413750D01*
X5357500Y-6383750D02*
X5327500Y-6413750D01*
X5342500Y-4447500D02*
X5372500Y-4477500D01*
X5372500Y-4447500D02*
X5342500Y-4477500D01*
X5342500Y-5047500D02*
X5372500Y-5077500D01*
X5372500Y-5047500D02*
X5342500Y-5077500D01*
X5342500Y-5647500D02*
X5372500Y-5677500D01*
X5372500Y-5647500D02*
X5342500Y-5677500D01*
X5342500Y-6247500D02*
X5372500Y-6277500D01*
X5372500Y-6247500D02*
X5342500Y-6277500D01*
X5342500Y-12247500D02*
X5372500Y-12277500D01*
X5372500Y-12247500D02*
X5342500Y-12277500D01*
X5345000Y-4735000D02*
X5375000Y-4765000D01*
X5375000Y-4735000D02*
X5345000Y-4765000D01*
X5347500Y-6968750D02*
X5377500Y-6998750D01*
X5377500Y-6968750D02*
X5347500Y-6998750D01*
X5382500Y-7748750D02*
X5412500Y-7778750D01*
X5412500Y-7748750D02*
X5382500Y-7778750D01*
X5407500Y-7443750D02*
X5437500Y-7473750D01*
X5437500Y-7443750D02*
X5407500Y-7473750D01*
X5407500Y-8343750D02*
X5437500Y-8373750D01*
X5437500Y-8343750D02*
X5407500Y-8373750D01*
X5407500Y-11643750D02*
X5437500Y-11673750D01*
X5437500Y-11643750D02*
X5407500Y-11673750D01*
X5408915Y-11050497D02*
X5438915Y-11080497D01*
X5438915Y-11050497D02*
X5408915Y-11080497D01*
X5411930Y-8941217D02*
X5441930Y-8971217D01*
X5441930Y-8941217D02*
X5411930Y-8971217D01*
X5412380Y-8041776D02*
X5442380Y-8071776D01*
X5442380Y-8041776D02*
X5412380Y-8071776D01*
X5412471Y-9841887D02*
X5442471Y-9871887D01*
X5442471Y-9841887D02*
X5412471Y-9871887D01*
X5412746Y-10442219D02*
X5442746Y-10472219D01*
X5442746Y-10442219D02*
X5412746Y-10472219D01*
X5413005Y-6842527D02*
X5443005Y-6872527D01*
X5443005Y-6842527D02*
X5413005Y-6872527D01*
X5413005Y-9242527D02*
X5443005Y-9272527D01*
X5443005Y-9242527D02*
X5413005Y-9272527D01*
X5414071Y-8643740D02*
X5444071Y-8673740D01*
X5444071Y-8643740D02*
X5414071Y-8673740D01*
X5642500Y-4747500D02*
X5672500Y-4777500D01*
X5672500Y-4747500D02*
X5642500Y-4777500D01*
X5642500Y-5347500D02*
X5672500Y-5377500D01*
X5672500Y-5347500D02*
X5642500Y-5377500D01*
X5642500Y-5947500D02*
X5672500Y-5977500D01*
X5672500Y-5947500D02*
X5642500Y-5977500D01*
X5642500Y-6547500D02*
X5672500Y-6577500D01*
X5672500Y-6547500D02*
X5642500Y-6577500D01*
X5642500Y-7147500D02*
X5672500Y-7177500D01*
X5672500Y-7147500D02*
X5642500Y-7177500D01*
X5642500Y-7747500D02*
X5672500Y-7777500D01*
X5672500Y-7747500D02*
X5642500Y-7777500D01*
X5642500Y-8347500D02*
X5672500Y-8377500D01*
X5672500Y-8347500D02*
X5642500Y-8377500D01*
X5642500Y-8947500D02*
X5672500Y-8977500D01*
X5672500Y-8947500D02*
X5642500Y-8977500D01*
X5642500Y-9547500D02*
X5672500Y-9577500D01*
X5672500Y-9547500D02*
X5642500Y-9577500D01*
X5642500Y-10147500D02*
X5672500Y-10177500D01*
X5672500Y-10147500D02*
X5642500Y-10177500D01*
X5642500Y-10747500D02*
X5672500Y-10777500D01*
X5672500Y-10747500D02*
X5642500Y-10777500D01*
X5642500Y-11347500D02*
X5672500Y-11377500D01*
X5672500Y-11347500D02*
X5642500Y-11377500D01*
X5642500Y-11947500D02*
X5672500Y-11977500D01*
X5672500Y-11947500D02*
X5642500Y-11977500D01*
X5642500Y-12547500D02*
X5672500Y-12577500D01*
X5672500Y-12547500D02*
X5642500Y-12577500D01*
X5677500Y-9218750D02*
X5707500Y-9248750D01*
X5707500Y-9218750D02*
X5677500Y-9248750D01*
X5682500Y-9818750D02*
X5712500Y-9848750D01*
X5712500Y-9818750D02*
X5682500Y-9848750D01*
X5683135Y-4188135D02*
X5713135Y-4218135D01*
X5713135Y-4188135D02*
X5683135Y-4218135D01*
X5860000Y-13520000D02*
X5890000Y-13550000D01*
X5890000Y-13520000D02*
X5860000Y-13550000D01*
X5902500Y-9403750D02*
X5932500Y-9433750D01*
X5932500Y-9403750D02*
X5902500Y-9433750D01*
X5924606Y-11170058D02*
X5954606Y-11200058D01*
X5954606Y-11170058D02*
X5924606Y-11200058D01*
X5932500Y-9963750D02*
X5962500Y-9993750D01*
X5962500Y-9963750D02*
X5932500Y-9993750D01*
X5935000Y-11765000D02*
X5965000Y-11795000D01*
X5965000Y-11765000D02*
X5935000Y-11795000D01*
X5942500Y-4447500D02*
X5972500Y-4477500D01*
X5972500Y-4447500D02*
X5942500Y-4477500D01*
X5942500Y-5047500D02*
X5972500Y-5077500D01*
X5972500Y-5047500D02*
X5942500Y-5077500D01*
X5942500Y-5647500D02*
X5972500Y-5677500D01*
X5972500Y-5647500D02*
X5942500Y-5677500D01*
X5942500Y-6247500D02*
X5972500Y-6277500D01*
X5972500Y-6247500D02*
X5942500Y-6277500D01*
X5942500Y-6847500D02*
X5972500Y-6877500D01*
X5972500Y-6847500D02*
X5942500Y-6877500D01*
X5942500Y-7447500D02*
X5972500Y-7477500D01*
X5972500Y-7447500D02*
X5942500Y-7477500D01*
X5942500Y-8047500D02*
X5972500Y-8077500D01*
X5972500Y-8047500D02*
X5942500Y-8077500D01*
X5942500Y-8647500D02*
X5972500Y-8677500D01*
X5972500Y-8647500D02*
X5942500Y-8677500D01*
X5942500Y-8973750D02*
X5972500Y-9003750D01*
X5972500Y-8973750D02*
X5942500Y-9003750D01*
X5942500Y-9247500D02*
X5972500Y-9277500D01*
X5972500Y-9247500D02*
X5942500Y-9277500D01*
X5942500Y-9847500D02*
X5972500Y-9877500D01*
X5972500Y-9847500D02*
X5942500Y-9877500D01*
X5942500Y-10447500D02*
X5972500Y-10477500D01*
X5972500Y-10447500D02*
X5942500Y-10477500D01*
X5942500Y-10563750D02*
X5972500Y-10593750D01*
X5972500Y-10563750D02*
X5942500Y-10593750D01*
X5942500Y-11047500D02*
X5972500Y-11077500D01*
X5972500Y-11047500D02*
X5942500Y-11077500D01*
X5942500Y-11647500D02*
X5972500Y-11677500D01*
X5972500Y-11647500D02*
X5942500Y-11677500D01*
X5942500Y-12247500D02*
X5972500Y-12277500D01*
X5972500Y-12247500D02*
X5942500Y-12277500D01*
X5943125Y-11378125D02*
X5973125Y-11408125D01*
X5973125Y-11378125D02*
X5943125Y-11408125D01*
X5947500Y-10763750D02*
X5977500Y-10793750D01*
X5977500Y-10763750D02*
X5947500Y-10793750D01*
X5957500Y-10153750D02*
X5987500Y-10183750D01*
X5987500Y-10153750D02*
X5957500Y-10183750D01*
X5970000Y-9566250D02*
X6000000Y-9596250D01*
X6000000Y-9566250D02*
X5970000Y-9596250D01*
X5982500Y-13416250D02*
X6012500Y-13446250D01*
X6012500Y-13416250D02*
X5982500Y-13446250D01*
X6200000Y-13065000D02*
X6230000Y-13095000D01*
X6230000Y-13065000D02*
X6200000Y-13095000D01*
X6200000Y-13295000D02*
X6230000Y-13325000D01*
X6230000Y-13295000D02*
X6200000Y-13325000D01*
X6242500Y-4747500D02*
X6272500Y-4777500D01*
X6272500Y-4747500D02*
X6242500Y-4777500D01*
X6242500Y-5347500D02*
X6272500Y-5377500D01*
X6272500Y-5347500D02*
X6242500Y-5377500D01*
X6242500Y-5947500D02*
X6272500Y-5977500D01*
X6272500Y-5947500D02*
X6242500Y-5977500D01*
X6242500Y-6547500D02*
X6272500Y-6577500D01*
X6272500Y-6547500D02*
X6242500Y-6577500D01*
X6242500Y-7147500D02*
X6272500Y-7177500D01*
X6272500Y-7147500D02*
X6242500Y-7177500D01*
X6242500Y-7747500D02*
X6272500Y-7777500D01*
X6272500Y-7747500D02*
X6242500Y-7777500D01*
X6242500Y-8347500D02*
X6272500Y-8377500D01*
X6272500Y-8347500D02*
X6242500Y-8377500D01*
X6242500Y-8947500D02*
X6272500Y-8977500D01*
X6272500Y-8947500D02*
X6242500Y-8977500D01*
X6242500Y-9547500D02*
X6272500Y-9577500D01*
X6272500Y-9547500D02*
X6242500Y-9577500D01*
X6242500Y-10147500D02*
X6272500Y-10177500D01*
X6272500Y-10147500D02*
X6242500Y-10177500D01*
X6242500Y-10747500D02*
X6272500Y-10777500D01*
X6272500Y-10747500D02*
X6242500Y-10777500D01*
X6242500Y-11347500D02*
X6272500Y-11377500D01*
X6272500Y-11347500D02*
X6242500Y-11377500D01*
X6242500Y-11947500D02*
X6272500Y-11977500D01*
X6272500Y-11947500D02*
X6242500Y-11977500D01*
X6242500Y-12547500D02*
X6272500Y-12577500D01*
X6272500Y-12547500D02*
X6242500Y-12577500D01*
X6243679Y-12066513D02*
X6273679Y-12096513D01*
X6273679Y-12066513D02*
X6243679Y-12096513D01*
X6245000Y-11470000D02*
X6275000Y-11500000D01*
X6275000Y-11470000D02*
X6245000Y-11500000D01*
X6245000Y-11650000D02*
X6275000Y-11680000D01*
X6275000Y-11650000D02*
X6245000Y-11680000D01*
X6249875Y-10860000D02*
X6279875Y-10890000D01*
X6279875Y-10860000D02*
X6249875Y-10890000D01*
X6249875Y-11062103D02*
X6279875Y-11092103D01*
X6279875Y-11062103D02*
X6249875Y-11092103D01*
X6250000Y-10495000D02*
X6280000Y-10525000D01*
X6280000Y-10495000D02*
X6250000Y-10525000D01*
X6283135Y-4188135D02*
X6313135Y-4218135D01*
X6313135Y-4188135D02*
X6283135Y-4218135D01*
X6402500Y-13533750D02*
X6432500Y-13563750D01*
X6432500Y-13533750D02*
X6402500Y-13563750D01*
X6535000Y-12370000D02*
X6565000Y-12400000D01*
X6565000Y-12370000D02*
X6535000Y-12400000D01*
X6542500Y-4447500D02*
X6572500Y-4477500D01*
X6572500Y-4447500D02*
X6542500Y-4477500D01*
X6542500Y-5047500D02*
X6572500Y-5077500D01*
X6572500Y-5047500D02*
X6542500Y-5077500D01*
X6542500Y-5647500D02*
X6572500Y-5677500D01*
X6572500Y-5647500D02*
X6542500Y-5677500D01*
X6542500Y-6247500D02*
X6572500Y-6277500D01*
X6572500Y-6247500D02*
X6542500Y-6277500D01*
X6542500Y-6847500D02*
X6572500Y-6877500D01*
X6572500Y-6847500D02*
X6542500Y-6877500D01*
X6542500Y-7447500D02*
X6572500Y-7477500D01*
X6572500Y-7447500D02*
X6542500Y-7477500D01*
X6542500Y-8047500D02*
X6572500Y-8077500D01*
X6572500Y-8047500D02*
X6542500Y-8077500D01*
X6542500Y-8647500D02*
X6572500Y-8677500D01*
X6572500Y-8647500D02*
X6542500Y-8677500D01*
X6542500Y-9247500D02*
X6572500Y-9277500D01*
X6572500Y-9247500D02*
X6542500Y-9277500D01*
X6542500Y-9847500D02*
X6572500Y-9877500D01*
X6572500Y-9847500D02*
X6542500Y-9877500D01*
X6542500Y-10447500D02*
X6572500Y-10477500D01*
X6572500Y-10447500D02*
X6542500Y-10477500D01*
X6542500Y-11047500D02*
X6572500Y-11077500D01*
X6572500Y-11047500D02*
X6542500Y-11077500D01*
X6542500Y-11647500D02*
X6572500Y-11677500D01*
X6572500Y-11647500D02*
X6542500Y-11677500D01*
X6542500Y-12247500D02*
X6572500Y-12277500D01*
X6572500Y-12247500D02*
X6542500Y-12277500D01*
X6545000Y-10550000D02*
X6575000Y-10580000D01*
X6575000Y-10550000D02*
X6545000Y-10580000D01*
X6545000Y-11150000D02*
X6575000Y-11180000D01*
X6575000Y-11150000D02*
X6545000Y-11180000D01*
X6545000Y-11350000D02*
X6575000Y-11380000D01*
X6575000Y-11350000D02*
X6545000Y-11380000D01*
X6545000Y-11770000D02*
X6575000Y-11800000D01*
X6575000Y-11770000D02*
X6545000Y-11800000D01*
X6545000Y-11950000D02*
X6575000Y-11980000D01*
X6575000Y-11950000D02*
X6545000Y-11980000D01*
X6565000Y-10740000D02*
X6595000Y-10770000D01*
X6595000Y-10740000D02*
X6565000Y-10770000D01*
X6567500Y-9538750D02*
X6597500Y-9568750D01*
X6597500Y-9538750D02*
X6567500Y-9568750D01*
X6585914Y-12601579D02*
X6615914Y-12631579D01*
X6615914Y-12601579D02*
X6585914Y-12631579D01*
X6588051Y-10104302D02*
X6618051Y-10134302D01*
X6618051Y-10104302D02*
X6588051Y-10134302D01*
X6665642Y-12594982D02*
X6695642Y-12624982D01*
X6695642Y-12594982D02*
X6665642Y-12624982D01*
X6745218Y-12603209D02*
X6775218Y-12633209D01*
X6775218Y-12603209D02*
X6745218Y-12633209D01*
X6842500Y-4747500D02*
X6872500Y-4777500D01*
X6872500Y-4747500D02*
X6842500Y-4777500D01*
X6842500Y-5347500D02*
X6872500Y-5377500D01*
X6872500Y-5347500D02*
X6842500Y-5377500D01*
X6842500Y-5947500D02*
X6872500Y-5977500D01*
X6872500Y-5947500D02*
X6842500Y-5977500D01*
X6842500Y-6547500D02*
X6872500Y-6577500D01*
X6872500Y-6547500D02*
X6842500Y-6577500D01*
X6842500Y-7147500D02*
X6872500Y-7177500D01*
X6872500Y-7147500D02*
X6842500Y-7177500D01*
X6842500Y-7747500D02*
X6872500Y-7777500D01*
X6872500Y-7747500D02*
X6842500Y-7777500D01*
X6842500Y-8347500D02*
X6872500Y-8377500D01*
X6872500Y-8347500D02*
X6842500Y-8377500D01*
X6842500Y-8947500D02*
X6872500Y-8977500D01*
X6872500Y-8947500D02*
X6842500Y-8977500D01*
X6842500Y-9547500D02*
X6872500Y-9577500D01*
X6872500Y-9547500D02*
X6842500Y-9577500D01*
X6842500Y-10147500D02*
X6872500Y-10177500D01*
X6872500Y-10147500D02*
X6842500Y-10177500D01*
X6842500Y-10747500D02*
X6872500Y-10777500D01*
X6872500Y-10747500D02*
X6842500Y-10777500D01*
X6842500Y-11347500D02*
X6872500Y-11377500D01*
X6872500Y-11347500D02*
X6842500Y-11377500D01*
X6842500Y-11947500D02*
X6872500Y-11977500D01*
X6872500Y-11947500D02*
X6842500Y-11977500D01*
X6842500Y-12547500D02*
X6872500Y-12577500D01*
X6872500Y-12547500D02*
X6842500Y-12577500D01*
X6845000Y-10860000D02*
X6875000Y-10890000D01*
X6875000Y-10860000D02*
X6845000Y-10890000D01*
X6845000Y-11470000D02*
X6875000Y-11500000D01*
X6875000Y-11470000D02*
X6845000Y-11500000D01*
X6860902Y-9823188D02*
X6890902Y-9853188D01*
X6890902Y-9823188D02*
X6860902Y-9853188D01*
X6865000Y-10440000D02*
X6895000Y-10470000D01*
X6895000Y-10440000D02*
X6865000Y-10470000D01*
X6875000Y-11020000D02*
X6905000Y-11050000D01*
X6905000Y-11020000D02*
X6875000Y-11050000D01*
X6883135Y-4188135D02*
X6913135Y-4218135D01*
X6913135Y-4188135D02*
X6883135Y-4218135D01*
X7135000Y-10570000D02*
X7165000Y-10600000D01*
X7165000Y-10570000D02*
X7135000Y-10600000D01*
X7142500Y-4447500D02*
X7172500Y-4477500D01*
X7172500Y-4447500D02*
X7142500Y-4477500D01*
X7142500Y-5047500D02*
X7172500Y-5077500D01*
X7172500Y-5047500D02*
X7142500Y-5077500D01*
X7142500Y-5647500D02*
X7172500Y-5677500D01*
X7172500Y-5647500D02*
X7142500Y-5677500D01*
X7142500Y-6247500D02*
X7172500Y-6277500D01*
X7172500Y-6247500D02*
X7142500Y-6277500D01*
X7142500Y-6847500D02*
X7172500Y-6877500D01*
X7172500Y-6847500D02*
X7142500Y-6877500D01*
X7142500Y-7447500D02*
X7172500Y-7477500D01*
X7172500Y-7447500D02*
X7142500Y-7477500D01*
X7142500Y-8047500D02*
X7172500Y-8077500D01*
X7172500Y-8047500D02*
X7142500Y-8077500D01*
X7142500Y-8647500D02*
X7172500Y-8677500D01*
X7172500Y-8647500D02*
X7142500Y-8677500D01*
X7142500Y-9247500D02*
X7172500Y-9277500D01*
X7172500Y-9247500D02*
X7142500Y-9277500D01*
X7142500Y-9847500D02*
X7172500Y-9877500D01*
X7172500Y-9847500D02*
X7142500Y-9877500D01*
X7142500Y-10447500D02*
X7172500Y-10477500D01*
X7172500Y-10447500D02*
X7142500Y-10477500D01*
X7142500Y-11047500D02*
X7172500Y-11077500D01*
X7172500Y-11047500D02*
X7142500Y-11077500D01*
X7142500Y-11647500D02*
X7172500Y-11677500D01*
X7172500Y-11647500D02*
X7142500Y-11677500D01*
X7142500Y-12247500D02*
X7172500Y-12277500D01*
X7172500Y-12247500D02*
X7142500Y-12277500D01*
X7145000Y-11160000D02*
X7175000Y-11190000D01*
X7175000Y-11160000D02*
X7145000Y-11190000D01*
X7146513Y-11744746D02*
X7176513Y-11774746D01*
X7176513Y-11744746D02*
X7146513Y-11774746D01*
X7165000Y-11330000D02*
X7195000Y-11360000D01*
X7195000Y-11330000D02*
X7165000Y-11360000D01*
X7170000Y-10765000D02*
X7200000Y-10795000D01*
X7200000Y-10765000D02*
X7170000Y-10795000D01*
X7172500Y-10178750D02*
X7202500Y-10208750D01*
X7202500Y-10178750D02*
X7172500Y-10208750D01*
X7435000Y-10860000D02*
X7465000Y-10890000D01*
X7465000Y-10860000D02*
X7435000Y-10890000D01*
X7435000Y-11460000D02*
X7465000Y-11490000D01*
X7465000Y-11460000D02*
X7435000Y-11490000D01*
X7442500Y-4747500D02*
X7472500Y-4777500D01*
X7472500Y-4747500D02*
X7442500Y-4777500D01*
X7442500Y-5347500D02*
X7472500Y-5377500D01*
X7472500Y-5347500D02*
X7442500Y-5377500D01*
X7442500Y-5947500D02*
X7472500Y-5977500D01*
X7472500Y-5947500D02*
X7442500Y-5977500D01*
X7442500Y-6547500D02*
X7472500Y-6577500D01*
X7472500Y-6547500D02*
X7442500Y-6577500D01*
X7442500Y-7147500D02*
X7472500Y-7177500D01*
X7472500Y-7147500D02*
X7442500Y-7177500D01*
X7442500Y-7747500D02*
X7472500Y-7777500D01*
X7472500Y-7747500D02*
X7442500Y-7777500D01*
X7442500Y-8347500D02*
X7472500Y-8377500D01*
X7472500Y-8347500D02*
X7442500Y-8377500D01*
X7442500Y-8947500D02*
X7472500Y-8977500D01*
X7472500Y-8947500D02*
X7442500Y-8977500D01*
X7442500Y-9547500D02*
X7472500Y-9577500D01*
X7472500Y-9547500D02*
X7442500Y-9577500D01*
X7442500Y-10147500D02*
X7472500Y-10177500D01*
X7472500Y-10147500D02*
X7442500Y-10177500D01*
X7442500Y-10747500D02*
X7472500Y-10777500D01*
X7472500Y-10747500D02*
X7442500Y-10777500D01*
X7442500Y-11347500D02*
X7472500Y-11377500D01*
X7472500Y-11347500D02*
X7442500Y-11377500D01*
X7442500Y-11947500D02*
X7472500Y-11977500D01*
X7472500Y-11947500D02*
X7442500Y-11977500D01*
X7442500Y-12547500D02*
X7472500Y-12577500D01*
X7472500Y-12547500D02*
X7442500Y-12577500D01*
X7472500Y-10423750D02*
X7502500Y-10453750D01*
X7502500Y-10423750D02*
X7472500Y-10453750D01*
X7483135Y-4188135D02*
X7513135Y-4218135D01*
X7513135Y-4188135D02*
X7483135Y-4218135D01*
X7495000Y-11010000D02*
X7525000Y-11040000D01*
X7525000Y-11010000D02*
X7495000Y-11040000D01*
X7715942Y-12532500D02*
X7745942Y-12562500D01*
X7745942Y-12532500D02*
X7715942Y-12562500D01*
X7742500Y-4447500D02*
X7772500Y-4477500D01*
X7772500Y-4447500D02*
X7742500Y-4477500D01*
X7742500Y-5047500D02*
X7772500Y-5077500D01*
X7772500Y-5047500D02*
X7742500Y-5077500D01*
X7742500Y-5647500D02*
X7772500Y-5677500D01*
X7772500Y-5647500D02*
X7742500Y-5677500D01*
X7742500Y-6247500D02*
X7772500Y-6277500D01*
X7772500Y-6247500D02*
X7742500Y-6277500D01*
X7742500Y-6847500D02*
X7772500Y-6877500D01*
X7772500Y-6847500D02*
X7742500Y-6877500D01*
X7742500Y-7447500D02*
X7772500Y-7477500D01*
X7772500Y-7447500D02*
X7742500Y-7477500D01*
X7742500Y-8047500D02*
X7772500Y-8077500D01*
X7772500Y-8047500D02*
X7742500Y-8077500D01*
X7742500Y-8647500D02*
X7772500Y-8677500D01*
X7772500Y-8647500D02*
X7742500Y-8677500D01*
X7742500Y-9247500D02*
X7772500Y-9277500D01*
X7772500Y-9247500D02*
X7742500Y-9277500D01*
X7742500Y-9847500D02*
X7772500Y-9877500D01*
X7772500Y-9847500D02*
X7742500Y-9877500D01*
X7742500Y-9943750D02*
X7772500Y-9973750D01*
X7772500Y-9943750D02*
X7742500Y-9973750D01*
X7742500Y-10447500D02*
X7772500Y-10477500D01*
X7772500Y-10447500D02*
X7742500Y-10477500D01*
X7742500Y-11047500D02*
X7772500Y-11077500D01*
X7772500Y-11047500D02*
X7742500Y-11077500D01*
X7742500Y-11647500D02*
X7772500Y-11677500D01*
X7772500Y-11647500D02*
X7742500Y-11677500D01*
X7742500Y-12247500D02*
X7772500Y-12277500D01*
X7772500Y-12247500D02*
X7742500Y-12277500D01*
X7745000Y-11160000D02*
X7775000Y-11190000D01*
X7775000Y-11160000D02*
X7745000Y-11190000D01*
X7745000Y-11340000D02*
X7775000Y-11370000D01*
X7775000Y-11340000D02*
X7745000Y-11370000D01*
X7745000Y-11740000D02*
X7775000Y-11770000D01*
X7775000Y-11740000D02*
X7745000Y-11770000D01*
X7757500Y-10563750D02*
X7787500Y-10593750D01*
X7787500Y-10563750D02*
X7757500Y-10593750D01*
X7777500Y-13103750D02*
X7807500Y-13133750D01*
X7807500Y-13103750D02*
X7777500Y-13133750D01*
X7782500Y-10148750D02*
X7812500Y-10178750D01*
X7812500Y-10148750D02*
X7782500Y-10178750D01*
X7795061Y-12499001D02*
X7825061Y-12529001D01*
X7825061Y-12499001D02*
X7795061Y-12529001D01*
X7797500Y-10743750D02*
X7827500Y-10773750D01*
X7827500Y-10743750D02*
X7797500Y-10773750D01*
X7995000Y-13307500D02*
X8025000Y-13337500D01*
X8025000Y-13307500D02*
X7995000Y-13337500D01*
X7997500Y-12758750D02*
X8027500Y-12788750D01*
X8027500Y-12758750D02*
X7997500Y-12788750D01*
X8038417Y-11455628D02*
X8068417Y-11485628D01*
X8068417Y-11455628D02*
X8038417Y-11485628D01*
X8042500Y-4747500D02*
X8072500Y-4777500D01*
X8072500Y-4747500D02*
X8042500Y-4777500D01*
X8042500Y-5347500D02*
X8072500Y-5377500D01*
X8072500Y-5347500D02*
X8042500Y-5377500D01*
X8042500Y-5947500D02*
X8072500Y-5977500D01*
X8072500Y-5947500D02*
X8042500Y-5977500D01*
X8042500Y-6547500D02*
X8072500Y-6577500D01*
X8072500Y-6547500D02*
X8042500Y-6577500D01*
X8042500Y-7147500D02*
X8072500Y-7177500D01*
X8072500Y-7147500D02*
X8042500Y-7177500D01*
X8042500Y-7747500D02*
X8072500Y-7777500D01*
X8072500Y-7747500D02*
X8042500Y-7777500D01*
X8042500Y-8347500D02*
X8072500Y-8377500D01*
X8072500Y-8347500D02*
X8042500Y-8377500D01*
X8042500Y-8947500D02*
X8072500Y-8977500D01*
X8072500Y-8947500D02*
X8042500Y-8977500D01*
X8042500Y-9547500D02*
X8072500Y-9577500D01*
X8072500Y-9547500D02*
X8042500Y-9577500D01*
X8042500Y-10147500D02*
X8072500Y-10177500D01*
X8072500Y-10147500D02*
X8042500Y-10177500D01*
X8042500Y-10747500D02*
X8072500Y-10777500D01*
X8072500Y-10747500D02*
X8042500Y-10777500D01*
X8042500Y-11347500D02*
X8072500Y-11377500D01*
X8072500Y-11347500D02*
X8042500Y-11377500D01*
X8042500Y-11947500D02*
X8072500Y-11977500D01*
X8072500Y-11947500D02*
X8042500Y-11977500D01*
X8042500Y-12547500D02*
X8072500Y-12577500D01*
X8072500Y-12547500D02*
X8042500Y-12577500D01*
X8045000Y-12050000D02*
X8075000Y-12080000D01*
X8075000Y-12050000D02*
X8045000Y-12080000D01*
X8047500Y-10263750D02*
X8077500Y-10293750D01*
X8077500Y-10263750D02*
X8047500Y-10293750D01*
X8052500Y-10448750D02*
X8082500Y-10478750D01*
X8082500Y-10448750D02*
X8052500Y-10478750D01*
X8058877Y-10862066D02*
X8088877Y-10892066D01*
X8088877Y-10862066D02*
X8058877Y-10892066D01*
X8075000Y-11640000D02*
X8105000Y-11670000D01*
X8105000Y-11640000D02*
X8075000Y-11670000D01*
X8077500Y-11033750D02*
X8107500Y-11063750D01*
X8107500Y-11033750D02*
X8077500Y-11063750D01*
X8083135Y-4188135D02*
X8113135Y-4218135D01*
X8113135Y-4188135D02*
X8083135Y-4218135D01*
X8100000Y-13402500D02*
X8130000Y-13432500D01*
X8130000Y-13402500D02*
X8100000Y-13432500D01*
X8137025Y-12579619D02*
X8167025Y-12609619D01*
X8167025Y-12579619D02*
X8137025Y-12609619D01*
X8227384Y-12583701D02*
X8257384Y-12613701D01*
X8257384Y-12583701D02*
X8227384Y-12613701D01*
X8227500Y-13662786D02*
X8257500Y-13692786D01*
X8257500Y-13662786D02*
X8227500Y-13692786D01*
X8279779Y-13232721D02*
X8309779Y-13262721D01*
X8309779Y-13232721D02*
X8279779Y-13262721D01*
X8315000Y-12590000D02*
X8345000Y-12620000D01*
X8345000Y-12590000D02*
X8315000Y-12620000D01*
X8335000Y-11770000D02*
X8365000Y-11800000D01*
X8365000Y-11770000D02*
X8335000Y-11800000D01*
X8335000Y-11950000D02*
X8365000Y-11980000D01*
X8365000Y-11950000D02*
X8335000Y-11980000D01*
X8342500Y-4447500D02*
X8372500Y-4477500D01*
X8372500Y-4447500D02*
X8342500Y-4477500D01*
X8342500Y-5047500D02*
X8372500Y-5077500D01*
X8372500Y-5047500D02*
X8342500Y-5077500D01*
X8342500Y-5647500D02*
X8372500Y-5677500D01*
X8372500Y-5647500D02*
X8342500Y-5677500D01*
X8342500Y-6247500D02*
X8372500Y-6277500D01*
X8372500Y-6247500D02*
X8342500Y-6277500D01*
X8342500Y-6847500D02*
X8372500Y-6877500D01*
X8372500Y-6847500D02*
X8342500Y-6877500D01*
X8342500Y-7447500D02*
X8372500Y-7477500D01*
X8372500Y-7447500D02*
X8342500Y-7477500D01*
X8342500Y-8047500D02*
X8372500Y-8077500D01*
X8372500Y-8047500D02*
X8342500Y-8077500D01*
X8342500Y-8647500D02*
X8372500Y-8677500D01*
X8372500Y-8647500D02*
X8342500Y-8677500D01*
X8342500Y-9247500D02*
X8372500Y-9277500D01*
X8372500Y-9247500D02*
X8342500Y-9277500D01*
X8342500Y-9847500D02*
X8372500Y-9877500D01*
X8372500Y-9847500D02*
X8342500Y-9877500D01*
X8342500Y-10447500D02*
X8372500Y-10477500D01*
X8372500Y-10447500D02*
X8342500Y-10477500D01*
X8342500Y-11047500D02*
X8372500Y-11077500D01*
X8372500Y-11047500D02*
X8342500Y-11077500D01*
X8342500Y-11647500D02*
X8372500Y-11677500D01*
X8372500Y-11647500D02*
X8342500Y-11677500D01*
X8342500Y-12247500D02*
X8372500Y-12277500D01*
X8372500Y-12247500D02*
X8342500Y-12277500D01*
X8342500Y-12983750D02*
X8372500Y-13013750D01*
X8372500Y-12983750D02*
X8342500Y-13013750D01*
X8347500Y-13542786D02*
X8377500Y-13572786D01*
X8377500Y-13542786D02*
X8347500Y-13572786D01*
X8347500Y-13630786D02*
X8377500Y-13660786D01*
X8377500Y-13630786D02*
X8347500Y-13660786D01*
X8354016Y-12343869D02*
X8384016Y-12373869D01*
X8384016Y-12343869D02*
X8354016Y-12373869D01*
X8355000Y-13935633D02*
X8385000Y-13965633D01*
X8385000Y-13935633D02*
X8355000Y-13965633D01*
X8357500Y-11158750D02*
X8387500Y-11188750D01*
X8387500Y-11158750D02*
X8357500Y-11188750D01*
X8362500Y-10558750D02*
X8392500Y-10588750D01*
X8392500Y-10558750D02*
X8362500Y-10588750D01*
X8377500Y-10738750D02*
X8407500Y-10768750D01*
X8407500Y-10738750D02*
X8377500Y-10768750D01*
X8395511Y-12503662D02*
X8425511Y-12533662D01*
X8425511Y-12503662D02*
X8395511Y-12533662D01*
X8400100Y-11338750D02*
X8430100Y-11368750D01*
X8430100Y-11338750D02*
X8400100Y-11368750D01*
X8422500Y-12888750D02*
X8452500Y-12918750D01*
X8452500Y-12888750D02*
X8422500Y-12918750D01*
X8465000Y-12816250D02*
X8495000Y-12846250D01*
X8495000Y-12816250D02*
X8465000Y-12846250D01*
X8583125Y-11888125D02*
X8613125Y-11918125D01*
X8613125Y-11888125D02*
X8583125Y-11918125D01*
X8595699Y-11985551D02*
X8625699Y-12015551D01*
X8625699Y-11985551D02*
X8595699Y-12015551D01*
X8642500Y-4747500D02*
X8672500Y-4777500D01*
X8672500Y-4747500D02*
X8642500Y-4777500D01*
X8642500Y-5347500D02*
X8672500Y-5377500D01*
X8672500Y-5347500D02*
X8642500Y-5377500D01*
X8642500Y-5947500D02*
X8672500Y-5977500D01*
X8672500Y-5947500D02*
X8642500Y-5977500D01*
X8642500Y-6547500D02*
X8672500Y-6577500D01*
X8672500Y-6547500D02*
X8642500Y-6577500D01*
X8642500Y-7147500D02*
X8672500Y-7177500D01*
X8672500Y-7147500D02*
X8642500Y-7177500D01*
X8642500Y-7747500D02*
X8672500Y-7777500D01*
X8672500Y-7747500D02*
X8642500Y-7777500D01*
X8642500Y-8347500D02*
X8672500Y-8377500D01*
X8672500Y-8347500D02*
X8642500Y-8377500D01*
X8642500Y-8947500D02*
X8672500Y-8977500D01*
X8672500Y-8947500D02*
X8642500Y-8977500D01*
X8642500Y-9547500D02*
X8672500Y-9577500D01*
X8672500Y-9547500D02*
X8642500Y-9577500D01*
X8642500Y-10147500D02*
X8672500Y-10177500D01*
X8672500Y-10147500D02*
X8642500Y-10177500D01*
X8642500Y-10747500D02*
X8672500Y-10777500D01*
X8672500Y-10747500D02*
X8642500Y-10777500D01*
X8642500Y-11347500D02*
X8672500Y-11377500D01*
X8672500Y-11347500D02*
X8642500Y-11377500D01*
X8642500Y-12547500D02*
X8672500Y-12577500D01*
X8672500Y-12547500D02*
X8642500Y-12577500D01*
X8647500Y-11453750D02*
X8677500Y-11483750D01*
X8677500Y-11453750D02*
X8647500Y-11483750D01*
X8652500Y-10853750D02*
X8682500Y-10883750D01*
X8682500Y-10853750D02*
X8652500Y-10883750D01*
X8666397Y-12056250D02*
X8696397Y-12086250D01*
X8696397Y-12056250D02*
X8666397Y-12086250D01*
X8672500Y-11058750D02*
X8702500Y-11088750D01*
X8702500Y-11058750D02*
X8672500Y-11088750D01*
X8683135Y-4188135D02*
X8713135Y-4218135D01*
X8713135Y-4188135D02*
X8683135Y-4218135D01*
X8692500Y-11608750D02*
X8722500Y-11638750D01*
X8722500Y-11608750D02*
X8692500Y-11638750D01*
X8705000Y-12680000D02*
X8735000Y-12710000D01*
X8735000Y-12680000D02*
X8705000Y-12710000D01*
X8712500Y-13417786D02*
X8742500Y-13447786D01*
X8742500Y-13417786D02*
X8712500Y-13447786D01*
X8727500Y-12942786D02*
X8757500Y-12972786D01*
X8757500Y-12942786D02*
X8727500Y-12972786D01*
X8774800Y-12590000D02*
X8804800Y-12620000D01*
X8804800Y-12590000D02*
X8774800Y-12620000D01*
X8845000Y-13744154D02*
X8875000Y-13774154D01*
X8875000Y-13744154D02*
X8845000Y-13774154D01*
X8867500Y-12677787D02*
X8897500Y-12707787D01*
X8897500Y-12677787D02*
X8867500Y-12707787D01*
X8924755Y-13750410D02*
X8954755Y-13780410D01*
X8954755Y-13750410D02*
X8924755Y-13780410D01*
X8937500Y-13017786D02*
X8967500Y-13047786D01*
X8967500Y-13017786D02*
X8937500Y-13047786D01*
X8942500Y-4447500D02*
X8972500Y-4477500D01*
X8972500Y-4447500D02*
X8942500Y-4477500D01*
X8942500Y-5047500D02*
X8972500Y-5077500D01*
X8972500Y-5047500D02*
X8942500Y-5077500D01*
X8942500Y-5647500D02*
X8972500Y-5677500D01*
X8972500Y-5647500D02*
X8942500Y-5677500D01*
X8942500Y-6247500D02*
X8972500Y-6277500D01*
X8972500Y-6247500D02*
X8942500Y-6277500D01*
X8942500Y-6847500D02*
X8972500Y-6877500D01*
X8972500Y-6847500D02*
X8942500Y-6877500D01*
X8942500Y-7447500D02*
X8972500Y-7477500D01*
X8972500Y-7447500D02*
X8942500Y-7477500D01*
X8942500Y-8047500D02*
X8972500Y-8077500D01*
X8972500Y-8047500D02*
X8942500Y-8077500D01*
X8942500Y-8647500D02*
X8972500Y-8677500D01*
X8972500Y-8647500D02*
X8942500Y-8677500D01*
X8942500Y-9247500D02*
X8972500Y-9277500D01*
X8972500Y-9247500D02*
X8942500Y-9277500D01*
X8942500Y-9847500D02*
X8972500Y-9877500D01*
X8972500Y-9847500D02*
X8942500Y-9877500D01*
X8942500Y-10447500D02*
X8972500Y-10477500D01*
X8972500Y-10447500D02*
X8942500Y-10477500D01*
X8942500Y-11047500D02*
X8972500Y-11077500D01*
X8972500Y-11047500D02*
X8942500Y-11077500D01*
X8942500Y-11647500D02*
X8972500Y-11677500D01*
X8972500Y-11647500D02*
X8942500Y-11677500D01*
X8942500Y-11758750D02*
X8972500Y-11788750D01*
X8972500Y-11758750D02*
X8942500Y-11788750D01*
X8942500Y-12247500D02*
X8972500Y-12277500D01*
X8972500Y-12247500D02*
X8942500Y-12277500D01*
X8952500Y-11158750D02*
X8982500Y-11188750D01*
X8982500Y-11158750D02*
X8952500Y-11188750D01*
X8962500Y-12353750D02*
X8992500Y-12383750D01*
X8992500Y-12353750D02*
X8962500Y-12383750D01*
X8962500Y-13237786D02*
X8992500Y-13267786D01*
X8992500Y-13237786D02*
X8962500Y-13267786D01*
X8967500Y-11358750D02*
X8997500Y-11388750D01*
X8997500Y-11358750D02*
X8967500Y-11388750D01*
X8967500Y-13682786D02*
X8997500Y-13712786D01*
X8997500Y-13682786D02*
X8967500Y-13712786D01*
X8970000Y-12663750D02*
X9000000Y-12693750D01*
X9000000Y-12663750D02*
X8970000Y-12693750D01*
X8995007Y-12497346D02*
X9025007Y-12527346D01*
X9025007Y-12497346D02*
X8995007Y-12527346D01*
X9050000Y-12606250D02*
X9080000Y-12636250D01*
X9080000Y-12606250D02*
X9050000Y-12636250D01*
X9087500Y-13677786D02*
X9117500Y-13707786D01*
X9117500Y-13677786D02*
X9087500Y-13707786D01*
X9115000Y-13755000D02*
X9145000Y-13785000D01*
X9145000Y-13755000D02*
X9115000Y-13785000D01*
X9175000Y-13810000D02*
X9205000Y-13840000D01*
X9205000Y-13810000D02*
X9175000Y-13840000D01*
X9212500Y-13432786D02*
X9242500Y-13462786D01*
X9242500Y-13432786D02*
X9212500Y-13462786D01*
X9216928Y-13878133D02*
X9246928Y-13908133D01*
X9246928Y-13878133D02*
X9216928Y-13908133D01*
X9217500Y-12947786D02*
X9247500Y-12977786D01*
X9247500Y-12947786D02*
X9217500Y-12977786D01*
X9242500Y-4747500D02*
X9272500Y-4777500D01*
X9272500Y-4747500D02*
X9242500Y-4777500D01*
X9242500Y-5347500D02*
X9272500Y-5377500D01*
X9272500Y-5347500D02*
X9242500Y-5377500D01*
X9242500Y-5947500D02*
X9272500Y-5977500D01*
X9272500Y-5947500D02*
X9242500Y-5977500D01*
X9242500Y-6547500D02*
X9272500Y-6577500D01*
X9272500Y-6547500D02*
X9242500Y-6577500D01*
X9242500Y-7147500D02*
X9272500Y-7177500D01*
X9272500Y-7147500D02*
X9242500Y-7177500D01*
X9242500Y-7747500D02*
X9272500Y-7777500D01*
X9272500Y-7747500D02*
X9242500Y-7777500D01*
X9242500Y-8347500D02*
X9272500Y-8377500D01*
X9272500Y-8347500D02*
X9242500Y-8377500D01*
X9242500Y-8947500D02*
X9272500Y-8977500D01*
X9272500Y-8947500D02*
X9242500Y-8977500D01*
X9242500Y-9547500D02*
X9272500Y-9577500D01*
X9272500Y-9547500D02*
X9242500Y-9577500D01*
X9242500Y-10147500D02*
X9272500Y-10177500D01*
X9272500Y-10147500D02*
X9242500Y-10177500D01*
X9242500Y-10747500D02*
X9272500Y-10777500D01*
X9272500Y-10747500D02*
X9242500Y-10777500D01*
X9242500Y-11347500D02*
X9272500Y-11377500D01*
X9272500Y-11347500D02*
X9242500Y-11377500D01*
X9242500Y-11947500D02*
X9272500Y-11977500D01*
X9272500Y-11947500D02*
X9242500Y-11977500D01*
X9242500Y-12547500D02*
X9272500Y-12577500D01*
X9272500Y-12547500D02*
X9242500Y-12577500D01*
X9257500Y-12048750D02*
X9287500Y-12078750D01*
X9287500Y-12048750D02*
X9257500Y-12078750D01*
X9283135Y-4188135D02*
X9313135Y-4218135D01*
X9313135Y-4188135D02*
X9283135Y-4218135D01*
X9325000Y-13680000D02*
X9355000Y-13710000D01*
X9355000Y-13680000D02*
X9325000Y-13710000D01*
X9370190Y-12703703D02*
X9400190Y-12733703D01*
X9400190Y-12703703D02*
X9370190Y-12733703D01*
X9395232Y-13718308D02*
X9425232Y-13748308D01*
X9425232Y-13718308D02*
X9395232Y-13748308D01*
X9436050Y-12872300D02*
X9466050Y-12902300D01*
X9466050Y-12872300D02*
X9436050Y-12902300D01*
X9447105Y-13779212D02*
X9477105Y-13809212D01*
X9477105Y-13779212D02*
X9447105Y-13809212D01*
X9505462Y-13035286D02*
X9535462Y-13065286D01*
X9535462Y-13035286D02*
X9505462Y-13065286D01*
X9505562Y-12920286D02*
X9535562Y-12950286D01*
X9535562Y-12920286D02*
X9505562Y-12950286D01*
X9525000Y-13115000D02*
X9555000Y-13145000D01*
X9555000Y-13115000D02*
X9525000Y-13145000D01*
X9530322Y-13194823D02*
X9560322Y-13224823D01*
X9560322Y-13194823D02*
X9530322Y-13224823D01*
X9532500Y-12333750D02*
X9562500Y-12363750D01*
X9562500Y-12333750D02*
X9532500Y-12363750D01*
X9535734Y-14015489D02*
X9565734Y-14045489D01*
X9565734Y-14015489D02*
X9535734Y-14045489D01*
X9542500Y-4447500D02*
X9572500Y-4477500D01*
X9572500Y-4447500D02*
X9542500Y-4477500D01*
X9542500Y-5047500D02*
X9572500Y-5077500D01*
X9572500Y-5047500D02*
X9542500Y-5077500D01*
X9542500Y-5647500D02*
X9572500Y-5677500D01*
X9572500Y-5647500D02*
X9542500Y-5677500D01*
X9542500Y-6247500D02*
X9572500Y-6277500D01*
X9572500Y-6247500D02*
X9542500Y-6277500D01*
X9542500Y-6847500D02*
X9572500Y-6877500D01*
X9572500Y-6847500D02*
X9542500Y-6877500D01*
X9542500Y-7447500D02*
X9572500Y-7477500D01*
X9572500Y-7447500D02*
X9542500Y-7477500D01*
X9542500Y-8047500D02*
X9572500Y-8077500D01*
X9572500Y-8047500D02*
X9542500Y-8077500D01*
X9542500Y-8647500D02*
X9572500Y-8677500D01*
X9572500Y-8647500D02*
X9542500Y-8677500D01*
X9542500Y-9247500D02*
X9572500Y-9277500D01*
X9572500Y-9247500D02*
X9542500Y-9277500D01*
X9542500Y-9847500D02*
X9572500Y-9877500D01*
X9572500Y-9847500D02*
X9542500Y-9877500D01*
X9542500Y-10447500D02*
X9572500Y-10477500D01*
X9572500Y-10447500D02*
X9542500Y-10477500D01*
X9542500Y-11047500D02*
X9572500Y-11077500D01*
X9572500Y-11047500D02*
X9542500Y-11077500D01*
X9542500Y-11647500D02*
X9572500Y-11677500D01*
X9572500Y-11647500D02*
X9542500Y-11677500D01*
X9542500Y-12247500D02*
X9572500Y-12277500D01*
X9572500Y-12247500D02*
X9542500Y-12277500D01*
X9563999Y-12461566D02*
X9593999Y-12491566D01*
X9593999Y-12461566D02*
X9563999Y-12491566D01*
X9595000Y-13260000D02*
X9625000Y-13290000D01*
X9625000Y-13260000D02*
X9595000Y-13290000D01*
X9660000Y-12963750D02*
X9690000Y-12993750D01*
X9690000Y-12963750D02*
X9660000Y-12993750D01*
X9708056Y-13311946D02*
X9738056Y-13341946D01*
X9738056Y-13311946D02*
X9708056Y-13341946D01*
X9759800Y-13418998D02*
X9789800Y-13448998D01*
X9789800Y-13418998D02*
X9759800Y-13448998D01*
X9790953Y-12719702D02*
X9820953Y-12749702D01*
X9820953Y-12719702D02*
X9790953Y-12749702D01*
X9792474Y-13495909D02*
X9822474Y-13525909D01*
X9822474Y-13495909D02*
X9792474Y-13525909D01*
X9841959Y-12533601D02*
X9871959Y-12563601D01*
X9871959Y-12533601D02*
X9841959Y-12563601D01*
X9842500Y-4747500D02*
X9872500Y-4777500D01*
X9872500Y-4747500D02*
X9842500Y-4777500D01*
X9842500Y-5347500D02*
X9872500Y-5377500D01*
X9872500Y-5347500D02*
X9842500Y-5377500D01*
X9842500Y-5947500D02*
X9872500Y-5977500D01*
X9872500Y-5947500D02*
X9842500Y-5977500D01*
X9842500Y-6547500D02*
X9872500Y-6577500D01*
X9872500Y-6547500D02*
X9842500Y-6577500D01*
X9842500Y-7147500D02*
X9872500Y-7177500D01*
X9872500Y-7147500D02*
X9842500Y-7177500D01*
X9842500Y-7747500D02*
X9872500Y-7777500D01*
X9872500Y-7747500D02*
X9842500Y-7777500D01*
X9842500Y-8347500D02*
X9872500Y-8377500D01*
X9872500Y-8347500D02*
X9842500Y-8377500D01*
X9842500Y-8947500D02*
X9872500Y-8977500D01*
X9872500Y-8947500D02*
X9842500Y-8977500D01*
X9842500Y-9547500D02*
X9872500Y-9577500D01*
X9872500Y-9547500D02*
X9842500Y-9577500D01*
X9842500Y-10147500D02*
X9872500Y-10177500D01*
X9872500Y-10147500D02*
X9842500Y-10177500D01*
X9842500Y-10747500D02*
X9872500Y-10777500D01*
X9872500Y-10747500D02*
X9842500Y-10777500D01*
X9842500Y-11347500D02*
X9872500Y-11377500D01*
X9872500Y-11347500D02*
X9842500Y-11377500D01*
X9842500Y-11947500D02*
X9872500Y-11977500D01*
X9872500Y-11947500D02*
X9842500Y-11977500D01*
X9845000Y-13556250D02*
X9875000Y-13586250D01*
X9875000Y-13556250D02*
X9845000Y-13586250D01*
X9883135Y-4188135D02*
X9913135Y-4218135D01*
X9913135Y-4188135D02*
X9883135Y-4218135D01*
X9902500Y-13613750D02*
X9932500Y-13643750D01*
X9932500Y-13613750D02*
X9902500Y-13643750D01*
X9927500Y-13007500D02*
X9957500Y-13037500D01*
X9957500Y-13007500D02*
X9927500Y-13037500D01*
X9941557Y-12921548D02*
X9971557Y-12951548D01*
X9971557Y-12921548D02*
X9941557Y-12951548D01*
X10122500Y-12368750D02*
X10152500Y-12398750D01*
X10152500Y-12368750D02*
X10122500Y-12398750D01*
X10142500Y-4447500D02*
X10172500Y-4477500D01*
X10172500Y-4447500D02*
X10142500Y-4477500D01*
X10142500Y-5047500D02*
X10172500Y-5077500D01*
X10172500Y-5047500D02*
X10142500Y-5077500D01*
X10142500Y-5647500D02*
X10172500Y-5677500D01*
X10172500Y-5647500D02*
X10142500Y-5677500D01*
X10142500Y-6247500D02*
X10172500Y-6277500D01*
X10172500Y-6247500D02*
X10142500Y-6277500D01*
X10142500Y-6847500D02*
X10172500Y-6877500D01*
X10172500Y-6847500D02*
X10142500Y-6877500D01*
X10142500Y-7447500D02*
X10172500Y-7477500D01*
X10172500Y-7447500D02*
X10142500Y-7477500D01*
X10142500Y-8047500D02*
X10172500Y-8077500D01*
X10172500Y-8047500D02*
X10142500Y-8077500D01*
X10142500Y-8647500D02*
X10172500Y-8677500D01*
X10172500Y-8647500D02*
X10142500Y-8677500D01*
X10142500Y-9247500D02*
X10172500Y-9277500D01*
X10172500Y-9247500D02*
X10142500Y-9277500D01*
X10142500Y-9847500D02*
X10172500Y-9877500D01*
X10172500Y-9847500D02*
X10142500Y-9877500D01*
X10142500Y-10447500D02*
X10172500Y-10477500D01*
X10172500Y-10447500D02*
X10142500Y-10477500D01*
X10142500Y-11047500D02*
X10172500Y-11077500D01*
X10172500Y-11047500D02*
X10142500Y-11077500D01*
X10142500Y-11647500D02*
X10172500Y-11677500D01*
X10172500Y-11647500D02*
X10142500Y-11677500D01*
X10142500Y-12247500D02*
X10172500Y-12277500D01*
X10172500Y-12247500D02*
X10142500Y-12277500D01*
X10182500Y-12518750D02*
X10212500Y-12548750D01*
X10212500Y-12518750D02*
X10182500Y-12548750D01*
X10442500Y-4747500D02*
X10472500Y-4777500D01*
X10472500Y-4747500D02*
X10442500Y-4777500D01*
X10442500Y-5347500D02*
X10472500Y-5377500D01*
X10472500Y-5347500D02*
X10442500Y-5377500D01*
X10442500Y-5947500D02*
X10472500Y-5977500D01*
X10472500Y-5947500D02*
X10442500Y-5977500D01*
X10442500Y-6547500D02*
X10472500Y-6577500D01*
X10472500Y-6547500D02*
X10442500Y-6577500D01*
X10442500Y-7147500D02*
X10472500Y-7177500D01*
X10472500Y-7147500D02*
X10442500Y-7177500D01*
X10442500Y-7747500D02*
X10472500Y-7777500D01*
X10472500Y-7747500D02*
X10442500Y-7777500D01*
X10442500Y-8347500D02*
X10472500Y-8377500D01*
X10472500Y-8347500D02*
X10442500Y-8377500D01*
X10442500Y-8947500D02*
X10472500Y-8977500D01*
X10472500Y-8947500D02*
X10442500Y-8977500D01*
X10442500Y-9547500D02*
X10472500Y-9577500D01*
X10472500Y-9547500D02*
X10442500Y-9577500D01*
X10442500Y-10147500D02*
X10472500Y-10177500D01*
X10472500Y-10147500D02*
X10442500Y-10177500D01*
X10442500Y-10747500D02*
X10472500Y-10777500D01*
X10472500Y-10747500D02*
X10442500Y-10777500D01*
X10442500Y-11347500D02*
X10472500Y-11377500D01*
X10472500Y-11347500D02*
X10442500Y-11377500D01*
X10442500Y-11947500D02*
X10472500Y-11977500D01*
X10472500Y-11947500D02*
X10442500Y-11977500D01*
X10442500Y-12547500D02*
X10472500Y-12577500D01*
X10472500Y-12547500D02*
X10442500Y-12577500D01*
X10483135Y-4188135D02*
X10513135Y-4218135D01*
X10513135Y-4188135D02*
X10483135Y-4218135D01*
X10742500Y-4447500D02*
X10772500Y-4477500D01*
X10772500Y-4447500D02*
X10742500Y-4477500D01*
X10742500Y-5047500D02*
X10772500Y-5077500D01*
X10772500Y-5047500D02*
X10742500Y-5077500D01*
X10742500Y-5647500D02*
X10772500Y-5677500D01*
X10772500Y-5647500D02*
X10742500Y-5677500D01*
X10742500Y-6247500D02*
X10772500Y-6277500D01*
X10772500Y-6247500D02*
X10742500Y-6277500D01*
X10742500Y-6847500D02*
X10772500Y-6877500D01*
X10772500Y-6847500D02*
X10742500Y-6877500D01*
X10742500Y-7447500D02*
X10772500Y-7477500D01*
X10772500Y-7447500D02*
X10742500Y-7477500D01*
X10742500Y-8047500D02*
X10772500Y-8077500D01*
X10772500Y-8047500D02*
X10742500Y-8077500D01*
X10742500Y-8647500D02*
X10772500Y-8677500D01*
X10772500Y-8647500D02*
X10742500Y-8677500D01*
X10742500Y-9247500D02*
X10772500Y-9277500D01*
X10772500Y-9247500D02*
X10742500Y-9277500D01*
X10742500Y-9847500D02*
X10772500Y-9877500D01*
X10772500Y-9847500D02*
X10742500Y-9877500D01*
X10742500Y-10447500D02*
X10772500Y-10477500D01*
X10772500Y-10447500D02*
X10742500Y-10477500D01*
X10742500Y-11047500D02*
X10772500Y-11077500D01*
X10772500Y-11047500D02*
X10742500Y-11077500D01*
X10742500Y-11647500D02*
X10772500Y-11677500D01*
X10772500Y-11647500D02*
X10742500Y-11677500D01*
X10742500Y-12247500D02*
X10772500Y-12277500D01*
X10772500Y-12247500D02*
X10742500Y-12277500D01*
X11042500Y-4747500D02*
X11072500Y-4777500D01*
X11072500Y-4747500D02*
X11042500Y-4777500D01*
X11042500Y-5347500D02*
X11072500Y-5377500D01*
X11072500Y-5347500D02*
X11042500Y-5377500D01*
X11042500Y-5947500D02*
X11072500Y-5977500D01*
X11072500Y-5947500D02*
X11042500Y-5977500D01*
X11042500Y-6547500D02*
X11072500Y-6577500D01*
X11072500Y-6547500D02*
X11042500Y-6577500D01*
X11042500Y-7147500D02*
X11072500Y-7177500D01*
X11072500Y-7147500D02*
X11042500Y-7177500D01*
X11042500Y-7747500D02*
X11072500Y-7777500D01*
X11072500Y-7747500D02*
X11042500Y-7777500D01*
X11042500Y-8347500D02*
X11072500Y-8377500D01*
X11072500Y-8347500D02*
X11042500Y-8377500D01*
X11042500Y-8947500D02*
X11072500Y-8977500D01*
X11072500Y-8947500D02*
X11042500Y-8977500D01*
X11042500Y-9547500D02*
X11072500Y-9577500D01*
X11072500Y-9547500D02*
X11042500Y-9577500D01*
X11042500Y-10147500D02*
X11072500Y-10177500D01*
X11072500Y-10147500D02*
X11042500Y-10177500D01*
X11042500Y-10747500D02*
X11072500Y-10777500D01*
X11072500Y-10747500D02*
X11042500Y-10777500D01*
X11042500Y-11347500D02*
X11072500Y-11377500D01*
X11072500Y-11347500D02*
X11042500Y-11377500D01*
X11042500Y-11947500D02*
X11072500Y-11977500D01*
X11072500Y-11947500D02*
X11042500Y-11977500D01*
X11042500Y-12547500D02*
X11072500Y-12577500D01*
X11072500Y-12547500D02*
X11042500Y-12577500D01*
X5135000Y-13305000D02*
G75*
G02*
X5085000Y-13305000I-25000J0D01*
G01*
X5085000Y-13305000D02*
G75*
G02*
X5135000Y-13305000I25000J0D01*
G01*
D12*
X4847500Y-4233750D02*
X4847500Y-4453750D01*
X4737500Y-4343750D02*
X4957500Y-4343750D01*
X4847500Y-13733750D02*
X4847500Y-13953750D01*
X4737500Y-13843750D02*
X4957500Y-13843750D01*
X11247500Y-4233750D02*
X11247500Y-4453750D01*
X11137500Y-4343750D02*
X11357500Y-4343750D01*
X11247500Y-13733750D02*
X11247500Y-13953750D01*
X11137500Y-13843750D02*
X11357500Y-13843750D01*
D11*
X4790777Y-14456484D02*
X4790777Y-14256484D01*
X4790777Y-14256484D02*
X4838396Y-14256484D01*
X4838396Y-14256484D02*
X4866967Y-14266008D01*
X4866967Y-14266008D02*
X4886015Y-14285055D01*
X4886015Y-14285055D02*
X4895539Y-14304103D01*
X4895539Y-14304103D02*
X4905063Y-14342198D01*
X4905063Y-14342198D02*
X4905063Y-14370769D01*
X4905063Y-14370769D02*
X4895539Y-14408865D01*
X4895539Y-14408865D02*
X4886015Y-14427912D01*
X4886015Y-14427912D02*
X4866967Y-14446960D01*
X4866967Y-14446960D02*
X4838396Y-14456484D01*
X4838396Y-14456484D02*
X4790777Y-14456484D01*
X4990777Y-14456484D02*
X4990777Y-14323150D01*
X4990777Y-14361246D02*
X5000301Y-14342198D01*
X5000301Y-14342198D02*
X5009824Y-14332674D01*
X5009824Y-14332674D02*
X5028872Y-14323150D01*
X5028872Y-14323150D02*
X5047920Y-14323150D01*
X5114586Y-14456484D02*
X5114586Y-14323150D01*
X5114586Y-14256484D02*
X5105063Y-14266008D01*
X5105063Y-14266008D02*
X5114586Y-14275531D01*
X5114586Y-14275531D02*
X5124110Y-14266008D01*
X5124110Y-14266008D02*
X5114586Y-14256484D01*
X5114586Y-14256484D02*
X5114586Y-14275531D01*
X5238396Y-14456484D02*
X5219348Y-14446960D01*
X5219348Y-14446960D02*
X5209824Y-14427912D01*
X5209824Y-14427912D02*
X5209824Y-14256484D01*
X5343158Y-14456484D02*
X5324110Y-14446960D01*
X5324110Y-14446960D02*
X5314586Y-14427912D01*
X5314586Y-14427912D02*
X5314586Y-14256484D01*
X5571729Y-14456484D02*
X5571729Y-14256484D01*
X5571729Y-14256484D02*
X5638396Y-14399341D01*
X5638396Y-14399341D02*
X5705062Y-14256484D01*
X5705062Y-14256484D02*
X5705062Y-14456484D01*
X5886015Y-14456484D02*
X5886015Y-14351722D01*
X5886015Y-14351722D02*
X5876491Y-14332674D01*
X5876491Y-14332674D02*
X5857443Y-14323150D01*
X5857443Y-14323150D02*
X5819348Y-14323150D01*
X5819348Y-14323150D02*
X5800301Y-14332674D01*
X5886015Y-14446960D02*
X5866967Y-14456484D01*
X5866967Y-14456484D02*
X5819348Y-14456484D01*
X5819348Y-14456484D02*
X5800301Y-14446960D01*
X5800301Y-14446960D02*
X5790777Y-14427912D01*
X5790777Y-14427912D02*
X5790777Y-14408865D01*
X5790777Y-14408865D02*
X5800301Y-14389817D01*
X5800301Y-14389817D02*
X5819348Y-14380293D01*
X5819348Y-14380293D02*
X5866967Y-14380293D01*
X5866967Y-14380293D02*
X5886015Y-14370769D01*
X5981253Y-14323150D02*
X5981253Y-14523150D01*
X5981253Y-14332674D02*
X6000301Y-14323150D01*
X6000301Y-14323150D02*
X6038396Y-14323150D01*
X6038396Y-14323150D02*
X6057443Y-14332674D01*
X6057443Y-14332674D02*
X6066967Y-14342198D01*
X6066967Y-14342198D02*
X6076491Y-14361246D01*
X6076491Y-14361246D02*
X6076491Y-14418388D01*
X6076491Y-14418388D02*
X6066967Y-14437436D01*
X6066967Y-14437436D02*
X6057443Y-14446960D01*
X6057443Y-14446960D02*
X6038396Y-14456484D01*
X6038396Y-14456484D02*
X6000301Y-14456484D01*
X6000301Y-14456484D02*
X5981253Y-14446960D01*
X6162205Y-14437436D02*
X6171729Y-14446960D01*
X6171729Y-14446960D02*
X6162205Y-14456484D01*
X6162205Y-14456484D02*
X6152682Y-14446960D01*
X6152682Y-14446960D02*
X6162205Y-14437436D01*
X6162205Y-14437436D02*
X6162205Y-14456484D01*
X6162205Y-14332674D02*
X6171729Y-14342198D01*
X6171729Y-14342198D02*
X6162205Y-14351722D01*
X6162205Y-14351722D02*
X6152682Y-14342198D01*
X6152682Y-14342198D02*
X6162205Y-14332674D01*
X6162205Y-14332674D02*
X6162205Y-14351722D01*
D10*
X4500000Y-14770000D02*
X4530000Y-14800000D01*
X4530000Y-14770000D02*
X4500000Y-14800000D01*
D11*
X4828872Y-14676484D02*
X4847920Y-14676484D01*
X4847920Y-14676484D02*
X4866967Y-14686008D01*
X4866967Y-14686008D02*
X4876491Y-14695531D01*
X4876491Y-14695531D02*
X4886015Y-14714579D01*
X4886015Y-14714579D02*
X4895539Y-14752674D01*
X4895539Y-14752674D02*
X4895539Y-14800293D01*
X4895539Y-14800293D02*
X4886015Y-14838388D01*
X4886015Y-14838388D02*
X4876491Y-14857436D01*
X4876491Y-14857436D02*
X4866967Y-14866960D01*
X4866967Y-14866960D02*
X4847920Y-14876484D01*
X4847920Y-14876484D02*
X4828872Y-14876484D01*
X4828872Y-14876484D02*
X4809824Y-14866960D01*
X4809824Y-14866960D02*
X4800301Y-14857436D01*
X4800301Y-14857436D02*
X4790777Y-14838388D01*
X4790777Y-14838388D02*
X4781253Y-14800293D01*
X4781253Y-14800293D02*
X4781253Y-14752674D01*
X4781253Y-14752674D02*
X4790777Y-14714579D01*
X4790777Y-14714579D02*
X4800301Y-14695531D01*
X4800301Y-14695531D02*
X4809824Y-14686008D01*
X4809824Y-14686008D02*
X4828872Y-14676484D01*
X4981253Y-14857436D02*
X4990777Y-14866960D01*
X4990777Y-14866960D02*
X4981253Y-14876484D01*
X4981253Y-14876484D02*
X4971729Y-14866960D01*
X4971729Y-14866960D02*
X4981253Y-14857436D01*
X4981253Y-14857436D02*
X4981253Y-14876484D01*
X5057444Y-14676484D02*
X5181253Y-14676484D01*
X5181253Y-14676484D02*
X5114586Y-14752674D01*
X5114586Y-14752674D02*
X5143158Y-14752674D01*
X5143158Y-14752674D02*
X5162205Y-14762198D01*
X5162205Y-14762198D02*
X5171729Y-14771722D01*
X5171729Y-14771722D02*
X5181253Y-14790769D01*
X5181253Y-14790769D02*
X5181253Y-14838388D01*
X5181253Y-14838388D02*
X5171729Y-14857436D01*
X5171729Y-14857436D02*
X5162205Y-14866960D01*
X5162205Y-14866960D02*
X5143158Y-14876484D01*
X5143158Y-14876484D02*
X5086015Y-14876484D01*
X5086015Y-14876484D02*
X5066967Y-14866960D01*
X5066967Y-14866960D02*
X5057444Y-14857436D01*
X5305063Y-14676484D02*
X5324110Y-14676484D01*
X5324110Y-14676484D02*
X5343158Y-14686008D01*
X5343158Y-14686008D02*
X5352682Y-14695531D01*
X5352682Y-14695531D02*
X5362205Y-14714579D01*
X5362205Y-14714579D02*
X5371729Y-14752674D01*
X5371729Y-14752674D02*
X5371729Y-14800293D01*
X5371729Y-14800293D02*
X5362205Y-14838388D01*
X5362205Y-14838388D02*
X5352682Y-14857436D01*
X5352682Y-14857436D02*
X5343158Y-14866960D01*
X5343158Y-14866960D02*
X5324110Y-14876484D01*
X5324110Y-14876484D02*
X5305063Y-14876484D01*
X5305063Y-14876484D02*
X5286015Y-14866960D01*
X5286015Y-14866960D02*
X5276491Y-14857436D01*
X5276491Y-14857436D02*
X5266967Y-14838388D01*
X5266967Y-14838388D02*
X5257444Y-14800293D01*
X5257444Y-14800293D02*
X5257444Y-14752674D01*
X5257444Y-14752674D02*
X5266967Y-14714579D01*
X5266967Y-14714579D02*
X5276491Y-14695531D01*
X5276491Y-14695531D02*
X5286015Y-14686008D01*
X5286015Y-14686008D02*
X5305063Y-14676484D01*
X5495539Y-14676484D02*
X5514586Y-14676484D01*
X5514586Y-14676484D02*
X5533634Y-14686008D01*
X5533634Y-14686008D02*
X5543158Y-14695531D01*
X5543158Y-14695531D02*
X5552682Y-14714579D01*
X5552682Y-14714579D02*
X5562205Y-14752674D01*
X5562205Y-14752674D02*
X5562205Y-14800293D01*
X5562205Y-14800293D02*
X5552682Y-14838388D01*
X5552682Y-14838388D02*
X5543158Y-14857436D01*
X5543158Y-14857436D02*
X5533634Y-14866960D01*
X5533634Y-14866960D02*
X5514586Y-14876484D01*
X5514586Y-14876484D02*
X5495539Y-14876484D01*
X5495539Y-14876484D02*
X5476491Y-14866960D01*
X5476491Y-14866960D02*
X5466967Y-14857436D01*
X5466967Y-14857436D02*
X5457444Y-14838388D01*
X5457444Y-14838388D02*
X5447920Y-14800293D01*
X5447920Y-14800293D02*
X5447920Y-14752674D01*
X5447920Y-14752674D02*
X5457444Y-14714579D01*
X5457444Y-14714579D02*
X5466967Y-14695531D01*
X5466967Y-14695531D02*
X5476491Y-14686008D01*
X5476491Y-14686008D02*
X5495539Y-14676484D01*
X5647920Y-14876484D02*
X5647920Y-14743150D01*
X5647920Y-14762198D02*
X5657443Y-14752674D01*
X5657443Y-14752674D02*
X5676491Y-14743150D01*
X5676491Y-14743150D02*
X5705063Y-14743150D01*
X5705063Y-14743150D02*
X5724110Y-14752674D01*
X5724110Y-14752674D02*
X5733634Y-14771722D01*
X5733634Y-14771722D02*
X5733634Y-14876484D01*
X5733634Y-14771722D02*
X5743158Y-14752674D01*
X5743158Y-14752674D02*
X5762205Y-14743150D01*
X5762205Y-14743150D02*
X5790777Y-14743150D01*
X5790777Y-14743150D02*
X5809824Y-14752674D01*
X5809824Y-14752674D02*
X5819348Y-14771722D01*
X5819348Y-14771722D02*
X5819348Y-14876484D01*
X5914586Y-14876484D02*
X5914586Y-14743150D01*
X5914586Y-14762198D02*
X5924110Y-14752674D01*
X5924110Y-14752674D02*
X5943158Y-14743150D01*
X5943158Y-14743150D02*
X5971729Y-14743150D01*
X5971729Y-14743150D02*
X5990777Y-14752674D01*
X5990777Y-14752674D02*
X6000301Y-14771722D01*
X6000301Y-14771722D02*
X6000301Y-14876484D01*
X6000301Y-14771722D02*
X6009824Y-14752674D01*
X6009824Y-14752674D02*
X6028872Y-14743150D01*
X6028872Y-14743150D02*
X6057443Y-14743150D01*
X6057443Y-14743150D02*
X6076491Y-14752674D01*
X6076491Y-14752674D02*
X6086015Y-14771722D01*
X6086015Y-14771722D02*
X6086015Y-14876484D01*
X6476491Y-14666960D02*
X6305063Y-14924103D01*
X6733634Y-14676484D02*
X6752682Y-14676484D01*
X6752682Y-14676484D02*
X6771729Y-14686008D01*
X6771729Y-14686008D02*
X6781253Y-14695531D01*
X6781253Y-14695531D02*
X6790777Y-14714579D01*
X6790777Y-14714579D02*
X6800301Y-14752674D01*
X6800301Y-14752674D02*
X6800301Y-14800293D01*
X6800301Y-14800293D02*
X6790777Y-14838388D01*
X6790777Y-14838388D02*
X6781253Y-14857436D01*
X6781253Y-14857436D02*
X6771729Y-14866960D01*
X6771729Y-14866960D02*
X6752682Y-14876484D01*
X6752682Y-14876484D02*
X6733634Y-14876484D01*
X6733634Y-14876484D02*
X6714586Y-14866960D01*
X6714586Y-14866960D02*
X6705063Y-14857436D01*
X6705063Y-14857436D02*
X6695539Y-14838388D01*
X6695539Y-14838388D02*
X6686015Y-14800293D01*
X6686015Y-14800293D02*
X6686015Y-14752674D01*
X6686015Y-14752674D02*
X6695539Y-14714579D01*
X6695539Y-14714579D02*
X6705063Y-14695531D01*
X6705063Y-14695531D02*
X6714586Y-14686008D01*
X6714586Y-14686008D02*
X6733634Y-14676484D01*
X6886015Y-14857436D02*
X6895539Y-14866960D01*
X6895539Y-14866960D02*
X6886015Y-14876484D01*
X6886015Y-14876484D02*
X6876491Y-14866960D01*
X6876491Y-14866960D02*
X6886015Y-14857436D01*
X6886015Y-14857436D02*
X6886015Y-14876484D01*
X7019348Y-14676484D02*
X7038396Y-14676484D01*
X7038396Y-14676484D02*
X7057444Y-14686008D01*
X7057444Y-14686008D02*
X7066967Y-14695531D01*
X7066967Y-14695531D02*
X7076491Y-14714579D01*
X7076491Y-14714579D02*
X7086015Y-14752674D01*
X7086015Y-14752674D02*
X7086015Y-14800293D01*
X7086015Y-14800293D02*
X7076491Y-14838388D01*
X7076491Y-14838388D02*
X7066967Y-14857436D01*
X7066967Y-14857436D02*
X7057444Y-14866960D01*
X7057444Y-14866960D02*
X7038396Y-14876484D01*
X7038396Y-14876484D02*
X7019348Y-14876484D01*
X7019348Y-14876484D02*
X7000301Y-14866960D01*
X7000301Y-14866960D02*
X6990777Y-14857436D01*
X6990777Y-14857436D02*
X6981253Y-14838388D01*
X6981253Y-14838388D02*
X6971729Y-14800293D01*
X6971729Y-14800293D02*
X6971729Y-14752674D01*
X6971729Y-14752674D02*
X6981253Y-14714579D01*
X6981253Y-14714579D02*
X6990777Y-14695531D01*
X6990777Y-14695531D02*
X7000301Y-14686008D01*
X7000301Y-14686008D02*
X7019348Y-14676484D01*
X7276491Y-14876484D02*
X7162206Y-14876484D01*
X7219348Y-14876484D02*
X7219348Y-14676484D01*
X7219348Y-14676484D02*
X7200301Y-14705055D01*
X7200301Y-14705055D02*
X7181253Y-14724103D01*
X7181253Y-14724103D02*
X7162206Y-14733627D01*
X7466967Y-14876484D02*
X7352682Y-14876484D01*
X7409825Y-14876484D02*
X7409825Y-14676484D01*
X7409825Y-14676484D02*
X7390777Y-14705055D01*
X7390777Y-14705055D02*
X7371729Y-14724103D01*
X7371729Y-14724103D02*
X7352682Y-14733627D01*
X7581253Y-14762198D02*
X7562206Y-14752674D01*
X7562206Y-14752674D02*
X7552682Y-14743150D01*
X7552682Y-14743150D02*
X7543158Y-14724103D01*
X7543158Y-14724103D02*
X7543158Y-14714579D01*
X7543158Y-14714579D02*
X7552682Y-14695531D01*
X7552682Y-14695531D02*
X7562206Y-14686008D01*
X7562206Y-14686008D02*
X7581253Y-14676484D01*
X7581253Y-14676484D02*
X7619348Y-14676484D01*
X7619348Y-14676484D02*
X7638396Y-14686008D01*
X7638396Y-14686008D02*
X7647920Y-14695531D01*
X7647920Y-14695531D02*
X7657444Y-14714579D01*
X7657444Y-14714579D02*
X7657444Y-14724103D01*
X7657444Y-14724103D02*
X7647920Y-14743150D01*
X7647920Y-14743150D02*
X7638396Y-14752674D01*
X7638396Y-14752674D02*
X7619348Y-14762198D01*
X7619348Y-14762198D02*
X7581253Y-14762198D01*
X7581253Y-14762198D02*
X7562206Y-14771722D01*
X7562206Y-14771722D02*
X7552682Y-14781246D01*
X7552682Y-14781246D02*
X7543158Y-14800293D01*
X7543158Y-14800293D02*
X7543158Y-14838388D01*
X7543158Y-14838388D02*
X7552682Y-14857436D01*
X7552682Y-14857436D02*
X7562206Y-14866960D01*
X7562206Y-14866960D02*
X7581253Y-14876484D01*
X7581253Y-14876484D02*
X7619348Y-14876484D01*
X7619348Y-14876484D02*
X7638396Y-14866960D01*
X7638396Y-14866960D02*
X7647920Y-14857436D01*
X7647920Y-14857436D02*
X7657444Y-14838388D01*
X7657444Y-14838388D02*
X7657444Y-14800293D01*
X7657444Y-14800293D02*
X7647920Y-14781246D01*
X7647920Y-14781246D02*
X7638396Y-14771722D01*
X7638396Y-14771722D02*
X7619348Y-14762198D01*
X7733634Y-14676484D02*
X7733634Y-14714579D01*
X7809825Y-14676484D02*
X7809825Y-14714579D01*
X8105063Y-14952674D02*
X8095539Y-14943150D01*
X8095539Y-14943150D02*
X8076491Y-14914579D01*
X8076491Y-14914579D02*
X8066968Y-14895531D01*
X8066968Y-14895531D02*
X8057444Y-14866960D01*
X8057444Y-14866960D02*
X8047920Y-14819341D01*
X8047920Y-14819341D02*
X8047920Y-14781246D01*
X8047920Y-14781246D02*
X8057444Y-14733627D01*
X8057444Y-14733627D02*
X8066968Y-14705055D01*
X8066968Y-14705055D02*
X8076491Y-14686008D01*
X8076491Y-14686008D02*
X8095539Y-14657436D01*
X8095539Y-14657436D02*
X8105063Y-14647912D01*
X8266968Y-14743150D02*
X8266968Y-14876484D01*
X8219348Y-14666960D02*
X8171729Y-14809817D01*
X8171729Y-14809817D02*
X8295539Y-14809817D01*
X8457444Y-14743150D02*
X8457444Y-14876484D01*
X8409825Y-14666960D02*
X8362206Y-14809817D01*
X8362206Y-14809817D02*
X8486015Y-14809817D01*
X8600301Y-14676484D02*
X8619349Y-14676484D01*
X8619349Y-14676484D02*
X8638396Y-14686008D01*
X8638396Y-14686008D02*
X8647920Y-14695531D01*
X8647920Y-14695531D02*
X8657444Y-14714579D01*
X8657444Y-14714579D02*
X8666968Y-14752674D01*
X8666968Y-14752674D02*
X8666968Y-14800293D01*
X8666968Y-14800293D02*
X8657444Y-14838388D01*
X8657444Y-14838388D02*
X8647920Y-14857436D01*
X8647920Y-14857436D02*
X8638396Y-14866960D01*
X8638396Y-14866960D02*
X8619349Y-14876484D01*
X8619349Y-14876484D02*
X8600301Y-14876484D01*
X8600301Y-14876484D02*
X8581253Y-14866960D01*
X8581253Y-14866960D02*
X8571730Y-14857436D01*
X8571730Y-14857436D02*
X8562206Y-14838388D01*
X8562206Y-14838388D02*
X8552682Y-14800293D01*
X8552682Y-14800293D02*
X8552682Y-14752674D01*
X8552682Y-14752674D02*
X8562206Y-14714579D01*
X8562206Y-14714579D02*
X8571730Y-14695531D01*
X8571730Y-14695531D02*
X8581253Y-14686008D01*
X8581253Y-14686008D02*
X8600301Y-14676484D01*
X8905063Y-14876484D02*
X8905063Y-14676484D01*
X8990777Y-14876484D02*
X8990777Y-14771722D01*
X8990777Y-14771722D02*
X8981253Y-14752674D01*
X8981253Y-14752674D02*
X8962206Y-14743150D01*
X8962206Y-14743150D02*
X8933634Y-14743150D01*
X8933634Y-14743150D02*
X8914587Y-14752674D01*
X8914587Y-14752674D02*
X8905063Y-14762198D01*
X9114587Y-14876484D02*
X9095539Y-14866960D01*
X9095539Y-14866960D02*
X9086015Y-14857436D01*
X9086015Y-14857436D02*
X9076492Y-14838388D01*
X9076492Y-14838388D02*
X9076492Y-14781246D01*
X9076492Y-14781246D02*
X9086015Y-14762198D01*
X9086015Y-14762198D02*
X9095539Y-14752674D01*
X9095539Y-14752674D02*
X9114587Y-14743150D01*
X9114587Y-14743150D02*
X9143158Y-14743150D01*
X9143158Y-14743150D02*
X9162206Y-14752674D01*
X9162206Y-14752674D02*
X9171730Y-14762198D01*
X9171730Y-14762198D02*
X9181253Y-14781246D01*
X9181253Y-14781246D02*
X9181253Y-14838388D01*
X9181253Y-14838388D02*
X9171730Y-14857436D01*
X9171730Y-14857436D02*
X9162206Y-14866960D01*
X9162206Y-14866960D02*
X9143158Y-14876484D01*
X9143158Y-14876484D02*
X9114587Y-14876484D01*
X9295539Y-14876484D02*
X9276492Y-14866960D01*
X9276492Y-14866960D02*
X9266968Y-14847912D01*
X9266968Y-14847912D02*
X9266968Y-14676484D01*
X9447920Y-14866960D02*
X9428873Y-14876484D01*
X9428873Y-14876484D02*
X9390777Y-14876484D01*
X9390777Y-14876484D02*
X9371730Y-14866960D01*
X9371730Y-14866960D02*
X9362206Y-14847912D01*
X9362206Y-14847912D02*
X9362206Y-14771722D01*
X9362206Y-14771722D02*
X9371730Y-14752674D01*
X9371730Y-14752674D02*
X9390777Y-14743150D01*
X9390777Y-14743150D02*
X9428873Y-14743150D01*
X9428873Y-14743150D02*
X9447920Y-14752674D01*
X9447920Y-14752674D02*
X9457444Y-14771722D01*
X9457444Y-14771722D02*
X9457444Y-14790769D01*
X9457444Y-14790769D02*
X9362206Y-14809817D01*
X9533634Y-14866960D02*
X9552682Y-14876484D01*
X9552682Y-14876484D02*
X9590777Y-14876484D01*
X9590777Y-14876484D02*
X9609825Y-14866960D01*
X9609825Y-14866960D02*
X9619349Y-14847912D01*
X9619349Y-14847912D02*
X9619349Y-14838388D01*
X9619349Y-14838388D02*
X9609825Y-14819341D01*
X9609825Y-14819341D02*
X9590777Y-14809817D01*
X9590777Y-14809817D02*
X9562206Y-14809817D01*
X9562206Y-14809817D02*
X9543158Y-14800293D01*
X9543158Y-14800293D02*
X9533634Y-14781246D01*
X9533634Y-14781246D02*
X9533634Y-14771722D01*
X9533634Y-14771722D02*
X9543158Y-14752674D01*
X9543158Y-14752674D02*
X9562206Y-14743150D01*
X9562206Y-14743150D02*
X9590777Y-14743150D01*
X9590777Y-14743150D02*
X9609825Y-14752674D01*
X9686015Y-14952674D02*
X9695539Y-14943150D01*
X9695539Y-14943150D02*
X9714587Y-14914579D01*
X9714587Y-14914579D02*
X9724111Y-14895531D01*
X9724111Y-14895531D02*
X9733634Y-14866960D01*
X9733634Y-14866960D02*
X9743158Y-14819341D01*
X9743158Y-14819341D02*
X9743158Y-14781246D01*
X9743158Y-14781246D02*
X9733634Y-14733627D01*
X9733634Y-14733627D02*
X9724111Y-14705055D01*
X9724111Y-14705055D02*
X9714587Y-14686008D01*
X9714587Y-14686008D02*
X9695539Y-14657436D01*
X9695539Y-14657436D02*
X9686015Y-14647912D01*
D10*
X4530000Y-15049000D02*
G75*
G02*
X4480000Y-15049000I-25000J0D01*
G01*
X4480000Y-15049000D02*
G75*
G02*
X4530000Y-15049000I25000J0D01*
G01*
D11*
X4828872Y-14940484D02*
X4847920Y-14940484D01*
X4847920Y-14940484D02*
X4866967Y-14950008D01*
X4866967Y-14950008D02*
X4876491Y-14959531D01*
X4876491Y-14959531D02*
X4886015Y-14978579D01*
X4886015Y-14978579D02*
X4895539Y-15016674D01*
X4895539Y-15016674D02*
X4895539Y-15064293D01*
X4895539Y-15064293D02*
X4886015Y-15102388D01*
X4886015Y-15102388D02*
X4876491Y-15121436D01*
X4876491Y-15121436D02*
X4866967Y-15130960D01*
X4866967Y-15130960D02*
X4847920Y-15140484D01*
X4847920Y-15140484D02*
X4828872Y-15140484D01*
X4828872Y-15140484D02*
X4809824Y-15130960D01*
X4809824Y-15130960D02*
X4800301Y-15121436D01*
X4800301Y-15121436D02*
X4790777Y-15102388D01*
X4790777Y-15102388D02*
X4781253Y-15064293D01*
X4781253Y-15064293D02*
X4781253Y-15016674D01*
X4781253Y-15016674D02*
X4790777Y-14978579D01*
X4790777Y-14978579D02*
X4800301Y-14959531D01*
X4800301Y-14959531D02*
X4809824Y-14950008D01*
X4809824Y-14950008D02*
X4828872Y-14940484D01*
X4981253Y-15121436D02*
X4990777Y-15130960D01*
X4990777Y-15130960D02*
X4981253Y-15140484D01*
X4981253Y-15140484D02*
X4971729Y-15130960D01*
X4971729Y-15130960D02*
X4981253Y-15121436D01*
X4981253Y-15121436D02*
X4981253Y-15140484D01*
X5171729Y-14940484D02*
X5076491Y-14940484D01*
X5076491Y-14940484D02*
X5066967Y-15035722D01*
X5066967Y-15035722D02*
X5076491Y-15026198D01*
X5076491Y-15026198D02*
X5095539Y-15016674D01*
X5095539Y-15016674D02*
X5143158Y-15016674D01*
X5143158Y-15016674D02*
X5162205Y-15026198D01*
X5162205Y-15026198D02*
X5171729Y-15035722D01*
X5171729Y-15035722D02*
X5181253Y-15054769D01*
X5181253Y-15054769D02*
X5181253Y-15102388D01*
X5181253Y-15102388D02*
X5171729Y-15121436D01*
X5171729Y-15121436D02*
X5162205Y-15130960D01*
X5162205Y-15130960D02*
X5143158Y-15140484D01*
X5143158Y-15140484D02*
X5095539Y-15140484D01*
X5095539Y-15140484D02*
X5076491Y-15130960D01*
X5076491Y-15130960D02*
X5066967Y-15121436D01*
X5305063Y-14940484D02*
X5324110Y-14940484D01*
X5324110Y-14940484D02*
X5343158Y-14950008D01*
X5343158Y-14950008D02*
X5352682Y-14959531D01*
X5352682Y-14959531D02*
X5362205Y-14978579D01*
X5362205Y-14978579D02*
X5371729Y-15016674D01*
X5371729Y-15016674D02*
X5371729Y-15064293D01*
X5371729Y-15064293D02*
X5362205Y-15102388D01*
X5362205Y-15102388D02*
X5352682Y-15121436D01*
X5352682Y-15121436D02*
X5343158Y-15130960D01*
X5343158Y-15130960D02*
X5324110Y-15140484D01*
X5324110Y-15140484D02*
X5305063Y-15140484D01*
X5305063Y-15140484D02*
X5286015Y-15130960D01*
X5286015Y-15130960D02*
X5276491Y-15121436D01*
X5276491Y-15121436D02*
X5266967Y-15102388D01*
X5266967Y-15102388D02*
X5257444Y-15064293D01*
X5257444Y-15064293D02*
X5257444Y-15016674D01*
X5257444Y-15016674D02*
X5266967Y-14978579D01*
X5266967Y-14978579D02*
X5276491Y-14959531D01*
X5276491Y-14959531D02*
X5286015Y-14950008D01*
X5286015Y-14950008D02*
X5305063Y-14940484D01*
X5495539Y-14940484D02*
X5514586Y-14940484D01*
X5514586Y-14940484D02*
X5533634Y-14950008D01*
X5533634Y-14950008D02*
X5543158Y-14959531D01*
X5543158Y-14959531D02*
X5552682Y-14978579D01*
X5552682Y-14978579D02*
X5562205Y-15016674D01*
X5562205Y-15016674D02*
X5562205Y-15064293D01*
X5562205Y-15064293D02*
X5552682Y-15102388D01*
X5552682Y-15102388D02*
X5543158Y-15121436D01*
X5543158Y-15121436D02*
X5533634Y-15130960D01*
X5533634Y-15130960D02*
X5514586Y-15140484D01*
X5514586Y-15140484D02*
X5495539Y-15140484D01*
X5495539Y-15140484D02*
X5476491Y-15130960D01*
X5476491Y-15130960D02*
X5466967Y-15121436D01*
X5466967Y-15121436D02*
X5457444Y-15102388D01*
X5457444Y-15102388D02*
X5447920Y-15064293D01*
X5447920Y-15064293D02*
X5447920Y-15016674D01*
X5447920Y-15016674D02*
X5457444Y-14978579D01*
X5457444Y-14978579D02*
X5466967Y-14959531D01*
X5466967Y-14959531D02*
X5476491Y-14950008D01*
X5476491Y-14950008D02*
X5495539Y-14940484D01*
X5647920Y-15140484D02*
X5647920Y-15007150D01*
X5647920Y-15026198D02*
X5657443Y-15016674D01*
X5657443Y-15016674D02*
X5676491Y-15007150D01*
X5676491Y-15007150D02*
X5705063Y-15007150D01*
X5705063Y-15007150D02*
X5724110Y-15016674D01*
X5724110Y-15016674D02*
X5733634Y-15035722D01*
X5733634Y-15035722D02*
X5733634Y-15140484D01*
X5733634Y-15035722D02*
X5743158Y-15016674D01*
X5743158Y-15016674D02*
X5762205Y-15007150D01*
X5762205Y-15007150D02*
X5790777Y-15007150D01*
X5790777Y-15007150D02*
X5809824Y-15016674D01*
X5809824Y-15016674D02*
X5819348Y-15035722D01*
X5819348Y-15035722D02*
X5819348Y-15140484D01*
X5914586Y-15140484D02*
X5914586Y-15007150D01*
X5914586Y-15026198D02*
X5924110Y-15016674D01*
X5924110Y-15016674D02*
X5943158Y-15007150D01*
X5943158Y-15007150D02*
X5971729Y-15007150D01*
X5971729Y-15007150D02*
X5990777Y-15016674D01*
X5990777Y-15016674D02*
X6000301Y-15035722D01*
X6000301Y-15035722D02*
X6000301Y-15140484D01*
X6000301Y-15035722D02*
X6009824Y-15016674D01*
X6009824Y-15016674D02*
X6028872Y-15007150D01*
X6028872Y-15007150D02*
X6057443Y-15007150D01*
X6057443Y-15007150D02*
X6076491Y-15016674D01*
X6076491Y-15016674D02*
X6086015Y-15035722D01*
X6086015Y-15035722D02*
X6086015Y-15140484D01*
X6476491Y-14930960D02*
X6305063Y-15188103D01*
X6733634Y-14940484D02*
X6752682Y-14940484D01*
X6752682Y-14940484D02*
X6771729Y-14950008D01*
X6771729Y-14950008D02*
X6781253Y-14959531D01*
X6781253Y-14959531D02*
X6790777Y-14978579D01*
X6790777Y-14978579D02*
X6800301Y-15016674D01*
X6800301Y-15016674D02*
X6800301Y-15064293D01*
X6800301Y-15064293D02*
X6790777Y-15102388D01*
X6790777Y-15102388D02*
X6781253Y-15121436D01*
X6781253Y-15121436D02*
X6771729Y-15130960D01*
X6771729Y-15130960D02*
X6752682Y-15140484D01*
X6752682Y-15140484D02*
X6733634Y-15140484D01*
X6733634Y-15140484D02*
X6714586Y-15130960D01*
X6714586Y-15130960D02*
X6705063Y-15121436D01*
X6705063Y-15121436D02*
X6695539Y-15102388D01*
X6695539Y-15102388D02*
X6686015Y-15064293D01*
X6686015Y-15064293D02*
X6686015Y-15016674D01*
X6686015Y-15016674D02*
X6695539Y-14978579D01*
X6695539Y-14978579D02*
X6705063Y-14959531D01*
X6705063Y-14959531D02*
X6714586Y-14950008D01*
X6714586Y-14950008D02*
X6733634Y-14940484D01*
X6886015Y-15121436D02*
X6895539Y-15130960D01*
X6895539Y-15130960D02*
X6886015Y-15140484D01*
X6886015Y-15140484D02*
X6876491Y-15130960D01*
X6876491Y-15130960D02*
X6886015Y-15121436D01*
X6886015Y-15121436D02*
X6886015Y-15140484D01*
X7019348Y-14940484D02*
X7038396Y-14940484D01*
X7038396Y-14940484D02*
X7057444Y-14950008D01*
X7057444Y-14950008D02*
X7066967Y-14959531D01*
X7066967Y-14959531D02*
X7076491Y-14978579D01*
X7076491Y-14978579D02*
X7086015Y-15016674D01*
X7086015Y-15016674D02*
X7086015Y-15064293D01*
X7086015Y-15064293D02*
X7076491Y-15102388D01*
X7076491Y-15102388D02*
X7066967Y-15121436D01*
X7066967Y-15121436D02*
X7057444Y-15130960D01*
X7057444Y-15130960D02*
X7038396Y-15140484D01*
X7038396Y-15140484D02*
X7019348Y-15140484D01*
X7019348Y-15140484D02*
X7000301Y-15130960D01*
X7000301Y-15130960D02*
X6990777Y-15121436D01*
X6990777Y-15121436D02*
X6981253Y-15102388D01*
X6981253Y-15102388D02*
X6971729Y-15064293D01*
X6971729Y-15064293D02*
X6971729Y-15016674D01*
X6971729Y-15016674D02*
X6981253Y-14978579D01*
X6981253Y-14978579D02*
X6990777Y-14959531D01*
X6990777Y-14959531D02*
X7000301Y-14950008D01*
X7000301Y-14950008D02*
X7019348Y-14940484D01*
X7276491Y-15140484D02*
X7162206Y-15140484D01*
X7219348Y-15140484D02*
X7219348Y-14940484D01*
X7219348Y-14940484D02*
X7200301Y-14969055D01*
X7200301Y-14969055D02*
X7181253Y-14988103D01*
X7181253Y-14988103D02*
X7162206Y-14997627D01*
X7371729Y-15140484D02*
X7409825Y-15140484D01*
X7409825Y-15140484D02*
X7428872Y-15130960D01*
X7428872Y-15130960D02*
X7438396Y-15121436D01*
X7438396Y-15121436D02*
X7457444Y-15092865D01*
X7457444Y-15092865D02*
X7466967Y-15054769D01*
X7466967Y-15054769D02*
X7466967Y-14978579D01*
X7466967Y-14978579D02*
X7457444Y-14959531D01*
X7457444Y-14959531D02*
X7447920Y-14950008D01*
X7447920Y-14950008D02*
X7428872Y-14940484D01*
X7428872Y-14940484D02*
X7390777Y-14940484D01*
X7390777Y-14940484D02*
X7371729Y-14950008D01*
X7371729Y-14950008D02*
X7362206Y-14959531D01*
X7362206Y-14959531D02*
X7352682Y-14978579D01*
X7352682Y-14978579D02*
X7352682Y-15026198D01*
X7352682Y-15026198D02*
X7362206Y-15045246D01*
X7362206Y-15045246D02*
X7371729Y-15054769D01*
X7371729Y-15054769D02*
X7390777Y-15064293D01*
X7390777Y-15064293D02*
X7428872Y-15064293D01*
X7428872Y-15064293D02*
X7447920Y-15054769D01*
X7447920Y-15054769D02*
X7457444Y-15045246D01*
X7457444Y-15045246D02*
X7466967Y-15026198D01*
X7533634Y-14940484D02*
X7666967Y-14940484D01*
X7666967Y-14940484D02*
X7581253Y-15140484D01*
X7733634Y-14940484D02*
X7733634Y-14978579D01*
X7809825Y-14940484D02*
X7809825Y-14978579D01*
X8105063Y-15216674D02*
X8095539Y-15207150D01*
X8095539Y-15207150D02*
X8076491Y-15178579D01*
X8076491Y-15178579D02*
X8066968Y-15159531D01*
X8066968Y-15159531D02*
X8057444Y-15130960D01*
X8057444Y-15130960D02*
X8047920Y-15083341D01*
X8047920Y-15083341D02*
X8047920Y-15045246D01*
X8047920Y-15045246D02*
X8057444Y-14997627D01*
X8057444Y-14997627D02*
X8066968Y-14969055D01*
X8066968Y-14969055D02*
X8076491Y-14950008D01*
X8076491Y-14950008D02*
X8095539Y-14921436D01*
X8095539Y-14921436D02*
X8105063Y-14911912D01*
X8286015Y-15140484D02*
X8171729Y-15140484D01*
X8228872Y-15140484D02*
X8228872Y-14940484D01*
X8228872Y-14940484D02*
X8209825Y-14969055D01*
X8209825Y-14969055D02*
X8190777Y-14988103D01*
X8190777Y-14988103D02*
X8171729Y-14997627D01*
X8524111Y-15140484D02*
X8524111Y-14940484D01*
X8609825Y-15140484D02*
X8609825Y-15035722D01*
X8609825Y-15035722D02*
X8600301Y-15016674D01*
X8600301Y-15016674D02*
X8581253Y-15007150D01*
X8581253Y-15007150D02*
X8552682Y-15007150D01*
X8552682Y-15007150D02*
X8533634Y-15016674D01*
X8533634Y-15016674D02*
X8524111Y-15026198D01*
X8733634Y-15140484D02*
X8714587Y-15130960D01*
X8714587Y-15130960D02*
X8705063Y-15121436D01*
X8705063Y-15121436D02*
X8695539Y-15102388D01*
X8695539Y-15102388D02*
X8695539Y-15045246D01*
X8695539Y-15045246D02*
X8705063Y-15026198D01*
X8705063Y-15026198D02*
X8714587Y-15016674D01*
X8714587Y-15016674D02*
X8733634Y-15007150D01*
X8733634Y-15007150D02*
X8762206Y-15007150D01*
X8762206Y-15007150D02*
X8781253Y-15016674D01*
X8781253Y-15016674D02*
X8790777Y-15026198D01*
X8790777Y-15026198D02*
X8800301Y-15045246D01*
X8800301Y-15045246D02*
X8800301Y-15102388D01*
X8800301Y-15102388D02*
X8790777Y-15121436D01*
X8790777Y-15121436D02*
X8781253Y-15130960D01*
X8781253Y-15130960D02*
X8762206Y-15140484D01*
X8762206Y-15140484D02*
X8733634Y-15140484D01*
X8914587Y-15140484D02*
X8895539Y-15130960D01*
X8895539Y-15130960D02*
X8886015Y-15111912D01*
X8886015Y-15111912D02*
X8886015Y-14940484D01*
X9066968Y-15130960D02*
X9047920Y-15140484D01*
X9047920Y-15140484D02*
X9009825Y-15140484D01*
X9009825Y-15140484D02*
X8990777Y-15130960D01*
X8990777Y-15130960D02*
X8981253Y-15111912D01*
X8981253Y-15111912D02*
X8981253Y-15035722D01*
X8981253Y-15035722D02*
X8990777Y-15016674D01*
X8990777Y-15016674D02*
X9009825Y-15007150D01*
X9009825Y-15007150D02*
X9047920Y-15007150D01*
X9047920Y-15007150D02*
X9066968Y-15016674D01*
X9066968Y-15016674D02*
X9076492Y-15035722D01*
X9076492Y-15035722D02*
X9076492Y-15054769D01*
X9076492Y-15054769D02*
X8981253Y-15073817D01*
X9143158Y-15216674D02*
X9152682Y-15207150D01*
X9152682Y-15207150D02*
X9171730Y-15178579D01*
X9171730Y-15178579D02*
X9181253Y-15159531D01*
X9181253Y-15159531D02*
X9190777Y-15130960D01*
X9190777Y-15130960D02*
X9200301Y-15083341D01*
X9200301Y-15083341D02*
X9200301Y-15045246D01*
X9200301Y-15045246D02*
X9190777Y-14997627D01*
X9190777Y-14997627D02*
X9181253Y-14969055D01*
X9181253Y-14969055D02*
X9171730Y-14950008D01*
X9171730Y-14950008D02*
X9152682Y-14921436D01*
X9152682Y-14921436D02*
X9143158Y-14911912D01*
X4430000Y-15213000D02*
X4430000Y-15413000D01*
X4330000Y-15313000D02*
X4530000Y-15313000D01*
X4781253Y-15223531D02*
X4790777Y-15214008D01*
X4790777Y-15214008D02*
X4809824Y-15204484D01*
X4809824Y-15204484D02*
X4857444Y-15204484D01*
X4857444Y-15204484D02*
X4876491Y-15214008D01*
X4876491Y-15214008D02*
X4886015Y-15223531D01*
X4886015Y-15223531D02*
X4895539Y-15242579D01*
X4895539Y-15242579D02*
X4895539Y-15261627D01*
X4895539Y-15261627D02*
X4886015Y-15290198D01*
X4886015Y-15290198D02*
X4771729Y-15404484D01*
X4771729Y-15404484D02*
X4895539Y-15404484D01*
X4981253Y-15385436D02*
X4990777Y-15394960D01*
X4990777Y-15394960D02*
X4981253Y-15404484D01*
X4981253Y-15404484D02*
X4971729Y-15394960D01*
X4971729Y-15394960D02*
X4981253Y-15385436D01*
X4981253Y-15385436D02*
X4981253Y-15404484D01*
X5066967Y-15223531D02*
X5076491Y-15214008D01*
X5076491Y-15214008D02*
X5095539Y-15204484D01*
X5095539Y-15204484D02*
X5143158Y-15204484D01*
X5143158Y-15204484D02*
X5162205Y-15214008D01*
X5162205Y-15214008D02*
X5171729Y-15223531D01*
X5171729Y-15223531D02*
X5181253Y-15242579D01*
X5181253Y-15242579D02*
X5181253Y-15261627D01*
X5181253Y-15261627D02*
X5171729Y-15290198D01*
X5171729Y-15290198D02*
X5057444Y-15404484D01*
X5057444Y-15404484D02*
X5181253Y-15404484D01*
X5305063Y-15204484D02*
X5324110Y-15204484D01*
X5324110Y-15204484D02*
X5343158Y-15214008D01*
X5343158Y-15214008D02*
X5352682Y-15223531D01*
X5352682Y-15223531D02*
X5362205Y-15242579D01*
X5362205Y-15242579D02*
X5371729Y-15280674D01*
X5371729Y-15280674D02*
X5371729Y-15328293D01*
X5371729Y-15328293D02*
X5362205Y-15366388D01*
X5362205Y-15366388D02*
X5352682Y-15385436D01*
X5352682Y-15385436D02*
X5343158Y-15394960D01*
X5343158Y-15394960D02*
X5324110Y-15404484D01*
X5324110Y-15404484D02*
X5305063Y-15404484D01*
X5305063Y-15404484D02*
X5286015Y-15394960D01*
X5286015Y-15394960D02*
X5276491Y-15385436D01*
X5276491Y-15385436D02*
X5266967Y-15366388D01*
X5266967Y-15366388D02*
X5257444Y-15328293D01*
X5257444Y-15328293D02*
X5257444Y-15280674D01*
X5257444Y-15280674D02*
X5266967Y-15242579D01*
X5266967Y-15242579D02*
X5276491Y-15223531D01*
X5276491Y-15223531D02*
X5286015Y-15214008D01*
X5286015Y-15214008D02*
X5305063Y-15204484D01*
X5495539Y-15204484D02*
X5514586Y-15204484D01*
X5514586Y-15204484D02*
X5533634Y-15214008D01*
X5533634Y-15214008D02*
X5543158Y-15223531D01*
X5543158Y-15223531D02*
X5552682Y-15242579D01*
X5552682Y-15242579D02*
X5562205Y-15280674D01*
X5562205Y-15280674D02*
X5562205Y-15328293D01*
X5562205Y-15328293D02*
X5552682Y-15366388D01*
X5552682Y-15366388D02*
X5543158Y-15385436D01*
X5543158Y-15385436D02*
X5533634Y-15394960D01*
X5533634Y-15394960D02*
X5514586Y-15404484D01*
X5514586Y-15404484D02*
X5495539Y-15404484D01*
X5495539Y-15404484D02*
X5476491Y-15394960D01*
X5476491Y-15394960D02*
X5466967Y-15385436D01*
X5466967Y-15385436D02*
X5457444Y-15366388D01*
X5457444Y-15366388D02*
X5447920Y-15328293D01*
X5447920Y-15328293D02*
X5447920Y-15280674D01*
X5447920Y-15280674D02*
X5457444Y-15242579D01*
X5457444Y-15242579D02*
X5466967Y-15223531D01*
X5466967Y-15223531D02*
X5476491Y-15214008D01*
X5476491Y-15214008D02*
X5495539Y-15204484D01*
X5647920Y-15404484D02*
X5647920Y-15271150D01*
X5647920Y-15290198D02*
X5657443Y-15280674D01*
X5657443Y-15280674D02*
X5676491Y-15271150D01*
X5676491Y-15271150D02*
X5705063Y-15271150D01*
X5705063Y-15271150D02*
X5724110Y-15280674D01*
X5724110Y-15280674D02*
X5733634Y-15299722D01*
X5733634Y-15299722D02*
X5733634Y-15404484D01*
X5733634Y-15299722D02*
X5743158Y-15280674D01*
X5743158Y-15280674D02*
X5762205Y-15271150D01*
X5762205Y-15271150D02*
X5790777Y-15271150D01*
X5790777Y-15271150D02*
X5809824Y-15280674D01*
X5809824Y-15280674D02*
X5819348Y-15299722D01*
X5819348Y-15299722D02*
X5819348Y-15404484D01*
X5914586Y-15404484D02*
X5914586Y-15271150D01*
X5914586Y-15290198D02*
X5924110Y-15280674D01*
X5924110Y-15280674D02*
X5943158Y-15271150D01*
X5943158Y-15271150D02*
X5971729Y-15271150D01*
X5971729Y-15271150D02*
X5990777Y-15280674D01*
X5990777Y-15280674D02*
X6000301Y-15299722D01*
X6000301Y-15299722D02*
X6000301Y-15404484D01*
X6000301Y-15299722D02*
X6009824Y-15280674D01*
X6009824Y-15280674D02*
X6028872Y-15271150D01*
X6028872Y-15271150D02*
X6057443Y-15271150D01*
X6057443Y-15271150D02*
X6076491Y-15280674D01*
X6076491Y-15280674D02*
X6086015Y-15299722D01*
X6086015Y-15299722D02*
X6086015Y-15404484D01*
X6476491Y-15194960D02*
X6305063Y-15452103D01*
X6733634Y-15204484D02*
X6752682Y-15204484D01*
X6752682Y-15204484D02*
X6771729Y-15214008D01*
X6771729Y-15214008D02*
X6781253Y-15223531D01*
X6781253Y-15223531D02*
X6790777Y-15242579D01*
X6790777Y-15242579D02*
X6800301Y-15280674D01*
X6800301Y-15280674D02*
X6800301Y-15328293D01*
X6800301Y-15328293D02*
X6790777Y-15366388D01*
X6790777Y-15366388D02*
X6781253Y-15385436D01*
X6781253Y-15385436D02*
X6771729Y-15394960D01*
X6771729Y-15394960D02*
X6752682Y-15404484D01*
X6752682Y-15404484D02*
X6733634Y-15404484D01*
X6733634Y-15404484D02*
X6714586Y-15394960D01*
X6714586Y-15394960D02*
X6705063Y-15385436D01*
X6705063Y-15385436D02*
X6695539Y-15366388D01*
X6695539Y-15366388D02*
X6686015Y-15328293D01*
X6686015Y-15328293D02*
X6686015Y-15280674D01*
X6686015Y-15280674D02*
X6695539Y-15242579D01*
X6695539Y-15242579D02*
X6705063Y-15223531D01*
X6705063Y-15223531D02*
X6714586Y-15214008D01*
X6714586Y-15214008D02*
X6733634Y-15204484D01*
X6886015Y-15385436D02*
X6895539Y-15394960D01*
X6895539Y-15394960D02*
X6886015Y-15404484D01*
X6886015Y-15404484D02*
X6876491Y-15394960D01*
X6876491Y-15394960D02*
X6886015Y-15385436D01*
X6886015Y-15385436D02*
X6886015Y-15404484D01*
X7019348Y-15204484D02*
X7038396Y-15204484D01*
X7038396Y-15204484D02*
X7057444Y-15214008D01*
X7057444Y-15214008D02*
X7066967Y-15223531D01*
X7066967Y-15223531D02*
X7076491Y-15242579D01*
X7076491Y-15242579D02*
X7086015Y-15280674D01*
X7086015Y-15280674D02*
X7086015Y-15328293D01*
X7086015Y-15328293D02*
X7076491Y-15366388D01*
X7076491Y-15366388D02*
X7066967Y-15385436D01*
X7066967Y-15385436D02*
X7057444Y-15394960D01*
X7057444Y-15394960D02*
X7038396Y-15404484D01*
X7038396Y-15404484D02*
X7019348Y-15404484D01*
X7019348Y-15404484D02*
X7000301Y-15394960D01*
X7000301Y-15394960D02*
X6990777Y-15385436D01*
X6990777Y-15385436D02*
X6981253Y-15366388D01*
X6981253Y-15366388D02*
X6971729Y-15328293D01*
X6971729Y-15328293D02*
X6971729Y-15280674D01*
X6971729Y-15280674D02*
X6981253Y-15242579D01*
X6981253Y-15242579D02*
X6990777Y-15223531D01*
X6990777Y-15223531D02*
X7000301Y-15214008D01*
X7000301Y-15214008D02*
X7019348Y-15204484D01*
X7200301Y-15290198D02*
X7181253Y-15280674D01*
X7181253Y-15280674D02*
X7171729Y-15271150D01*
X7171729Y-15271150D02*
X7162206Y-15252103D01*
X7162206Y-15252103D02*
X7162206Y-15242579D01*
X7162206Y-15242579D02*
X7171729Y-15223531D01*
X7171729Y-15223531D02*
X7181253Y-15214008D01*
X7181253Y-15214008D02*
X7200301Y-15204484D01*
X7200301Y-15204484D02*
X7238396Y-15204484D01*
X7238396Y-15204484D02*
X7257444Y-15214008D01*
X7257444Y-15214008D02*
X7266967Y-15223531D01*
X7266967Y-15223531D02*
X7276491Y-15242579D01*
X7276491Y-15242579D02*
X7276491Y-15252103D01*
X7276491Y-15252103D02*
X7266967Y-15271150D01*
X7266967Y-15271150D02*
X7257444Y-15280674D01*
X7257444Y-15280674D02*
X7238396Y-15290198D01*
X7238396Y-15290198D02*
X7200301Y-15290198D01*
X7200301Y-15290198D02*
X7181253Y-15299722D01*
X7181253Y-15299722D02*
X7171729Y-15309246D01*
X7171729Y-15309246D02*
X7162206Y-15328293D01*
X7162206Y-15328293D02*
X7162206Y-15366388D01*
X7162206Y-15366388D02*
X7171729Y-15385436D01*
X7171729Y-15385436D02*
X7181253Y-15394960D01*
X7181253Y-15394960D02*
X7200301Y-15404484D01*
X7200301Y-15404484D02*
X7238396Y-15404484D01*
X7238396Y-15404484D02*
X7257444Y-15394960D01*
X7257444Y-15394960D02*
X7266967Y-15385436D01*
X7266967Y-15385436D02*
X7276491Y-15366388D01*
X7276491Y-15366388D02*
X7276491Y-15328293D01*
X7276491Y-15328293D02*
X7266967Y-15309246D01*
X7266967Y-15309246D02*
X7257444Y-15299722D01*
X7257444Y-15299722D02*
X7238396Y-15290198D01*
X7447920Y-15204484D02*
X7409825Y-15204484D01*
X7409825Y-15204484D02*
X7390777Y-15214008D01*
X7390777Y-15214008D02*
X7381253Y-15223531D01*
X7381253Y-15223531D02*
X7362206Y-15252103D01*
X7362206Y-15252103D02*
X7352682Y-15290198D01*
X7352682Y-15290198D02*
X7352682Y-15366388D01*
X7352682Y-15366388D02*
X7362206Y-15385436D01*
X7362206Y-15385436D02*
X7371729Y-15394960D01*
X7371729Y-15394960D02*
X7390777Y-15404484D01*
X7390777Y-15404484D02*
X7428872Y-15404484D01*
X7428872Y-15404484D02*
X7447920Y-15394960D01*
X7447920Y-15394960D02*
X7457444Y-15385436D01*
X7457444Y-15385436D02*
X7466967Y-15366388D01*
X7466967Y-15366388D02*
X7466967Y-15318769D01*
X7466967Y-15318769D02*
X7457444Y-15299722D01*
X7457444Y-15299722D02*
X7447920Y-15290198D01*
X7447920Y-15290198D02*
X7428872Y-15280674D01*
X7428872Y-15280674D02*
X7390777Y-15280674D01*
X7390777Y-15280674D02*
X7371729Y-15290198D01*
X7371729Y-15290198D02*
X7362206Y-15299722D01*
X7362206Y-15299722D02*
X7352682Y-15318769D01*
X7638396Y-15204484D02*
X7600301Y-15204484D01*
X7600301Y-15204484D02*
X7581253Y-15214008D01*
X7581253Y-15214008D02*
X7571729Y-15223531D01*
X7571729Y-15223531D02*
X7552682Y-15252103D01*
X7552682Y-15252103D02*
X7543158Y-15290198D01*
X7543158Y-15290198D02*
X7543158Y-15366388D01*
X7543158Y-15366388D02*
X7552682Y-15385436D01*
X7552682Y-15385436D02*
X7562206Y-15394960D01*
X7562206Y-15394960D02*
X7581253Y-15404484D01*
X7581253Y-15404484D02*
X7619348Y-15404484D01*
X7619348Y-15404484D02*
X7638396Y-15394960D01*
X7638396Y-15394960D02*
X7647920Y-15385436D01*
X7647920Y-15385436D02*
X7657444Y-15366388D01*
X7657444Y-15366388D02*
X7657444Y-15318769D01*
X7657444Y-15318769D02*
X7647920Y-15299722D01*
X7647920Y-15299722D02*
X7638396Y-15290198D01*
X7638396Y-15290198D02*
X7619348Y-15280674D01*
X7619348Y-15280674D02*
X7581253Y-15280674D01*
X7581253Y-15280674D02*
X7562206Y-15290198D01*
X7562206Y-15290198D02*
X7552682Y-15299722D01*
X7552682Y-15299722D02*
X7543158Y-15318769D01*
X7733634Y-15204484D02*
X7733634Y-15242579D01*
X7809825Y-15204484D02*
X7809825Y-15242579D01*
X8105063Y-15480674D02*
X8095539Y-15471150D01*
X8095539Y-15471150D02*
X8076491Y-15442579D01*
X8076491Y-15442579D02*
X8066968Y-15423531D01*
X8066968Y-15423531D02*
X8057444Y-15394960D01*
X8057444Y-15394960D02*
X8047920Y-15347341D01*
X8047920Y-15347341D02*
X8047920Y-15309246D01*
X8047920Y-15309246D02*
X8057444Y-15261627D01*
X8057444Y-15261627D02*
X8066968Y-15233055D01*
X8066968Y-15233055D02*
X8076491Y-15214008D01*
X8076491Y-15214008D02*
X8095539Y-15185436D01*
X8095539Y-15185436D02*
X8105063Y-15175912D01*
X8266968Y-15271150D02*
X8266968Y-15404484D01*
X8219348Y-15194960D02*
X8171729Y-15337817D01*
X8171729Y-15337817D02*
X8295539Y-15337817D01*
X8524111Y-15404484D02*
X8524111Y-15204484D01*
X8609825Y-15404484D02*
X8609825Y-15299722D01*
X8609825Y-15299722D02*
X8600301Y-15280674D01*
X8600301Y-15280674D02*
X8581253Y-15271150D01*
X8581253Y-15271150D02*
X8552682Y-15271150D01*
X8552682Y-15271150D02*
X8533634Y-15280674D01*
X8533634Y-15280674D02*
X8524111Y-15290198D01*
X8733634Y-15404484D02*
X8714587Y-15394960D01*
X8714587Y-15394960D02*
X8705063Y-15385436D01*
X8705063Y-15385436D02*
X8695539Y-15366388D01*
X8695539Y-15366388D02*
X8695539Y-15309246D01*
X8695539Y-15309246D02*
X8705063Y-15290198D01*
X8705063Y-15290198D02*
X8714587Y-15280674D01*
X8714587Y-15280674D02*
X8733634Y-15271150D01*
X8733634Y-15271150D02*
X8762206Y-15271150D01*
X8762206Y-15271150D02*
X8781253Y-15280674D01*
X8781253Y-15280674D02*
X8790777Y-15290198D01*
X8790777Y-15290198D02*
X8800301Y-15309246D01*
X8800301Y-15309246D02*
X8800301Y-15366388D01*
X8800301Y-15366388D02*
X8790777Y-15385436D01*
X8790777Y-15385436D02*
X8781253Y-15394960D01*
X8781253Y-15394960D02*
X8762206Y-15404484D01*
X8762206Y-15404484D02*
X8733634Y-15404484D01*
X8914587Y-15404484D02*
X8895539Y-15394960D01*
X8895539Y-15394960D02*
X8886015Y-15375912D01*
X8886015Y-15375912D02*
X8886015Y-15204484D01*
X9066968Y-15394960D02*
X9047920Y-15404484D01*
X9047920Y-15404484D02*
X9009825Y-15404484D01*
X9009825Y-15404484D02*
X8990777Y-15394960D01*
X8990777Y-15394960D02*
X8981253Y-15375912D01*
X8981253Y-15375912D02*
X8981253Y-15299722D01*
X8981253Y-15299722D02*
X8990777Y-15280674D01*
X8990777Y-15280674D02*
X9009825Y-15271150D01*
X9009825Y-15271150D02*
X9047920Y-15271150D01*
X9047920Y-15271150D02*
X9066968Y-15280674D01*
X9066968Y-15280674D02*
X9076492Y-15299722D01*
X9076492Y-15299722D02*
X9076492Y-15318769D01*
X9076492Y-15318769D02*
X8981253Y-15337817D01*
X9152682Y-15394960D02*
X9171730Y-15404484D01*
X9171730Y-15404484D02*
X9209825Y-15404484D01*
X9209825Y-15404484D02*
X9228873Y-15394960D01*
X9228873Y-15394960D02*
X9238396Y-15375912D01*
X9238396Y-15375912D02*
X9238396Y-15366388D01*
X9238396Y-15366388D02*
X9228873Y-15347341D01*
X9228873Y-15347341D02*
X9209825Y-15337817D01*
X9209825Y-15337817D02*
X9181253Y-15337817D01*
X9181253Y-15337817D02*
X9162206Y-15328293D01*
X9162206Y-15328293D02*
X9152682Y-15309246D01*
X9152682Y-15309246D02*
X9152682Y-15299722D01*
X9152682Y-15299722D02*
X9162206Y-15280674D01*
X9162206Y-15280674D02*
X9181253Y-15271150D01*
X9181253Y-15271150D02*
X9209825Y-15271150D01*
X9209825Y-15271150D02*
X9228873Y-15280674D01*
X9305063Y-15480674D02*
X9314587Y-15471150D01*
X9314587Y-15471150D02*
X9333634Y-15442579D01*
X9333634Y-15442579D02*
X9343158Y-15423531D01*
X9343158Y-15423531D02*
X9352682Y-15394960D01*
X9352682Y-15394960D02*
X9362206Y-15347341D01*
X9362206Y-15347341D02*
X9362206Y-15309246D01*
X9362206Y-15309246D02*
X9352682Y-15261627D01*
X9352682Y-15261627D02*
X9343158Y-15233055D01*
X9343158Y-15233055D02*
X9333634Y-15214008D01*
X9333634Y-15214008D02*
X9314587Y-15185436D01*
X9314587Y-15185436D02*
X9305063Y-15175912D01*
M02*
