M48
; DRILL file {KiCad 9.0.1} date 2025-10-31T14:17:24-0400
; FORMAT={-:-/ absolute / metric / decimal}
; #@! TF.CreationDate,2025-10-31T14:17:24-04:00
; #@! TF.GenerationSoftware,Kicad,Pcbnew,9.0.1
; #@! TF.FileFunction,Plated,1,4,PTH
FMAT,2
METRIC
; #@! TA.AperFunction,Plated,PTH,ViaDrill
T1C0.300
; #@! TA.AperFunction,Plated,PTH,ViaDrill
T2C0.500
; #@! TA.AperFunction,Plated,PTH,ComponentDrill
T3C2.200
%
G90
G05
T1
X53.175Y-59.688
X53.425Y-51.775
X53.425Y-63.987
X53.575Y-44.625
X53.575Y-50.625
X53.575Y-56.625
X53.575Y-62.625
X53.575Y-122.625
X53.6Y-47.5
X53.625Y-69.837
X53.975Y-77.638
X54.225Y-74.587
X54.225Y-83.587
X54.225Y-116.587
X54.239Y-110.655
X54.269Y-89.562
X54.274Y-80.568
X54.275Y-98.569
X54.277Y-104.572
X54.28Y-68.575
X54.28Y-92.575
X54.291Y-86.587
X56.575Y-47.625
X56.575Y-53.625
X56.575Y-59.625
X56.575Y-65.625
X56.575Y-71.625
X56.575Y-77.625
X56.575Y-83.625
X56.575Y-89.625
X56.575Y-95.625
X56.575Y-101.625
X56.575Y-107.625
X56.575Y-113.625
X56.575Y-119.625
X56.575Y-125.625
X56.925Y-92.337
X56.975Y-98.337
X56.981Y-42.031
X58.75Y-135.35
X59.175Y-94.188
X59.396Y-111.851
X59.475Y-99.787
X59.5Y-117.8
X59.575Y-44.625
X59.575Y-50.625
X59.575Y-56.625
X59.575Y-62.625
X59.575Y-68.625
X59.575Y-74.625
X59.575Y-80.625
X59.575Y-86.625
X59.575Y-89.888
X59.575Y-92.625
X59.575Y-98.625
X59.575Y-104.625
X59.575Y-105.787
X59.575Y-110.625
X59.575Y-116.625
X59.575Y-122.625
X59.581Y-113.931
X59.625Y-107.787
X59.725Y-101.688
X59.85Y-95.812
X59.975Y-134.312
X62.15Y-130.8
X62.15Y-133.1
X62.575Y-47.625
X62.575Y-53.625
X62.575Y-59.625
X62.575Y-65.625
X62.575Y-71.625
X62.575Y-77.625
X62.575Y-83.625
X62.575Y-89.625
X62.575Y-95.625
X62.575Y-101.625
X62.575Y-107.625
X62.575Y-113.625
X62.575Y-119.625
X62.575Y-125.625
X62.587Y-120.815
X62.6Y-114.85
X62.6Y-116.65
X62.649Y-108.75
X62.649Y-110.771
X62.65Y-105.1
X62.981Y-42.031
X64.175Y-135.487
X65.5Y-123.85
X65.575Y-44.625
X65.575Y-50.625
X65.575Y-56.625
X65.575Y-62.625
X65.575Y-68.625
X65.575Y-74.625
X65.575Y-80.625
X65.575Y-86.625
X65.575Y-92.625
X65.575Y-98.625
X65.575Y-104.625
X65.575Y-110.625
X65.575Y-116.625
X65.575Y-122.625
X65.6Y-105.65
X65.6Y-111.65
X65.6Y-113.65
X65.6Y-117.85
X65.6Y-119.65
X65.8Y-107.55
X65.825Y-95.537
X66.009Y-126.166
X66.031Y-101.193
X66.806Y-126.1
X67.602Y-126.182
X68.575Y-47.625
X68.575Y-53.625
X68.575Y-59.625
X68.575Y-65.625
X68.575Y-71.625
X68.575Y-77.625
X68.575Y-83.625
X68.575Y-89.625
X68.575Y-95.625
X68.575Y-101.625
X68.575Y-107.625
X68.575Y-113.625
X68.575Y-119.625
X68.575Y-125.625
X68.6Y-108.75
X68.6Y-114.85
X68.759Y-98.382
X68.8Y-104.55
X68.9Y-110.35
X68.981Y-42.031
X71.5Y-105.85
X71.575Y-44.625
X71.575Y-50.625
X71.575Y-56.625
X71.575Y-62.625
X71.575Y-68.625
X71.575Y-74.625
X71.575Y-80.625
X71.575Y-86.625
X71.575Y-92.625
X71.575Y-98.625
X71.575Y-104.625
X71.575Y-110.625
X71.575Y-116.625
X71.575Y-122.625
X71.6Y-111.75
X71.615Y-117.597
X71.8Y-113.45
X71.85Y-107.8
X71.875Y-101.938
X74.5Y-108.75
X74.5Y-114.75
X74.575Y-47.625
X74.575Y-53.625
X74.575Y-59.625
X74.575Y-65.625
X74.575Y-71.625
X74.575Y-77.625
X74.575Y-83.625
X74.575Y-89.625
X74.575Y-95.625
X74.575Y-101.625
X74.575Y-107.625
X74.575Y-113.625
X74.575Y-119.625
X74.575Y-125.625
X74.875Y-104.387
X74.981Y-42.031
X75.1Y-110.25
X77.309Y-125.475
X77.575Y-44.625
X77.575Y-50.625
X77.575Y-56.625
X77.575Y-62.625
X77.575Y-68.625
X77.575Y-74.625
X77.575Y-80.625
X77.575Y-86.625
X77.575Y-92.625
X77.575Y-98.625
X77.575Y-99.587
X77.575Y-104.625
X77.575Y-110.625
X77.575Y-116.625
X77.575Y-122.625
X77.6Y-111.75
X77.6Y-113.55
X77.6Y-117.55
X77.725Y-105.787
X77.925Y-131.188
X77.975Y-101.637
X78.101Y-125.14
X78.125Y-107.587
X80.1Y-133.225
X80.125Y-127.737
X80.534Y-114.706
X80.575Y-47.625
X80.575Y-53.625
X80.575Y-59.625
X80.575Y-65.625
X80.575Y-71.625
X80.575Y-77.625
X80.575Y-83.625
X80.575Y-89.625
X80.575Y-95.625
X80.575Y-101.625
X80.575Y-107.625
X80.575Y-113.625
X80.575Y-119.625
X80.575Y-125.625
X80.6Y-120.65
X80.625Y-102.787
X80.675Y-104.637
X80.739Y-108.771
X80.9Y-116.55
X80.925Y-110.487
X80.981Y-42.031
X81.15Y-134.175
X81.52Y-125.946
X82.424Y-125.987
X82.425Y-136.778
X82.948Y-132.477
X83.3Y-126.05
X83.5Y-117.85
X83.5Y-119.65
X83.575Y-44.625
X83.575Y-50.625
X83.575Y-56.625
X83.575Y-62.625
X83.575Y-68.625
X83.575Y-74.625
X83.575Y-80.625
X83.575Y-86.625
X83.575Y-92.625
X83.575Y-98.625
X83.575Y-104.625
X83.575Y-110.625
X83.575Y-116.625
X83.575Y-122.625
X83.575Y-129.987
X83.625Y-135.578
X83.625Y-136.458
X83.69Y-123.589
X83.7Y-139.506
X83.725Y-111.737
X83.775Y-105.737
X83.925Y-107.537
X84.105Y-125.187
X84.151Y-113.537
X84.375Y-129.037
X84.8Y-128.312
X85.981Y-119.031
X86.107Y-120.006
X86.575Y-47.625
X86.575Y-53.625
X86.575Y-59.625
X86.575Y-65.625
X86.575Y-71.625
X86.575Y-77.625
X86.575Y-83.625
X86.575Y-89.625
X86.575Y-95.625
X86.575Y-101.625
X86.575Y-107.625
X86.575Y-113.625
X86.575Y-125.625
X86.625Y-114.688
X86.675Y-108.688
X86.814Y-120.712
X86.875Y-110.737
X86.981Y-42.031
X87.075Y-116.237
X87.2Y-126.95
X87.275Y-134.328
X87.425Y-129.578
X87.898Y-126.05
X88.6Y-137.592
X88.825Y-126.928
X89.398Y-137.654
X89.525Y-130.328
X89.575Y-44.625
X89.575Y-50.625
X89.575Y-56.625
X89.575Y-62.625
X89.575Y-68.625
X89.575Y-74.625
X89.575Y-80.625
X89.575Y-86.625
X89.575Y-92.625
X89.575Y-98.625
X89.575Y-104.625
X89.575Y-110.625
X89.575Y-116.625
X89.575Y-117.737
X89.575Y-122.625
X89.675Y-111.737
X89.775Y-123.688
X89.775Y-132.528
X89.825Y-113.737
X89.825Y-136.978
X89.85Y-126.787
X90.1Y-125.123
X90.65Y-126.212
X91.025Y-136.928
X91.3Y-137.7
X91.9Y-138.25
X92.275Y-134.478
X92.319Y-138.931
X92.325Y-129.628
X92.575Y-47.625
X92.575Y-53.625
X92.575Y-59.625
X92.575Y-65.625
X92.575Y-71.625
X92.575Y-77.625
X92.575Y-83.625
X92.575Y-89.625
X92.575Y-95.625
X92.575Y-101.625
X92.575Y-107.625
X92.575Y-113.625
X92.575Y-119.625
X92.575Y-125.625
X92.725Y-120.637
X92.981Y-42.031
X93.4Y-136.95
X93.852Y-127.187
X94.102Y-137.333
X94.511Y-128.873
X94.621Y-137.942
X95.205Y-130.503
X95.206Y-129.353
X95.4Y-131.3
X95.453Y-132.098
X95.475Y-123.487
X95.507Y-140.305
X95.575Y-44.625
X95.575Y-50.625
X95.575Y-56.625
X95.575Y-62.625
X95.575Y-68.625
X95.575Y-74.625
X95.575Y-80.625
X95.575Y-86.625
X95.575Y-92.625
X95.575Y-98.625
X95.575Y-104.625
X95.575Y-110.625
X95.575Y-116.625
X95.575Y-122.625
X95.79Y-124.766
X96.1Y-132.75
X96.75Y-129.787
X97.231Y-133.269
X97.748Y-134.34
X98.06Y-127.347
X98.075Y-135.109
X98.57Y-125.486
X98.575Y-47.625
X98.575Y-53.625
X98.575Y-59.625
X98.575Y-65.625
X98.575Y-71.625
X98.575Y-77.625
X98.575Y-83.625
X98.575Y-89.625
X98.575Y-95.625
X98.575Y-101.625
X98.575Y-107.625
X98.575Y-113.625
X98.575Y-119.625
X98.6Y-135.713
X98.981Y-42.031
X99.175Y-136.287
X99.425Y-130.225
X99.566Y-129.365
X101.375Y-123.837
X101.575Y-44.625
X101.575Y-50.625
X101.575Y-56.625
X101.575Y-62.625
X101.575Y-68.625
X101.575Y-74.625
X101.575Y-80.625
X101.575Y-86.625
X101.575Y-92.625
X101.575Y-98.625
X101.575Y-104.625
X101.575Y-110.625
X101.575Y-116.625
X101.575Y-122.625
X101.975Y-125.337
X104.575Y-47.625
X104.575Y-53.625
X104.575Y-59.625
X104.575Y-65.625
X104.575Y-71.625
X104.575Y-77.625
X104.575Y-83.625
X104.575Y-89.625
X104.575Y-95.625
X104.575Y-101.625
X104.575Y-107.625
X104.575Y-113.625
X104.575Y-119.625
X104.575Y-125.625
X104.981Y-42.031
X107.575Y-44.625
X107.575Y-50.625
X107.575Y-56.625
X107.575Y-62.625
X107.575Y-68.625
X107.575Y-74.625
X107.575Y-80.625
X107.575Y-86.625
X107.575Y-92.625
X107.575Y-98.625
X107.575Y-104.625
X107.575Y-110.625
X107.575Y-116.625
X107.575Y-122.625
X110.575Y-47.625
X110.575Y-53.625
X110.575Y-59.625
X110.575Y-65.625
X110.575Y-71.625
X110.575Y-77.625
X110.575Y-83.625
X110.575Y-89.625
X110.575Y-95.625
X110.575Y-101.625
X110.575Y-107.625
X110.575Y-113.625
X110.575Y-119.625
X110.575Y-125.625
T2
X51.1Y-133.05
T3
X48.475Y-43.438
X48.475Y-138.438
X112.475Y-43.438
X112.475Y-138.438
M30
