%TF.GenerationSoftware,KiCad,Pcbnew,9.0.1*%
%TF.CreationDate,2025-10-31T14:17:25-04:00*%
%TF.ProjectId,main_display_board,6d61696e-5f64-4697-9370-6c61795f626f,rev?*%
%TF.SameCoordinates,Original*%
%TF.FileFunction,Soldermask,Top*%
%TF.FilePolarity,Negative*%
%FSLAX46Y46*%
G04 Gerber Fmt 4.6, Leading zero omitted, Abs format (unit mm)*
G04 Created by KiCad (PCBNEW 9.0.1) date 2025-10-31 14:17:25*
%MOMM*%
%LPD*%
G01*
G04 APERTURE LIST*
G04 Aperture macros list*
%AMRoundRect*
0 Rectangle with rounded corners*
0 $1 Rounding radius*
0 $2 $3 $4 $5 $6 $7 $8 $9 X,Y pos of 4 corners*
0 Add a 4 corners polygon primitive as box body*
4,1,4,$2,$3,$4,$5,$6,$7,$8,$9,$2,$3,0*
0 Add four circle primitives for the rounded corners*
1,1,$1+$1,$2,$3*
1,1,$1+$1,$4,$5*
1,1,$1+$1,$6,$7*
1,1,$1+$1,$8,$9*
0 Add four rect primitives between the rounded corners*
20,1,$1+$1,$2,$3,$4,$5,0*
20,1,$1+$1,$4,$5,$6,$7,0*
20,1,$1+$1,$6,$7,$8,$9,0*
20,1,$1+$1,$8,$9,$2,$3,0*%
G04 Aperture macros list end*
%ADD10RoundRect,0.218750X0.256250X-0.218750X0.256250X0.218750X-0.256250X0.218750X-0.256250X-0.218750X0*%
%ADD11C,3.000000*%
%ADD12RoundRect,0.225000X0.225000X0.250000X-0.225000X0.250000X-0.225000X-0.250000X0.225000X-0.250000X0*%
%ADD13R,2.500000X1.100000*%
%ADD14R,2.340000X3.600000*%
%ADD15R,0.711200X0.279400*%
%ADD16R,0.254000X0.457200*%
%ADD17RoundRect,0.225000X-0.225000X-0.250000X0.225000X-0.250000X0.225000X0.250000X-0.225000X0.250000X0*%
%ADD18RoundRect,0.237500X0.250000X0.237500X-0.250000X0.237500X-0.250000X-0.237500X0.250000X-0.237500X0*%
%ADD19RoundRect,0.147500X-0.147500X-0.172500X0.147500X-0.172500X0.147500X0.172500X-0.147500X0.172500X0*%
%ADD20RoundRect,0.237500X0.237500X-0.250000X0.237500X0.250000X-0.237500X0.250000X-0.237500X-0.250000X0*%
%ADD21RoundRect,0.140000X-0.170000X0.140000X-0.170000X-0.140000X0.170000X-0.140000X0.170000X0.140000X0*%
%ADD22C,2.600000*%
%ADD23C,3.500000*%
%ADD24R,0.800000X1.000000*%
%ADD25RoundRect,0.140000X0.140000X0.170000X-0.140000X0.170000X-0.140000X-0.170000X0.140000X-0.170000X0*%
%ADD26R,0.900000X0.800000*%
%ADD27RoundRect,0.249999X0.450001X1.100001X-0.450001X1.100001X-0.450001X-1.100001X0.450001X-1.100001X0*%
%ADD28RoundRect,0.140000X-0.140000X-0.170000X0.140000X-0.170000X0.140000X0.170000X-0.140000X0.170000X0*%
%ADD29RoundRect,0.218750X-0.256250X0.218750X-0.256250X-0.218750X0.256250X-0.218750X0.256250X0.218750X0*%
%ADD30R,0.203200X0.812800*%
%ADD31R,0.812800X0.203200*%
%ADD32R,6.502400X6.502400*%
G04 APERTURE END LIST*
D10*
%TO.C,REF\u002A\u002A5*%
X58075000Y-46875000D03*
X58075000Y-45300000D03*
%TD*%
%TO.C,REF\u002A\u002A43*%
X52075000Y-49875000D03*
X52075000Y-48300000D03*
%TD*%
%TO.C,REF\u002A\u002A136*%
X73075000Y-61875000D03*
X73075000Y-60300000D03*
%TD*%
%TO.C,REF\u002A\u002A327*%
X58075000Y-91875000D03*
X58075000Y-90300000D03*
%TD*%
%TO.C,REF\u002A\u002A340*%
X79075000Y-91875000D03*
X79075000Y-90300000D03*
%TD*%
%TO.C,REF\u002A\u002A313*%
X100075000Y-88875000D03*
X100075000Y-87300000D03*
%TD*%
%TO.C,REF\u002A\u002A405*%
X58075000Y-106875000D03*
X58075000Y-105300000D03*
%TD*%
%TO.C,REF\u002A\u002A27*%
X88075000Y-43875000D03*
X88075000Y-42300000D03*
%TD*%
%TO.C,REF\u002A\u002A318*%
X109075000Y-88875000D03*
X109075000Y-87300000D03*
%TD*%
%TO.C,REF\u002A\u002A512*%
X97075000Y-115875000D03*
X97075000Y-114300000D03*
%TD*%
%TO.C,REF\u002A\u002A464*%
X85075000Y-109875000D03*
X85075000Y-108300000D03*
%TD*%
%TO.C,REF\u002A\u002A164*%
X55075000Y-67875000D03*
X55075000Y-66300000D03*
%TD*%
%TO.C,REF\u002A\u002A528*%
X61075000Y-121875000D03*
X61075000Y-120300000D03*
%TD*%
%TO.C,REF\u002A\u002A295*%
X70075000Y-85875000D03*
X70075000Y-84300000D03*
%TD*%
%TO.C,REF\u002A\u002A18*%
X79075000Y-46875000D03*
X79075000Y-45300000D03*
%TD*%
%TO.C,REF\u002A\u002A309*%
X94075000Y-88875000D03*
X94075000Y-87300000D03*
%TD*%
%TO.C,REF\u002A\u002A8*%
X61075000Y-43875000D03*
X61075000Y-42300000D03*
%TD*%
%TO.C,REF\u002A\u002A266*%
X91075000Y-82875000D03*
X91075000Y-81300000D03*
%TD*%
%TO.C,REF\u002A\u002A270*%
X97075000Y-82875000D03*
X97075000Y-81300000D03*
%TD*%
%TO.C,REF\u002A\u002A524*%
X55075000Y-121875000D03*
X55075000Y-120300000D03*
%TD*%
%TO.C,REF\u002A\u002A75*%
X100075000Y-49875000D03*
X100075000Y-48300000D03*
%TD*%
%TO.C,REF\u002A\u002A143*%
X82075000Y-61875000D03*
X82075000Y-60300000D03*
%TD*%
%TO.C,REF\u002A\u002A50*%
X67075000Y-52875000D03*
X67075000Y-51300000D03*
%TD*%
%TO.C,REF\u002A\u002A268*%
X91075000Y-79875000D03*
X91075000Y-78300000D03*
%TD*%
%TO.C,REF\u002A\u002A228*%
X91075000Y-73875000D03*
X91075000Y-72300000D03*
%TD*%
%TO.C,REF\u002A\u002A379*%
X76075000Y-97875000D03*
X76075000Y-96300000D03*
%TD*%
%TO.C,REF\u002A\u002A337*%
X76075000Y-94875000D03*
X76075000Y-93300000D03*
%TD*%
D11*
%TO.C,FM1*%
X48475000Y-63437500D03*
%TD*%
D10*
%TO.C,REF\u002A\u002A209*%
X64075000Y-76875000D03*
X64075000Y-75300000D03*
%TD*%
%TO.C,REF\u002A\u002A86*%
X61075000Y-58875000D03*
X61075000Y-57300000D03*
%TD*%
%TO.C,REF\u002A\u002A517*%
X106075000Y-118875000D03*
X106075000Y-117300000D03*
%TD*%
%TO.C,REF\u002A\u002A173*%
X70075000Y-70875000D03*
X70075000Y-69300000D03*
%TD*%
%TO.C,REF\u002A\u002A251*%
X64075000Y-79875000D03*
X64075000Y-78300000D03*
%TD*%
%TO.C,REF\u002A\u002A409*%
X64075000Y-106875000D03*
X64075000Y-105300000D03*
%TD*%
%TO.C,REF\u002A\u002A415*%
X70075000Y-103875000D03*
X70075000Y-102300000D03*
%TD*%
%TO.C,REF\u002A\u002A508*%
X91075000Y-115875000D03*
X91075000Y-114300000D03*
%TD*%
%TO.C,REF\u002A\u002A254*%
X73075000Y-82875000D03*
X73075000Y-81300000D03*
%TD*%
%TO.C,REF\u002A\u002A34*%
X103075000Y-46875000D03*
X103075000Y-45300000D03*
%TD*%
%TO.C,REF\u002A\u002A463*%
X82075000Y-109875000D03*
X82075000Y-108300000D03*
%TD*%
%TO.C,REF\u002A\u002A128*%
X61075000Y-61875000D03*
X61075000Y-60300000D03*
%TD*%
%TO.C,REF\u002A\u002A269*%
X94075000Y-82875000D03*
X94075000Y-81300000D03*
%TD*%
%TO.C,REF\u002A\u002A468*%
X91075000Y-109875000D03*
X91075000Y-108300000D03*
%TD*%
%TO.C,REF\u002A\u002A208*%
X61075000Y-73875000D03*
X61075000Y-72300000D03*
%TD*%
%TO.C,REF\u002A\u002A354*%
X103075000Y-94875000D03*
X103075000Y-93300000D03*
%TD*%
%TO.C,REF\u002A\u002A191*%
X94075000Y-67875000D03*
X94075000Y-66300000D03*
%TD*%
%TO.C,REF\u002A\u002A391*%
X94075000Y-97875000D03*
X94075000Y-96300000D03*
%TD*%
%TO.C,REF\u002A\u002A348*%
X91075000Y-91875000D03*
X91075000Y-90300000D03*
%TD*%
D12*
%TO.C,C18*%
X80700000Y-130950000D03*
X79150000Y-130950000D03*
%TD*%
D10*
%TO.C,REF\u002A\u002A204*%
X55075000Y-73875000D03*
X55075000Y-72300000D03*
%TD*%
%TO.C,REF\u002A\u002A504*%
X85075000Y-115875000D03*
X85075000Y-114300000D03*
%TD*%
%TO.C,REF\u002A\u002A535*%
X70075000Y-121875000D03*
X70075000Y-120300000D03*
%TD*%
%TO.C,REF\u002A\u002A300*%
X79075000Y-85875000D03*
X79075000Y-84300000D03*
%TD*%
%TO.C,REF\u002A\u002A134*%
X73075000Y-64875000D03*
X73075000Y-63300000D03*
%TD*%
%TO.C,REF\u002A\u002A448*%
X61075000Y-109875000D03*
X61075000Y-108300000D03*
%TD*%
%TO.C,REF\u002A\u002A118*%
X109075000Y-58875000D03*
X109075000Y-57300000D03*
%TD*%
%TO.C,REF\u002A\u002A533*%
X70075000Y-124875000D03*
X70075000Y-123300000D03*
%TD*%
%TO.C,REF\u002A\u002A453*%
X70075000Y-112875000D03*
X70075000Y-111300000D03*
%TD*%
%TO.C,REF\u002A\u002A352*%
X97075000Y-91875000D03*
X97075000Y-90300000D03*
%TD*%
%TO.C,REF\u002A\u002A514*%
X103075000Y-118875000D03*
X103075000Y-117300000D03*
%TD*%
%TO.C,REF\u002A\u002A23*%
X82075000Y-43875000D03*
X82075000Y-42300000D03*
%TD*%
%TO.C,REF\u002A\u002A511*%
X94075000Y-115875000D03*
X94075000Y-114300000D03*
%TD*%
%TO.C,REF\u002A\u002A454*%
X73075000Y-112875000D03*
X73075000Y-111300000D03*
%TD*%
%TO.C,REF\u002A\u002A162*%
X55075000Y-70875000D03*
X55075000Y-69300000D03*
%TD*%
%TO.C,REF\u002A\u002A444*%
X55075000Y-109875000D03*
X55075000Y-108300000D03*
%TD*%
%TO.C,REF\u002A\u002A434*%
X103075000Y-106875000D03*
X103075000Y-105300000D03*
%TD*%
%TO.C,REF\u002A\u002A390*%
X97075000Y-100875000D03*
X97075000Y-99300000D03*
%TD*%
%TO.C,REF\u002A\u002A99*%
X76075000Y-55875000D03*
X76075000Y-54300000D03*
%TD*%
%TO.C,REF\u002A\u002A243*%
X52075000Y-79875000D03*
X52075000Y-78300000D03*
%TD*%
%TO.C,REF\u002A\u002A410*%
X67075000Y-106875000D03*
X67075000Y-105300000D03*
%TD*%
%TO.C,REF\u002A\u002A98*%
X79075000Y-58875000D03*
X79075000Y-57300000D03*
%TD*%
%TO.C,REF\u002A\u002A180*%
X79075000Y-67875000D03*
X79075000Y-66300000D03*
%TD*%
%TO.C,REF\u002A\u002A239*%
X106075000Y-73875000D03*
X106075000Y-72300000D03*
%TD*%
%TO.C,REF\u002A\u002A224*%
X85075000Y-73875000D03*
X85075000Y-72300000D03*
%TD*%
%TO.C,REF\u002A\u002A46*%
X61075000Y-52875000D03*
X61075000Y-51300000D03*
%TD*%
%TO.C,REF\u002A\u002A276*%
X103075000Y-79875000D03*
X103075000Y-78300000D03*
%TD*%
%TO.C,REF\u002A\u002A186*%
X91075000Y-70875000D03*
X91075000Y-69300000D03*
%TD*%
%TO.C,REF\u002A\u002A114*%
X103075000Y-58875000D03*
X103075000Y-57300000D03*
%TD*%
%TO.C,REF\u002A\u002A413*%
X70075000Y-106875000D03*
X70075000Y-105300000D03*
%TD*%
%TO.C,REF\u002A\u002A446*%
X61075000Y-112875000D03*
X61075000Y-111300000D03*
%TD*%
%TO.C,REF\u002A\u002A79*%
X106075000Y-49875000D03*
X106075000Y-48300000D03*
%TD*%
%TO.C,REF\u002A\u002A52*%
X67075000Y-49875000D03*
X67075000Y-48300000D03*
%TD*%
%TO.C,REF\u002A\u002A185*%
X88075000Y-70875000D03*
X88075000Y-69300000D03*
%TD*%
%TO.C,REF\u002A\u002A290*%
X67075000Y-88875000D03*
X67075000Y-87300000D03*
%TD*%
%TO.C,REF\u002A\u002A393*%
X100075000Y-100875000D03*
X100075000Y-99300000D03*
%TD*%
%TO.C,REF\u002A\u002A233*%
X100075000Y-76875000D03*
X100075000Y-75300000D03*
%TD*%
%TO.C,REF\u002A\u002A234*%
X103075000Y-76875000D03*
X103075000Y-75300000D03*
%TD*%
%TO.C,REF\u002A\u002A282*%
X55075000Y-88875000D03*
X55075000Y-87300000D03*
%TD*%
%TO.C,REF\u002A\u002A457*%
X76075000Y-112875000D03*
X76075000Y-111300000D03*
%TD*%
%TO.C,REF\u002A\u002A31*%
X94075000Y-43875000D03*
X94075000Y-42300000D03*
%TD*%
%TO.C,REF\u002A\u002A48*%
X61075000Y-49875000D03*
X61075000Y-48300000D03*
%TD*%
%TO.C,REF\u002A\u002A124*%
X55075000Y-61875000D03*
X55075000Y-60300000D03*
%TD*%
%TO.C,REF\u002A\u002A492*%
X67075000Y-115875000D03*
X67075000Y-114300000D03*
%TD*%
%TO.C,REF\u002A\u002A367*%
X58075000Y-97875000D03*
X58075000Y-96300000D03*
%TD*%
%TO.C,REF\u002A\u002A170*%
X67075000Y-70875000D03*
X67075000Y-69300000D03*
%TD*%
%TO.C,REF\u002A\u002A329*%
X64075000Y-94875000D03*
X64075000Y-93300000D03*
%TD*%
%TO.C,REF\u002A\u002A472*%
X97075000Y-109875000D03*
X97075000Y-108300000D03*
%TD*%
%TO.C,REF\u002A\u002A179*%
X76075000Y-67875000D03*
X76075000Y-66300000D03*
%TD*%
%TO.C,REF\u002A\u002A241*%
X52075000Y-82875000D03*
X52075000Y-81300000D03*
%TD*%
%TO.C,REF\u002A\u002A452*%
X67075000Y-109875000D03*
X67075000Y-108300000D03*
%TD*%
%TO.C,REF\u002A\u002A123*%
X52075000Y-61875000D03*
X52075000Y-60300000D03*
%TD*%
%TO.C,REF\u002A\u002A429*%
X94075000Y-106875000D03*
X94075000Y-105300000D03*
%TD*%
%TO.C,REF\u002A\u002A112*%
X97075000Y-55875000D03*
X97075000Y-54300000D03*
%TD*%
%TO.C,REF\u002A\u002A365*%
X58075000Y-100875000D03*
X58075000Y-99300000D03*
%TD*%
%TO.C,REF\u002A\u002A211*%
X64075000Y-73875000D03*
X64075000Y-72300000D03*
%TD*%
%TO.C,REF\u002A\u002A304*%
X85075000Y-85875000D03*
X85075000Y-84300000D03*
%TD*%
%TO.C,REF\u002A\u002A176*%
X73075000Y-67875000D03*
X73075000Y-66300000D03*
%TD*%
%TO.C,REF\u002A\u002A349*%
X94075000Y-94875000D03*
X94075000Y-93300000D03*
%TD*%
%TO.C,REF\u002A\u002A206*%
X61075000Y-76875000D03*
X61075000Y-75300000D03*
%TD*%
%TO.C,REF\u002A\u002A291*%
X64075000Y-85875000D03*
X64075000Y-84300000D03*
%TD*%
%TO.C,REF\u002A\u002A411*%
X64075000Y-103875000D03*
X64075000Y-102300000D03*
%TD*%
%TO.C,REF\u002A\u002A484*%
X55075000Y-115875000D03*
X55075000Y-114300000D03*
%TD*%
%TO.C,REF\u002A\u002A265*%
X88075000Y-82875000D03*
X88075000Y-81300000D03*
%TD*%
%TO.C,REF\u002A\u002A13*%
X70075000Y-46875000D03*
X70075000Y-45300000D03*
%TD*%
%TO.C,REF\u002A\u002A538*%
X79075000Y-124875000D03*
X79075000Y-123300000D03*
%TD*%
D13*
%TO.C,VR_MCU1*%
X56970000Y-135350000D03*
X56970000Y-133050000D03*
X56970000Y-130750000D03*
D14*
X51030000Y-133050000D03*
%TD*%
D10*
%TO.C,REF\u002A\u002A368*%
X61075000Y-97875000D03*
X61075000Y-96300000D03*
%TD*%
%TO.C,REF\u002A\u002A500*%
X79075000Y-115875000D03*
X79075000Y-114300000D03*
%TD*%
%TO.C,REF\u002A\u002A421*%
X82075000Y-106875000D03*
X82075000Y-105300000D03*
%TD*%
%TO.C,REF\u002A\u002A230*%
X97075000Y-76875000D03*
X97075000Y-75300000D03*
%TD*%
%TO.C,REF\u002A\u002A129*%
X64075000Y-64875000D03*
X64075000Y-63300000D03*
%TD*%
%TO.C,REF\u002A\u002A59*%
X76075000Y-49875000D03*
X76075000Y-48300000D03*
%TD*%
%TO.C,REF\u002A\u002A549*%
X94075000Y-124875000D03*
X94075000Y-123300000D03*
%TD*%
%TO.C,REF\u002A\u002A56*%
X73075000Y-49875000D03*
X73075000Y-48300000D03*
%TD*%
%TO.C,REF\u002A\u002A342*%
X85075000Y-94875000D03*
X85075000Y-93300000D03*
%TD*%
%TO.C,REF\u002A\u002A192*%
X97075000Y-67875000D03*
X97075000Y-66300000D03*
%TD*%
%TO.C,REF\u002A\u002A181*%
X82075000Y-70875000D03*
X82075000Y-69300000D03*
%TD*%
%TO.C,REF\u002A\u002A145*%
X88075000Y-64875000D03*
X88075000Y-63300000D03*
%TD*%
D15*
%TO.C,LPF_1*%
X98346400Y-130559600D03*
D16*
X98117800Y-129950000D03*
D15*
X98346400Y-129340400D03*
D16*
X98575000Y-129950000D03*
%TD*%
D10*
%TO.C,REF\u002A\u002A175*%
X70075000Y-67875000D03*
X70075000Y-66300000D03*
%TD*%
%TO.C,REF\u002A\u002A556*%
X103075000Y-121875000D03*
X103075000Y-120300000D03*
%TD*%
%TO.C,REF\u002A\u002A287*%
X58075000Y-85875000D03*
X58075000Y-84300000D03*
%TD*%
%TO.C,REF\u002A\u002A144*%
X85075000Y-61875000D03*
X85075000Y-60300000D03*
%TD*%
%TO.C,REF\u002A\u002A203*%
X52075000Y-73875000D03*
X52075000Y-72300000D03*
%TD*%
%TO.C,REF\u002A\u002A473*%
X100075000Y-112875000D03*
X100075000Y-111300000D03*
%TD*%
%TO.C,REF\u002A\u002A132*%
X67075000Y-61875000D03*
X67075000Y-60300000D03*
%TD*%
%TO.C,REF\u002A\u002A534*%
X73075000Y-124875000D03*
X73075000Y-123300000D03*
%TD*%
%TO.C,REF\u002A\u002A242*%
X55075000Y-82875000D03*
X55075000Y-81300000D03*
%TD*%
%TO.C,REF\u002A\u002A432*%
X97075000Y-103875000D03*
X97075000Y-102300000D03*
%TD*%
%TO.C,REF\u002A\u002A439*%
X106075000Y-103875000D03*
X106075000Y-102300000D03*
%TD*%
%TO.C,REF\u002A\u002A67*%
X88075000Y-49875000D03*
X88075000Y-48300000D03*
%TD*%
%TO.C,REF\u002A\u002A526*%
X61075000Y-124875000D03*
X61075000Y-123300000D03*
%TD*%
%TO.C,REF\u002A\u002A40*%
X109075000Y-43875000D03*
X109075000Y-42300000D03*
%TD*%
%TO.C,REF\u002A\u002A257*%
X76075000Y-82875000D03*
X76075000Y-81300000D03*
%TD*%
%TO.C,REF\u002A\u002A127*%
X58075000Y-61875000D03*
X58075000Y-60300000D03*
%TD*%
%TO.C,REF\u002A\u002A530*%
X67075000Y-124875000D03*
X67075000Y-123300000D03*
%TD*%
%TO.C,REF\u002A\u002A331*%
X64075000Y-91875000D03*
X64075000Y-90300000D03*
%TD*%
%TO.C,REF\u002A\u002A341*%
X82075000Y-94875000D03*
X82075000Y-93300000D03*
%TD*%
%TO.C,REF\u002A\u002A395*%
X100075000Y-97875000D03*
X100075000Y-96300000D03*
%TD*%
%TO.C,REF\u002A\u002A302*%
X85075000Y-88875000D03*
X85075000Y-87300000D03*
%TD*%
%TO.C,REF\u002A\u002A370*%
X67075000Y-100875000D03*
X67075000Y-99300000D03*
%TD*%
%TO.C,REF\u002A\u002A344*%
X85075000Y-91875000D03*
X85075000Y-90300000D03*
%TD*%
%TO.C,REF\u002A\u002A193*%
X100075000Y-70875000D03*
X100075000Y-69300000D03*
%TD*%
%TO.C,REF\u002A\u002A171*%
X64075000Y-67875000D03*
X64075000Y-66300000D03*
%TD*%
%TO.C,REF\u002A\u002A525*%
X58075000Y-124875000D03*
X58075000Y-123300000D03*
%TD*%
%TO.C,REF\u002A\u002A384*%
X85075000Y-97875000D03*
X85075000Y-96300000D03*
%TD*%
%TO.C,REF\u002A\u002A246*%
X61075000Y-82875000D03*
X61075000Y-81300000D03*
%TD*%
%TO.C,REF\u002A\u002A84*%
X55075000Y-55875000D03*
X55075000Y-54300000D03*
%TD*%
%TO.C,REF\u002A\u002A198*%
X109075000Y-70875000D03*
X109075000Y-69300000D03*
%TD*%
%TO.C,REF\u002A\u002A159*%
X106075000Y-61875000D03*
X106075000Y-60300000D03*
%TD*%
%TO.C,REF\u002A\u002A520*%
X109075000Y-115875000D03*
X109075000Y-114300000D03*
%TD*%
%TO.C,REF\u002A\u002A93*%
X70075000Y-58875000D03*
X70075000Y-57300000D03*
%TD*%
%TO.C,REF\u002A\u002A187*%
X88075000Y-67875000D03*
X88075000Y-66300000D03*
%TD*%
%TO.C,REF\u002A\u002A303*%
X82075000Y-85875000D03*
X82075000Y-84300000D03*
%TD*%
%TO.C,REF\u002A\u002A412*%
X67075000Y-103875000D03*
X67075000Y-102300000D03*
%TD*%
%TO.C,REF\u002A\u002A20*%
X79075000Y-43875000D03*
X79075000Y-42300000D03*
%TD*%
%TO.C,REF\u002A\u002A443*%
X52075000Y-109875000D03*
X52075000Y-108300000D03*
%TD*%
%TO.C,REF\u002A\u002A61*%
X82075000Y-52875000D03*
X82075000Y-51300000D03*
%TD*%
%TO.C,REF\u002A\u002A399*%
X106075000Y-97875000D03*
X106075000Y-96300000D03*
%TD*%
%TO.C,REF\u002A\u002A210*%
X67075000Y-76875000D03*
X67075000Y-75300000D03*
%TD*%
D17*
%TO.C,C7*%
X59525000Y-130800000D03*
X61075000Y-130800000D03*
%TD*%
D10*
%TO.C,REF\u002A\u002A169*%
X64075000Y-70875000D03*
X64075000Y-69300000D03*
%TD*%
%TO.C,REF\u002A\u002A85*%
X58075000Y-58875000D03*
X58075000Y-57300000D03*
%TD*%
%TO.C,REF\u002A\u002A376*%
X73075000Y-97875000D03*
X73075000Y-96300000D03*
%TD*%
%TO.C,REF\u002A\u002A316*%
X103075000Y-85875000D03*
X103075000Y-84300000D03*
%TD*%
%TO.C,REF\u002A\u002A104*%
X85075000Y-55875000D03*
X85075000Y-54300000D03*
%TD*%
%TO.C,REF\u002A\u002A451*%
X64075000Y-109875000D03*
X64075000Y-108300000D03*
%TD*%
%TO.C,REF\u002A\u002A71*%
X94075000Y-49875000D03*
X94075000Y-48300000D03*
%TD*%
%TO.C,REF\u002A\u002A358*%
X109075000Y-94875000D03*
X109075000Y-93300000D03*
%TD*%
D18*
%TO.C,C10*%
X84337500Y-137977865D03*
X82512500Y-137977865D03*
%TD*%
D10*
%TO.C,REF\u002A\u002A202*%
X55075000Y-76875000D03*
X55075000Y-75300000D03*
%TD*%
%TO.C,REF\u002A\u002A377*%
X76075000Y-100875000D03*
X76075000Y-99300000D03*
%TD*%
%TO.C,REF\u002A\u002A388*%
X91075000Y-97875000D03*
X91075000Y-96300000D03*
%TD*%
%TO.C,REF\u002A\u002A499*%
X76075000Y-115875000D03*
X76075000Y-114300000D03*
%TD*%
%TO.C,REF\u002A\u002A546*%
X91075000Y-124875000D03*
X91075000Y-123300000D03*
%TD*%
%TO.C,REF\u002A\u002A470*%
X97075000Y-112875000D03*
X97075000Y-111300000D03*
%TD*%
%TO.C,REF\u002A\u002A87*%
X58075000Y-55875000D03*
X58075000Y-54300000D03*
%TD*%
%TO.C,REF\u002A\u002A218*%
X79075000Y-76875000D03*
X79075000Y-75300000D03*
%TD*%
%TO.C,REF\u002A\u002A165*%
X58075000Y-70875000D03*
X58075000Y-69300000D03*
%TD*%
%TO.C,REF\u002A\u002A469*%
X94075000Y-112875000D03*
X94075000Y-111300000D03*
%TD*%
%TO.C,REF\u002A\u002A261*%
X82075000Y-82875000D03*
X82075000Y-81300000D03*
%TD*%
%TO.C,REF\u002A\u002A397*%
X106075000Y-100875000D03*
X106075000Y-99300000D03*
%TD*%
%TO.C,REF\u002A\u002A523*%
X52075000Y-121875000D03*
X52075000Y-120300000D03*
%TD*%
%TO.C,REF\u002A\u002A539*%
X76075000Y-121875000D03*
X76075000Y-120300000D03*
%TD*%
%TO.C,REF\u002A\u002A24*%
X85075000Y-43875000D03*
X85075000Y-42300000D03*
%TD*%
%TO.C,REF\u002A\u002A68*%
X91075000Y-49875000D03*
X91075000Y-48300000D03*
%TD*%
%TO.C,REF\u002A\u002A315*%
X100075000Y-85875000D03*
X100075000Y-84300000D03*
%TD*%
%TO.C,REF\u002A\u002A369*%
X64075000Y-100875000D03*
X64075000Y-99300000D03*
%TD*%
%TO.C,REF\u002A\u002A537*%
X76075000Y-124875000D03*
X76075000Y-123300000D03*
%TD*%
%TO.C,REF\u002A\u002A140*%
X79075000Y-61875000D03*
X79075000Y-60300000D03*
%TD*%
%TO.C,REF\u002A\u002A529*%
X64075000Y-124875000D03*
X64075000Y-123300000D03*
%TD*%
D19*
%TO.C,L3*%
X96625000Y-131987500D03*
X97595000Y-131987500D03*
%TD*%
D10*
%TO.C,REF\u002A\u002A197*%
X106075000Y-70875000D03*
X106075000Y-69300000D03*
%TD*%
%TO.C,REF\u002A\u002A213*%
X70075000Y-76875000D03*
X70075000Y-75300000D03*
%TD*%
%TO.C,REF\u002A\u002A220*%
X79075000Y-73875000D03*
X79075000Y-72300000D03*
%TD*%
%TO.C,REF\u002A\u002A157*%
X106075000Y-64875000D03*
X106075000Y-63300000D03*
%TD*%
%TO.C,REF\u002A\u002A305*%
X88075000Y-88875000D03*
X88075000Y-87300000D03*
%TD*%
%TO.C,REF\u002A\u002A297*%
X76075000Y-88875000D03*
X76075000Y-87300000D03*
%TD*%
%TO.C,REF\u002A\u002A324*%
X55075000Y-91875000D03*
X55075000Y-90300000D03*
%TD*%
%TO.C,REF\u002A\u002A458*%
X79075000Y-112875000D03*
X79075000Y-111300000D03*
%TD*%
%TO.C,REF\u002A\u002A285*%
X58075000Y-88875000D03*
X58075000Y-87300000D03*
%TD*%
D20*
%TO.C,Rn1*%
X88600000Y-140412500D03*
X88600000Y-138587500D03*
%TD*%
D10*
%TO.C,REF\u002A\u002A495*%
X70075000Y-115875000D03*
X70075000Y-114300000D03*
%TD*%
%TO.C,REF\u002A\u002A422*%
X85075000Y-106875000D03*
X85075000Y-105300000D03*
%TD*%
%TO.C,REF\u002A\u002A49*%
X64075000Y-52875000D03*
X64075000Y-51300000D03*
%TD*%
%TO.C,REF\u002A\u002A262*%
X85075000Y-82875000D03*
X85075000Y-81300000D03*
%TD*%
%TO.C,REF\u002A\u002A440*%
X109075000Y-103875000D03*
X109075000Y-102300000D03*
%TD*%
%TO.C,REF\u002A\u002A45*%
X58075000Y-52875000D03*
X58075000Y-51300000D03*
%TD*%
D11*
%TO.C,FM4*%
X97475000Y-138437500D03*
%TD*%
D10*
%TO.C,REF\u002A\u002A247*%
X58075000Y-79875000D03*
X58075000Y-78300000D03*
%TD*%
%TO.C,REF\u002A\u002A226*%
X91075000Y-76875000D03*
X91075000Y-75300000D03*
%TD*%
%TO.C,REF\u002A\u002A184*%
X85075000Y-67875000D03*
X85075000Y-66300000D03*
%TD*%
%TO.C,REF\u002A\u002A441*%
X52075000Y-112875000D03*
X52075000Y-111300000D03*
%TD*%
%TO.C,REF\u002A\u002A167*%
X58075000Y-67875000D03*
X58075000Y-66300000D03*
%TD*%
%TO.C,REF\u002A\u002A155*%
X100075000Y-61875000D03*
X100075000Y-60300000D03*
%TD*%
%TO.C,REF\u002A\u002A26*%
X91075000Y-46875000D03*
X91075000Y-45300000D03*
%TD*%
%TO.C,REF\u002A\u002A10*%
X67075000Y-46875000D03*
X67075000Y-45300000D03*
%TD*%
%TO.C,REF\u002A\u002A482*%
X55075000Y-118875000D03*
X55075000Y-117300000D03*
%TD*%
%TO.C,REF\u002A\u002A221*%
X82075000Y-76875000D03*
X82075000Y-75300000D03*
%TD*%
%TO.C,REF\u002A\u002A205*%
X58075000Y-76875000D03*
X58075000Y-75300000D03*
%TD*%
%TO.C,REF\u002A\u002A353*%
X100075000Y-94875000D03*
X100075000Y-93300000D03*
%TD*%
%TO.C,REF\u002A\u002A373*%
X70075000Y-100875000D03*
X70075000Y-99300000D03*
%TD*%
%TO.C,REF\u002A\u002A550*%
X97075000Y-124875000D03*
X97075000Y-123300000D03*
%TD*%
%TO.C,REF\u002A\u002A519*%
X106075000Y-115875000D03*
X106075000Y-114300000D03*
%TD*%
%TO.C,REF\u002A\u002A531*%
X64075000Y-121875000D03*
X64075000Y-120300000D03*
%TD*%
%TO.C,REF\u002A\u002A64*%
X85075000Y-49875000D03*
X85075000Y-48300000D03*
%TD*%
%TO.C,REF\u002A\u002A146*%
X91075000Y-64875000D03*
X91075000Y-63300000D03*
%TD*%
%TO.C,REF\u002A\u002A100*%
X79075000Y-55875000D03*
X79075000Y-54300000D03*
%TD*%
%TO.C,REF\u002A\u002A222*%
X85075000Y-76875000D03*
X85075000Y-75300000D03*
%TD*%
%TO.C,REF\u002A\u002A425*%
X88075000Y-106875000D03*
X88075000Y-105300000D03*
%TD*%
%TO.C,REF\u002A\u002A3*%
X52075000Y-43875000D03*
X52075000Y-42300000D03*
%TD*%
%TO.C,REF\u002A\u002A260*%
X79075000Y-79875000D03*
X79075000Y-78300000D03*
%TD*%
%TO.C,REF\u002A\u002A151*%
X94075000Y-61875000D03*
X94075000Y-60300000D03*
%TD*%
%TO.C,REF\u002A\u002A461*%
X82075000Y-112875000D03*
X82075000Y-111300000D03*
%TD*%
%TO.C,REF\u002A\u002A474*%
X103075000Y-112875000D03*
X103075000Y-111300000D03*
%TD*%
%TO.C,REF\u002A\u002A347*%
X88075000Y-91875000D03*
X88075000Y-90300000D03*
%TD*%
D21*
%TO.C,C12*%
X98775000Y-131750000D03*
X98775000Y-132710000D03*
%TD*%
D10*
%TO.C,REF\u002A\u002A312*%
X97075000Y-85875000D03*
X97075000Y-84300000D03*
%TD*%
%TO.C,REF\u002A\u002A111*%
X94075000Y-55875000D03*
X94075000Y-54300000D03*
%TD*%
%TO.C,REF\u002A\u002A106*%
X91075000Y-58875000D03*
X91075000Y-57300000D03*
%TD*%
%TO.C,REF\u002A\u002A149*%
X94075000Y-64875000D03*
X94075000Y-63300000D03*
%TD*%
%TO.C,REF\u002A\u002A19*%
X76075000Y-43875000D03*
X76075000Y-42300000D03*
%TD*%
%TO.C,REF\u002A\u002A39*%
X106075000Y-43875000D03*
X106075000Y-42300000D03*
%TD*%
%TO.C,REF\u002A\u002A475*%
X100075000Y-109875000D03*
X100075000Y-108300000D03*
%TD*%
%TO.C,REF\u002A\u002A476*%
X103075000Y-109875000D03*
X103075000Y-108300000D03*
%TD*%
%TO.C,REF\u002A\u002A465*%
X88075000Y-112875000D03*
X88075000Y-111300000D03*
%TD*%
%TO.C,REF\u002A\u002A542*%
X85075000Y-124875000D03*
X85075000Y-123300000D03*
%TD*%
%TO.C,REF\u002A\u002A42*%
X55075000Y-52875000D03*
X55075000Y-51300000D03*
%TD*%
%TO.C,REF\u002A\u002A333*%
X70075000Y-94875000D03*
X70075000Y-93300000D03*
%TD*%
%TO.C,REF\u002A\u002A317*%
X106075000Y-88875000D03*
X106075000Y-87300000D03*
%TD*%
%TO.C,REF\u002A\u002A437*%
X106075000Y-106875000D03*
X106075000Y-105300000D03*
%TD*%
%TO.C,REF\u002A\u002A516*%
X103075000Y-115875000D03*
X103075000Y-114300000D03*
%TD*%
%TO.C,REF\u002A\u002A462*%
X85075000Y-112875000D03*
X85075000Y-111300000D03*
%TD*%
D22*
%TO.C,M3*%
X48475000Y-138437500D03*
D23*
X48475000Y-138437500D03*
%TD*%
D11*
%TO.C,FM3*%
X59475000Y-138437500D03*
%TD*%
D10*
%TO.C,REF\u002A\u002A445*%
X58075000Y-112875000D03*
X58075000Y-111300000D03*
%TD*%
%TO.C,REF\u002A\u002A513*%
X100075000Y-118875000D03*
X100075000Y-117300000D03*
%TD*%
%TO.C,REF\u002A\u002A427*%
X88075000Y-103875000D03*
X88075000Y-102300000D03*
%TD*%
%TO.C,REF\u002A\u002A30*%
X97075000Y-46875000D03*
X97075000Y-45300000D03*
%TD*%
%TO.C,REF\u002A\u002A392*%
X97075000Y-97875000D03*
X97075000Y-96300000D03*
%TD*%
%TO.C,REF\u002A\u002A174*%
X73075000Y-70875000D03*
X73075000Y-69300000D03*
%TD*%
%TO.C,REF\u002A\u002A33*%
X100075000Y-46875000D03*
X100075000Y-45300000D03*
%TD*%
%TO.C,REF\u002A\u002A460*%
X79075000Y-109875000D03*
X79075000Y-108300000D03*
%TD*%
%TO.C,REF\u002A\u002A518*%
X109075000Y-118875000D03*
X109075000Y-117300000D03*
%TD*%
%TO.C,REF\u002A\u002A54*%
X73075000Y-52875000D03*
X73075000Y-51300000D03*
%TD*%
%TO.C,REF\u002A\u002A325*%
X58075000Y-94875000D03*
X58075000Y-93300000D03*
%TD*%
%TO.C,REF\u002A\u002A116*%
X103075000Y-55875000D03*
X103075000Y-54300000D03*
%TD*%
%TO.C,REF\u002A\u002A178*%
X79075000Y-70875000D03*
X79075000Y-69300000D03*
%TD*%
%TO.C,REF\u002A\u002A245*%
X58075000Y-82875000D03*
X58075000Y-81300000D03*
%TD*%
%TO.C,REF\u002A\u002A505*%
X88075000Y-118875000D03*
X88075000Y-117300000D03*
%TD*%
%TO.C,REF\u002A\u002A280*%
X109075000Y-79875000D03*
X109075000Y-78300000D03*
%TD*%
%TO.C,REF\u002A\u002A189*%
X94075000Y-70875000D03*
X94075000Y-69300000D03*
%TD*%
%TO.C,REF\u002A\u002A323*%
X52075000Y-91875000D03*
X52075000Y-90300000D03*
%TD*%
%TO.C,REF\u002A\u002A277*%
X106075000Y-82875000D03*
X106075000Y-81300000D03*
%TD*%
%TO.C,REF\u002A\u002A406*%
X61075000Y-106875000D03*
X61075000Y-105300000D03*
%TD*%
%TO.C,REF\u002A\u002A430*%
X97075000Y-106875000D03*
X97075000Y-105300000D03*
%TD*%
%TO.C,REF\u002A\u002A481*%
X52075000Y-118875000D03*
X52075000Y-117300000D03*
%TD*%
%TO.C,REF\u002A\u002A256*%
X73075000Y-79875000D03*
X73075000Y-78300000D03*
%TD*%
%TO.C,REF\u002A\u002A32*%
X97075000Y-43875000D03*
X97075000Y-42300000D03*
%TD*%
%TO.C,REF\u002A\u002A466*%
X91075000Y-112875000D03*
X91075000Y-111300000D03*
%TD*%
%TO.C,REF\u002A\u002A335*%
X70075000Y-91875000D03*
X70075000Y-90300000D03*
%TD*%
%TO.C,REF\u002A\u002A147*%
X88075000Y-61875000D03*
X88075000Y-60300000D03*
%TD*%
%TO.C,REF\u002A\u002A488*%
X61075000Y-115875000D03*
X61075000Y-114300000D03*
%TD*%
D24*
%TO.C,X1*%
X87025000Y-137977865D03*
X85825000Y-137977865D03*
%TD*%
D10*
%TO.C,REF\u002A\u002A387*%
X88075000Y-97875000D03*
X88075000Y-96300000D03*
%TD*%
%TO.C,REF\u002A\u002A83*%
X52075000Y-55875000D03*
X52075000Y-54300000D03*
%TD*%
%TO.C,REF\u002A\u002A389*%
X94075000Y-100875000D03*
X94075000Y-99300000D03*
%TD*%
%TO.C,REF\u002A\u002A330*%
X67075000Y-94875000D03*
X67075000Y-93300000D03*
%TD*%
%TO.C,REF\u002A\u002A194*%
X103075000Y-70875000D03*
X103075000Y-69300000D03*
%TD*%
%TO.C,REF\u002A\u002A148*%
X91075000Y-61875000D03*
X91075000Y-60300000D03*
%TD*%
%TO.C,REF\u002A\u002A442*%
X55075000Y-112875000D03*
X55075000Y-111300000D03*
%TD*%
%TO.C,REF\u002A\u002A386*%
X91075000Y-100875000D03*
X91075000Y-99300000D03*
%TD*%
%TO.C,REF\u002A\u002A416*%
X73075000Y-103875000D03*
X73075000Y-102300000D03*
%TD*%
%TO.C,REF\u002A\u002A237*%
X106075000Y-76875000D03*
X106075000Y-75300000D03*
%TD*%
D18*
%TO.C,C11*%
X86825000Y-139577865D03*
X85000000Y-139577865D03*
%TD*%
D10*
%TO.C,REF\u002A\u002A60*%
X79075000Y-49875000D03*
X79075000Y-48300000D03*
%TD*%
%TO.C,REF\u002A\u002A238*%
X109075000Y-76875000D03*
X109075000Y-75300000D03*
%TD*%
%TO.C,REF\u002A\u002A11*%
X64075000Y-43875000D03*
X64075000Y-42300000D03*
%TD*%
%TO.C,REF\u002A\u002A491*%
X64075000Y-115875000D03*
X64075000Y-114300000D03*
%TD*%
%TO.C,REF\u002A\u002A361*%
X52075000Y-100875000D03*
X52075000Y-99300000D03*
%TD*%
%TO.C,REF\u002A\u002A372*%
X67075000Y-97875000D03*
X67075000Y-96300000D03*
%TD*%
%TO.C,REF\u002A\u002A137*%
X76075000Y-64875000D03*
X76075000Y-63300000D03*
%TD*%
%TO.C,REF\u002A\u002A77*%
X106075000Y-52875000D03*
X106075000Y-51300000D03*
%TD*%
%TO.C,REF\u002A\u002A366*%
X61075000Y-100875000D03*
X61075000Y-99300000D03*
%TD*%
%TO.C,REF\u002A\u002A74*%
X103075000Y-52875000D03*
X103075000Y-51300000D03*
%TD*%
%TO.C,REF\u002A\u002A166*%
X61075000Y-70875000D03*
X61075000Y-69300000D03*
%TD*%
%TO.C,REF\u002A\u002A408*%
X61075000Y-103875000D03*
X61075000Y-102300000D03*
%TD*%
%TO.C,REF\u002A\u002A37*%
X106075000Y-46875000D03*
X106075000Y-45300000D03*
%TD*%
%TO.C,REF\u002A\u002A489*%
X64075000Y-118875000D03*
X64075000Y-117300000D03*
%TD*%
%TO.C,REF\u002A\u002A293*%
X70075000Y-88875000D03*
X70075000Y-87300000D03*
%TD*%
%TO.C,REF\u002A\u002A486*%
X61075000Y-118875000D03*
X61075000Y-117300000D03*
%TD*%
%TO.C,REF\u002A\u002A483*%
X52075000Y-115875000D03*
X52075000Y-114300000D03*
%TD*%
%TO.C,REF\u002A\u002A467*%
X88075000Y-109875000D03*
X88075000Y-108300000D03*
%TD*%
%TO.C,REF\u002A\u002A76*%
X103075000Y-49875000D03*
X103075000Y-48300000D03*
%TD*%
%TO.C,REF\u002A\u002A183*%
X82075000Y-67875000D03*
X82075000Y-66300000D03*
%TD*%
%TO.C,REF\u002A\u002A314*%
X103075000Y-88875000D03*
X103075000Y-87300000D03*
%TD*%
%TO.C,REF\u002A\u002A424*%
X85075000Y-103875000D03*
X85075000Y-102300000D03*
%TD*%
%TO.C,REF\u002A\u002A160*%
X109075000Y-61875000D03*
X109075000Y-60300000D03*
%TD*%
%TO.C,REF\u002A\u002A360*%
X109075000Y-91875000D03*
X109075000Y-90300000D03*
%TD*%
%TO.C,REF\u002A\u002A275*%
X100075000Y-79875000D03*
X100075000Y-78300000D03*
%TD*%
%TO.C,REF\u002A\u002A125*%
X58075000Y-64875000D03*
X58075000Y-63300000D03*
%TD*%
%TO.C,REF\u002A\u002A22*%
X85075000Y-46875000D03*
X85075000Y-45300000D03*
%TD*%
%TO.C,REF\u002A\u002A62*%
X85075000Y-52875000D03*
X85075000Y-51300000D03*
%TD*%
%TO.C,REF\u002A\u002A120*%
X109075000Y-55875000D03*
X109075000Y-54300000D03*
%TD*%
%TO.C,REF\u002A\u002A182*%
X85075000Y-70875000D03*
X85075000Y-69300000D03*
%TD*%
%TO.C,REF\u002A\u002A108*%
X91075000Y-55875000D03*
X91075000Y-54300000D03*
%TD*%
%TO.C,REF\u002A\u002A311*%
X94075000Y-85875000D03*
X94075000Y-84300000D03*
%TD*%
%TO.C,REF\u002A\u002A433*%
X100075000Y-106875000D03*
X100075000Y-105300000D03*
%TD*%
%TO.C,REF\u002A\u002A501*%
X82075000Y-118875000D03*
X82075000Y-117300000D03*
%TD*%
%TO.C,REF\u002A\u002A47*%
X58075000Y-49875000D03*
X58075000Y-48300000D03*
%TD*%
%TO.C,REF\u002A\u002A383*%
X82075000Y-97875000D03*
X82075000Y-96300000D03*
%TD*%
%TO.C,REF\u002A\u002A227*%
X88075000Y-73875000D03*
X88075000Y-72300000D03*
%TD*%
%TO.C,REF\u002A\u002A510*%
X97075000Y-118875000D03*
X97075000Y-117300000D03*
%TD*%
%TO.C,REF\u002A\u002A380*%
X79075000Y-97875000D03*
X79075000Y-96300000D03*
%TD*%
%TO.C,REF\u002A\u002A326*%
X61075000Y-94875000D03*
X61075000Y-93300000D03*
%TD*%
%TO.C,REF\u002A\u002A14*%
X73075000Y-46875000D03*
X73075000Y-45300000D03*
%TD*%
%TO.C,REF\u002A\u002A35*%
X100075000Y-43875000D03*
X100075000Y-42300000D03*
%TD*%
%TO.C,REF\u002A\u002A235*%
X100075000Y-73875000D03*
X100075000Y-72300000D03*
%TD*%
%TO.C,REF\u002A\u002A554*%
X103075000Y-124875000D03*
X103075000Y-123300000D03*
%TD*%
%TO.C,REF\u002A\u002A6*%
X61075000Y-46875000D03*
X61075000Y-45300000D03*
%TD*%
%TO.C,REF\u002A\u002A69*%
X94075000Y-52875000D03*
X94075000Y-51300000D03*
%TD*%
%TO.C,REF\u002A\u002A248*%
X61075000Y-79875000D03*
X61075000Y-78300000D03*
%TD*%
%TO.C,REF\u002A\u002A91*%
X64075000Y-55875000D03*
X64075000Y-54300000D03*
%TD*%
%TO.C,REF\u002A\u002A477*%
X106075000Y-112875000D03*
X106075000Y-111300000D03*
%TD*%
%TO.C,REF\u002A\u002A96*%
X73075000Y-55875000D03*
X73075000Y-54300000D03*
%TD*%
%TO.C,REF\u002A\u002A497*%
X76075000Y-118875000D03*
X76075000Y-117300000D03*
%TD*%
%TO.C,REF\u002A\u002A371*%
X64075000Y-97875000D03*
X64075000Y-96300000D03*
%TD*%
%TO.C,REF\u002A\u002A217*%
X76075000Y-76875000D03*
X76075000Y-75300000D03*
%TD*%
%TO.C,REF\u002A\u002A502*%
X85075000Y-118875000D03*
X85075000Y-117300000D03*
%TD*%
%TO.C,REF\u002A\u002A350*%
X97075000Y-94875000D03*
X97075000Y-93300000D03*
%TD*%
%TO.C,REF\u002A\u002A296*%
X73075000Y-85875000D03*
X73075000Y-84300000D03*
%TD*%
D22*
%TO.C,M1*%
X112475000Y-43437500D03*
D23*
X112475000Y-43437500D03*
%TD*%
D10*
%TO.C,REF\u002A\u002A547*%
X88075000Y-121875000D03*
X88075000Y-120300000D03*
%TD*%
%TO.C,REF\u002A\u002A17*%
X76075000Y-46875000D03*
X76075000Y-45300000D03*
%TD*%
%TO.C,REF\u002A\u002A161*%
X52075000Y-70875000D03*
X52075000Y-69300000D03*
%TD*%
%TO.C,REF\u002A\u002A284*%
X55075000Y-85875000D03*
X55075000Y-84300000D03*
%TD*%
%TO.C,REF\u002A\u002A172*%
X67075000Y-67875000D03*
X67075000Y-66300000D03*
%TD*%
D22*
%TO.C,M2*%
X48475000Y-43437500D03*
D23*
X48475000Y-43437500D03*
%TD*%
D10*
%TO.C,REF\u002A\u002A338*%
X79075000Y-94875000D03*
X79075000Y-93300000D03*
%TD*%
%TO.C,REF\u002A\u002A103*%
X82075000Y-55875000D03*
X82075000Y-54300000D03*
%TD*%
%TO.C,REF\u002A\u002A58*%
X79075000Y-52875000D03*
X79075000Y-51300000D03*
%TD*%
%TO.C,REF\u002A\u002A70*%
X97075000Y-52875000D03*
X97075000Y-51300000D03*
%TD*%
%TO.C,REF\u002A\u002A485*%
X58075000Y-118875000D03*
X58075000Y-117300000D03*
%TD*%
%TO.C,REF\u002A\u002A299*%
X76075000Y-85875000D03*
X76075000Y-84300000D03*
%TD*%
%TO.C,REF\u002A\u002A97*%
X76075000Y-58875000D03*
X76075000Y-57300000D03*
%TD*%
%TO.C,REF\u002A\u002A264*%
X85075000Y-79875000D03*
X85075000Y-78300000D03*
%TD*%
%TO.C,REF\u002A\u002A355*%
X100075000Y-91875000D03*
X100075000Y-90300000D03*
%TD*%
%TO.C,REF\u002A\u002A154*%
X103075000Y-64875000D03*
X103075000Y-63300000D03*
%TD*%
%TO.C,REF\u002A\u002A51*%
X64075000Y-49875000D03*
X64075000Y-48300000D03*
%TD*%
%TO.C,REF\u002A\u002A426*%
X91075000Y-106875000D03*
X91075000Y-105300000D03*
%TD*%
%TO.C,REF\u002A\u002A231*%
X94075000Y-73875000D03*
X94075000Y-72300000D03*
%TD*%
%TO.C,REF\u002A\u002A322*%
X55075000Y-94875000D03*
X55075000Y-93300000D03*
%TD*%
%TO.C,REF\u002A\u002A141*%
X82075000Y-64875000D03*
X82075000Y-63300000D03*
%TD*%
%TO.C,REF\u002A\u002A153*%
X100075000Y-64875000D03*
X100075000Y-63300000D03*
%TD*%
%TO.C,REF\u002A\u002A101*%
X82075000Y-58875000D03*
X82075000Y-57300000D03*
%TD*%
D25*
%TO.C,C15*%
X97025000Y-129177865D03*
X96065000Y-129177865D03*
%TD*%
D10*
%TO.C,REF\u002A\u002A81*%
X52075000Y-58875000D03*
X52075000Y-57300000D03*
%TD*%
%TO.C,REF\u002A\u002A249*%
X64075000Y-82875000D03*
X64075000Y-81300000D03*
%TD*%
D20*
%TO.C,Rn2*%
X71650000Y-134575000D03*
X71650000Y-132750000D03*
%TD*%
D10*
%TO.C,REF\u002A\u002A487*%
X58075000Y-115875000D03*
X58075000Y-114300000D03*
%TD*%
%TO.C,REF\u002A\u002A336*%
X73075000Y-91875000D03*
X73075000Y-90300000D03*
%TD*%
%TO.C,REF\u002A\u002A29*%
X94075000Y-46875000D03*
X94075000Y-45300000D03*
%TD*%
%TO.C,REF\u002A\u002A398*%
X109075000Y-100875000D03*
X109075000Y-99300000D03*
%TD*%
%TO.C,REF\u002A\u002A130*%
X67075000Y-64875000D03*
X67075000Y-63300000D03*
%TD*%
%TO.C,REF\u002A\u002A156*%
X103075000Y-61875000D03*
X103075000Y-60300000D03*
%TD*%
%TO.C,REF\u002A\u002A545*%
X88075000Y-124875000D03*
X88075000Y-123300000D03*
%TD*%
%TO.C,REF\u002A\u002A110*%
X97075000Y-58875000D03*
X97075000Y-57300000D03*
%TD*%
%TO.C,REF\u002A\u002A536*%
X73075000Y-121875000D03*
X73075000Y-120300000D03*
%TD*%
%TO.C,REF\u002A\u002A363*%
X52075000Y-97875000D03*
X52075000Y-96300000D03*
%TD*%
%TO.C,REF\u002A\u002A450*%
X67075000Y-112875000D03*
X67075000Y-111300000D03*
%TD*%
%TO.C,REF\u002A\u002A436*%
X103075000Y-103875000D03*
X103075000Y-102300000D03*
%TD*%
%TO.C,REF\u002A\u002A229*%
X94075000Y-76875000D03*
X94075000Y-75300000D03*
%TD*%
%TO.C,REF\u002A\u002A117*%
X106075000Y-58875000D03*
X106075000Y-57300000D03*
%TD*%
%TO.C,REF\u002A\u002A540*%
X79075000Y-121875000D03*
X79075000Y-120300000D03*
%TD*%
%TO.C,REF\u002A\u002A381*%
X82075000Y-100875000D03*
X82075000Y-99300000D03*
%TD*%
%TO.C,REF\u002A\u002A*%
X109075000Y-121875000D03*
X109075000Y-120300000D03*
%TD*%
%TO.C,REF\u002A\u002A271*%
X94075000Y-79875000D03*
X94075000Y-78300000D03*
%TD*%
%TO.C,REF\u002A\u002A126*%
X61075000Y-64875000D03*
X61075000Y-63300000D03*
%TD*%
%TO.C,REF\u002A\u002A102*%
X85075000Y-58875000D03*
X85075000Y-57300000D03*
%TD*%
%TO.C,REF\u002A\u002A196*%
X103075000Y-67875000D03*
X103075000Y-66300000D03*
%TD*%
%TO.C,REF\u002A\u002A431*%
X94075000Y-103875000D03*
X94075000Y-102300000D03*
%TD*%
%TO.C,REF\u002A\u002A493*%
X70075000Y-118875000D03*
X70075000Y-117300000D03*
%TD*%
%TO.C,REF\u002A\u002A420*%
X79075000Y-103875000D03*
X79075000Y-102300000D03*
%TD*%
%TO.C,REF\u002A\u002A551*%
X94075000Y-121875000D03*
X94075000Y-120300000D03*
%TD*%
%TO.C,REF\u002A\u002A63*%
X82075000Y-49875000D03*
X82075000Y-48300000D03*
%TD*%
%TO.C,REF\u002A\u002A94*%
X73075000Y-58875000D03*
X73075000Y-57300000D03*
%TD*%
%TO.C,REF\u002A\u002A490*%
X67075000Y-118875000D03*
X67075000Y-117300000D03*
%TD*%
%TO.C,REF\u002A\u002A382*%
X85075000Y-100875000D03*
X85075000Y-99300000D03*
%TD*%
%TO.C,REF\u002A\u002A362*%
X55075000Y-100875000D03*
X55075000Y-99300000D03*
%TD*%
%TO.C,REF\u002A\u002A82*%
X55075000Y-58875000D03*
X55075000Y-57300000D03*
%TD*%
%TO.C,REF\u002A\u002A177*%
X76075000Y-70875000D03*
X76075000Y-69300000D03*
%TD*%
%TO.C,REF\u002A\u002A89*%
X64075000Y-58875000D03*
X64075000Y-57300000D03*
%TD*%
%TO.C,REF\u002A\u002A109*%
X94075000Y-58875000D03*
X94075000Y-57300000D03*
%TD*%
%TO.C,REF\u002A\u002A92*%
X67075000Y-55875000D03*
X67075000Y-54300000D03*
%TD*%
%TO.C,REF\u002A\u002A131*%
X64075000Y-61875000D03*
X64075000Y-60300000D03*
%TD*%
%TO.C,REF\u002A\u002A135*%
X70075000Y-61875000D03*
X70075000Y-60300000D03*
%TD*%
%TO.C,REF\u002A\u002A418*%
X79075000Y-106875000D03*
X79075000Y-105300000D03*
%TD*%
%TO.C,REF\u002A\u002A152*%
X97075000Y-61875000D03*
X97075000Y-60300000D03*
%TD*%
%TO.C,REF\u002A\u002A240*%
X109075000Y-73875000D03*
X109075000Y-72300000D03*
%TD*%
%TO.C,REF\u002A\u002A351*%
X94075000Y-91875000D03*
X94075000Y-90300000D03*
%TD*%
%TO.C,REF\u002A\u002A294*%
X73075000Y-88875000D03*
X73075000Y-87300000D03*
%TD*%
%TO.C,REF\u002A\u002A105*%
X88075000Y-58875000D03*
X88075000Y-57300000D03*
%TD*%
%TO.C,REF\u002A\u002A515*%
X100075000Y-115875000D03*
X100075000Y-114300000D03*
%TD*%
%TO.C,REF\u002A\u002A142*%
X85075000Y-64875000D03*
X85075000Y-63300000D03*
%TD*%
%TO.C,REF\u002A\u002A407*%
X58075000Y-103875000D03*
X58075000Y-102300000D03*
%TD*%
D26*
%TO.C,X2*%
X94925000Y-127625000D03*
X96325000Y-127625000D03*
X96325000Y-126525000D03*
X94925000Y-126525000D03*
%TD*%
D10*
%TO.C,REF\u002A\u002A12*%
X67075000Y-43875000D03*
X67075000Y-42300000D03*
%TD*%
%TO.C,REF\u002A\u002A455*%
X70075000Y-109875000D03*
X70075000Y-108300000D03*
%TD*%
%TO.C,REF\u002A\u002A80*%
X109075000Y-49875000D03*
X109075000Y-48300000D03*
%TD*%
%TO.C,REF\u002A\u002A438*%
X109075000Y-106875000D03*
X109075000Y-105300000D03*
%TD*%
%TO.C,REF\u002A\u002A25*%
X88075000Y-46875000D03*
X88075000Y-45300000D03*
%TD*%
%TO.C,REF\u002A\u002A225*%
X88075000Y-76875000D03*
X88075000Y-75300000D03*
%TD*%
%TO.C,REF\u002A\u002A378*%
X79075000Y-100875000D03*
X79075000Y-99300000D03*
%TD*%
%TO.C,REF\u002A\u002A38*%
X109075000Y-46875000D03*
X109075000Y-45300000D03*
%TD*%
%TO.C,REF\u002A\u002A449*%
X64075000Y-112875000D03*
X64075000Y-111300000D03*
%TD*%
%TO.C,REF\u002A\u002A168*%
X61075000Y-67875000D03*
X61075000Y-66300000D03*
%TD*%
D21*
%TO.C,C5*%
X84625000Y-135497865D03*
X84625000Y-136457865D03*
%TD*%
D17*
%TO.C,C17*%
X59525000Y-133100000D03*
X61075000Y-133100000D03*
%TD*%
D10*
%TO.C,REF\u002A\u002A88*%
X61075000Y-55875000D03*
X61075000Y-54300000D03*
%TD*%
%TO.C,REF\u002A\u002A357*%
X106075000Y-94875000D03*
X106075000Y-93300000D03*
%TD*%
%TO.C,REF\u002A\u002A301*%
X82075000Y-88875000D03*
X82075000Y-87300000D03*
%TD*%
%TO.C,REF\u002A\u002A521*%
X52075000Y-124875000D03*
X52075000Y-123300000D03*
%TD*%
%TO.C,REF\u002A\u002A478*%
X109075000Y-112875000D03*
X109075000Y-111300000D03*
%TD*%
%TO.C,REF\u002A\u002A396*%
X103075000Y-97875000D03*
X103075000Y-96300000D03*
%TD*%
D27*
%TO.C,L1*%
X77400000Y-128800000D03*
X75300000Y-128800000D03*
%TD*%
D10*
%TO.C,REF\u002A\u002A9*%
X64075000Y-46875000D03*
X64075000Y-45300000D03*
%TD*%
%TO.C,REF\u002A\u002A394*%
X103075000Y-100875000D03*
X103075000Y-99300000D03*
%TD*%
%TO.C,REF\u002A\u002A199*%
X106075000Y-67875000D03*
X106075000Y-66300000D03*
%TD*%
%TO.C,REF\u002A\u002A55*%
X70075000Y-49875000D03*
X70075000Y-48300000D03*
%TD*%
%TO.C,REF\u002A\u002A190*%
X97075000Y-70875000D03*
X97075000Y-69300000D03*
%TD*%
%TO.C,REF\u002A\u002A188*%
X91075000Y-67875000D03*
X91075000Y-66300000D03*
%TD*%
%TO.C,REF\u002A\u002A272*%
X97075000Y-79875000D03*
X97075000Y-78300000D03*
%TD*%
%TO.C,REF\u002A\u002A417*%
X76075000Y-106875000D03*
X76075000Y-105300000D03*
%TD*%
%TO.C,REF\u002A\u002A72*%
X97075000Y-49875000D03*
X97075000Y-48300000D03*
%TD*%
%TO.C,REF\u002A\u002A555*%
X100075000Y-121875000D03*
X100075000Y-120300000D03*
%TD*%
%TO.C,REF\u002A\u002A150*%
X97075000Y-64875000D03*
X97075000Y-63300000D03*
%TD*%
%TO.C,REF\u002A\u002A435*%
X100075000Y-103875000D03*
X100075000Y-102300000D03*
%TD*%
%TO.C,REF\u002A\u002A403*%
X52075000Y-103875000D03*
X52075000Y-102300000D03*
%TD*%
%TO.C,REF\u002A\u002A308*%
X91075000Y-85875000D03*
X91075000Y-84300000D03*
%TD*%
%TO.C,REF\u002A\u002A250*%
X67075000Y-82875000D03*
X67075000Y-81300000D03*
%TD*%
%TO.C,REF\u002A\u002A236*%
X103075000Y-73875000D03*
X103075000Y-72300000D03*
%TD*%
%TO.C,REF\u002A\u002A244*%
X55075000Y-79875000D03*
X55075000Y-78300000D03*
%TD*%
%TO.C,REF\u002A\u002A356*%
X103075000Y-91875000D03*
X103075000Y-90300000D03*
%TD*%
%TO.C,REF\u002A\u002A28*%
X91075000Y-43875000D03*
X91075000Y-42300000D03*
%TD*%
%TO.C,REF\u002A\u002A307*%
X88075000Y-85875000D03*
X88075000Y-84300000D03*
%TD*%
%TO.C,REF\u002A\u002A212*%
X67075000Y-73875000D03*
X67075000Y-72300000D03*
%TD*%
%TO.C,REF\u002A\u002A306*%
X91075000Y-88875000D03*
X91075000Y-87300000D03*
%TD*%
%TO.C,REF\u002A\u002A279*%
X106075000Y-79875000D03*
X106075000Y-78300000D03*
%TD*%
%TO.C,REF\u002A\u002A459*%
X76075000Y-109875000D03*
X76075000Y-108300000D03*
%TD*%
%TO.C,REF\u002A\u002A320*%
X109075000Y-85875000D03*
X109075000Y-84300000D03*
%TD*%
%TO.C,REF\u002A\u002A374*%
X73075000Y-100875000D03*
X73075000Y-99300000D03*
%TD*%
%TO.C,REF\u002A\u002A506*%
X91075000Y-118875000D03*
X91075000Y-117300000D03*
%TD*%
%TO.C,REF\u002A\u002A288*%
X61075000Y-85875000D03*
X61075000Y-84300000D03*
%TD*%
%TO.C,REF\u002A\u002A2*%
X55075000Y-46875000D03*
X55075000Y-45300000D03*
%TD*%
%TO.C,REF\u002A\u002A73*%
X100075000Y-52875000D03*
X100075000Y-51300000D03*
%TD*%
%TO.C,REF\u002A\u002A263*%
X82075000Y-79875000D03*
X82075000Y-78300000D03*
%TD*%
%TO.C,REF\u002A\u002A319*%
X106075000Y-85875000D03*
X106075000Y-84300000D03*
%TD*%
%TO.C,REF\u002A\u002A41*%
X52075000Y-52875000D03*
X52075000Y-51300000D03*
%TD*%
%TO.C,REF\u002A\u002A78*%
X109075000Y-52875000D03*
X109075000Y-51300000D03*
%TD*%
%TO.C,REF\u002A\u002A321*%
X52075000Y-94875000D03*
X52075000Y-93300000D03*
%TD*%
%TO.C,REF\u002A\u002A414*%
X73075000Y-106875000D03*
X73075000Y-105300000D03*
%TD*%
%TO.C,REF\u002A\u002A15*%
X70075000Y-43875000D03*
X70075000Y-42300000D03*
%TD*%
%TO.C,REF\u002A\u002A163*%
X52075000Y-67875000D03*
X52075000Y-66300000D03*
%TD*%
%TO.C,REF\u002A\u002A278*%
X109075000Y-82875000D03*
X109075000Y-81300000D03*
%TD*%
%TO.C,REF\u002A\u002A346*%
X91075000Y-94875000D03*
X91075000Y-93300000D03*
%TD*%
%TO.C,REF\u002A\u002A36*%
X103075000Y-43875000D03*
X103075000Y-42300000D03*
%TD*%
%TO.C,REF\u002A\u002A107*%
X88075000Y-55875000D03*
X88075000Y-54300000D03*
%TD*%
%TO.C,REF\u002A\u002A507*%
X88075000Y-115875000D03*
X88075000Y-114300000D03*
%TD*%
%TO.C,REF\u002A\u002A274*%
X103075000Y-82875000D03*
X103075000Y-81300000D03*
%TD*%
%TO.C,REF\u002A\u002A119*%
X106075000Y-55875000D03*
X106075000Y-54300000D03*
%TD*%
%TO.C,REF\u002A\u002A*%
X106075000Y-124875000D03*
X106075000Y-123300000D03*
%TD*%
%TO.C,REF\u002A\u002A552*%
X97075000Y-121875000D03*
X97075000Y-120300000D03*
%TD*%
%TO.C,REF\u002A\u002A428*%
X91075000Y-103875000D03*
X91075000Y-102300000D03*
%TD*%
%TO.C,REF\u002A\u002A541*%
X82075000Y-124875000D03*
X82075000Y-123300000D03*
%TD*%
%TO.C,REF\u002A\u002A400*%
X109075000Y-97875000D03*
X109075000Y-96300000D03*
%TD*%
%TO.C,REF\u002A\u002A423*%
X82075000Y-103875000D03*
X82075000Y-102300000D03*
%TD*%
%TO.C,REF\u002A\u002A65*%
X88075000Y-52875000D03*
X88075000Y-51300000D03*
%TD*%
%TO.C,REF\u002A\u002A53*%
X70075000Y-52875000D03*
X70075000Y-51300000D03*
%TD*%
%TO.C,REF\u002A\u002A115*%
X100075000Y-55875000D03*
X100075000Y-54300000D03*
%TD*%
%TO.C,REF\u002A\u002A339*%
X76075000Y-91875000D03*
X76075000Y-90300000D03*
%TD*%
%TO.C,REF\u002A\u002A158*%
X109075000Y-64875000D03*
X109075000Y-63300000D03*
%TD*%
%TO.C,REF\u002A\u002A471*%
X94075000Y-109875000D03*
X94075000Y-108300000D03*
%TD*%
%TO.C,REF\u002A\u002A138*%
X79075000Y-64875000D03*
X79075000Y-63300000D03*
%TD*%
%TO.C,REF\u002A\u002A283*%
X52075000Y-85875000D03*
X52075000Y-84300000D03*
%TD*%
%TO.C,REF\u002A\u002A195*%
X100075000Y-67875000D03*
X100075000Y-66300000D03*
%TD*%
%TO.C,REF\u002A\u002A401*%
X52075000Y-106875000D03*
X52075000Y-105300000D03*
%TD*%
%TO.C,REF\u002A\u002A479*%
X106075000Y-109875000D03*
X106075000Y-108300000D03*
%TD*%
%TO.C,REF\u002A\u002A90*%
X67075000Y-58875000D03*
X67075000Y-57300000D03*
%TD*%
%TO.C,REF\u002A\u002A139*%
X76075000Y-61875000D03*
X76075000Y-60300000D03*
%TD*%
%TO.C,REF\u002A\u002A419*%
X76075000Y-103875000D03*
X76075000Y-102300000D03*
%TD*%
%TO.C,REF\u002A\u002A*%
X109075000Y-124875000D03*
X109075000Y-123300000D03*
%TD*%
%TO.C,REF\u002A\u002A255*%
X70075000Y-79875000D03*
X70075000Y-78300000D03*
%TD*%
%TO.C,REF\u002A\u002A522*%
X55075000Y-124875000D03*
X55075000Y-123300000D03*
%TD*%
%TO.C,REF\u002A\u002A289*%
X64075000Y-88875000D03*
X64075000Y-87300000D03*
%TD*%
%TO.C,REF\u002A\u002A1*%
X52075000Y-46875000D03*
X52075000Y-45300000D03*
%TD*%
%TO.C,REF\u002A\u002A252*%
X67075000Y-79875000D03*
X67075000Y-78300000D03*
%TD*%
%TO.C,REF\u002A\u002A57*%
X76075000Y-52875000D03*
X76075000Y-51300000D03*
%TD*%
%TO.C,REF\u002A\u002A133*%
X70075000Y-64875000D03*
X70075000Y-63300000D03*
%TD*%
%TO.C,REF\u002A\u002A253*%
X70075000Y-82875000D03*
X70075000Y-81300000D03*
%TD*%
%TO.C,REF\u002A\u002A95*%
X70075000Y-55875000D03*
X70075000Y-54300000D03*
%TD*%
%TO.C,REF\u002A\u002A214*%
X73075000Y-76875000D03*
X73075000Y-75300000D03*
%TD*%
%TO.C,REF\u002A\u002A503*%
X82075000Y-115875000D03*
X82075000Y-114300000D03*
%TD*%
%TO.C,REF\u002A\u002A201*%
X52075000Y-76875000D03*
X52075000Y-75300000D03*
%TD*%
%TO.C,REF\u002A\u002A44*%
X55075000Y-49875000D03*
X55075000Y-48300000D03*
%TD*%
%TO.C,REF\u002A\u002A498*%
X79075000Y-118875000D03*
X79075000Y-117300000D03*
%TD*%
%TO.C,REF\u002A\u002A298*%
X79075000Y-88875000D03*
X79075000Y-87300000D03*
%TD*%
%TO.C,REF\u002A\u002A*%
X106075000Y-121875000D03*
X106075000Y-120300000D03*
%TD*%
%TO.C,REF\u002A\u002A21*%
X82075000Y-46875000D03*
X82075000Y-45300000D03*
%TD*%
D28*
%TO.C,C13*%
X96065000Y-130375000D03*
X97025000Y-130375000D03*
%TD*%
D10*
%TO.C,REF\u002A\u002A375*%
X70075000Y-97875000D03*
X70075000Y-96300000D03*
%TD*%
D20*
%TO.C,Rn3*%
X69150000Y-134625000D03*
X69150000Y-132800000D03*
%TD*%
D10*
%TO.C,REF\u002A\u002A310*%
X97075000Y-88875000D03*
X97075000Y-87300000D03*
%TD*%
%TO.C,REF\u002A\u002A509*%
X94075000Y-118875000D03*
X94075000Y-117300000D03*
%TD*%
D11*
%TO.C,FM2*%
X112475000Y-63437500D03*
%TD*%
D10*
%TO.C,REF\u002A\u002A447*%
X58075000Y-109875000D03*
X58075000Y-108300000D03*
%TD*%
%TO.C,REF\u002A\u002A122*%
X55075000Y-64875000D03*
X55075000Y-63300000D03*
%TD*%
%TO.C,REF\u002A\u002A66*%
X91075000Y-52875000D03*
X91075000Y-51300000D03*
%TD*%
%TO.C,REF\u002A\u002A219*%
X76075000Y-73875000D03*
X76075000Y-72300000D03*
%TD*%
%TO.C,REF\u002A\u002A7*%
X58075000Y-43875000D03*
X58075000Y-42300000D03*
%TD*%
D29*
%TO.C,L2*%
X79100000Y-127750000D03*
X79100000Y-129325000D03*
%TD*%
D10*
%TO.C,REF\u002A\u002A404*%
X55075000Y-103875000D03*
X55075000Y-102300000D03*
%TD*%
%TO.C,REF\u002A\u002A343*%
X82075000Y-91875000D03*
X82075000Y-90300000D03*
%TD*%
%TO.C,REF\u002A\u002A232*%
X97075000Y-73875000D03*
X97075000Y-72300000D03*
%TD*%
%TO.C,REF\u002A\u002A496*%
X73075000Y-115875000D03*
X73075000Y-114300000D03*
%TD*%
%TO.C,REF\u002A\u002A121*%
X52075000Y-64875000D03*
X52075000Y-63300000D03*
%TD*%
%TO.C,REF\u002A\u002A334*%
X73075000Y-94875000D03*
X73075000Y-93300000D03*
%TD*%
%TO.C,REF\u002A\u002A332*%
X67075000Y-91875000D03*
X67075000Y-90300000D03*
%TD*%
%TO.C,REF\u002A\u002A16*%
X73075000Y-43875000D03*
X73075000Y-42300000D03*
%TD*%
%TO.C,REF\u002A\u002A527*%
X58075000Y-121875000D03*
X58075000Y-120300000D03*
%TD*%
D22*
%TO.C,M4*%
X112475000Y-138437500D03*
D23*
X112475000Y-138437500D03*
%TD*%
D10*
%TO.C,REF\u002A\u002A328*%
X61075000Y-91875000D03*
X61075000Y-90300000D03*
%TD*%
%TO.C,REF\u002A\u002A553*%
X100075000Y-124875000D03*
X100075000Y-123300000D03*
%TD*%
%TO.C,REF\u002A\u002A207*%
X58075000Y-73875000D03*
X58075000Y-72300000D03*
%TD*%
%TO.C,REF\u002A\u002A292*%
X67075000Y-85875000D03*
X67075000Y-84300000D03*
%TD*%
%TO.C,REF\u002A\u002A4*%
X55075000Y-43875000D03*
X55075000Y-42300000D03*
%TD*%
%TO.C,REF\u002A\u002A456*%
X73075000Y-109875000D03*
X73075000Y-108300000D03*
%TD*%
%TO.C,REF\u002A\u002A200*%
X109075000Y-67875000D03*
X109075000Y-66300000D03*
%TD*%
%TO.C,REF\u002A\u002A364*%
X55075000Y-97875000D03*
X55075000Y-96300000D03*
%TD*%
D30*
%TO.C,U3*%
X86425001Y-135898500D03*
X86825001Y-135898500D03*
X87225000Y-135898500D03*
X87624999Y-135898500D03*
X88025001Y-135898500D03*
X88425000Y-135898500D03*
X88824999Y-135898500D03*
X89225001Y-135898500D03*
X89625000Y-135898500D03*
X90024999Y-135898500D03*
X90425001Y-135898500D03*
X90825000Y-135898500D03*
X91224999Y-135898500D03*
X91624999Y-135898500D03*
X92025000Y-135898500D03*
X92424999Y-135898500D03*
X92824999Y-135898500D03*
D31*
X93498500Y-135224999D03*
X93498500Y-134824999D03*
X93498500Y-134425000D03*
X93498500Y-134024999D03*
X93498500Y-133624999D03*
X93498500Y-133225000D03*
X93498500Y-132825001D03*
X93498500Y-132424999D03*
X93498500Y-132025000D03*
X93498500Y-131625001D03*
X93498500Y-131224999D03*
X93498500Y-130825000D03*
X93498500Y-130425001D03*
X93498500Y-130025001D03*
X93498500Y-129625000D03*
X93498500Y-129225001D03*
X93498500Y-128825001D03*
D30*
X92824999Y-128151500D03*
X92424999Y-128151500D03*
X92025000Y-128151500D03*
X91624999Y-128151500D03*
X91224999Y-128151500D03*
X90825000Y-128151500D03*
X90425001Y-128151500D03*
X90024999Y-128151500D03*
X89625000Y-128151500D03*
X89225001Y-128151500D03*
X88824999Y-128151500D03*
X88425000Y-128151500D03*
X88025001Y-128151500D03*
X87625001Y-128151500D03*
X87225000Y-128151500D03*
X86825001Y-128151500D03*
X86425001Y-128151500D03*
D31*
X85751500Y-128825001D03*
X85751500Y-129225001D03*
X85751500Y-129625000D03*
X85751500Y-130025001D03*
X85751500Y-130425001D03*
X85751500Y-130825000D03*
X85751500Y-131224999D03*
X85751500Y-131625001D03*
X85751500Y-132025000D03*
X85751500Y-132424999D03*
X85751500Y-132825001D03*
X85751500Y-133225000D03*
X85751500Y-133624999D03*
X85751500Y-134024999D03*
X85751500Y-134425000D03*
X85751500Y-134824999D03*
X85751500Y-135224999D03*
D32*
X89625000Y-132025000D03*
%TD*%
D10*
%TO.C,REF\u002A\u002A532*%
X67075000Y-121875000D03*
X67075000Y-120300000D03*
%TD*%
%TO.C,REF\u002A\u002A215*%
X70075000Y-73875000D03*
X70075000Y-72300000D03*
%TD*%
%TO.C,REF\u002A\u002A223*%
X82075000Y-73875000D03*
X82075000Y-72300000D03*
%TD*%
%TO.C,REF\u002A\u002A267*%
X88075000Y-79875000D03*
X88075000Y-78300000D03*
%TD*%
%TO.C,REF\u002A\u002A385*%
X88075000Y-100875000D03*
X88075000Y-99300000D03*
%TD*%
%TO.C,REF\u002A\u002A273*%
X100075000Y-82875000D03*
X100075000Y-81300000D03*
%TD*%
%TO.C,REF\u002A\u002A359*%
X106075000Y-91875000D03*
X106075000Y-90300000D03*
%TD*%
%TO.C,REF\u002A\u002A259*%
X76075000Y-79875000D03*
X76075000Y-78300000D03*
%TD*%
%TO.C,REF\u002A\u002A548*%
X91075000Y-121875000D03*
X91075000Y-120300000D03*
%TD*%
%TO.C,REF\u002A\u002A216*%
X73075000Y-73875000D03*
X73075000Y-72300000D03*
%TD*%
%TO.C,REF\u002A\u002A281*%
X52075000Y-88875000D03*
X52075000Y-87300000D03*
%TD*%
%TO.C,REF\u002A\u002A543*%
X82075000Y-121875000D03*
X82075000Y-120300000D03*
%TD*%
%TO.C,REF\u002A\u002A286*%
X61075000Y-88875000D03*
X61075000Y-87300000D03*
%TD*%
%TO.C,REF\u002A\u002A480*%
X109075000Y-109875000D03*
X109075000Y-108300000D03*
%TD*%
%TO.C,REF\u002A\u002A402*%
X55075000Y-106875000D03*
X55075000Y-105300000D03*
%TD*%
%TO.C,REF\u002A\u002A345*%
X88075000Y-94875000D03*
X88075000Y-93300000D03*
%TD*%
%TO.C,REF\u002A\u002A544*%
X85075000Y-121875000D03*
X85075000Y-120300000D03*
%TD*%
%TO.C,REF\u002A\u002A258*%
X79075000Y-82875000D03*
X79075000Y-81300000D03*
%TD*%
%TO.C,REF\u002A\u002A494*%
X73075000Y-118875000D03*
X73075000Y-117300000D03*
%TD*%
%TO.C,REF\u002A\u002A113*%
X100075000Y-58875000D03*
X100075000Y-57300000D03*
%TD*%
M02*
