P2
20 28
255
29 41 47 50 52 54 54 58 52 50 56 56 63 67 60 31 28 27 25 23
30 43 48 51 51 54 55 58 53 50 58 60 65 67 63 30 23 29 36 46
29 42 46 49 50 51 52 55 51 50 64 64 66 69 67 46 69 79 84 87
34 44 47 49 52 53 55 59 50 50 66 64 65 70 66 56 97 89 87 86
46 51 51 52 55 55 57 60 51 52 67 65 68 71 67 55 94 90 89 90
48 51 51 55 56 57 57 60 52 55 65 62 71 71 67 55 96 93 91 92
51 53 53 55 57 57 57 60 53 53 38 49 69 71 67 57 97 96 93 96
52 54 55 55 57 57 59 61 56 42 29 40 61 75 67 59 99 95 97 99
53 55 56 57 59 61 62 65 58 36 37 89 72 78 68 60 101 98 101 104
56 57 57 57 62 64 65 67 60 33 91 151 77 79 70 62 105 103 108 110
56 57 57 58 64 66 68 71 64 37 95 142 81 79 73 65 111 108 112 114
57 58 61 63 67 70 72 75 64 58 69 79 89 84 75 67 114 109 116 117
58 62 65 64 70 73 75 78 65 69 85 111 99 85 79 71 120 113 119 122
59 65 67 67 73 76 77 79 66 63 93 124 95 87 80 75 125 117 125 128
61 66 70 69 75 79 78 80 71 47 67 82 95 93 81 77 128 119 128 130
64 69 72 71 76 74 74 78 71 42 51 77 71 96 86 78 133 120 129 134
66 72 75 73 78 95 101 56 47 47 53 93 64 71 88 81 137 126 134 135
67 72 76 75 80 178 163 54 51 42 61 108 77 54 76 85 140 128 134 136
67 74 78 76 81 86 123 78 57 43 59 104 80 51 69 88 143 129 139 142
69 74 78 76 78 109 123 78 46 44 55 125 98 47 65 91 146 134 142 142
69 75 78 78 73 96 68 47 32 37 57 115 105 43 57 92 148 135 141 142
71 77 78 78 78 83 45 24 28 32 55 109 98 43 51 94 151 136 144 146
73 78 78 78 78 84 71 31 25 29 45 100 92 40 48 96 154 136 147 148
74 78 78 78 80 82 88 74 35 41 49 95 82 39 47 94 156 136 147 148
75 78 78 79 82 85 87 80 87 109 101 113 73 38 44 93 157 138 147 149
76 78 78 79 83 84 87 83 34 33 34 78 74 36 41 91 157 138 147 149
76 78 77 77 83 85 86 85 33 29 32 71 71 33 37 88 158 139 149 150
75 78 81 85 84 85 87 85 39 39 33 65 63 34 34 78 150 134 142 141
