P2
20 28
255
47 54 56 56 59 45 48 68 68 69 68 69 67 70 53 70 118 105 91 85
50 56 56 56 59 46 48 69 70 71 68 52 63 72 53 72 118 107 98 86
53 57 58 56 60 47 49 70 71 74 50 22 43 71 53 74 121 106 100 91
55 58 61 58 62 47 51 71 71 73 32 22 26 60 55 77 124 110 103 95
57 59 62 62 65 49 51 72 75 63 38 99 40 44 55 80 126 113 107 97
58 62 64 63 69 51 52 72 81 52 39 159 145 64 51 84 129 116 110 99
61 64 67 66 72 54 53 74 81 62 56 161 157 87 51 88 134 120 114 106
62 66 70 69 75 55 53 80 80 93 98 129 148 82 54 91 139 123 116 109
65 68 73 70 77 56 54 82 77 119 129 63 95 84 57 95 143 124 118 112
67 69 76 73 80 58 56 83 81 107 134 133 72 72 63 99 147 129 121 116
69 72 77 75 81 59 58 86 83 93 111 152 119 84 63 103 152 133 125 118
72 75 77 76 81 58 60 91 86 88 123 124 91 93 63 107 155 134 129 124
73 76 77 76 82 60 60 80 68 66 112 93 80 96 62 110 159 138 132 125
75 77 77 78 82 62 41 50 61 56 97 76 82 97 63 113 164 137 132 128
76 77 77 73 84 62 34 46 57 49 75 84 80 96 64 117 167 139 134 130
76 78 74 120 189 88 60 69 51 52 72 54 63 96 62 119 169 140 135 132
77 77 78 183 215 98 63 64 47 49 87 87 36 83 65 121 173 142 136 133
77 73 99 148 121 136 69 55 42 53 51 80 41 54 63 125 175 142 139 135
77 77 81 75 110 138 69 46 40 53 51 85 55 46 43 129 177 144 140 137
77 79 76 96 139 80 52 33 41 48 57 109 59 46 38 132 178 145 141 140
77 78 80 84 67 29 34 28 30 50 56 130 75 46 41 135 178 147 145 141
77 79 82 85 66 24 22 18 25 29 39 125 80 40 41 135 176 148 152 140
77 80 84 84 88 43 59 82 83 70 76 129 112 70 35 136 176 145 147 143
77 78 83 83 90 67 52 77 80 88 79 126 106 66 31 137 175 143 148 145
77 79 83 83 89 69 19 15 76 108 91 131 73 38 34 135 173 143 141 141
76 78 82 83 90 70 25 27 27 35 32 90 74 37 32 135 173 143 142 140
76 79 82 82 89 69 24 25 24 29 30 74 70 32 33 139 175 144 142 139
75 78 85 88 89 69 28 28 28 39 31 64 59 35 36 133 166 138 135 131
