P2
20 28
255
38 46 49 50 53 54 55 56 57 41 55 65 67 68 71 56 72 102 86 83
42 48 50 53 54 55 57 56 58 42 57 66 68 69 72 56 72 117 90 85
46 51 52 53 54 56 57 57 58 43 58 71 71 68 72 56 77 115 94 91
49 53 53 54 55 57 57 59 60 44 60 36 48 72 71 56 80 113 97 97
51 54 54 55 57 58 60 63 63 46 56 42 29 66 77 55 83 112 97 99
54 55 56 57 58 62 63 65 67 45 66 151 72 52 85 56 84 124 104 103
55 57 57 57 60 64 66 68 71 49 71 155 76 52 87 58 89 131 109 107
56 57 58 60 63 67 70 71 74 53 70 91 53 58 88 60 94 125 111 113
56 60 63 64 65 71 72 74 78 50 99 126 74 77 89 63 98 130 115 117
57 61 66 66 67 73 75 76 78 57 78 112 111 88 88 66 101 150 122 122
59 63 68 68 69 76 77 77 79 57 82 86 81 88 90 67 109 143 127 127
61 65 70 69 71 77 77 77 80 57 91 88 72 88 94 68 111 140 127 129
64 67 73 73 74 77 77 78 81 56 66 85 85 73 102 70 114 141 130 131
64 68 74 75 75 78 78 79 82 49 61 148 77 45 99 74 117 142 131 135
65 69 76 76 77 78 77 81 70 42 61 123 68 39 68 75 120 144 134 137
66 70 76 77 77 77 77 82 65 44 70 134 52 47 53 66 126 146 137 142
68 72 77 77 77 77 78 83 59 42 81 121 46 46 48 63 129 150 143 142
69 74 77 77 78 78 78 84 52 40 83 98 41 42 44 61 132 152 150 142
71 76 78 77 77 79 79 84 48 40 83 75 41 37 42 55 136 156 150 147
73 76 78 77 78 79 80 85 44 39 75 54 39 33 41 51 139 153 145 149
72 78 78 78 79 80 82 84 38 37 75 45 35 30 39 48 142 156 147 149
74 78 78 78 79 81 83 82 35 35 77 42 33 30 41 46 144 157 147 149
75 78 78 79 79 81 83 80 28 32 73 35 33 29 41 43 145 157 147 149
78 78 79 80 80 82 84 77 36 47 75 39 33 27 40 40 147 158 147 150
84 77 79 82 83 82 86 72 83 111 115 80 29 27 39 40 147 159 147 150
81 78 80 83 82 82 86 70 27 44 60 35 35 28 35 40 145 155 147 149
81 78 80 80 83 81 86 65 24 44 62 36 34 30 38 41 144 168 149 148
78 78 83 86 83 83 86 66 29 55 66 37 35 31 38 39 134 165 142 139
