P2
20 28
255
47 54 56 56 58 41 58 68 69 68 67 67 66 71 45 93 120 109 89 84
50 55 56 56 58 41 57 69 71 69 68 64 66 71 45 95 118 106 94 86
53 57 57 56 59 42 58 71 71 72 63 29 44 73 46 97 119 105 98 91
56 59 59 58 61 43 60 71 71 76 43 17 28 62 48 99 122 107 99 95
56 59 62 61 63 43 60 72 73 73 40 76 29 41 49 103 123 109 102 97
58 62 64 63 67 45 61 73 80 65 40 157 126 48 45 109 126 112 106 99
59 65 66 66 70 46 62 75 82 67 52 156 161 79 42 114 130 115 109 105
62 67 70 68 73 47 63 80 79 86 93 137 148 75 47 119 134 117 112 108
65 69 72 70 77 47 65 82 77 107 121 64 109 76 50 123 139 119 114 110
67 70 74 73 79 49 67 83 80 104 135 127 62 65 57 127 143 124 116 114
69 73 76 75 80 50 69 86 84 88 112 156 100 74 59 131 147 128 121 118
71 75 77 76 80 50 72 89 87 88 120 120 92 88 58 136 149 130 126 123
73 76 77 76 80 51 74 87 80 74 107 75 77 92 58 141 151 132 127 128
75 77 77 78 83 54 63 62 55 61 105 74 75 92 57 145 156 136 128 128
77 77 78 76 73 51 39 47 54 51 93 86 77 91 59 150 159 138 132 130
77 78 75 91 148 72 52 61 48 52 80 65 67 89 58 152 162 139 134 133
77 79 71 147 218 106 59 61 45 50 96 84 42 76 62 154 164 141 135 134
77 77 79 136 118 121 63 50 43 50 61 91 45 51 58 158 167 142 137 136
77 77 80 86 106 147 67 41 42 50 52 94 60 42 51 164 168 143 139 138
77 78 81 72 141 102 51 33 44 48 60 125 60 43 55 163 167 143 140 141
77 78 81 81 71 39 33 28 39 54 58 140 70 45 48 148 169 143 141 141
77 80 81 88 57 22 21 19 25 40 45 140 69 42 46 140 170 142 140 142
77 81 83 84 80 32 61 83 83 69 81 139 107 69 39 137 169 142 139 142
77 79 82 83 89 51 51 76 84 85 83 138 96 70 33 125 170 141 141 143
78 80 83 83 88 57 21 15 78 109 96 130 56 43 33 121 171 142 140 142
77 79 82 84 88 59 31 26 28 36 42 105 59 43 29 118 171 142 140 141
76 80 81 82 88 59 30 24 24 29 36 95 54 38 31 117 174 144 141 140
75 79 84 88 88 59 34 27 28 38 35 78 45 40 36 103 164 138 133 131
