P2
20 28
255
45 51 55 55 56 56 57 54 39 66 67 68 70 69 67 66 61 40 81 81
46 53 55 56 56 56 57 55 41 65 69 67 65 70 67 68 61 41 83 81
48 55 56 56 57 56 58 55 41 66 69 33 32 62 68 68 61 41 86 83
51 56 56 56 58 57 58 56 41 69 55 20 38 47 68 68 61 42 89 83
53 56 57 57 60 61 62 58 42 71 46 44 35 33 62 71 63 43 91 86
54 57 60 61 62 63 64 59 43 69 43 123 134 80 57 76 64 44 94 89
55 58 62 63 64 64 65 63 44 69 36 121 173 117 60 81 65 46 97 94
56 60 65 64 66 66 68 66 45 72 62 138 165 101 64 83 67 47 100 96
56 61 66 66 70 69 71 68 44 78 92 68 123 101 66 84 69 48 105 97
61 64 69 69 72 71 73 71 43 84 120 90 70 55 82 86 71 50 109 102
61 66 72 69 74 74 76 73 46 81 105 132 127 75 84 88 74 51 114 104
61 67 73 72 76 76 77 73 48 79 93 130 130 99 86 88 76 53 117 109
64 70 75 75 78 76 78 73 49 83 91 94 90 97 89 89 78 56 121 113
64 71 77 77 77 77 79 73 51 81 80 78 78 93 91 91 80 58 123 114
66 73 77 77 77 77 79 73 48 58 81 94 79 91 96 94 80 60 126 116
68 74 77 77 78 77 80 77 54 49 90 76 76 72 97 96 81 60 130 118
69 75 77 77 78 78 79 74 59 44 98 75 86 47 84 102 83 62 133 120
71 76 78 77 78 80 68 63 56 45 91 121 108 45 57 92 86 62 136 123
71 76 77 77 78 81 52 56 52 40 88 82 110 54 53 65 84 65 138 125
71 77 78 78 78 81 50 48 53 47 76 96 116 53 54 55 68 68 139 126
71 77 77 77 80 82 57 48 52 50 72 111 138 47 52 52 62 69 141 127
72 77 78 78 81 81 45 30 39 43 61 94 138 50 53 50 57 70 142 128
74 77 77 78 84 75 76 87 83 78 89 121 146 75 50 48 51 70 144 129
75 78 79 79 86 68 66 84 84 86 88 120 133 74 50 40 46 71 145 128
74 78 79 80 86 61 35 28 80 109 102 114 105 49 49 35 48 71 145 128
74 78 79 80 88 56 30 35 36 41 52 87 98 48 47 35 47 69 144 125
73 78 79 80 84 48 38 36 27 34 50 74 78 46 42 36 40 67 145 124
73 77 81 88 82 54 37 33 31 42 45 70 57 46 40 35 38 66 137 117
