P2
20 28
255
46 51 55 56 56 56 56 59 41 58 69 69 52 60 67 67 66 40 66 89
46 53 56 56 56 57 57 59 42 57 73 53 23 45 66 68 66 41 68 90
48 55 56 56 57 59 57 61 42 59 72 32 21 33 53 70 67 41 71 89
52 56 56 58 59 61 60 63 43 62 65 37 83 41 39 70 69 41 74 93
53 57 59 61 62 63 63 64 43 65 55 41 149 153 75 64 72 42 77 95
55 57 62 63 64 65 64 68 45 66 56 43 145 167 99 68 74 43 81 100
55 58 64 64 66 67 67 72 47 63 80 85 143 162 89 72 76 43 84 106
56 61 65 66 69 70 69 74 48 62 102 109 58 109 90 76 79 45 87 109
59 64 68 70 71 72 71 76 49 64 111 132 111 72 62 88 80 46 91 108
60 64 70 71 72 75 74 79 49 67 89 110 146 129 78 87 83 47 95 111
61 65 72 72 75 77 76 80 50 71 88 113 131 116 90 86 85 48 98 125
63 68 74 75 76 77 77 80 51 74 77 98 93 87 93 88 87 50 102 123
65 69 76 77 77 77 77 80 52 55 67 88 81 82 94 90 89 50 105 122
67 71 77 77 77 77 78 81 67 52 65 88 94 85 96 93 90 51 109 125
69 72 77 77 77 77 79 75 72 51 63 89 63 77 95 95 93 53 112 126
70 73 77 77 78 80 73 55 64 55 55 109 77 54 77 100 93 53 115 127
71 75 77 77 78 82 66 39 58 50 49 111 114 57 47 92 97 53 117 130
71 75 78 77 77 81 67 47 51 51 52 75 81 70 42 66 99 54 119 132
71 75 77 77 78 81 68 51 49 55 54 76 103 76 45 54 86 57 121 132
72 76 78 78 78 82 68 53 42 46 56 66 129 82 43 50 78 59 123 134
73 77 77 78 80 83 64 54 45 40 56 51 132 101 43 49 74 59 125 136
74 77 77 78 82 81 48 44 30 34 44 44 124 106 44 50 72 60 126 136
75 78 78 80 83 81 82 94 81 75 82 94 132 106 48 44 66 60 127 137
75 77 78 80 83 82 80 93 84 82 81 97 125 102 46 37 63 62 128 136
75 78 79 81 85 77 50 52 85 102 98 85 104 88 43 35 62 61 127 134
75 78 80 81 86 66 53 54 32 40 43 53 105 82 39 34 61 59 127 132
73 78 79 80 86 66 50 51 26 37 33 46 100 76 36 31 57 58 127 130
71 77 82 86 87 67 43 50 34 31 28 43 93 69 34 30 57 59 121 122
