P2
20 28
255
48 54 56 54 39 65 68 69 67 66 68 68 66 46 108 128 122 101 89 85
51 56 57 54 39 64 69 71 67 67 67 65 69 46 113 121 123 104 94 88
54 57 57 54 39 65 71 71 70 72 43 28 58 49 114 122 121 109 98 94
56 57 57 55 41 66 71 71 74 65 25 21 33 48 114 121 119 112 99 96
57 58 61 57 41 69 73 72 80 49 66 100 25 38 121 124 119 113 104 99
60 61 63 60 42 70 74 76 82 33 80 179 99 34 126 130 122 114 109 103
61 64 66 64 43 70 75 78 83 46 102 175 122 42 128 130 125 118 112 107
63 66 70 66 43 71 77 78 82 100 99 127 117 43 134 137 129 123 114 110
67 69 72 70 44 74 80 79 85 135 115 79 83 50 137 140 134 126 118 113
70 71 74 72 44 76 80 82 85 116 145 133 48 57 141 142 136 129 121 117
72 74 76 74 46 77 84 87 83 98 144 142 82 58 147 146 140 132 127 122
75 76 77 74 47 81 87 86 84 97 142 96 84 62 151 153 143 135 130 128
76 76 77 74 48 83 87 89 89 95 106 87 83 63 155 155 146 137 131 129
77 77 78 75 49 85 92 84 70 111 102 80 75 61 160 159 149 139 134 131
77 77 80 75 49 83 77 57 54 135 78 75 74 60 162 163 152 140 135 132
77 77 80 76 49 60 55 54 50 147 81 63 76 61 166 165 155 142 136 133
77 78 80 79 43 45 57 52 46 149 130 73 47 66 169 169 156 143 138 135
77 78 82 81 43 43 54 51 49 133 89 78 34 63 173 169 158 145 142 137
77 78 82 83 43 47 48 51 51 126 99 92 42 59 163 171 158 146 143 141
77 79 82 83 49 41 53 56 49 128 122 112 43 43 106 175 156 147 143 142
77 79 83 84 48 58 146 109 50 116 111 135 44 45 76 170 157 149 144 142
78 79 84 83 31 91 154 53 39 115 105 135 38 42 73 169 158 151 146 143
78 81 84 83 34 110 155 103 81 128 123 141 92 65 68 172 160 151 147 143
79 81 84 80 46 91 111 94 82 126 119 131 85 64 61 171 160 157 150 143
78 81 85 79 69 55 29 26 82 132 125 115 39 38 60 169 162 154 150 144
78 81 87 73 95 59 23 40 37 93 86 104 46 38 58 169 163 153 150 143
76 80 86 68 117 66 23 30 27 93 82 88 42 34 56 171 166 155 151 143
76 79 86 74 108 73 25 29 26 105 85 69 39 40 47 154 159 148 142 134
