P2
20 28
255
47 53 56 56 56 56 56 41 62 67 71 53 54 68 68 69 44 87 99 90
48 55 56 56 56 57 57 41 63 72 60 24 38 63 68 68 44 90 100 92
51 57 56 59 59 58 58 42 64 73 42 19 35 48 69 69 45 93 99 92
55 58 57 60 62 62 60 43 66 71 33 60 37 29 69 69 47 96 100 96
56 59 61 63 63 64 64 43 69 63 26 124 138 73 67 72 47 99 107 103
57 62 63 65 65 66 67 44 69 68 30 116 164 115 70 77 49 103 116 111
58 64 64 67 68 69 69 45 68 85 75 137 161 102 72 79 50 108 115 112
59 67 67 70 71 71 72 46 69 98 116 68 105 106 77 79 52 113 115 111
61 70 69 72 73 73 75 47 71 100 138 102 72 63 89 81 54 118 113 111
64 71 70 74 76 76 77 48 76 87 109 128 132 77 88 83 57 120 129 123
67 72 73 76 77 77 77 49 79 88 106 129 132 93 87 84 60 122 144 132
69 75 76 77 77 78 76 53 79 65 94 105 82 93 89 85 61 130 127 129
70 76 77 77 77 79 77 64 71 52 78 82 79 93 92 88 61 134 129 131
72 77 77 78 77 82 62 29 64 51 62 94 80 96 96 89 63 137 128 129
73 77 77 75 78 82 58 51 56 51 56 72 61 86 100 91 65 141 130 130
74 78 72 108 194 123 65 77 56 47 69 86 52 53 101 94 66 144 132 132
75 78 73 164 222 127 63 73 48 48 55 85 68 33 77 98 67 146 132 135
76 76 84 137 110 143 83 62 43 51 50 64 76 41 55 88 71 148 134 135
75 78 77 77 104 149 86 52 40 50 53 84 85 43 49 76 73 151 134 135
75 78 76 81 147 94 62 38 36 48 51 100 103 41 49 71 75 152 137 137
76 78 77 82 79 35 38 30 26 43 55 101 127 41 49 69 76 154 136 147
76 78 78 85 73 26 21 17 24 24 32 84 124 39 48 67 76 155 135 151
77 78 79 82 89 50 62 82 80 72 72 114 137 72 40 61 78 156 137 144
77 78 80 84 85 86 75 72 78 85 82 109 135 68 36 58 78 156 138 141
77 79 80 84 84 92 50 11 77 105 95 102 107 37 35 57 77 154 136 136
76 79 81 84 84 91 55 22 29 31 31 63 106 36 32 53 76 154 136 134
75 78 80 84 83 90 53 21 25 27 32 52 98 32 31 55 76 155 136 132
74 78 83 89 84 90 54 24 29 39 34 46 73 36 30 48 73 148 127 125
