P2
20 28
255
98 97 61 30 46 50 49 51 54 55 55 55 44 51 68 68 66 57 51 38
103 101 78 34 49 50 51 53 55 57 56 56 45 51 68 69 66 58 52 40
89 95 75 36 52 52 53 54 56 58 57 58 46 55 71 70 67 59 52 41
95 101 77 37 55 53 53 54 57 59 59 58 47 35 64 72 68 60 52 43
92 98 77 38 55 53 54 56 59 62 61 60 40 21 41 74 69 63 53 44
88 94 76 40 58 55 56 57 62 66 66 57 73 123 52 71 71 64 54 46
86 91 72 41 59 56 56 57 65 67 69 59 94 158 59 72 73 65 56 48
69 73 62 41 59 57 58 61 67 70 71 70 71 93 55 76 76 67 56 51
70 76 62 42 60 61 63 64 70 71 74 73 101 103 82 84 77 69 59 53
72 77 62 43 63 64 65 65 72 74 76 75 101 125 104 84 81 72 60 56
72 78 61 45 66 65 69 67 75 77 77 76 80 90 86 86 85 75 63 59
73 82 64 44 68 69 70 70 76 78 77 78 80 79 80 91 85 77 65 61
67 77 64 45 70 71 73 72 77 77 79 75 72 89 76 78 90 79 67 63
71 80 63 46 72 72 75 74 77 78 79 50 79 143 61 46 85 84 68 65
69 78 65 47 72 74 77 76 77 79 62 43 71 112 56 40 59 85 69 66
77 86 69 48 73 75 77 76 77 79 53 46 74 122 48 45 47 83 71 68
89 90 77 49 76 76 77 75 78 76 41 56 80 107 46 44 43 84 72 70
143 117 112 50 78 77 77 76 79 70 47 97 79 90 43 39 39 81 72 72
151 109 99 53 79 77 77 77 81 63 67 126 84 74 42 35 37 78 74 73
118 35 22 60 79 77 77 77 81 57 83 83 79 60 38 32 35 75 75 74
38 24 30 55 79 77 78 79 78 61 96 35 74 53 35 31 34 74 76 74
28 32 38 61 79 77 73 74 64 41 66 20 63 43 35 31 34 71 77 76
26 33 34 61 80 76 98 114 99 68 78 79 103 65 30 31 32 69 78 77
35 26 28 64 81 76 94 111 99 71 79 85 93 59 30 28 32 68 78 77
191 163 72 59 84 77 76 75 102 99 107 72 50 32 34 27 32 68 77 77
231 214 173 74 81 80 81 83 82 78 67 32 60 35 33 31 30 64 78 77
228 201 197 118 72 81 80 82 83 83 62 29 61 35 34 30 31 64 76 77
210 177 193 150 70 84 81 83 83 86 56 31 60 38 35 27 32 66 70 74
