P2
20 28
255
38 47 49 51 53 54 56 57 53 42 62 65 67 68 70 50 89 96 86 84
43 49 50 53 54 55 57 57 53 43 63 64 69 69 71 51 91 100 88 86
47 51 52 54 55 57 57 58 55 44 63 68 69 70 70 52 94 99 92 92
50 53 53 54 56 57 58 59 56 45 69 51 23 58 73 52 95 100 96 96
52 54 54 56 57 58 60 64 59 45 69 52 47 39 74 53 98 100 97 99
54 55 56 57 60 62 63 67 62 50 61 107 151 46 73 55 103 104 102 104
56 57 56 56 61 64 67 70 66 52 66 106 143 44 76 57 107 108 108 111
57 57 59 60 64 68 70 72 68 53 78 77 80 49 79 59 113 111 111 115
57 61 63 64 67 71 73 76 71 55 81 127 116 82 85 62 119 115 115 119
58 63 66 65 69 74 76 77 72 57 86 88 115 99 85 66 125 118 119 124
60 64 68 68 72 77 77 78 72 58 90 86 79 82 88 68 130 122 125 129
62 67 70 69 74 77 77 79 73 61 90 94 79 80 90 70 135 125 125 130
64 69 73 72 75 77 78 80 73 61 67 68 91 73 87 73 139 128 127 133
65 70 74 74 76 78 78 81 78 52 43 95 139 51 64 75 143 130 130 136
65 72 76 75 77 78 78 81 81 51 48 84 122 51 44 63 148 131 132 139
67 72 77 76 77 78 79 82 78 48 49 98 128 41 47 67 151 134 135 143
69 74 77 77 77 78 80 84 71 41 50 102 112 41 45 67 154 137 138 144
70 75 78 77 78 79 80 85 64 38 49 98 90 40 41 64 157 140 140 146
72 77 78 77 78 80 80 86 64 34 49 91 71 40 36 58 152 142 143 150
74 76 78 77 79 80 81 87 61 29 49 83 54 38 34 52 145 146 143 151
76 77 78 78 80 81 82 86 55 25 47 80 45 34 32 44 140 148 143 150
76 77 78 79 81 82 83 86 52 23 44 78 41 31 33 43 134 151 144 151
77 78 79 79 81 82 83 86 44 19 41 72 35 32 33 40 125 153 144 151
77 78 79 80 82 83 83 85 51 34 54 71 32 31 30 36 117 154 145 151
77 78 80 82 83 83 85 80 92 106 109 89 29 29 30 35 110 155 144 151
77 79 80 84 83 83 85 80 40 30 46 58 33 31 30 33 101 152 145 151
77 79 80 82 83 82 85 75 34 28 48 60 35 31 32 36 97 150 146 150
77 79 83 87 84 83 85 75 42 36 51 58 36 36 31 37 94 141 137 141
