P2
20 28
255
38 46 48 48 51 54 55 56 57 41 56 63 64 68 71 53 69 92 85 84
41 48 50 51 54 55 56 57 57 42 58 65 67 70 72 53 70 93 85 85
45 50 51 53 55 57 57 57 58 43 58 47 62 70 72 53 71 94 89 89
49 52 53 54 55 57 57 58 59 47 44 24 41 67 72 53 73 94 91 95
51 54 54 55 57 58 59 63 63 47 39 93 88 60 77 54 76 96 94 98
54 55 56 56 58 61 63 65 66 44 61 173 121 59 83 54 79 100 97 100
56 57 57 57 59 64 65 67 70 48 61 146 106 62 84 56 84 102 100 107
57 57 57 59 62 66 68 70 72 53 65 74 85 83 82 57 88 106 105 111
57 59 62 63 65 70 71 73 75 53 86 129 129 91 85 61 93 112 107 115
57 62 65 65 67 72 74 76 77 55 82 111 118 85 90 63 97 117 113 119
59 62 67 67 69 75 76 77 77 57 78 76 94 90 92 64 102 120 117 126
61 65 69 69 71 77 77 77 78 57 69 80 85 90 95 65 106 124 118 129
64 67 72 72 74 77 77 77 82 52 62 77 90 67 97 69 110 126 119 131
64 69 74 74 75 77 78 79 76 53 59 112 121 54 72 68 114 131 123 135
65 70 75 75 76 78 78 78 60 48 61 101 119 59 57 56 119 133 128 135
66 70 76 76 77 77 80 76 50 49 57 116 139 53 54 49 123 136 127 138
68 72 77 77 77 77 81 80 45 45 61 122 135 57 50 42 127 139 130 143
69 73 77 77 77 78 83 72 30 39 57 120 120 55 44 37 129 142 136 143
71 75 77 77 78 79 86 59 22 39 54 109 105 53 41 37 131 143 137 143
73 76 78 77 78 79 87 63 23 34 48 106 90 47 39 43 133 143 137 147
72 77 78 78 79 80 88 60 24 27 41 96 76 42 39 46 135 143 137 148
71 78 78 78 79 81 89 58 24 27 33 88 71 40 37 46 136 144 138 149
74 78 78 78 79 81 88 54 20 23 25 89 72 37 34 49 137 145 141 149
75 78 78 78 80 82 88 54 32 39 38 93 69 36 31 43 133 146 142 149
80 77 78 79 81 83 89 58 80 108 100 116 63 33 30 43 127 147 141 150
83 77 78 81 83 84 90 61 23 34 24 81 66 33 33 37 123 148 141 150
80 77 78 80 83 83 89 59 20 29 22 79 69 34 30 34 119 149 143 150
79 77 81 86 83 84 89 60 24 39 30 65 67 38 36 34 107 143 135 140
