P2
20 28
255
39 46 48 48 51 53 55 56 57 41 57 63 65 68 71 53 71 92 85 84
42 48 50 51 54 55 56 56 57 42 59 66 68 69 72 53 72 93 85 86
46 50 51 53 55 56 57 57 58 42 61 57 62 70 71 53 74 94 87 89
48 52 53 54 55 57 57 58 59 45 57 28 36 65 72 53 77 95 90 95
51 54 54 55 57 58 59 62 62 48 45 57 69 56 77 53 79 97 92 97
54 55 56 56 58 61 63 65 65 47 56 151 128 53 83 53 82 100 94 100
56 57 56 56 60 64 65 67 69 50 62 152 118 53 86 54 86 102 98 107
57 57 58 59 63 66 68 71 72 53 64 79 85 74 84 57 90 106 104 112
57 59 62 63 65 70 71 73 75 53 78 113 119 96 85 61 96 111 107 115
57 62 65 65 67 72 74 76 77 55 82 120 128 91 88 63 100 116 112 118
60 63 67 67 69 75 76 76 77 56 83 81 100 88 91 65 104 121 114 123
62 65 69 69 71 77 77 77 78 58 77 80 84 91 95 66 109 124 117 128
64 67 72 72 74 77 77 78 80 54 61 73 87 72 96 69 113 127 119 129
64 69 74 74 75 77 78 79 79 55 53 101 125 58 69 68 117 131 122 133
65 70 75 75 76 78 78 81 65 49 56 98 124 64 54 51 122 134 127 134
66 71 77 76 77 77 78 82 60 48 55 105 140 54 52 43 126 137 128 138
68 72 77 77 77 78 80 83 52 44 59 118 141 56 50 41 130 139 130 142
69 74 78 77 78 78 82 78 35 39 55 117 123 54 45 40 134 141 135 142
71 76 77 77 77 79 85 76 27 38 54 108 105 52 41 42 136 142 137 142
73 76 78 77 78 80 84 77 28 32 52 106 86 47 39 47 138 141 136 145
73 77 78 78 79 81 86 74 28 26 45 100 71 41 35 45 137 142 137 147
73 78 78 78 80 81 88 70 26 26 37 88 65 38 36 42 129 145 138 147
75 78 78 78 80 82 87 67 22 23 29 86 65 36 36 41 119 148 138 148
76 78 78 78 80 83 87 68 34 37 41 88 60 35 32 35 109 150 139 149
82 77 78 79 81 83 88 68 81 106 101 111 54 33 31 39 103 150 140 149
83 77 78 81 82 83 88 69 25 33 26 81 55 33 32 31 98 150 140 148
80 77 78 80 83 83 88 65 21 30 26 72 58 34 30 31 93 151 142 149
79 78 82 86 83 83 89 65 24 39 32 62 57 38 32 31 84 143 134 140
