P2
20 28
255
48 53 58 48 42 68 67 68 67 66 67 69 60 55 119 115 116 101 88 85
51 55 58 49 42 67 68 70 67 68 68 70 61 56 122 118 115 104 94 87
54 57 59 49 42 68 70 71 70 69 36 42 60 57 123 119 117 106 97 92
56 57 59 50 43 69 71 71 75 54 18 26 44 61 123 119 118 109 101 96
57 58 61 52 46 71 71 73 76 46 88 49 20 60 127 123 119 112 105 99
59 61 64 54 46 72 73 76 73 36 146 153 43 54 133 127 121 114 108 104
62 63 67 57 46 72 74 79 73 51 152 165 72 55 137 127 124 118 112 106
64 66 71 59 46 74 77 78 85 93 111 153 65 59 143 134 128 121 115 110
68 68 73 62 46 78 80 76 96 130 76 98 59 64 146 138 131 124 119 115
70 70 76 64 47 80 79 80 96 130 147 75 40 75 148 141 135 128 122 117
72 72 78 66 49 81 83 86 83 119 154 110 57 76 153 142 139 131 128 123
74 75 79 67 51 85 86 86 82 121 113 91 72 78 158 147 142 134 130 129
76 76 79 67 51 88 86 88 89 100 86 87 73 81 165 153 146 137 132 129
77 76 80 68 52 90 92 81 85 111 89 76 70 81 169 156 149 139 134 130
77 77 81 68 53 88 78 49 89 117 80 75 67 82 173 159 152 140 136 133
77 77 82 69 48 62 55 46 90 133 50 78 64 83 177 161 156 142 138 133
77 77 82 72 40 54 56 45 87 158 103 62 44 86 180 165 156 144 139 135
77 78 83 74 36 51 54 42 96 128 88 72 30 91 183 166 159 144 143 139
77 78 84 75 40 50 52 47 91 123 100 85 38 77 173 170 160 147 143 143
77 79 84 79 32 42 53 46 97 137 131 81 46 45 118 176 157 149 144 142
78 79 84 77 58 42 52 45 98 119 141 93 44 45 89 175 158 152 146 142
78 80 80 98 141 43 43 35 90 116 138 90 37 40 86 174 159 153 148 143
78 82 78 120 124 37 71 91 115 122 137 116 90 63 83 176 159 153 150 145
78 82 79 114 134 77 50 84 111 119 134 110 83 60 72 175 160 156 151 145
78 81 82 86 89 59 20 34 104 133 137 96 39 32 76 176 162 155 151 144
78 80 88 60 38 25 36 39 80 103 109 68 46 36 70 175 163 154 151 143
77 81 87 60 57 27 30 32 78 100 95 60 42 31 69 179 166 156 152 143
76 79 85 89 80 27 30 27 79 111 82 50 38 34 61 164 158 150 144 134
