P2
20 28
255
93 70 31 45 49 49 51 53 54 56 56 47 46 66 68 68 66 57 42 78
96 85 36 47 50 51 54 55 56 57 57 47 47 66 68 70 67 58 43 81
91 82 37 50 52 53 54 56 57 57 59 49 48 71 70 70 68 58 44 85
96 85 38 53 54 54 54 56 57 59 59 50 45 37 59 72 68 59 45 88
96 85 39 55 54 54 55 57 60 63 61 52 35 32 38 73 70 60 46 89
92 82 39 56 56 56 56 60 64 65 66 51 48 147 79 66 72 61 47 91
88 79 40 59 56 56 56 62 66 67 70 54 51 157 92 67 75 63 49 97
71 66 40 58 57 57 59 65 69 70 72 62 63 89 67 74 76 63 50 103
72 67 39 59 61 62 63 68 70 72 75 65 96 122 81 81 78 65 53 108
74 67 41 61 64 65 64 70 73 76 79 64 79 118 102 84 81 67 57 110
75 66 42 64 65 68 67 73 76 77 80 66 69 89 85 88 85 70 59 118
79 71 42 67 68 70 69 74 77 77 80 59 62 86 78 90 86 73 62 124
73 70 43 68 70 73 71 76 77 79 49 44 81 84 77 87 89 75 64 125
77 69 43 71 71 75 74 76 78 78 47 118 114 117 74 60 95 77 65 127
75 70 45 71 73 76 75 77 79 69 79 149 90 105 74 36 75 81 66 132
84 74 46 72 74 77 76 76 79 69 57 84 91 123 71 37 55 81 68 133
86 81 46 74 76 77 77 76 79 71 30 44 46 118 71 37 51 80 70 136
109 116 52 75 76 78 77 77 78 76 29 26 44 107 62 36 44 79 70 139
111 115 53 76 77 77 77 77 77 84 44 23 39 90 54 33 39 78 73 141
43 24 53 79 77 77 77 77 78 86 53 22 37 74 45 31 36 76 75 142
24 27 50 79 77 77 78 79 80 87 56 22 37 64 39 29 34 72 77 144
32 36 55 78 77 78 74 73 75 84 52 13 27 51 36 29 32 68 78 145
34 33 55 79 78 76 99 114 110 106 92 77 85 69 31 30 31 66 79 145
21 25 58 80 78 77 94 109 109 109 93 82 75 63 29 27 28 61 82 145
147 73 54 85 77 80 77 75 110 125 103 71 26 36 30 26 28 56 82 146
210 176 75 81 80 80 82 83 85 81 41 33 37 40 32 29 27 52 81 145
199 199 129 70 81 79 81 82 85 69 35 29 40 45 33 28 27 44 80 145
171 185 157 75 83 80 83 83 86 68 32 31 43 52 34 29 26 42 76 139
