P2
20 28
255
40 48 49 51 54 55 56 58 52 43 63 65 67 69 70 51 91 95 86 85
44 50 51 53 55 55 56 58 53 43 64 65 71 70 70 52 92 95 88 87
48 51 53 54 55 57 57 58 54 44 64 68 58 67 70 53 96 95 92 94
51 53 53 55 56 57 59 60 55 45 71 50 14 42 73 53 97 95 95 97
53 54 55 56 58 60 62 65 58 47 69 60 90 46 66 55 100 97 97 100
54 56 56 57 60 63 64 67 62 51 64 94 172 63 64 57 105 99 100 105
56 57 56 58 63 65 68 71 65 53 73 83 135 54 68 60 111 103 105 110
57 58 61 62 66 69 71 73 67 54 80 80 81 64 77 62 117 109 109 116
57 62 65 64 68 71 73 76 70 57 80 115 139 103 84 64 122 112 114 119
59 64 66 66 71 75 76 78 71 58 89 82 102 101 85 68 128 117 118 125
61 65 69 68 73 77 77 79 71 59 92 88 85 80 87 70 133 119 121 131
64 68 71 70 75 77 77 79 71 63 88 80 81 78 88 71 138 122 123 131
65 70 74 73 76 77 77 81 72 61 59 67 96 79 70 78 141 126 124 132
65 71 75 74 77 77 78 81 78 52 43 73 133 81 42 73 147 128 128 136
66 72 77 76 77 78 78 82 81 53 46 69 121 74 39 65 147 130 131 141
68 73 77 76 77 77 80 83 79 47 47 75 142 64 44 57 140 136 133 144
69 75 77 77 78 79 81 84 78 40 46 74 126 58 44 55 138 139 137 144
71 76 77 77 78 80 81 85 74 36 45 71 109 49 45 43 131 143 138 146
73 77 78 77 78 81 81 86 74 34 42 71 89 45 42 40 127 145 139 149
75 77 78 78 79 80 81 86 70 31 37 70 69 41 37 37 119 147 140 150
76 77 78 78 80 81 83 87 65 29 29 70 62 35 33 33 110 150 141 150
77 77 78 79 81 82 83 87 61 29 26 70 60 32 33 36 102 151 142 151
77 78 79 79 82 82 82 87 55 25 24 64 52 31 31 34 95 152 143 151
77 78 79 81 82 82 83 87 62 38 38 68 45 29 29 32 89 152 144 151
77 78 80 83 83 84 84 85 101 107 102 99 37 31 28 32 85 151 144 151
77 79 81 84 84 83 83 87 52 34 32 60 41 32 31 30 80 149 144 150
77 80 80 82 84 82 83 87 47 31 32 63 44 33 29 35 80 146 144 149
77 79 84 88 84 83 83 87 54 41 32 66 44 36 30 34 77 139 136 141
