P2
20 28
255
40 48 49 51 54 55 56 58 52 43 62 64 67 69 70 51 90 92 85 85
44 50 51 53 55 56 56 57 54 44 63 65 71 70 70 51 92 93 87 87
48 52 53 54 55 57 57 59 55 45 65 67 57 68 70 52 95 94 91 94
51 53 53 54 56 57 59 61 56 46 71 43 16 46 73 53 96 95 95 97
53 54 55 56 58 60 62 65 58 47 68 62 91 42 71 54 100 97 97 100
54 56 56 56 60 64 64 67 62 52 62 109 167 52 71 56 104 99 100 106
56 57 57 57 63 66 68 71 66 54 71 93 133 46 74 59 110 103 106 112
57 58 61 62 66 69 71 73 68 54 80 77 80 68 80 61 116 108 109 116
57 62 65 64 68 71 74 76 70 58 81 116 136 104 85 65 121 113 113 120
59 64 66 65 70 75 76 78 70 58 88 87 112 99 85 68 127 116 118 126
61 65 69 68 73 77 77 79 71 59 92 84 85 83 88 69 132 119 121 131
63 68 71 70 75 77 77 79 71 63 88 80 79 82 89 72 136 122 122 131
65 69 74 73 76 77 78 81 72 63 60 66 98 80 71 78 139 126 125 132
65 71 75 74 76 78 78 81 78 53 43 74 136 79 43 71 145 128 129 137
66 72 77 76 77 78 78 82 81 53 46 69 121 73 39 65 147 130 131 142
68 73 77 76 77 78 80 82 79 48 48 74 144 64 43 57 141 135 133 145
69 75 77 77 77 79 81 84 77 40 47 73 128 58 45 56 139 140 137 144
71 76 77 77 78 80 81 85 72 36 47 73 111 50 46 44 132 143 138 145
73 77 78 77 78 80 81 86 72 34 44 72 91 46 42 39 126 145 138 150
75 77 78 78 79 80 81 87 69 31 39 70 69 42 37 37 119 147 139 151
76 77 78 78 80 81 83 87 65 29 28 68 62 36 33 34 112 149 141 150
77 77 78 79 81 82 83 87 61 30 25 65 59 33 33 35 104 152 142 151
77 78 79 79 81 82 82 87 52 26 23 61 52 31 32 34 97 152 143 151
77 78 79 80 82 82 83 86 59 40 36 66 45 30 29 31 91 152 143 151
77 78 80 82 83 83 83 84 100 107 102 96 38 31 28 32 87 151 144 151
77 79 81 84 84 83 84 86 50 35 31 55 41 33 31 29 83 149 144 151
77 79 80 81 84 82 83 87 53 34 31 62 44 33 29 34 83 148 144 150
77 79 83 87 84 83 83 86 58 44 32 67 46 36 31 34 81 140 137 141
