P2
20 28
255
33 44 48 49 52 54 55 56 58 48 46 64 66 68 68 67 52 91 88 83
34 47 50 51 54 55 56 57 58 50 47 66 68 69 70 68 51 100 100 84
37 51 51 53 54 56 57 56 59 50 48 69 70 69 70 68 53 101 100 90
38 53 53 54 54 57 57 58 59 53 40 30 55 72 69 68 54 101 99 96
40 55 54 54 56 57 59 62 63 53 42 40 33 74 75 69 57 103 98 98
41 56 55 57 57 61 63 64 69 50 82 147 44 68 80 71 57 111 110 99
43 59 57 57 57 62 65 67 72 56 84 147 44 69 82 73 59 117 116 107
43 59 57 59 61 66 68 70 74 63 65 87 41 74 82 74 63 119 111 111
43 59 62 64 64 69 71 73 77 63 104 114 72 84 86 77 67 123 115 114
43 60 64 66 65 71 74 76 78 68 73 117 102 86 87 80 69 137 131 115
44 63 65 69 68 73 77 77 79 67 72 83 79 90 89 82 73 138 129 124
45 66 68 70 69 75 77 76 80 66 75 81 75 89 92 83 75 138 127 126
47 67 70 74 72 76 78 77 82 70 58 105 65 79 100 85 79 140 130 131
47 68 72 75 74 77 78 78 80 48 81 142 44 56 99 89 81 143 131 133
48 70 73 76 76 77 77 81 67 39 73 112 44 46 74 93 82 145 134 134
49 71 73 77 76 77 77 81 62 40 91 108 39 48 55 90 84 147 135 140
50 72 75 77 77 77 77 82 57 40 95 86 40 44 52 89 87 149 140 144
51 75 76 77 77 77 77 83 51 42 94 65 40 38 50 85 89 151 148 146
53 76 77 77 78 77 78 83 45 48 79 51 38 35 45 82 92 156 147 149
57 77 77 77 77 77 79 84 41 50 67 41 35 32 44 80 94 158 142 145
54 78 77 77 78 78 80 85 35 51 65 35 31 32 43 77 96 159 144 147
58 78 78 78 78 79 81 83 31 51 66 33 32 34 43 76 99 161 144 147
61 79 78 78 78 80 82 80 25 51 58 29 32 34 42 75 99 162 144 147
62 80 77 78 78 80 83 78 34 61 60 37 28 33 42 72 100 162 145 147
65 82 77 79 80 81 85 72 83 116 109 80 25 31 40 70 101 163 145 148
75 79 78 80 82 81 85 69 25 55 46 35 32 31 40 65 101 161 144 147
93 76 79 79 82 82 85 63 22 60 49 35 32 34 40 63 100 168 152 145
113 72 83 86 82 83 86 65 28 69 51 37 32 34 40 62 92 164 149 135
