P2
20 28
255
47 53 55 56 56 57 55 39 60 65 66 67 72 70 69 70 43 88 102 88
48 55 56 56 56 56 55 40 62 66 67 70 60 65 71 70 44 91 103 92
51 56 56 57 56 57 57 41 65 66 71 61 24 33 65 70 44 92 98 90
54 58 56 60 60 60 58 42 66 68 74 43 25 22 48 74 44 94 99 94
56 58 58 62 63 64 60 43 67 71 70 34 108 74 31 73 46 97 101 98
56 62 63 64 64 65 63 43 68 76 66 25 132 162 68 66 49 97 111 109
59 64 64 66 67 68 66 44 71 77 77 55 146 159 89 70 50 101 110 109
61 65 65 70 69 70 69 45 74 76 95 109 93 133 87 72 51 106 110 110
62 68 68 72 72 73 72 44 76 75 103 142 94 80 76 79 52 111 108 108
63 71 69 74 75 76 74 46 76 82 89 119 155 101 60 87 53 115 113 113
66 71 71 76 76 77 75 48 78 85 83 115 149 119 81 85 56 115 131 131
68 74 75 77 76 77 75 48 81 87 85 114 119 84 89 85 58 121 122 123
69 76 77 77 77 78 75 49 83 90 88 101 91 79 87 86 58 125 121 129
71 77 77 77 77 79 75 48 89 69 81 106 93 72 84 86 58 128 122 124
73 77 77 77 77 80 77 50 71 45 82 114 68 76 83 86 60 131 123 127
74 77 77 78 79 81 78 56 54 49 71 137 65 63 80 87 61 134 124 127
74 77 77 79 79 83 71 47 56 47 58 149 120 43 61 92 60 135 126 127
75 78 77 78 79 85 67 41 55 38 114 117 78 64 42 81 65 136 127 129
75 78 77 77 78 84 71 45 47 53 164 131 108 69 41 53 59 137 130 132
75 78 77 78 80 83 68 45 36 61 154 120 139 70 41 44 50 138 131 132
75 78 78 79 80 83 59 47 38 85 75 65 146 78 42 43 53 138 130 132
75 78 78 81 82 82 44 27 55 122 33 43 130 73 41 42 52 140 129 142
76 78 78 82 83 80 74 84 125 151 75 93 140 84 41 41 52 141 131 139
76 79 78 82 83 81 77 84 148 150 87 93 126 78 41 36 52 142 132 138
76 79 78 82 84 81 44 36 118 147 95 84 97 54 40 33 53 142 133 132
75 79 79 81 84 79 50 50 68 98 25 52 92 50 38 31 55 144 133 131
75 79 79 80 84 77 52 45 42 53 21 44 84 46 35 29 55 145 134 131
74 78 83 88 85 76 51 45 32 33 25 43 79 46 33 29 52 138 128 123
