P2
20 28
255
26 36 44 48 49 49 50 52 53 46 57 60 64 67 68 46 44 61 74 80
27 37 44 45 49 50 52 55 54 44 60 63 65 68 69 48 83 91 86 84
40 47 50 50 53 55 56 58 56 44 62 64 65 70 71 49 80 91 86 87
44 49 50 54 55 56 56 58 56 46 64 62 68 69 71 50 81 97 89 89
47 51 51 54 56 57 57 58 57 46 42 50 68 69 71 50 83 96 93 94
50 53 54 55 56 57 58 59 60 38 26 40 59 71 71 51 85 96 96 96
52 55 55 56 57 58 60 63 64 33 41 107 69 74 74 52 87 97 97 99
55 56 56 57 59 62 63 66 66 32 99 164 76 77 78 53 91 99 102 105
56 57 57 56 61 64 65 67 69 34 96 149 82 77 79 54 96 104 110 111
57 57 58 60 64 67 69 71 70 53 66 80 93 81 81 56 101 108 111 115
57 60 63 64 66 70 72 75 72 63 87 124 106 83 86 58 105 111 115 119
57 63 66 65 68 73 75 77 74 57 83 120 92 85 88 61 109 116 118 124
59 63 67 67 71 76 77 77 77 51 66 86 95 91 89 64 114 118 123 129
62 66 70 69 73 79 79 78 77 45 50 77 80 93 93 65 118 120 125 130
64 68 73 72 74 67 73 69 57 45 50 97 72 70 95 68 122 124 129 135
65 69 75 73 79 135 127 56 40 45 59 116 89 52 81 72 125 130 133 136
66 70 76 75 77 149 153 67 60 40 57 102 89 48 72 72 128 131 133 138
67 71 77 75 82 81 119 78 54 43 53 122 102 46 67 72 131 132 138 144
68 72 77 78 72 114 111 66 42 37 54 112 113 42 57 73 133 138 140 144
69 74 78 78 76 86 49 35 27 29 53 104 105 43 50 72 135 139 142 143
71 76 78 77 77 84 52 18 27 28 46 98 95 41 45 72 138 138 147 148
73 77 78 78 79 82 79 55 30 28 38 92 85 38 44 70 141 139 145 150
75 77 78 78 80 82 86 89 35 21 27 81 78 35 42 68 144 140 145 150
76 77 78 78 81 84 85 87 50 37 39 80 74 34 41 65 144 142 146 150
76 78 78 78 81 85 86 87 98 107 100 108 69 33 37 60 144 142 146 150
77 78 78 79 82 85 85 90 47 31 32 65 68 30 35 53 143 143 146 150
80 77 77 80 83 85 85 88 47 28 31 63 64 27 32 50 146 144 148 151
77 78 80 87 84 85 86 85 43 38 30 57 62 30 35 51 137 137 141 141
