P2
20 28
255
38 46 49 49 52 53 55 56 55 42 59 64 66 68 70 51 79 92 85 84
42 48 50 53 54 54 57 57 55 43 61 63 68 69 72 51 81 93 86 86
46 50 52 54 55 56 57 57 56 43 62 66 70 70 71 50 83 94 89 90
49 52 53 54 55 57 57 58 58 44 67 52 39 66 72 51 85 95 91 96
51 54 54 55 56 58 60 62 61 46 65 28 29 50 77 52 88 97 93 98
53 55 56 57 59 61 63 66 63 49 60 88 113 45 81 52 91 99 96 101
56 57 57 57 60 64 65 68 67 52 60 138 143 43 83 54 96 101 100 108
57 57 57 60 63 66 69 71 70 53 69 102 111 49 84 56 101 106 105 112
57 59 62 63 66 71 71 74 72 54 78 80 86 87 86 59 107 111 106 115
58 62 65 64 68 72 74 77 74 56 81 124 133 103 86 63 112 115 111 119
60 64 68 67 71 76 76 77 75 57 87 88 108 91 89 64 117 119 115 125
62 65 70 69 73 78 77 78 75 58 90 80 82 87 94 65 121 121 117 129
64 68 73 71 75 77 77 79 76 61 77 72 82 80 93 70 125 126 120 131
65 69 74 74 76 77 78 80 79 58 49 73 115 68 65 71 129 129 124 132
65 71 76 75 77 78 78 81 80 55 44 78 130 72 45 56 135 130 128 137
66 71 77 76 77 77 78 82 78 51 47 75 129 61 45 57 140 132 128 140
68 73 77 77 77 78 80 84 75 47 49 82 141 58 45 55 143 136 129 141
70 75 77 77 78 78 81 86 69 39 47 80 122 53 44 51 140 139 135 142
71 76 78 77 78 80 81 87 64 34 48 78 105 48 45 47 134 142 137 144
74 76 78 77 79 80 81 88 64 32 44 77 85 45 41 40 127 144 136 147
76 77 78 78 79 81 82 87 59 28 38 71 66 41 36 37 115 146 136 148
76 77 78 78 79 81 84 88 56 28 29 69 61 37 35 36 105 148 138 149
77 78 78 78 80 81 83 88 50 24 22 63 59 35 34 35 94 149 140 149
77 78 78 78 81 82 82 88 54 37 36 66 52 32 32 38 85 149 140 149
78 78 78 80 81 82 85 85 99 106 100 101 44 32 29 34 81 149 140 149
77 78 78 82 82 83 85 87 43 30 28 54 46 32 28 31 77 148 141 149
77 78 78 80 83 83 85 84 45 26 29 51 46 33 30 30 71 148 142 149
77 78 82 87 83 83 85 82 45 36 31 53 47 37 29 31 67 138 135 140
