P2
20 28
255
48 53 56 56 56 57 39 61 68 66 67 67 70 69 72 45 86 117 97 82
49 55 56 56 56 57 39 61 69 67 68 67 62 71 73 46 88 118 102 86
52 57 57 56 56 58 40 63 69 68 73 48 23 49 74 46 89 112 97 89
56 57 59 60 58 61 41 64 71 71 69 31 24 24 68 48 93 112 99 93
56 57 60 64 63 62 41 64 73 75 57 45 118 43 52 50 94 112 102 97
58 62 64 64 64 66 43 65 73 80 43 45 165 131 58 49 97 115 111 98
60 64 65 66 67 70 44 66 76 83 59 74 167 142 76 47 102 116 113 103
62 64 68 70 69 72 45 67 79 80 103 106 104 131 77 50 104 119 114 106
65 67 71 71 71 75 46 70 81 79 125 137 83 84 78 53 108 123 111 110
68 69 72 75 73 77 47 71 83 82 103 136 156 72 77 56 111 125 116 113
69 70 74 77 75 79 48 72 86 84 89 136 153 100 85 57 115 129 122 115
71 73 77 77 77 79 49 75 87 86 90 127 107 85 91 57 119 131 123 118
73 76 77 77 77 80 49 75 91 86 92 105 95 82 91 57 123 133 127 124
74 77 77 77 78 81 49 79 90 55 96 103 83 67 89 58 126 136 124 126
76 77 77 77 79 81 49 68 65 39 107 83 80 103 92 58 130 139 127 128
76 77 78 78 79 82 51 50 57 44 94 139 165 129 88 59 133 142 128 130
76 77 78 80 80 83 52 37 53 45 71 167 187 86 82 62 134 144 128 131
77 77 78 79 81 83 54 44 44 44 76 114 141 65 68 64 135 145 130 132
77 77 78 79 81 84 59 52 40 45 141 77 54 71 49 51 136 145 131 134
77 77 78 80 81 85 54 49 31 75 195 87 102 47 47 44 137 144 132 135
77 78 80 81 82 82 47 59 29 120 179 94 132 45 47 46 137 144 134 136
77 78 81 82 82 83 48 53 40 86 144 73 118 43 46 46 138 142 142 149
77 78 82 83 82 81 83 97 93 87 122 104 135 69 42 46 141 144 141 146
78 78 82 83 83 81 76 92 89 81 91 100 127 66 41 42 142 146 137 147
78 78 82 84 84 84 49 42 87 102 93 96 91 38 41 39 143 147 136 137
76 79 82 84 84 85 50 49 36 30 29 57 87 40 38 41 143 147 135 135
75 79 81 82 83 87 52 37 26 26 24 45 76 38 34 39 146 150 135 134
74 79 85 88 83 87 55 31 29 34 23 47 72 37 34 34 125 146 128 128
