P2
20 28
255
48 53 56 57 54 38 64 67 66 66 67 66 67 70 44 103 134 109 85 83
49 55 56 56 54 40 64 68 68 66 67 69 71 70 44 108 134 112 90 85
52 57 56 57 55 40 65 70 71 67 69 45 52 71 44 110 132 114 95 90
55 58 56 57 56 40 66 72 71 72 56 19 22 53 49 109 127 111 98 94
56 60 59 61 58 41 67 72 71 75 37 47 47 31 49 111 127 115 101 97
57 61 63 63 60 42 68 73 75 75 22 93 159 57 42 115 132 124 104 99
59 63 63 65 64 42 68 74 80 72 19 93 174 112 41 119 132 127 107 103
61 66 67 69 67 44 70 77 78 86 73 121 158 109 43 124 130 126 111 107
63 69 70 71 70 44 71 80 75 95 132 104 77 106 45 127 134 126 115 111
64 71 71 73 73 44 75 81 81 92 142 143 105 65 55 130 137 128 116 114
65 73 75 75 75 46 75 84 87 78 109 137 157 79 56 136 142 136 119 116
69 75 76 76 76 47 79 86 85 86 109 140 120 90 57 140 147 139 123 121
72 77 76 77 75 48 81 89 89 82 104 128 86 84 60 144 147 141 128 124
75 77 77 78 77 48 82 80 70 60 107 101 76 85 59 148 150 143 131 127
76 77 77 79 77 51 74 46 54 53 95 98 77 80 60 153 154 140 132 129
77 77 77 80 77 52 53 35 42 45 94 67 75 79 53 153 157 141 133 130
77 78 78 80 79 50 47 62 43 35 96 95 62 136 142 165 157 144 134 132
77 78 79 81 81 50 51 57 50 41 61 88 133 166 165 160 159 145 136 133
77 78 80 82 83 50 40 54 64 59 51 168 126 145 141 150 161 144 140 136
77 78 79 81 85 49 33 53 61 63 78 192 76 89 117 167 157 145 142 138
77 78 80 82 84 50 36 53 58 58 57 123 73 36 89 169 155 144 142 140
77 79 80 83 83 53 31 35 42 40 29 83 58 43 65 162 156 150 147 140
77 80 82 83 83 51 71 86 83 68 70 92 86 69 49 161 157 158 151 140
77 81 83 82 83 50 59 76 79 74 73 87 108 64 51 164 160 151 154 141
77 81 82 84 83 55 29 16 77 100 89 93 87 33 50 163 162 148 151 142
77 81 83 84 84 53 33 27 28 32 26 54 86 35 45 162 163 144 143 140
75 80 82 84 84 54 33 23 25 26 23 44 78 31 42 164 166 146 146 139
75 80 84 88 85 58 39 25 29 33 26 38 63 34 42 153 157 141 138 132
