P2
20 28
255
27 37 45 50 50 51 53 54 54 47 56 59 64 67 68 44 24 33 44 56
25 36 44 46 49 49 51 53 53 45 58 62 65 68 69 48 68 84 85 85
32 42 47 47 51 53 55 57 55 44 60 63 66 68 71 50 82 90 86 86
43 49 51 52 54 55 56 57 57 45 64 65 67 70 71 50 80 93 87 88
46 50 50 53 56 56 57 58 57 47 58 54 70 70 71 50 82 96 91 92
49 52 53 54 56 57 57 59 58 46 34 42 62 70 71 51 83 96 94 95
51 53 54 55 57 57 59 60 61 40 23 46 61 73 72 52 85 95 97 98
53 55 55 57 58 60 61 64 65 35 52 131 85 73 77 52 89 99 100 102
55 56 57 57 59 63 64 65 68 31 80 163 88 74 79 54 93 101 107 109
57 57 57 57 62 65 67 69 71 41 74 125 89 77 80 55 98 106 110 113
57 58 60 62 65 69 71 73 71 58 68 74 99 84 84 57 102 110 113 117
57 61 65 64 67 72 73 76 74 60 87 129 105 83 87 60 106 115 116 121
58 63 66 66 69 75 76 77 76 56 71 92 96 87 88 63 111 117 121 128
61 64 69 68 71 78 78 78 80 49 59 65 89 94 91 65 115 120 125 130
63 67 71 70 74 77 76 77 70 46 46 88 70 83 97 66 119 121 126 132
65 69 73 73 75 79 88 65 39 50 42 98 84 56 89 69 124 128 132 136
65 70 75 75 77 169 170 65 54 42 54 94 96 49 74 72 126 132 132 136
66 71 77 76 78 94 133 79 65 41 54 105 98 47 67 72 129 133 136 142
67 71 77 76 78 99 124 86 49 40 51 109 121 45 61 71 132 135 138 144
69 73 78 78 71 100 81 48 34 29 53 100 117 45 51 70 134 139 139 143
70 75 78 78 77 83 52 21 27 27 47 94 108 46 46 70 136 138 144 146
71 76 78 78 78 82 75 35 28 28 40 88 97 43 42 69 139 138 143 149
74 77 78 78 80 82 85 85 34 22 28 79 89 38 42 68 141 139 144 149
75 77 78 78 81 83 85 88 52 36 38 76 81 37 41 65 142 141 144 150
76 78 78 79 81 84 86 87 98 107 101 106 76 36 39 61 143 143 145 150
77 78 78 79 81 85 84 91 49 29 31 60 77 33 36 55 143 143 145 150
78 77 77 78 82 85 85 90 50 26 32 56 71 30 32 50 144 144 146 151
79 77 80 87 84 85 86 88 50 36 33 55 67 31 33 47 136 137 140 141
