P2
20 28
255
47 53 56 56 56 59 42 56 69 70 69 57 65 68 71 47 81 110 98 84
50 55 56 56 56 59 42 56 70 72 45 25 51 68 71 47 84 109 101 87
53 57 57 58 57 61 43 57 71 67 25 26 37 61 73 46 87 110 97 91
56 57 58 62 60 63 43 58 75 55 36 55 20 49 75 46 91 113 101 95
56 60 62 63 62 66 45 58 77 40 59 154 101 55 75 47 94 120 110 97
59 63 64 66 65 70 46 59 79 43 55 154 158 79 78 49 96 127 122 99
61 64 66 69 68 72 47 60 82 76 94 164 143 74 82 50 101 125 119 105
63 66 69 71 69 75 49 63 82 110 100 74 127 80 83 53 106 125 116 109
66 69 70 74 72 78 49 66 81 126 129 88 62 75 90 53 113 128 115 113
68 70 72 76 74 80 51 67 82 99 118 147 98 78 91 55 115 137 128 113
70 72 75 77 76 80 52 70 87 96 118 140 113 85 90 57 118 146 141 116
72 74 76 77 77 81 51 73 78 74 112 95 88 91 91 57 125 139 130 123
74 76 77 77 78 80 62 67 63 58 90 80 87 92 94 58 129 143 133 125
75 77 77 78 79 81 45 42 65 48 85 87 85 96 97 60 133 144 130 128
76 77 77 72 77 77 47 51 55 51 64 64 70 97 99 61 138 147 133 130
76 77 76 140 169 79 71 69 51 51 86 71 40 83 103 62 140 148 134 132
78 74 92 211 205 76 71 61 45 52 68 91 38 51 100 63 143 150 135 134
79 71 122 151 134 124 65 55 41 57 46 80 54 42 77 66 145 151 138 136
77 76 85 71 126 132 63 46 41 54 57 98 57 44 62 63 149 152 138 138
77 78 70 120 134 79 49 33 41 50 59 121 64 44 58 61 151 154 138 139
77 78 75 93 65 33 34 27 29 53 57 138 79 43 56 61 154 153 143 144
77 77 81 86 54 21 22 18 26 24 38 124 79 37 56 62 155 153 148 150
77 78 81 85 82 36 62 82 83 72 78 132 111 67 44 59 156 154 143 149
77 78 81 84 86 77 56 75 80 88 78 128 105 63 40 58 156 154 141 145
77 79 81 85 86 85 26 14 77 107 91 129 70 31 41 56 156 152 138 139
77 79 81 85 86 85 32 25 28 34 31 89 73 30 39 53 156 151 139 139
75 79 82 83 86 83 31 24 24 30 29 74 68 26 38 52 157 151 139 137
74 78 84 89 86 83 34 27 28 38 31 58 54 32 37 48 148 144 131 129
