P2
20 28
255
56 34 47 50 50 53 53 55 56 57 43 52 66 68 68 69 60 52 92 87
58 36 50 50 51 53 55 56 56 58 45 53 67 69 70 71 59 53 104 94
59 38 53 52 53 54 56 57 57 59 45 54 71 69 69 71 59 56 102 95
60 39 55 53 53 55 56 57 59 60 43 22 51 72 69 71 59 59 100 95
60 42 56 54 55 56 58 60 63 61 48 43 33 71 75 74 59 62 102 97
60 43 58 56 56 56 62 64 68 59 89 144 44 67 80 77 61 61 111 106
54 46 60 57 56 58 64 66 70 64 98 142 41 69 81 79 61 66 117 113
49 46 60 58 60 63 67 69 72 72 74 83 49 74 81 81 62 71 115 108
51 45 62 63 64 64 70 71 76 71 109 120 91 85 85 85 66 74 121 114
51 47 63 65 66 66 73 75 76 77 83 111 101 85 86 88 67 76 138 125
50 49 66 67 69 69 76 77 77 77 81 83 77 89 90 90 69 83 135 126
50 50 69 70 71 70 77 77 77 77 85 85 82 86 92 93 71 85 135 126
51 51 70 72 74 74 77 77 78 80 64 102 73 65 100 95 72 89 136 129
51 52 72 73 75 75 77 77 81 59 61 141 56 45 89 102 73 92 138 131
54 52 73 75 77 77 77 78 76 42 62 111 49 45 62 103 75 94 142 132
56 53 74 75 77 76 77 79 72 40 78 112 42 49 47 97 76 95 143 132
64 54 76 76 77 76 77 80 70 39 84 86 40 44 45 95 77 97 144 142
100 52 79 77 77 77 77 81 66 38 81 66 40 38 42 91 79 98 147 149
71 57 79 77 77 77 77 83 61 39 69 51 39 35 39 87 80 100 150 146
25 65 78 77 78 77 77 85 57 39 63 41 34 32 39 87 82 104 151 142
35 59 80 77 77 77 78 86 52 38 66 36 31 33 38 87 82 105 153 143
40 64 79 77 78 78 80 87 48 37 65 34 32 34 38 85 82 107 154 143
35 66 79 77 78 78 81 86 39 36 57 29 31 34 39 85 83 107 155 143
33 68 80 77 78 79 81 86 46 50 62 36 27 34 39 86 83 108 155 144
51 70 82 77 80 81 82 81 93 111 108 81 26 31 39 85 83 109 155 144
146 72 79 79 80 81 84 80 33 41 43 35 32 31 34 83 82 109 154 143
197 95 74 79 80 82 84 76 28 38 42 35 32 36 36 84 80 109 164 147
199 110 73 87 82 83 85 76 33 44 43 38 32 34 37 81 74 104 161 139
