P2
20 28
255
39 46 48 48 51 54 55 56 55 41 58 64 65 67 70 51 75 93 85 85
42 48 50 52 54 55 57 57 56 42 59 64 67 69 72 51 76 93 86 85
45 50 51 54 55 56 57 57 57 43 60 66 69 70 71 51 79 94 88 89
49 52 53 54 55 57 57 58 59 43 66 46 40 67 72 51 80 94 90 95
51 54 54 55 56 58 60 63 61 46 59 28 37 54 77 52 82 97 92 98
54 55 56 57 59 61 63 65 64 48 56 104 118 49 83 52 86 100 96 100
56 57 56 57 60 64 65 67 68 51 60 148 135 46 85 53 91 102 98 107
57 57 57 59 63 66 69 71 71 52 66 102 102 55 85 56 96 106 103 112
57 59 61 63 66 70 71 73 73 53 76 83 91 90 86 59 101 112 106 116
57 62 65 65 68 72 74 76 76 56 81 128 134 99 87 63 105 116 111 120
59 63 67 67 70 75 76 77 76 57 85 89 109 90 90 64 111 120 115 125
61 65 69 69 72 77 77 77 77 58 87 79 84 90 94 65 116 123 117 128
63 68 72 71 74 78 77 78 78 58 73 74 82 79 96 69 119 126 119 131
64 69 74 74 75 77 78 78 81 58 48 80 115 63 70 70 123 130 122 132
65 70 76 75 76 78 78 81 78 55 47 91 131 68 49 54 129 132 127 134
66 71 77 76 77 77 78 82 71 48 49 87 129 60 48 50 134 135 127 137
68 72 77 77 77 78 80 84 68 46 51 100 141 57 47 48 137 137 128 141
69 74 78 77 78 78 81 87 60 41 50 99 123 55 44 46 140 139 134 142
71 76 78 77 78 80 81 87 51 37 49 92 106 50 42 49 141 141 136 143
73 76 78 77 78 80 82 87 46 33 47 89 89 46 41 45 134 143 136 146
75 77 78 78 79 80 83 86 47 27 42 81 71 41 37 37 123 145 136 146
75 77 78 78 79 81 85 86 44 25 34 73 63 37 35 39 113 147 137 147
77 78 78 78 80 82 84 84 38 22 24 70 63 35 35 36 102 149 139 147
78 78 78 78 80 83 84 83 45 38 37 73 59 32 32 35 93 150 139 148
83 77 78 80 81 82 85 83 92 106 101 101 49 32 30 35 87 150 140 149
80 77 78 81 82 83 84 85 38 30 28 61 50 31 29 31 83 149 140 148
77 78 78 80 82 82 85 82 33 26 29 56 51 33 30 31 77 149 141 148
77 78 82 86 83 84 86 80 35 37 32 54 51 37 29 31 71 140 134 139
