P2
20 28
255
48 54 56 58 47 45 69 67 69 67 67 66 68 57 62 120 115 103 86 82
49 55 56 58 48 46 68 68 71 67 68 70 71 56 64 123 112 105 91 86
53 57 56 58 49 46 69 70 72 70 63 39 62 58 65 125 113 105 96 91
55 58 56 59 49 47 70 71 72 74 38 18 42 56 66 127 115 105 98 95
56 60 58 63 51 48 71 71 74 68 39 41 22 43 71 128 117 108 100 98
57 62 62 65 53 48 72 73 81 54 72 150 63 29 75 133 119 111 105 101
60 64 63 68 55 48 72 75 85 49 74 174 141 40 75 137 123 114 109 105
62 67 67 72 58 49 75 77 81 74 103 164 128 44 79 142 126 116 112 110
65 70 68 74 60 48 79 80 78 109 90 89 123 42 83 149 131 118 113 113
66 72 70 77 62 50 81 80 81 120 130 93 60 52 87 151 135 122 117 116
67 75 73 79 64 52 82 85 84 95 137 146 65 57 91 154 138 125 121 119
71 77 75 80 64 54 86 86 84 91 137 122 97 64 93 160 140 128 124 124
73 77 76 80 64 55 89 86 89 89 106 85 92 66 96 166 143 131 128 129
75 77 76 81 65 57 91 91 71 91 100 79 87 67 98 171 147 134 129 129
76 77 77 83 63 54 91 78 43 97 99 72 82 67 100 175 150 137 131 131
76 77 77 80 75 80 61 56 41 101 81 54 83 64 101 178 153 139 133 133
76 78 79 77 112 117 54 56 43 95 121 79 55 61 104 181 155 140 136 136
77 78 79 81 140 105 54 51 40 88 108 91 39 44 108 184 158 142 138 138
76 78 80 83 126 128 74 44 47 75 81 93 53 35 115 186 160 143 138 140
76 78 80 85 79 134 83 39 50 68 105 118 48 47 80 174 162 144 139 142
76 79 80 86 54 64 44 44 52 58 92 137 46 53 49 151 166 144 140 143
77 80 79 93 74 63 33 32 45 48 78 141 42 48 48 143 166 144 142 144
77 82 80 94 104 82 69 89 91 80 100 142 92 74 42 139 166 144 143 145
77 82 80 85 110 75 59 82 84 86 102 130 83 72 36 129 167 144 142 145
77 81 82 65 104 70 21 24 83 107 117 113 38 47 34 126 169 144 142 144
76 81 84 44 73 58 27 35 45 42 77 96 46 50 33 125 170 145 142 143
76 81 80 32 28 32 26 29 38 35 75 83 42 43 33 131 172 146 144 142
76 81 77 37 29 33 31 28 33 39 67 69 38 45 35 114 163 139 138 133
