P2
20 28
255
50 53 56 54 38 64 68 68 68 66 67 66 66 46 109 116 114 101 88 83
51 55 56 54 38 62 68 69 69 66 70 70 66 47 113 119 115 104 92 87
54 57 57 54 39 65 69 71 70 70 50 46 67 47 114 121 116 106 97 91
56 57 57 55 40 65 70 71 73 63 21 26 53 50 114 121 117 107 99 95
57 58 59 57 42 67 71 71 76 52 48 29 30 49 118 124 119 109 103 98
59 61 62 59 42 68 73 74 77 41 133 121 35 42 125 129 121 113 107 101
60 63 65 63 42 68 73 78 77 40 137 175 82 38 130 129 124 115 111 106
63 66 68 66 43 69 76 79 81 78 137 158 78 44 135 134 127 117 113 109
67 68 70 69 43 71 80 77 88 114 68 122 74 46 139 140 131 119 117 113
68 70 73 72 43 74 80 78 94 133 120 70 51 57 141 142 135 124 120 117
70 73 75 74 45 75 82 85 85 112 157 102 55 62 147 144 139 128 124 120
74 75 77 75 47 79 86 86 82 119 133 101 80 63 152 153 142 130 128 126
76 76 77 75 47 82 87 87 86 103 93 85 83 65 157 154 146 135 129 127
76 76 78 76 48 83 90 89 84 103 86 79 82 64 161 158 149 136 132 128
77 77 79 76 49 86 91 62 71 115 90 72 76 63 164 162 152 139 135 132
77 77 80 77 49 72 61 47 72 125 51 74 75 64 168 163 155 141 137 133
77 78 80 79 45 53 56 50 66 147 91 70 54 68 172 167 157 142 139 136
77 78 81 82 41 46 57 46 70 139 100 71 33 67 175 171 159 143 141 137
77 78 82 83 39 46 52 48 70 114 85 87 37 66 175 172 161 144 143 140
77 78 82 83 71 48 49 50 69 120 125 86 44 47 121 179 159 145 143 142
77 80 79 98 130 50 47 50 72 113 138 91 43 48 78 175 160 146 143 142
78 80 77 117 127 55 35 42 61 101 140 93 36 45 73 171 161 147 145 142
78 81 79 110 135 95 62 98 99 115 135 116 90 67 68 172 161 148 147 144
78 81 82 81 87 69 54 85 97 107 134 109 82 65 57 168 162 149 149 144
78 80 87 66 40 32 27 30 93 124 139 95 38 37 57 167 163 151 149 143
78 80 87 72 65 34 34 44 51 82 119 66 47 41 57 167 164 151 149 143
76 81 83 94 97 28 33 38 45 78 112 58 43 36 56 168 167 152 150 142
76 80 82 97 97 31 31 31 44 85 93 47 40 39 51 153 159 146 142 134
