P2
20 28
255
25 35 43 46 48 48 49 51 52 46 59 62 65 67 68 47 72 86 84 81
32 42 46 46 51 53 54 56 54 44 61 63 65 69 70 49 85 88 85 85
42 49 50 51 54 55 56 58 55 45 64 64 66 70 71 49 83 94 86 87
45 50 50 54 56 56 57 58 55 47 55 58 69 69 70 49 84 96 89 90
48 52 52 54 56 57 57 58 58 40 34 45 65 70 70 50 85 96 93 95
50 53 54 55 56 57 59 60 61 31 28 60 62 72 71 52 88 95 96 97
53 55 55 57 58 60 62 65 64 33 89 144 64 78 75 52 91 98 98 101
55 56 57 57 60 63 64 66 66 35 122 155 69 79 78 54 94 101 105 107
57 57 57 57 62 65 67 69 69 43 91 113 80 79 79 56 100 107 110 112
57 58 60 62 65 69 70 73 70 63 68 94 100 82 83 58 105 109 113 116
57 61 64 64 67 71 73 76 72 62 101 138 94 84 86 61 109 112 116 119
58 63 66 66 70 74 76 78 74 54 78 102 92 88 87 64 114 116 121 127
61 64 68 68 72 77 77 78 78 46 59 81 91 93 90 65 119 118 125 129
63 67 71 70 73 76 77 76 68 41 51 85 71 86 95 66 123 121 127 132
64 69 74 73 78 85 84 57 48 42 62 116 74 61 90 71 126 127 133 136
65 70 76 73 84 183 139 56 46 44 61 112 86 50 76 73 130 130 133 136
66 71 77 75 80 100 118 71 56 43 57 120 83 47 69 74 134 130 136 144
67 72 77 76 80 110 119 68 46 43 54 131 102 43 62 74 137 134 139 144
68 73 77 78 72 102 69 51 31 37 57 117 101 41 52 74 138 139 140 143
70 76 78 77 79 78 34 26 24 30 54 108 93 40 48 74 141 138 146 148
72 76 78 77 77 85 55 24 27 29 46 101 84 39 44 73 143 138 146 150
74 77 78 78 80 81 85 74 30 27 38 94 74 36 44 72 144 139 145 150
76 77 78 78 81 83 86 87 35 21 28 82 68 34 42 69 146 141 146 150
77 77 78 78 81 84 86 87 47 38 40 81 67 33 40 65 148 142 146 150
76 78 78 79 81 85 85 87 96 107 101 107 60 32 37 60 149 143 146 151
77 78 78 80 82 85 85 88 45 31 32 70 59 28 33 56 150 142 147 151
77 78 78 80 83 85 86 85 41 29 29 68 57 27 33 55 150 143 148 151
75 78 81 87 84 85 88 81 38 40 27 60 56 30 33 54 141 136 142 142
