P2
20 28
255
47 53 56 56 59 46 45 69 67 66 67 67 68 71 61 53 118 119 90 82
49 55 56 56 58 48 45 69 67 66 67 69 72 73 62 54 122 119 96 84
51 56 56 56 59 48 46 71 69 68 71 50 40 69 63 54 121 114 99 89
55 57 59 56 60 49 47 72 72 72 65 24 17 42 65 56 120 112 99 93
56 57 61 61 64 51 48 73 71 76 49 43 69 26 57 59 122 113 104 95
57 60 63 63 66 53 48 74 74 80 32 66 170 84 47 63 123 121 109 97
59 63 64 64 69 56 49 75 76 81 31 74 171 134 57 63 126 119 112 101
62 64 67 67 72 58 49 77 78 84 83 105 148 127 60 64 130 118 115 105
63 66 71 69 75 60 49 81 79 85 130 115 68 108 64 67 135 117 115 108
66 68 73 71 77 62 50 82 81 84 126 145 125 65 68 69 140 120 118 112
68 69 76 74 79 64 52 83 86 80 97 134 160 92 71 71 142 129 123 114
70 73 77 75 79 64 53 86 85 84 98 139 118 92 75 74 146 133 126 115
72 75 77 76 80 65 54 90 89 82 93 112 78 84 76 76 152 130 132 120
75 77 77 76 80 65 56 83 73 57 95 108 74 83 77 79 156 133 131 125
76 77 77 77 82 66 53 48 49 49 88 101 84 79 70 79 160 134 130 126
76 77 77 77 82 69 37 39 38 37 87 79 60 85 97 88 162 136 132 128
77 77 79 78 83 70 37 64 50 35 76 101 124 156 173 165 160 138 133 130
77 77 79 79 84 71 40 56 60 62 56 127 205 128 172 156 160 140 135 133
77 77 78 80 84 75 32 44 57 64 50 111 144 83 155 114 158 140 136 134
76 77 79 80 84 77 28 35 47 54 40 77 114 51 73 116 161 139 137 135
77 78 80 80 84 76 30 36 41 42 27 54 71 41 50 106 162 139 138 136
77 78 81 81 85 76 23 26 28 25 20 20 27 44 43 86 165 138 148 139
77 78 82 82 85 73 65 84 78 65 67 84 113 70 36 87 167 137 152 141
77 78 83 82 84 74 58 77 77 72 74 98 125 64 34 86 170 138 145 146
77 78 83 82 85 77 25 17 75 99 93 84 82 38 31 83 171 140 141 142
76 78 82 83 86 77 30 27 28 32 27 45 81 41 28 84 171 141 138 137
75 79 81 81 87 78 29 24 25 26 24 39 72 37 26 84 174 143 140 137
75 79 84 87 86 79 34 27 30 33 25 35 63 39 28 73 163 137 133 129
