P2
20 28
255
38 47 49 50 53 55 56 57 54 42 60 64 66 68 70 51 85 93 86 84
42 49 50 53 55 55 57 57 54 43 63 64 69 69 72 51 86 93 86 86
46 51 52 54 55 57 57 58 56 44 63 67 69 70 71 51 88 94 89 91
50 53 53 55 56 57 58 60 57 45 69 50 30 61 73 51 91 95 93 96
52 54 54 56 57 58 61 64 59 47 68 35 41 44 75 52 93 96 95 98
54 55 56 56 59 62 63 66 62 49 61 102 136 44 78 53 97 98 96 103
56 57 57 56 61 64 66 69 67 52 62 127 146 41 80 56 102 101 102 110
57 57 59 61 65 68 70 72 69 53 75 79 94 55 82 58 108 105 107 114
57 61 64 64 67 71 72 75 72 55 80 99 103 94 86 61 114 111 109 118
58 63 65 65 69 74 75 77 73 57 83 113 133 101 86 66 119 115 115 123
60 64 68 67 71 77 77 78 73 58 90 80 98 88 89 66 124 118 118 128
63 66 70 69 74 77 77 79 74 59 90 85 80 84 93 68 129 121 120 130
64 69 73 72 75 77 77 79 74 63 72 66 83 80 85 73 132 125 122 131
65 70 74 74 76 77 78 81 78 56 45 75 129 71 55 71 137 128 126 134
65 71 76 75 77 78 78 81 81 55 44 72 125 74 41 62 144 130 129 139
67 72 77 76 77 77 79 82 81 52 47 74 135 61 43 62 145 132 129 142
69 74 77 77 77 78 81 84 75 43 48 78 135 58 44 58 145 136 132 143
70 75 77 77 78 80 81 86 71 37 46 75 117 51 46 52 137 140 136 143
72 77 78 77 78 80 81 87 68 34 46 75 99 46 44 43 131 143 137 147
74 77 78 77 78 80 81 87 69 32 42 71 77 43 39 38 123 144 137 149
75 77 78 78 79 81 82 87 63 29 35 69 63 39 36 38 114 147 138 149
76 77 78 79 80 81 83 87 60 30 26 66 61 35 33 35 104 150 140 150
77 78 78 79 81 81 83 87 49 25 22 62 55 32 33 37 95 151 142 150
77 78 79 79 81 82 83 86 56 40 36 66 47 32 31 34 88 151 142 151
77 78 79 82 82 82 85 83 94 108 101 98 40 31 28 33 83 150 142 151
77 79 80 83 83 83 85 83 44 32 30 52 42 32 29 30 80 148 143 150
77 79 80 81 83 82 85 81 44 31 29 53 44 33 30 32 74 148 143 150
77 79 83 87 84 83 85 81 52 42 30 59 47 37 30 33 73 139 135 141
