P2
20 28
255
37 45 48 48 51 54 55 55 57 42 56 62 64 68 71 53 69 93 86 84
41 47 50 51 54 55 56 57 57 42 58 65 67 70 72 53 70 92 85 86
45 50 51 53 55 56 57 57 59 44 54 47 65 70 72 53 71 93 88 89
48 51 53 54 55 57 57 58 59 48 35 27 48 69 72 53 74 95 92 94
51 54 54 55 56 58 59 62 63 45 39 112 86 63 75 54 76 98 95 98
54 55 55 56 58 61 63 65 67 40 69 183 111 63 81 54 79 99 97 100
56 56 56 57 59 64 64 66 70 45 65 149 97 67 84 56 83 101 102 107
57 57 57 58 62 66 67 70 72 53 63 76 88 82 82 58 87 106 107 111
57 59 62 63 65 69 70 73 75 53 88 135 130 87 87 61 93 112 109 115
57 61 65 65 67 72 73 75 77 55 83 111 115 83 90 63 96 116 114 119
59 62 67 67 69 75 76 76 77 57 76 79 94 89 92 65 102 120 117 125
61 64 68 69 71 77 77 77 79 56 65 83 88 92 94 66 105 123 120 128
63 67 72 71 73 77 77 77 82 53 62 78 87 71 99 68 109 126 121 131
64 68 74 74 75 77 77 79 78 52 60 114 113 52 80 71 113 130 124 134
64 69 75 75 76 78 78 78 64 47 57 98 114 54 61 64 117 133 128 135
66 70 76 76 76 77 80 71 49 51 52 111 129 50 56 57 122 135 128 140
68 71 77 77 77 77 81 75 44 49 54 109 129 54 52 52 125 139 131 143
69 73 77 77 77 78 82 77 38 41 51 105 118 53 45 47 127 142 136 143
70 76 78 77 78 79 85 69 35 40 48 94 106 51 40 44 130 143 137 144
73 76 78 77 78 79 86 68 31 36 40 86 94 46 40 43 131 143 137 147
73 77 78 78 79 80 87 61 31 29 33 75 80 40 40 43 131 143 138 148
72 78 78 78 79 81 89 60 31 30 24 69 77 39 39 43 133 144 138 149
74 78 78 78 80 82 88 60 32 27 18 57 76 38 36 46 134 146 140 149
76 78 78 78 80 84 87 61 38 40 33 59 73 35 34 47 136 146 142 150
81 77 78 79 81 83 89 50 83 109 100 93 64 34 30 47 137 146 142 151
84 77 78 81 83 84 88 48 32 31 32 41 60 35 31 45 136 145 142 150
80 77 78 80 83 84 88 54 28 26 33 38 57 36 29 45 137 146 143 150
79 77 81 86 83 84 88 54 33 35 34 42 57 39 35 41 127 140 137 140
