P2
20 28
255
38 46 49 50 53 54 55 56 55 41 59 64 67 68 71 51 84 98 86 85
42 48 50 53 54 55 57 57 55 42 62 64 68 69 72 51 86 115 87 86
47 51 52 54 55 57 57 57 56 43 62 68 71 69 71 52 89 110 91 91
50 53 53 54 55 57 57 59 58 44 67 42 31 67 72 53 91 106 96 96
51 54 54 55 57 58 60 63 61 45 64 51 37 48 77 52 93 106 98 99
54 55 56 57 59 62 63 66 63 48 60 134 123 40 81 53 97 116 103 103
56 57 57 56 61 64 66 69 68 51 63 129 118 41 84 55 101 120 108 108
57 57 58 60 64 68 70 72 71 52 76 84 71 49 86 57 106 119 111 112
57 60 63 64 66 71 72 75 73 51 87 134 100 77 88 61 112 120 114 116
57 62 66 65 68 73 75 77 74 56 83 94 117 93 87 65 118 124 119 123
59 64 68 68 71 77 77 78 75 57 87 87 79 85 90 66 124 129 126 127
62 66 70 69 73 78 77 78 75 58 90 94 73 85 92 67 129 130 126 129
64 68 73 72 75 77 78 79 76 57 69 73 96 69 97 70 133 132 129 133
64 69 75 74 76 77 78 80 80 50 46 122 122 38 82 73 135 134 132 136
65 71 76 76 77 78 78 82 77 46 52 103 106 39 54 65 141 136 132 137
67 72 77 76 77 78 78 82 73 45 54 123 94 39 49 51 145 138 135 142
68 73 77 77 77 78 79 84 66 41 59 124 80 40 46 50 148 141 141 143
70 75 77 77 78 78 79 86 58 39 58 112 62 41 41 53 150 143 143 144
72 76 78 77 78 79 79 86 57 36 61 95 51 39 36 57 154 143 147 149
74 77 78 77 78 80 80 87 54 31 64 75 44 36 33 58 157 145 144 151
76 77 78 78 79 81 82 86 49 25 65 69 38 32 31 60 161 147 146 150
76 77 78 78 81 81 83 84 45 22 65 65 34 31 31 62 163 148 147 151
77 78 78 79 81 81 82 83 37 19 63 57 32 31 33 56 158 150 147 151
77 78 79 80 81 83 83 82 46 34 71 56 31 29 31 50 153 152 148 151
77 78 79 82 82 82 85 77 88 107 115 85 30 27 31 46 147 152 146 151
77 78 80 84 82 82 85 75 35 30 60 45 34 30 31 42 136 152 147 150
77 79 80 81 83 81 86 69 31 29 64 47 35 30 35 41 132 151 148 150
77 79 83 86 83 83 86 69 37 36 69 47 36 32 33 43 125 142 141 141
