P2
20 28
255
100 100 60 34 49 49 50 53 55 56 56 55 42 55 68 68 66 58 47 44
98 99 66 35 50 50 52 53 56 57 56 56 43 56 68 69 67 60 49 45
88 97 65 38 53 52 53 54 56 57 57 58 44 57 72 70 67 61 49 47
95 101 66 39 56 53 53 55 57 60 59 58 43 23 53 73 68 62 49 48
90 98 66 41 56 54 55 56 61 63 62 59 44 48 41 70 70 64 49 52
88 96 65 43 59 56 56 57 64 66 66 59 67 159 80 63 73 65 49 54
82 88 61 44 59 56 56 58 66 68 69 65 67 142 80 66 75 66 51 57
67 73 54 44 59 57 60 62 68 71 71 72 74 83 61 74 77 68 52 60
70 78 55 45 62 62 64 64 71 72 74 72 103 130 98 83 77 70 54 63
71 77 55 47 64 65 66 66 73 75 77 75 86 105 106 85 81 73 56 67
73 80 54 49 66 67 69 68 76 78 77 77 78 89 83 87 84 76 58 72
73 84 56 49 69 70 70 71 77 77 79 74 75 84 78 90 86 79 59 75
68 78 56 51 71 72 73 73 77 78 71 75 111 90 84 70 92 81 62 77
72 81 56 52 73 73 75 75 77 82 44 95 148 126 82 37 80 86 62 79
71 79 58 53 73 75 76 76 78 77 60 93 77 110 72 37 52 86 63 81
78 90 62 53 75 76 77 76 79 71 77 86 35 122 70 39 45 83 66 82
93 94 69 54 77 77 77 76 78 71 51 74 49 110 64 40 40 81 67 84
142 126 106 51 79 77 77 76 80 65 29 42 50 99 55 38 33 78 67 86
142 91 75 58 79 77 77 76 82 59 23 29 50 81 49 35 31 74 69 89
87 20 24 66 79 77 77 76 82 64 26 28 45 63 40 33 29 71 70 89
26 28 34 61 79 77 78 79 80 82 65 26 42 55 37 31 29 68 71 90
30 35 40 66 79 77 74 72 75 82 73 18 29 46 34 31 28 63 71 93
23 29 36 68 80 76 99 113 109 105 102 79 87 65 29 30 27 58 72 94
56 39 32 71 80 76 95 109 109 108 102 80 78 60 30 28 27 56 71 94
211 175 72 67 82 78 77 74 109 125 115 66 28 36 33 27 25 54 70 95
223 210 167 74 81 80 81 83 83 85 63 27 46 42 33 29 27 49 68 94
227 191 197 104 74 81 80 82 83 83 55 24 54 44 33 30 26 48 67 94
204 172 202 131 71 83 81 83 83 85 48 28 56 46 34 29 25 49 64 90
