P2
20 28
255
29 39 44 45 49 52 54 55 55 43 59 63 65 67 70 50 76 89 84 84
40 47 50 50 53 54 55 56 55 43 61 64 65 69 71 51 77 91 85 85
43 49 50 53 55 56 57 57 56 45 59 60 69 70 72 50 78 93 86 87
47 50 51 54 56 57 57 57 58 43 36 42 64 70 71 50 79 94 92 92
50 52 53 54 56 57 58 59 60 35 26 57 58 72 71 51 82 95 96 96
52 54 55 56 57 59 61 64 65 34 87 152 64 75 75 51 85 97 97 98
55 56 56 57 59 62 63 65 67 36 121 163 67 78 80 52 88 99 100 103
56 57 57 57 61 64 65 68 70 42 88 115 77 78 80 55 93 103 108 110
57 57 58 60 64 67 69 72 70 57 73 96 102 80 83 56 99 108 110 114
57 60 63 64 66 71 72 75 73 60 105 145 103 83 88 60 103 113 114 118
57 62 66 65 68 73 75 77 75 56 81 103 92 85 89 63 108 116 117 122
59 63 68 67 70 76 77 77 78 51 63 83 92 91 91 64 113 119 122 129
62 66 70 69 73 77 77 78 77 44 60 91 81 90 96 66 117 122 124 130
64 68 73 72 74 78 78 74 63 40 64 110 80 63 95 69 120 126 127 133
64 69 74 74 75 77 81 61 51 43 64 119 96 50 77 71 124 131 133 138
65 71 76 75 77 77 80 64 45 47 57 119 92 48 66 71 128 132 135 143
67 71 77 76 77 78 79 71 43 44 56 136 104 45 61 70 132 135 134 143
68 72 77 76 77 78 78 63 43 42 56 126 105 43 51 68 134 139 136 144
70 74 78 77 77 79 80 71 42 40 53 111 96 43 45 67 137 141 141 146
71 76 78 77 78 80 79 67 37 33 50 100 84 41 40 65 140 139 142 149
74 77 78 77 77 83 130 70 27 31 44 91 72 38 39 63 141 140 142 150
75 77 78 78 79 81 169 79 21 29 36 84 65 35 41 61 143 142 142 151
76 77 78 78 80 80 147 91 28 23 29 81 62 34 39 55 144 143 144 151
77 78 78 79 81 81 100 113 49 40 42 81 58 32 37 51 144 144 144 151
79 77 78 79 82 83 81 91 97 108 102 107 51 31 34 53 145 144 145 151
81 77 78 81 83 85 86 87 48 35 31 70 54 30 31 52 145 143 145 150
76 78 77 80 83 85 84 86 42 30 33 67 54 29 33 54 145 144 146 151
75 78 80 86 84 85 86 85 41 40 36 66 56 35 33 49 137 137 139 142
