P2
20 28
255
35 44 48 48 51 53 55 56 57 42 56 63 65 67 71 53 69 92 85 85
41 48 50 51 54 55 56 57 57 42 59 66 66 70 72 53 71 92 85 86
44 50 50 53 55 56 57 57 58 45 53 50 67 70 72 52 72 94 88 88
48 51 52 54 55 57 57 58 59 47 30 30 53 70 71 53 74 95 93 94
51 53 54 55 56 57 59 61 63 42 39 108 72 68 74 53 77 95 94 97
54 55 56 56 58 61 62 65 67 37 85 184 89 69 80 54 79 99 97 100
55 56 57 57 59 64 64 66 71 39 82 161 85 71 82 55 83 101 101 105
57 57 57 58 62 65 66 70 72 51 63 80 87 80 82 56 88 105 106 112
57 58 61 63 65 69 70 72 74 56 91 134 121 84 87 60 93 111 109 116
57 61 65 65 66 71 73 75 77 56 87 122 110 82 89 63 97 115 114 119
59 62 66 66 68 74 76 76 77 57 74 82 94 87 91 64 101 119 117 125
61 64 68 68 70 77 77 77 80 52 61 86 88 93 93 66 105 123 119 129
64 67 71 70 73 77 77 77 81 48 61 82 86 76 100 67 109 125 122 131
64 68 73 73 74 78 78 79 70 44 65 118 105 52 86 71 113 129 126 135
65 69 75 74 76 77 80 70 54 45 60 103 109 50 65 68 117 133 129 136
66 70 76 76 77 77 81 65 44 50 53 120 118 47 60 63 122 134 129 140
68 71 77 77 77 78 81 74 42 46 54 113 123 49 54 58 125 139 132 143
69 73 77 77 78 77 83 70 39 40 53 108 113 48 46 55 128 142 137 143
71 75 78 77 78 79 84 63 38 42 49 97 101 48 41 53 130 142 139 145
73 76 78 77 78 79 85 61 42 37 45 88 88 45 38 50 133 141 138 148
74 77 78 78 79 81 85 54 37 30 35 79 75 39 40 50 133 143 139 150
74 78 78 78 80 83 83 51 37 28 26 73 69 38 39 45 134 144 140 150
75 78 78 78 80 84 80 58 36 22 21 66 69 36 37 44 135 146 142 150
76 78 78 78 79 86 71 51 45 38 36 66 67 33 36 48 136 147 143 151
81 77 78 79 81 87 67 46 87 108 99 100 60 32 31 48 137 146 143 151
84 77 78 81 82 87 67 55 41 31 31 49 60 32 32 46 137 146 143 151
79 78 77 80 83 86 62 57 48 26 33 45 59 32 30 47 137 146 144 151
78 77 81 86 83 86 65 58 51 35 35 46 56 37 35 43 130 140 138 140
