P2
20 28
255
45 51 55 56 56 56 56 59 42 47 66 66 67 69 68 69 69 40 70 95
47 52 56 56 56 56 56 59 43 49 67 66 69 70 71 69 68 40 73 94
49 54 56 56 56 57 56 60 43 51 70 70 60 34 57 71 68 40 75 93
51 56 56 56 56 62 59 64 43 50 69 70 36 16 31 68 70 40 76 93
53 57 56 59 60 63 63 67 45 52 73 61 44 82 27 55 74 40 79 95
56 57 59 64 64 64 64 68 47 54 77 48 50 164 109 51 74 41 79 101
57 57 62 64 64 66 65 72 50 56 78 54 67 165 138 68 73 43 83 106
57 58 64 64 66 70 69 74 51 59 78 92 97 121 131 69 75 43 87 111
57 62 66 69 69 72 70 77 52 60 78 116 125 74 87 74 78 44 90 109
61 64 68 71 69 76 73 80 53 61 81 101 131 146 61 75 82 45 95 110
64 64 70 73 72 77 75 81 55 62 85 86 124 149 96 81 82 47 95 127
64 66 73 75 76 77 76 81 55 65 88 86 128 106 87 87 83 49 99 124
64 66 74 77 77 77 76 81 55 67 91 89 101 86 82 87 85 49 103 126
68 69 76 77 77 77 77 82 55 70 72 91 101 81 74 86 87 51 107 124
68 71 76 77 77 78 77 83 59 60 44 106 92 66 77 85 88 52 109 127
71 72 77 77 77 79 79 79 61 56 43 102 120 59 58 86 88 53 111 127
72 73 77 77 77 80 82 68 51 56 42 94 129 91 37 73 93 52 113 126
71 74 77 77 78 79 84 62 45 53 40 81 103 93 50 48 85 55 114 127
72 75 78 78 77 78 82 64 46 49 55 103 102 122 47 42 57 54 117 130
73 76 77 77 77 79 82 61 41 37 85 158 96 141 45 44 46 48 119 131
74 77 78 78 78 80 80 56 46 34 116 162 93 140 49 45 43 44 120 132
75 78 78 78 79 83 74 38 29 35 96 103 84 130 47 44 41 44 121 133
76 78 78 78 80 82 100 93 79 93 102 84 109 122 44 43 35 40 122 134
75 78 78 77 79 82 94 87 86 144 95 83 102 108 43 40 32 39 123 134
75 78 78 78 79 85 72 36 91 162 119 72 64 93 42 38 31 38 124 132
75 78 79 80 81 84 75 41 63 152 69 30 72 83 39 36 29 36 126 132
73 78 78 80 81 85 70 46 48 109 49 24 69 76 37 33 29 35 127 132
73 78 81 86 83 87 71 50 40 75 35 27 64 72 36 30 29 36 122 123
