P2
20 28
255
92 53 33 47 49 49 51 53 55 55 54 42 55 68 68 68 65 50 53 89
96 64 34 50 50 51 54 55 56 56 57 43 56 68 69 70 67 51 53 98
93 61 38 52 51 52 54 56 57 57 58 44 58 70 69 70 69 51 55 100
97 63 39 55 53 53 54 56 58 59 59 41 42 70 70 70 69 52 58 99
98 63 41 56 53 54 56 57 61 62 57 28 20 54 75 72 71 53 59 97
95 62 43 59 56 56 57 62 65 66 56 98 88 41 80 73 72 54 62 106
90 60 45 60 56 56 57 64 66 69 61 142 114 40 83 76 73 55 65 114
74 51 46 59 57 58 61 67 70 71 67 91 81 47 83 77 76 55 69 113
76 53 45 62 62 63 64 70 71 74 76 102 92 81 84 81 79 57 72 113
77 53 47 63 65 65 65 73 74 77 77 116 125 95 84 85 80 58 75 134
78 52 50 66 67 68 68 75 77 77 77 76 86 83 88 87 84 59 81 132
85 54 50 69 69 70 70 77 77 77 78 95 84 84 91 89 86 61 86 130
79 54 51 70 72 73 73 78 77 78 80 72 99 63 90 93 89 64 88 133
80 54 53 72 73 75 75 77 77 80 51 97 124 35 67 98 91 64 91 137
79 56 53 73 76 77 77 77 80 63 39 93 102 39 48 80 96 64 93 138
86 58 54 74 76 77 76 77 80 55 43 103 90 40 46 62 97 66 96 140
92 63 55 76 77 77 76 77 79 51 50 106 71 42 41 60 97 66 97 143
119 93 53 79 77 77 77 77 78 43 51 94 56 41 36 56 96 66 99 143
112 91 55 80 77 77 77 78 76 36 53 76 47 36 34 51 95 67 101 149
29 31 68 78 77 77 77 79 75 32 52 62 41 33 33 49 95 68 103 150
27 31 63 79 77 77 77 81 75 28 54 59 35 31 35 48 97 68 106 150
32 40 65 79 77 77 77 82 71 23 55 57 33 30 33 49 97 69 106 150
33 37 68 79 77 78 77 85 64 17 53 49 31 30 36 48 99 69 107 150
22 34 69 80 77 78 78 86 67 31 65 50 30 27 33 48 100 70 109 150
128 47 70 81 77 80 80 84 101 104 111 83 29 28 35 50 100 69 109 150
204 132 67 81 79 81 81 86 50 26 48 40 34 31 31 46 99 68 109 148
184 190 88 75 80 80 82 85 44 22 48 39 34 30 30 50 98 67 109 153
157 196 109 78 83 81 83 84 47 35 47 40 36 34 32 51 93 65 104 158
