P2
20 28
255
26 36 42 44 48 49 51 53 53 44 59 62 65 67 69 48 80 89 84 81
37 45 48 48 51 54 55 57 55 43 61 63 65 69 70 49 80 90 85 85
42 48 50 52 54 55 56 57 55 45 64 64 67 70 71 50 81 95 87 87
46 50 51 54 56 57 57 57 56 45 44 53 69 69 71 50 82 96 91 92
49 52 53 54 56 57 57 58 59 35 28 40 62 71 70 50 84 95 95 95
51 53 54 56 57 58 60 62 63 31 50 101 61 75 73 52 87 96 97 98
54 56 56 57 59 61 62 65 64 37 121 155 63 79 77 52 90 98 99 102
56 57 57 57 60 64 64 67 68 38 120 144 69 79 79 54 94 102 106 109
57 57 57 58 63 66 68 70 70 53 69 85 89 79 80 56 100 108 110 113
57 59 61 63 66 70 71 74 71 65 92 127 102 82 86 59 104 110 114 117
57 62 65 64 67 72 74 76 74 57 96 126 88 85 87 62 110 115 116 120
58 63 67 66 70 75 76 77 76 53 70 91 94 89 89 64 115 118 121 128
61 65 69 68 72 77 77 78 76 43 56 84 85 94 92 65 119 120 124 129
64 68 72 71 74 79 79 73 63 40 56 98 70 77 97 68 123 123 127 133
64 69 74 73 76 70 77 56 47 42 64 126 83 55 84 71 126 129 132 135
65 70 75 75 74 117 100 64 44 45 57 112 86 49 72 73 129 131 132 138
66 71 77 75 77 130 136 76 49 44 56 136 90 47 66 73 133 132 134 144
68 72 77 75 85 100 98 66 47 42 56 131 102 42 57 73 136 137 138 144
69 74 77 78 71 102 120 52 33 37 58 118 96 42 49 72 138 140 140 143
71 76 78 77 77 80 47 37 26 31 54 107 87 41 44 72 141 138 143 146
73 76 78 77 78 79 32 23 26 30 47 101 76 38 42 70 142 138 143 150
75 77 78 78 79 83 77 71 34 26 39 92 67 35 43 68 144 140 143 150
76 77 78 78 81 84 89 89 37 21 29 83 63 34 41 65 147 142 144 151
77 78 78 79 81 85 85 88 50 39 41 84 61 32 38 59 148 143 145 150
76 78 78 79 82 85 85 86 97 108 102 107 53 31 36 55 148 143 145 150
79 77 78 81 83 85 86 88 45 32 33 72 53 28 32 53 148 143 145 150
77 78 78 80 83 85 86 85 38 30 30 71 53 28 33 55 149 144 146 151
75 78 81 87 84 85 88 79 37 40 30 63 53 33 33 53 141 137 140 142
