P2
20 28
255
46 51 56 56 56 56 58 53 43 66 70 65 50 62 68 68 61 44 87 91
46 54 56 56 57 56 58 53 43 67 72 42 25 50 68 69 60 45 91 91
51 56 56 56 59 58 60 54 44 70 66 22 27 39 62 71 60 46 93 89
53 56 57 58 61 61 64 55 44 73 53 37 57 22 49 73 61 47 96 92
55 57 60 61 63 64 65 58 45 76 39 61 148 104 60 74 63 49 98 97
55 60 63 63 65 64 68 61 45 77 43 58 149 156 82 76 65 51 100 112
55 61 64 64 67 67 71 64 46 77 74 95 161 141 75 79 67 53 106 111
57 63 67 66 70 69 73 65 47 78 109 95 73 130 81 82 68 55 110 111
61 65 70 69 73 71 76 68 48 78 122 123 83 62 76 89 69 58 113 104
61 67 71 70 75 74 78 69 50 79 96 114 143 97 78 89 70 59 119 117
62 68 73 73 77 76 79 70 51 84 93 115 140 116 86 88 72 62 121 147
64 71 76 76 77 76 79 69 54 75 70 108 91 89 91 90 73 64 125 125
65 72 77 77 77 77 79 75 71 59 62 89 73 87 93 92 75 65 129 124
67 74 77 77 77 78 79 51 65 59 54 89 85 87 97 95 76 68 131 123
69 75 77 77 77 77 71 32 52 58 53 72 73 74 99 97 78 70 134 124
70 76 77 77 79 91 65 74 56 54 54 91 73 46 88 101 78 71 137 127
71 76 78 75 89 193 127 59 56 48 51 86 98 41 55 100 80 73 140 128
72 77 78 74 100 179 144 69 50 45 56 49 87 55 44 78 83 74 141 127
72 77 78 75 99 95 112 87 46 43 56 57 103 58 46 61 80 76 143 128
73 77 78 77 80 115 158 68 45 43 54 62 125 59 46 56 76 77 144 129
74 77 77 82 64 86 133 57 42 40 60 61 145 72 44 55 74 80 147 131
75 77 77 83 66 55 70 40 23 26 46 48 136 78 45 53 74 81 149 131
76 77 79 82 73 28 77 90 78 68 73 96 140 91 46 46 70 83 149 132
74 78 79 82 83 31 49 77 77 82 85 92 138 90 43 41 70 83 149 131
76 78 80 81 88 54 27 17 75 105 102 80 118 74 39 39 69 83 148 128
75 78 80 82 85 83 78 30 28 34 39 45 116 69 33 38 65 83 147 126
74 78 79 82 85 86 80 28 24 24 32 38 112 66 29 36 63 83 147 124
72 78 82 88 86 87 82 31 27 37 39 36 95 59 30 36 61 82 138 117
