P2
20 28
255
47 53 56 56 58 52 42 67 68 69 70 69 67 69 63 52 111 103 92 83
49 55 56 56 58 52 42 67 69 72 62 44 62 70 63 53 113 109 99 86
53 57 58 56 58 53 43 68 70 73 35 24 46 69 63 54 116 106 100 91
55 57 60 59 61 54 44 69 72 64 24 26 27 61 64 55 119 109 103 95
57 58 61 62 64 56 45 70 76 47 54 104 37 51 66 57 123 113 107 97
58 61 64 63 67 59 45 70 80 36 59 167 137 65 64 60 125 124 113 100
61 63 66 66 70 62 46 72 81 53 76 168 143 78 66 62 129 124 115 104
63 65 70 69 72 64 46 76 83 93 101 132 140 75 69 66 135 123 118 107
66 68 72 71 75 67 46 78 80 127 114 60 93 82 71 69 141 124 117 112
68 68 74 73 77 69 48 81 80 115 131 126 64 80 75 71 144 125 121 114
70 71 76 75 79 70 49 83 84 99 116 155 110 84 75 74 147 144 128 116
72 74 77 76 80 70 51 88 83 90 125 115 94 90 74 77 154 139 129 121
74 76 77 76 80 71 49 80 64 69 104 84 87 94 76 81 158 136 136 124
75 77 77 78 81 73 43 56 62 56 95 80 86 96 77 83 162 136 132 128
76 77 78 76 76 74 37 45 60 48 75 81 84 97 79 85 166 139 134 130
77 77 77 87 104 76 65 66 51 55 73 54 60 97 79 87 169 140 135 131
77 76 82 183 194 70 73 60 47 52 91 87 32 82 82 88 173 142 137 133
78 72 112 209 172 90 67 56 43 55 51 79 39 53 75 91 176 142 140 136
78 72 116 97 124 135 61 48 41 55 55 87 50 46 55 96 178 144 141 139
77 77 75 97 137 105 53 39 43 50 63 108 52 49 44 95 180 145 142 141
77 79 71 116 102 50 38 28 35 55 63 134 63 49 40 95 181 146 143 142
77 78 81 86 46 24 24 18 21 32 47 135 64 43 42 96 181 147 157 142
77 78 82 85 74 23 62 82 83 66 80 134 106 71 33 96 182 147 151 143
77 78 83 84 88 60 53 76 82 90 79 134 100 68 25 96 181 146 151 148
77 79 84 84 88 80 22 15 77 109 93 131 61 39 28 97 179 145 141 141
76 79 83 84 89 78 28 27 27 36 33 94 65 37 28 97 178 143 142 140
75 79 82 82 88 77 26 25 24 30 29 79 61 32 29 98 179 145 143 139
74 78 85 88 88 77 30 27 28 39 31 64 54 34 32 96 170 138 135 130
