P2
20 28
255
92 74 33 35 46 50 49 52 53 55 54 52 41 61 68 68 65 57 43 57
100 102 51 38 50 51 52 54 56 57 55 54 42 61 68 70 66 59 44 58
88 95 50 42 52 52 53 55 57 57 57 56 44 64 69 70 67 60 43 62
93 99 51 44 54 53 53 55 57 59 58 57 40 58 71 70 67 60 44 64
94 99 52 46 55 53 54 56 60 62 60 51 18 29 69 72 69 63 46 66
88 96 51 48 57 55 56 58 64 66 63 54 92 58 57 77 70 65 46 70
88 94 51 50 59 56 56 59 66 67 65 69 161 86 56 82 71 67 47 74
72 77 46 51 58 56 57 62 68 70 70 66 110 69 58 83 73 68 49 78
68 75 45 51 60 61 63 65 70 72 72 79 94 77 78 83 75 70 50 83
72 78 46 53 64 65 65 66 72 74 74 88 130 118 88 85 78 72 51 86
72 76 45 56 64 67 67 69 76 77 77 76 81 91 85 87 83 75 53 90
75 83 46 56 68 70 69 71 78 78 77 80 96 78 88 90 84 77 54 95
70 80 47 58 69 72 72 74 78 77 78 79 77 91 71 94 85 81 56 98
73 79 47 60 71 74 74 75 77 79 73 55 117 100 36 82 89 83 57 102
71 79 48 60 72 76 76 76 78 78 50 50 116 85 36 54 85 86 58 105
79 84 51 62 73 77 77 77 79 73 44 56 114 71 41 46 71 89 58 106
81 92 53 62 75 77 77 76 79 68 41 65 116 62 44 41 69 90 60 108
113 112 70 61 77 77 77 76 81 57 37 66 101 50 42 36 67 90 59 110
134 131 82 61 79 77 77 76 82 49 34 66 83 45 37 34 61 91 61 113
100 38 42 72 77 77 77 77 80 46 31 64 65 41 33 33 58 92 63 114
33 22 34 71 78 77 77 78 78 38 28 65 58 35 32 34 56 92 63 117
29 33 43 70 78 77 77 79 75 32 24 64 55 34 31 33 55 92 63 119
32 35 42 73 78 77 77 82 65 26 25 63 48 32 30 34 54 92 64 119
17 21 42 74 79 77 77 83 62 39 47 67 42 32 27 31 56 93 64 119
134 89 38 80 78 78 79 81 98 107 108 97 36 32 26 35 56 93 64 120
222 199 95 73 80 79 81 83 50 39 48 57 40 34 31 31 52 92 64 120
219 200 172 75 79 80 80 84 53 40 49 57 41 33 30 27 56 92 63 120
204 169 190 93 78 82 82 85 53 53 49 55 42 37 29 29 58 88 61 114
