P2
20 28
255
45 51 55 56 56 56 56 57 39 62 68 70 71 69 67 67 63 38 74 87
46 53 56 56 56 56 57 58 40 62 70 46 44 68 68 67 64 39 77 84
48 55 56 56 57 57 57 57 40 65 61 21 30 52 68 68 65 40 80 87
51 56 56 56 58 59 59 60 41 68 46 34 40 32 64 69 65 40 83 87
53 56 58 59 61 62 62 62 42 69 39 107 151 98 57 72 67 41 86 89
55 57 61 62 63 64 64 63 43 66 30 108 181 144 63 76 68 42 88 94
55 58 63 63 64 65 66 67 44 67 36 122 181 132 67 80 70 43 91 100
56 59 65 64 67 68 69 69 44 71 83 80 108 123 69 81 73 44 95 99
58 62 67 68 70 71 71 72 44 77 114 95 80 57 79 83 75 45 99 101
61 64 70 70 72 73 73 75 44 79 121 127 147 88 82 86 77 47 104 104
61 65 72 70 74 76 76 77 48 74 91 124 139 112 84 87 80 47 109 108
62 67 73 74 77 76 77 77 49 78 89 113 91 102 87 87 81 49 113 113
63 70 76 76 77 77 78 77 50 81 80 85 80 93 91 90 83 51 116 116
65 71 77 77 77 77 78 77 51 66 77 90 88 89 93 91 84 53 118 116
67 72 77 77 77 77 79 77 53 49 84 77 88 85 97 94 86 54 121 119
69 74 77 77 78 78 79 79 65 46 92 74 62 61 91 97 88 55 125 121
70 75 77 77 79 80 78 72 61 49 80 126 104 47 66 99 90 56 128 123
70 75 78 77 78 81 60 60 59 44 76 113 100 58 50 76 94 56 130 127
71 76 77 77 78 80 43 49 55 41 72 84 94 66 52 57 83 60 132 128
72 76 78 77 79 81 51 44 52 51 64 104 126 59 51 53 73 62 134 128
72 77 77 77 81 80 53 46 52 51 63 96 137 68 52 50 69 62 136 130
73 77 77 78 82 78 43 26 32 42 50 80 136 71 52 49 64 63 137 131
74 77 78 78 85 70 73 88 81 77 86 108 142 88 50 44 56 65 139 131
75 78 79 80 86 65 60 85 82 82 87 105 132 84 49 35 55 65 139 131
74 78 78 80 86 63 31 25 80 107 101 99 111 64 48 35 56 64 139 130
74 78 80 81 87 68 28 35 33 35 42 72 106 59 45 34 54 63 139 128
73 78 79 80 88 55 23 34 27 26 36 66 96 54 41 34 49 62 140 127
72 78 82 87 88 52 33 32 29 37 32 58 75 49 39 33 49 61 133 119
