P2
20 28
255
39 47 49 51 54 55 56 57 53 42 62 65 67 68 70 51 90 96 86 85
43 50 51 53 54 55 57 57 53 43 63 64 70 70 71 51 91 96 88 86
48 51 53 54 55 57 57 58 55 44 64 68 64 69 70 52 95 96 91 93
50 53 53 55 56 57 58 60 56 45 69 55 18 45 73 52 96 97 95 97
52 54 54 56 57 59 61 64 58 46 70 54 63 40 69 54 98 98 97 99
54 55 56 56 60 62 64 67 62 50 64 88 166 63 64 57 103 100 100 105
56 57 56 57 61 65 67 70 65 52 70 87 148 56 67 60 109 104 106 111
57 57 59 61 66 69 71 72 67 52 80 75 81 56 75 61 115 109 109 116
57 61 64 64 67 71 73 76 70 56 79 115 130 93 84 64 120 112 113 120
58 64 66 65 70 75 76 78 71 58 87 84 108 105 85 67 126 116 118 125
60 65 68 68 72 77 77 78 72 58 91 85 80 80 87 69 132 120 121 128
63 67 71 70 74 77 77 79 72 62 89 86 84 76 89 71 136 123 123 130
65 69 74 72 75 77 77 80 72 63 63 66 89 78 76 77 139 127 124 134
64 71 75 74 76 77 78 81 78 52 43 76 137 75 47 72 143 129 128 136
65 72 77 75 77 78 78 81 81 53 46 70 120 71 39 64 148 130 131 140
68 73 77 76 77 78 79 82 80 48 47 77 141 60 44 60 142 135 133 144
69 74 77 76 77 79 81 83 77 41 46 80 128 55 45 57 141 139 137 144
71 76 77 77 78 79 81 85 72 37 46 76 109 46 44 46 136 143 138 145
72 77 78 77 78 80 81 86 72 34 43 76 88 43 41 42 130 145 139 149
74 77 78 78 79 80 81 86 69 31 39 75 68 40 37 39 122 148 140 151
75 77 78 78 80 81 82 86 64 28 32 75 58 35 33 34 114 150 141 151
76 77 78 79 81 82 83 87 59 28 29 75 55 32 33 37 105 152 142 151
77 78 79 79 81 82 82 87 52 23 26 70 48 31 32 35 97 153 143 151
77 78 79 80 82 83 83 87 59 37 40 73 41 30 29 32 90 154 143 151
77 78 79 82 83 83 84 84 98 106 103 98 34 30 28 33 85 152 143 151
77 79 81 84 84 83 83 85 47 33 35 62 38 33 29 31 78 148 144 151
77 79 80 82 84 83 84 84 41 31 36 65 42 33 29 35 76 146 145 151
77 80 83 87 84 83 84 83 49 39 37 64 41 38 29 35 75 138 136 141
