P2
20 28
255
45 50 56 56 56 56 56 58 41 59 69 67 56 68 68 66 65 39 68 90
46 53 56 56 56 57 57 59 40 59 72 45 25 55 68 68 66 40 71 88
48 55 56 56 57 58 57 60 41 62 69 24 24 33 61 69 66 40 74 88
52 56 57 57 59 61 60 63 42 66 54 49 91 42 50 71 68 41 76 90
53 57 58 61 62 63 63 63 43 68 43 68 169 153 65 69 70 40 79 93
55 57 62 63 64 64 64 67 43 69 39 69 168 162 80 73 72 42 82 99
55 58 64 64 65 66 67 71 45 67 71 95 148 160 77 77 74 43 86 104
56 60 65 66 68 70 69 73 47 67 106 97 60 108 78 79 77 44 90 105
59 64 68 69 71 72 71 76 48 68 123 129 119 65 69 87 79 45 94 106
60 64 70 70 72 75 73 78 48 69 95 116 158 118 79 86 81 46 98 107
61 65 71 71 74 77 75 79 49 71 87 122 123 108 88 86 84 46 101 120
63 68 74 75 77 77 77 79 50 76 85 101 87 94 91 88 85 48 104 122
64 69 76 77 77 77 77 79 51 69 81 89 81 86 92 89 87 50 109 118
66 70 77 77 77 77 78 79 53 51 79 88 97 88 95 92 88 51 112 121
68 72 77 77 77 77 79 79 68 48 82 80 63 81 96 94 91 53 115 123
69 74 77 77 78 78 79 77 66 51 74 108 74 55 83 99 93 53 119 125
70 75 77 77 78 81 72 64 64 52 63 127 112 49 55 95 95 53 122 128
71 75 77 77 77 83 52 47 61 44 63 85 86 65 46 70 98 54 123 130
71 76 77 77 78 81 51 41 56 55 59 85 106 68 49 55 86 57 125 131
71 76 78 78 78 81 55 44 52 53 58 84 133 67 48 51 79 58 127 131
72 77 78 78 80 81 52 43 42 48 57 62 138 82 49 49 75 59 129 134
73 77 77 78 82 79 41 34 27 35 47 53 133 83 49 49 71 60 130 135
74 77 78 79 84 76 72 91 83 73 83 97 138 94 49 42 64 60 131 134
74 77 79 80 85 73 65 81 82 83 84 100 127 89 48 34 63 62 132 134
75 78 79 80 86 73 24 27 81 104 98 90 107 70 45 34 62 62 132 132
75 78 79 81 84 82 33 34 41 32 41 59 102 65 43 34 61 60 131 130
73 78 79 80 85 82 36 29 33 31 32 53 90 55 40 32 56 59 132 129
71 77 82 87 86 83 40 35 36 35 25 47 82 52 38 32 56 58 125 121
