P2
20 28
255
27 38 46 50 50 53 54 57 54 48 57 58 64 67 66 33 22 22 25 32
27 39 46 49 49 50 52 54 53 48 59 61 65 69 68 45 46 61 70 78
28 39 45 47 50 51 53 56 52 45 62 64 65 69 69 50 90 93 88 86
41 48 50 51 54 55 56 59 53 46 64 63 65 69 70 51 87 88 86 87
47 51 51 53 55 56 57 58 54 49 68 63 69 70 69 50 89 92 89 90
48 51 52 55 56 57 57 59 54 51 47 49 69 70 69 51 90 95 92 93
51 53 54 55 56 57 58 60 58 44 30 40 59 72 70 52 91 96 95 97
53 54 55 57 57 58 60 63 62 36 28 73 70 75 72 53 93 97 99 101
55 56 57 57 60 62 63 65 64 32 77 151 82 76 75 54 97 99 104 106
56 57 57 56 61 65 66 68 67 32 89 154 85 76 76 56 102 104 110 111
57 57 58 61 65 67 70 72 68 50 71 90 89 82 79 59 107 108 112 116
57 61 63 64 68 71 73 76 69 64 79 98 104 84 83 62 111 111 116 120
57 64 66 65 69 74 76 78 71 60 88 126 97 85 85 65 117 115 120 125
60 64 69 68 73 77 77 79 74 51 68 79 97 90 86 67 121 117 126 130
63 66 70 69 74 80 78 79 77 43 52 78 79 95 90 68 126 120 126 132
65 69 73 72 75 67 75 68 54 47 45 95 67 74 94 71 130 124 132 135
65 70 75 73 79 149 143 57 42 46 52 104 85 53 82 75 133 129 133 134
66 72 77 75 78 138 151 69 64 40 58 97 87 49 71 77 137 130 136 141
67 72 78 75 81 83 123 86 52 42 53 117 102 45 65 79 139 133 140 144
69 73 78 77 71 112 102 62 39 35 54 110 115 43 58 78 141 136 140 143
70 75 78 78 77 85 49 31 27 29 52 102 108 44 50 78 143 136 143 147
72 77 78 78 78 84 62 20 28 29 47 95 100 42 45 79 147 136 147 150
73 77 78 77 79 82 83 63 27 25 34 88 90 40 44 79 148 137 144 149
75 78 78 78 81 83 86 87 44 37 41 84 82 37 44 78 151 138 146 150
76 78 78 78 82 85 87 85 95 107 100 107 74 37 41 74 153 140 146 150
76 78 78 79 82 84 85 88 41 31 31 68 76 33 37 70 152 139 146 150
76 78 78 78 82 85 85 89 42 25 31 61 72 31 34 64 152 141 148 150
75 78 81 86 83 85 86 88 47 35 32 58 64 32 32 60 144 135 142 142
