P2
20 28
255
48 53 55 59 41 54 69 67 67 66 67 66 70 51 72 135 130 101 89 83
49 55 56 59 41 54 69 70 68 66 68 70 73 51 73 137 131 107 93 87
52 57 56 59 42 54 70 70 69 68 66 42 61 54 74 135 131 111 97 91
55 57 56 59 43 54 71 71 71 73 46 16 28 42 78 130 126 113 98 95
57 59 58 62 43 56 74 71 72 73 30 61 46 21 83 129 127 118 101 97
58 62 62 65 45 56 74 74 78 66 20 122 152 32 82 133 126 122 106 101
59 64 63 69 46 57 74 76 83 60 21 122 175 74 78 138 126 123 109 104
62 66 66 72 49 57 76 78 78 85 78 131 154 76 83 143 127 124 112 109
65 70 68 75 50 58 81 81 75 107 138 93 88 77 86 149 131 127 115 111
67 72 70 78 52 60 82 81 80 101 147 143 105 41 98 149 134 130 118 114
68 74 73 80 53 60 83 85 86 78 120 148 149 51 99 154 138 133 121 117
72 76 74 81 55 63 87 86 85 90 123 147 111 64 101 160 140 135 125 122
74 77 76 81 55 65 89 86 88 85 112 123 85 62 104 163 144 141 128 127
75 77 76 82 55 66 90 92 68 74 105 98 82 60 106 167 148 143 131 129
76 77 77 83 55 66 91 74 49 61 120 116 80 57 109 172 150 143 133 130
77 77 77 83 55 68 69 56 49 89 151 63 82 57 110 177 152 145 134 132
76 78 78 84 57 64 46 49 51 136 173 79 81 59 111 179 154 146 136 135
77 79 80 85 61 56 52 47 54 146 158 89 52 58 113 179 156 147 139 136
77 79 80 86 63 52 52 48 61 96 85 78 48 41 115 178 156 148 142 138
77 78 80 87 64 51 54 46 75 63 44 89 59 31 119 177 155 148 142 140
77 79 81 87 64 42 50 49 107 72 40 111 73 32 112 176 154 148 142 141
77 79 81 87 64 31 37 45 159 96 25 106 86 28 88 173 157 157 142 141
77 80 82 87 64 24 68 103 162 115 71 117 116 59 78 173 162 166 141 143
78 82 82 86 66 34 66 113 163 105 74 118 112 56 80 177 158 159 148 141
78 82 82 87 66 51 40 49 141 121 90 112 77 30 76 178 159 157 150 140
77 82 83 88 66 54 44 38 88 71 27 68 78 34 73 177 160 150 146 141
77 81 82 87 66 51 44 39 31 34 25 60 73 31 75 180 162 153 148 140
76 79 84 92 67 58 49 38 28 32 27 48 62 33 72 169 154 147 140 133
