P2
20 28
255
39 46 49 49 52 53 54 56 56 56 39 55 66 68 68 68 69 44 69 90
43 50 50 52 54 54 55 56 56 57 40 57 66 68 69 69 69 45 71 104
47 51 51 54 54 56 57 57 57 57 40 58 67 71 70 69 70 44 74 101
49 53 53 54 54 56 56 57 60 58 40 60 68 50 61 71 70 45 77 101
52 55 54 54 56 56 56 61 62 60 41 64 55 15 30 71 71 46 79 98
53 55 55 56 57 58 62 64 65 63 43 67 47 102 58 58 75 46 80 101
55 57 57 57 56 62 64 65 67 67 47 66 38 154 134 61 75 46 81 115
56 57 57 56 58 64 65 69 70 70 48 70 71 123 128 68 76 47 87 115
57 57 58 61 63 67 69 71 71 73 48 79 121 89 79 73 78 48 92 111
57 61 64 64 64 69 70 74 74 76 50 78 118 151 76 75 82 50 95 116
57 63 65 65 65 72 73 76 76 77 53 75 107 130 97 83 82 53 97 141
59 64 68 68 68 75 77 77 77 77 54 81 97 95 84 88 84 53 106 131
62 66 70 69 69 76 77 77 77 78 53 71 92 91 77 88 87 55 109 130
65 69 72 71 72 77 77 77 78 78 50 55 104 59 76 86 89 57 111 129
65 69 74 74 73 78 77 78 79 62 54 48 123 87 57 87 91 57 113 129
65 70 76 75 75 77 77 79 76 48 46 82 110 101 51 69 96 57 116 132
67 72 77 76 76 77 77 78 76 47 49 155 118 103 60 42 83 61 118 136
68 73 78 77 77 77 77 79 77 46 54 140 105 133 58 38 62 63 120 137
69 75 78 77 77 77 77 81 68 41 68 64 65 132 61 39 56 62 122 138
70 75 78 77 77 77 77 83 61 58 116 42 60 124 56 38 53 61 122 139
72 77 78 77 77 78 78 86 58 84 144 47 63 113 52 36 45 61 124 144
73 77 78 78 77 79 75 79 46 69 114 28 56 94 47 33 42 61 127 143
74 78 78 77 78 77 100 115 91 82 105 78 100 95 38 31 41 60 129 142
75 78 78 78 78 77 96 111 91 75 80 82 91 86 34 29 38 57 132 143
76 78 78 78 78 79 78 74 85 99 96 67 51 69 34 28 35 54 133 142
76 78 78 79 78 81 83 80 36 30 29 31 61 67 32 28 34 52 134 142
77 78 78 78 79 82 82 82 35 23 25 27 58 58 30 26 32 50 135 141
77 77 81 86 83 83 83 85 47 32 26 30 57 54 28 26 31 48 130 133
