%TF.GenerationSoftware,KiCad,Pcbnew,9.0.1*%
%TF.CreationDate,2025-10-31T22:00:19-04:00*%
%TF.ProjectId,flex_usb_board,666c6578-5f75-4736-925f-626f6172642e,rev?*%
%TF.SameCoordinates,Original*%
%TF.FileFunction,Copper,L2,Bot*%
%TF.FilePolarity,Positive*%
%FSLAX46Y46*%
G04 Gerber Fmt 4.6, Leading zero omitted, Abs format (unit mm)*
G04 Created by KiCad (PCBNEW 9.0.1) date 2025-10-31 22:00:19*
%MOMM*%
%LPD*%
G01*
G04 APERTURE LIST*
%TA.AperFunction,ComponentPad*%
%ADD10O,1.800000X1.000000*%
%TD*%
%TA.AperFunction,ComponentPad*%
%ADD11C,2.250000*%
%TD*%
%TA.AperFunction,SMDPad,CuDef*%
%ADD12R,0.400000X0.790000*%
%TD*%
%TA.AperFunction,ComponentPad*%
%ADD13O,1.200000X2.500000*%
%TD*%
%TA.AperFunction,ViaPad*%
%ADD14C,0.600000*%
%TD*%
%TA.AperFunction,ViaPad*%
%ADD15C,1.000000*%
%TD*%
%TA.AperFunction,Conductor*%
%ADD16C,0.400000*%
%TD*%
%TA.AperFunction,Conductor*%
%ADD17C,0.200000*%
%TD*%
G04 APERTURE END LIST*
D10*
%TO.P,USBF1,7,EH*%
%TO.N,unconnected-(USBF1-EH-Pad7)_2*%
X104400000Y-96880000D03*
%TO.N,unconnected-(USBF1-EH-Pad7)*%
X100600000Y-96880000D03*
%TO.N,unconnected-(USBF1-EH-Pad7)_1*%
X104400000Y-105520000D03*
%TO.N,unconnected-(USBF1-EH-Pad7)_3*%
X100600000Y-105520000D03*
%TD*%
D11*
%TO.P,REF\u002A\u002A,1*%
%TO.N,GND*%
X119450000Y-91800000D03*
%TO.P,REF\u002A\u002A,2*%
%TO.N,/USB_M_IN_5V*%
X121950000Y-91800000D03*
%TO.P,REF\u002A\u002A,3*%
%TO.N,SERIAL_D-*%
X124450000Y-91800000D03*
%TO.P,REF\u002A\u002A,4*%
%TO.N,SERIAL_D+*%
X126950000Y-91800000D03*
%TD*%
D12*
%TO.P,USBM1,1,G*%
%TO.N,GND*%
X144550000Y-102470000D03*
%TO.P,USBM1,2,V*%
%TO.N,/USB_M_IN_5V*%
X143750000Y-102470000D03*
%TO.P,USBM1,3,CC1*%
%TO.N,/CC1*%
X142950000Y-102470000D03*
%TO.P,USBM1,4,D+*%
%TO.N,SERIAL_D+*%
X142150000Y-102470000D03*
%TO.P,USBM1,5,D-*%
%TO.N,SERIAL_D-*%
X141350000Y-102470000D03*
%TO.P,USBM1,6,SUB1*%
%TO.N,unconnected-(USBM1-SUB1-Pad6)*%
X140550000Y-102470000D03*
%TO.P,USBM1,7,V*%
%TO.N,/USB_M_IN_5V*%
X139750000Y-102470000D03*
%TO.P,USBM1,8,G*%
%TO.N,GND*%
X138950000Y-102470000D03*
%TO.P,USBM1,9,G*%
X138950000Y-99930000D03*
%TO.P,USBM1,10,V*%
%TO.N,/USB_M_IN_5V*%
X139750000Y-99930000D03*
%TO.P,USBM1,11,CC2*%
%TO.N,/CC2*%
X140550000Y-99930000D03*
%TO.P,USBM1,12,D+*%
%TO.N,SERIAL_D+*%
X141350000Y-99930000D03*
%TO.P,USBM1,13,D-*%
%TO.N,SERIAL_D-*%
X142150000Y-99930000D03*
%TO.P,USBM1,14,SUB2*%
%TO.N,unconnected-(USBM1-SUB2-Pad14)*%
X142950000Y-99930000D03*
%TO.P,USBM1,15,V*%
%TO.N,/USB_M_IN_5V*%
X143750000Y-99930000D03*
%TO.P,USBM1,16,G*%
%TO.N,GND*%
X144550000Y-99930000D03*
D13*
%TO.P,USBM1,17,G*%
%TO.N,unconnected-(USBM1-G-Pad17)*%
X145730000Y-101200000D03*
%TO.P,USBM1,18,G*%
%TO.N,unconnected-(USBM1-G-Pad18)*%
X137770000Y-101200000D03*
%TD*%
D14*
%TO.N,/USB_M_IN_5V*%
X139600000Y-98800000D03*
X103800000Y-100000000D03*
%TO.N,/CC1*%
X142849758Y-103512749D03*
%TO.N,/USB_M_IN_5V*%
X103200000Y-102800000D03*
%TO.N,/CC2*%
X140550000Y-99000000D03*
%TO.N,GND*%
X102400000Y-97900000D03*
X102400000Y-104400000D03*
X119450000Y-96800000D03*
D15*
%TO.N,/USB_M_IN_5V*%
X122300000Y-97850000D03*
D14*
%TO.N,/CC2*%
X105000000Y-100700000D03*
%TO.N,SERIAL_D+*%
X141350000Y-99200000D03*
X142200000Y-101400000D03*
%TD*%
D16*
%TO.N,/USB_M_IN_5V*%
X139750000Y-99930000D02*
X139750000Y-98950000D01*
X139750000Y-98950000D02*
X139600000Y-98800000D01*
%TO.N,/CC2*%
X140550000Y-99930000D02*
X140550000Y-99000000D01*
%TO.N,/USB_M_IN_5V*%
X103800000Y-102800000D02*
X103800000Y-100000000D01*
X103200000Y-102800000D02*
X103800000Y-102800000D01*
X108800000Y-104200000D02*
X108800000Y-104298000D01*
X103800000Y-102800000D02*
X107400000Y-102800000D01*
X107400000Y-102800000D02*
X108800000Y-104200000D01*
X108800000Y-104298000D02*
X139800000Y-104298000D01*
D17*
%TO.N,SERIAL_D-*%
X142150000Y-100250000D02*
X141350000Y-101050000D01*
X126601000Y-98201000D02*
X124600000Y-96200000D01*
X129948942Y-98201000D02*
X126601000Y-98201000D01*
X130301000Y-97848942D02*
X129948942Y-98201000D01*
X124600000Y-92401000D02*
X124450000Y-92401000D01*
X140947942Y-97848942D02*
X130301000Y-97848942D01*
X142150000Y-99051000D02*
X140947942Y-97848942D01*
X124600000Y-96200000D02*
X124600000Y-92401000D01*
D16*
%TO.N,/USB_M_IN_5V*%
X139750000Y-99930000D02*
X139750000Y-102470000D01*
X143750000Y-99930000D02*
X143750000Y-102470000D01*
%TO.N,GND*%
X134800000Y-99001000D02*
X134782111Y-98983111D01*
X134782111Y-98983111D02*
X119550000Y-98983111D01*
%TO.N,/USB_M_IN_5V*%
X139800000Y-104298000D02*
X139750000Y-104248000D01*
X139750000Y-104248000D02*
X139750000Y-102470000D01*
X143702000Y-104298000D02*
X139800000Y-104298000D01*
%TO.N,/CC1*%
X142950000Y-103250000D02*
X142800000Y-103400000D01*
X142950000Y-102470000D02*
X142950000Y-103250000D01*
%TO.N,/USB_M_IN_5V*%
X143750000Y-102470000D02*
X143750000Y-104250000D01*
X143750000Y-104250000D02*
X143702000Y-104298000D01*
%TO.N,GND*%
X138020000Y-99000000D02*
X138950000Y-99930000D01*
X134800000Y-99001000D02*
X135599000Y-99001000D01*
X135599000Y-99001000D02*
X135600000Y-99000000D01*
X135600000Y-99000000D02*
X138020000Y-99000000D01*
X104858636Y-104400000D02*
X105359636Y-103899000D01*
X119550000Y-98983111D02*
X118616889Y-98983111D01*
X107600000Y-103899000D02*
X107851000Y-104150000D01*
X119550000Y-92501000D02*
X119450000Y-92501000D01*
X102400000Y-104400000D02*
X102400000Y-99300000D01*
X102400000Y-104400000D02*
X104858636Y-104400000D01*
X107851000Y-104150000D02*
X107851000Y-104899000D01*
X119550000Y-97300000D02*
X119550000Y-92501000D01*
X145400000Y-103320000D02*
X144550000Y-102470000D01*
X119550000Y-96900000D02*
X119450000Y-96800000D01*
X119550000Y-98983111D02*
X119550000Y-97300000D01*
X102400000Y-99300000D02*
X102400000Y-97900000D01*
X138950000Y-99930000D02*
X138950000Y-102470000D01*
X107851000Y-104899000D02*
X144501000Y-104899000D01*
X144501000Y-104899000D02*
X145400000Y-104000000D01*
X119550000Y-97300000D02*
X119550000Y-96900000D01*
X144550000Y-99930000D02*
X144550000Y-102470000D01*
X118300000Y-99300000D02*
X102400000Y-99300000D01*
X105359636Y-103899000D02*
X107600000Y-103899000D01*
X118616889Y-98983111D02*
X118300000Y-99300000D01*
X145400000Y-104000000D02*
X145400000Y-103320000D01*
%TO.N,/USB_M_IN_5V*%
X122300000Y-97850000D02*
X122300000Y-97000000D01*
X122300000Y-92501000D02*
X121950000Y-92501000D01*
X122300000Y-97000000D02*
X122300000Y-92501000D01*
D17*
%TO.N,SERIAL_D+*%
X142200000Y-102420000D02*
X142150000Y-102470000D01*
D16*
X141350000Y-99930000D02*
X141350000Y-99200000D01*
D17*
%TO.N,SERIAL_D-*%
X142150000Y-99930000D02*
X142150000Y-99051000D01*
X141350000Y-101050000D02*
X141350000Y-102470000D01*
X142150000Y-99930000D02*
X142150000Y-100250000D01*
%TO.N,SERIAL_D+*%
X142200000Y-101400000D02*
X142200000Y-102420000D01*
%TD*%
M02*
