%TF.GenerationSoftware,KiCad,Pcbnew,9.0.1*%
%TF.CreationDate,2025-10-31T22:00:17-04:00*%
%TF.ProjectId,flex_usb_board,666c6578-5f75-4736-925f-626f6172642e,rev?*%
%TF.SameCoordinates,Original*%
%TF.FileFunction,Drillmap*%
%TF.FilePolarity,Positive*%
%FSLAX45Y45*%
G04 Gerber Fmt 4.5, Leading zero omitted, Abs format (unit mm)*
G04 Created by KiCad (PCBNEW 9.0.1) date 2025-10-31 22:00:17*
%MOMM*%
%LPD*%
G01*
G04 APERTURE LIST*
%ADD10C,0.050000*%
%ADD11C,0.200000*%
%ADD12C,0.100000*%
%ADD13C,0.150000*%
G04 APERTURE END LIST*
D10*
X14175000Y-9680000D02*
X17175000Y-9680000D01*
X10715000Y-9680000D02*
X11670000Y-9680000D01*
X15285000Y-9970000D02*
X16385000Y-9970000D01*
X12970000Y-9680000D02*
X14175000Y-9680000D01*
X17175000Y-10560000D02*
X14175000Y-10560000D01*
X10555000Y-9680000D02*
X10715000Y-9680000D01*
X16385000Y-9970000D02*
G75*
G02*
X16385000Y-10270000I0J-150000D01*
G01*
X10060000Y-10615000D02*
X10480000Y-10615000D01*
X10013891Y-10616109D02*
G75*
G02*
X9958891Y-10561109I-1J54999D01*
G01*
X9960000Y-9685000D02*
G75*
G02*
X10015000Y-9630000I55000J0D01*
G01*
X10715000Y-10460000D02*
X10565000Y-10460000D01*
X13125000Y-9970000D02*
X12025000Y-9970000D01*
X10535000Y-10560000D02*
G75*
G02*
X10480000Y-10615000I-55000J0D01*
G01*
X9958891Y-10561109D02*
X9960000Y-9685000D01*
X12025000Y-10270000D02*
G75*
G02*
X12025000Y-9970000I0J150000D01*
G01*
X11820000Y-9180000D02*
X11670000Y-9180000D01*
X12970000Y-9680000D02*
X12970000Y-9760000D01*
X10715000Y-9780000D02*
X10565000Y-9780000D01*
X13125000Y-10270000D02*
X12025000Y-10270000D01*
X15285000Y-10270000D02*
X16385000Y-10270000D01*
X12970000Y-9180000D02*
X12970000Y-9680000D01*
X17175000Y-9680000D02*
G75*
G02*
X17175000Y-10560000I0J-440000D01*
G01*
X14175000Y-10560000D02*
X10535000Y-10560000D01*
X10715000Y-10560000D02*
X10715000Y-10460000D01*
X12970000Y-9180000D02*
X12820000Y-9180000D01*
X11670000Y-9180000D02*
X11670000Y-9680000D01*
X15285000Y-10270000D02*
G75*
G02*
X15285000Y-9970000I0J150000D01*
G01*
X13125000Y-9970000D02*
G75*
G02*
X13125000Y-10270000I0J-150000D01*
G01*
X11670000Y-9680000D02*
X11670000Y-9760000D01*
X10481109Y-9629773D02*
G75*
G02*
X10536110Y-9680000I1J-55227D01*
G01*
X10555000Y-9680000D02*
X10535000Y-9680000D01*
X10015000Y-9630000D02*
X10481110Y-9629773D01*
X10715000Y-9680000D02*
X10715000Y-9780000D01*
X10013891Y-10616109D02*
X10060000Y-10615000D01*
X11820000Y-9180000D02*
X12820000Y-9180000D01*
D11*
D12*
X10225000Y-9775000D02*
X10255000Y-9805000D01*
X10255000Y-9775000D02*
X10225000Y-9805000D01*
X10225000Y-10425000D02*
X10255000Y-10455000D01*
X10255000Y-10425000D02*
X10225000Y-10455000D01*
X10305000Y-10265000D02*
X10335000Y-10295000D01*
X10335000Y-10265000D02*
X10305000Y-10295000D01*
X10365000Y-9985000D02*
X10395000Y-10015000D01*
X10395000Y-9985000D02*
X10365000Y-10015000D01*
X10485000Y-10055000D02*
X10515000Y-10085000D01*
X10515000Y-10055000D02*
X10485000Y-10085000D01*
X11930000Y-9665000D02*
X11960000Y-9695000D01*
X11960000Y-9665000D02*
X11930000Y-9695000D01*
X12215000Y-9770000D02*
X12245000Y-9800000D01*
X12245000Y-9770000D02*
X12215000Y-9800000D01*
X13945000Y-9865000D02*
X13975000Y-9895000D01*
X13975000Y-9865000D02*
X13945000Y-9895000D01*
X14040000Y-9885000D02*
X14070000Y-9915000D01*
X14070000Y-9885000D02*
X14040000Y-9915000D01*
X14120000Y-9905000D02*
X14150000Y-9935000D01*
X14150000Y-9905000D02*
X14120000Y-9935000D01*
X14205000Y-10125000D02*
X14235000Y-10155000D01*
X14235000Y-10125000D02*
X14205000Y-10155000D01*
X14269976Y-10336275D02*
X14299976Y-10366275D01*
X14299976Y-10336275D02*
X14269976Y-10366275D01*
X10090000Y-9688000D02*
G75*
G02*
X10030000Y-9688000I-30000J0D01*
G01*
X10030000Y-9688000D02*
G75*
G02*
X10090000Y-9688000I30000J0D01*
G01*
X10020000Y-9718000D02*
X10100000Y-9718000D01*
X10100000Y-9658000D02*
G75*
G02*
X10100000Y-9718000I0J-30000D01*
G01*
X10100000Y-9658000D02*
X10020000Y-9658000D01*
X10020000Y-9658000D02*
G75*
G03*
X10020000Y-9718000I0J-30000D01*
G01*
X10090000Y-10552000D02*
G75*
G02*
X10030000Y-10552000I-30000J0D01*
G01*
X10030000Y-10552000D02*
G75*
G02*
X10090000Y-10552000I30000J0D01*
G01*
X10020000Y-10582000D02*
X10100000Y-10582000D01*
X10100000Y-10522000D02*
G75*
G02*
X10100000Y-10582000I0J-30000D01*
G01*
X10100000Y-10522000D02*
X10020000Y-10522000D01*
X10020000Y-10522000D02*
G75*
G03*
X10020000Y-10582000I0J-30000D01*
G01*
X10470000Y-9688000D02*
G75*
G02*
X10410000Y-9688000I-30000J0D01*
G01*
X10410000Y-9688000D02*
G75*
G02*
X10470000Y-9688000I30000J0D01*
G01*
X10400000Y-9718000D02*
X10480000Y-9718000D01*
X10480000Y-9658000D02*
G75*
G02*
X10480000Y-9718000I0J-30000D01*
G01*
X10480000Y-9658000D02*
X10400000Y-9658000D01*
X10400000Y-9658000D02*
G75*
G03*
X10400000Y-9718000I0J-30000D01*
G01*
X10470000Y-10552000D02*
G75*
G02*
X10410000Y-10552000I-30000J0D01*
G01*
X10410000Y-10552000D02*
G75*
G02*
X10470000Y-10552000I30000J0D01*
G01*
X10400000Y-10582000D02*
X10480000Y-10582000D01*
X10480000Y-10522000D02*
G75*
G02*
X10480000Y-10582000I0J-30000D01*
G01*
X10480000Y-10522000D02*
X10400000Y-10522000D01*
X10400000Y-10522000D02*
G75*
G03*
X10400000Y-10582000I0J-30000D01*
G01*
X13807000Y-10120000D02*
G75*
G02*
X13747000Y-10120000I-30000J0D01*
G01*
X13747000Y-10120000D02*
G75*
G02*
X13807000Y-10120000I30000J0D01*
G01*
X13747000Y-10060000D02*
X13747000Y-10180000D01*
X13807000Y-10180000D02*
G75*
G02*
X13747000Y-10180000I-30000J0D01*
G01*
X13807000Y-10180000D02*
X13807000Y-10060000D01*
X13807000Y-10060000D02*
G75*
G03*
X13747000Y-10060000I-30000J0D01*
G01*
X14603000Y-10120000D02*
G75*
G02*
X14543000Y-10120000I-30000J0D01*
G01*
X14543000Y-10120000D02*
G75*
G02*
X14603000Y-10120000I30000J0D01*
G01*
X14543000Y-10060000D02*
X14543000Y-10180000D01*
X14603000Y-10180000D02*
G75*
G02*
X14543000Y-10180000I-30000J0D01*
G01*
X14603000Y-10180000D02*
X14603000Y-10060000D01*
X14603000Y-10060000D02*
G75*
G03*
X14543000Y-10060000I-30000J0D01*
G01*
D13*
X11945000Y-9105000D02*
X11945000Y-9255000D01*
X11870000Y-9180000D02*
X12020000Y-9180000D01*
X12195000Y-9105000D02*
X12195000Y-9255000D01*
X12120000Y-9180000D02*
X12270000Y-9180000D01*
X12445000Y-9105000D02*
X12445000Y-9255000D01*
X12370000Y-9180000D02*
X12520000Y-9180000D01*
X12695000Y-9105000D02*
X12695000Y-9255000D01*
X12620000Y-9180000D02*
X12770000Y-9180000D01*
D11*
X10217168Y-10930093D02*
X10217168Y-10730093D01*
X10217168Y-10730093D02*
X10264787Y-10730093D01*
X10264787Y-10730093D02*
X10293358Y-10739617D01*
X10293358Y-10739617D02*
X10312406Y-10758664D01*
X10312406Y-10758664D02*
X10321930Y-10777712D01*
X10321930Y-10777712D02*
X10331453Y-10815807D01*
X10331453Y-10815807D02*
X10331453Y-10844379D01*
X10331453Y-10844379D02*
X10321930Y-10882474D01*
X10321930Y-10882474D02*
X10312406Y-10901521D01*
X10312406Y-10901521D02*
X10293358Y-10920569D01*
X10293358Y-10920569D02*
X10264787Y-10930093D01*
X10264787Y-10930093D02*
X10217168Y-10930093D01*
X10417168Y-10930093D02*
X10417168Y-10796760D01*
X10417168Y-10834855D02*
X10426692Y-10815807D01*
X10426692Y-10815807D02*
X10436215Y-10806283D01*
X10436215Y-10806283D02*
X10455263Y-10796760D01*
X10455263Y-10796760D02*
X10474311Y-10796760D01*
X10540977Y-10930093D02*
X10540977Y-10796760D01*
X10540977Y-10730093D02*
X10531453Y-10739617D01*
X10531453Y-10739617D02*
X10540977Y-10749141D01*
X10540977Y-10749141D02*
X10550501Y-10739617D01*
X10550501Y-10739617D02*
X10540977Y-10730093D01*
X10540977Y-10730093D02*
X10540977Y-10749141D01*
X10664787Y-10930093D02*
X10645739Y-10920569D01*
X10645739Y-10920569D02*
X10636215Y-10901521D01*
X10636215Y-10901521D02*
X10636215Y-10730093D01*
X10769549Y-10930093D02*
X10750501Y-10920569D01*
X10750501Y-10920569D02*
X10740977Y-10901521D01*
X10740977Y-10901521D02*
X10740977Y-10730093D01*
X10998120Y-10930093D02*
X10998120Y-10730093D01*
X10998120Y-10730093D02*
X11064787Y-10872950D01*
X11064787Y-10872950D02*
X11131453Y-10730093D01*
X11131453Y-10730093D02*
X11131453Y-10930093D01*
X11312406Y-10930093D02*
X11312406Y-10825331D01*
X11312406Y-10825331D02*
X11302882Y-10806283D01*
X11302882Y-10806283D02*
X11283834Y-10796760D01*
X11283834Y-10796760D02*
X11245739Y-10796760D01*
X11245739Y-10796760D02*
X11226691Y-10806283D01*
X11312406Y-10920569D02*
X11293358Y-10930093D01*
X11293358Y-10930093D02*
X11245739Y-10930093D01*
X11245739Y-10930093D02*
X11226691Y-10920569D01*
X11226691Y-10920569D02*
X11217168Y-10901521D01*
X11217168Y-10901521D02*
X11217168Y-10882474D01*
X11217168Y-10882474D02*
X11226691Y-10863426D01*
X11226691Y-10863426D02*
X11245739Y-10853902D01*
X11245739Y-10853902D02*
X11293358Y-10853902D01*
X11293358Y-10853902D02*
X11312406Y-10844379D01*
X11407644Y-10796760D02*
X11407644Y-10996760D01*
X11407644Y-10806283D02*
X11426691Y-10796760D01*
X11426691Y-10796760D02*
X11464787Y-10796760D01*
X11464787Y-10796760D02*
X11483834Y-10806283D01*
X11483834Y-10806283D02*
X11493358Y-10815807D01*
X11493358Y-10815807D02*
X11502882Y-10834855D01*
X11502882Y-10834855D02*
X11502882Y-10891998D01*
X11502882Y-10891998D02*
X11493358Y-10911045D01*
X11493358Y-10911045D02*
X11483834Y-10920569D01*
X11483834Y-10920569D02*
X11464787Y-10930093D01*
X11464787Y-10930093D02*
X11426691Y-10930093D01*
X11426691Y-10930093D02*
X11407644Y-10920569D01*
X11588596Y-10911045D02*
X11598120Y-10920569D01*
X11598120Y-10920569D02*
X11588596Y-10930093D01*
X11588596Y-10930093D02*
X11579072Y-10920569D01*
X11579072Y-10920569D02*
X11588596Y-10911045D01*
X11588596Y-10911045D02*
X11588596Y-10930093D01*
X11588596Y-10806283D02*
X11598120Y-10815807D01*
X11598120Y-10815807D02*
X11588596Y-10825331D01*
X11588596Y-10825331D02*
X11579072Y-10815807D01*
X11579072Y-10815807D02*
X11588596Y-10806283D01*
X11588596Y-10806283D02*
X11588596Y-10825331D01*
D12*
X9926391Y-11243609D02*
X9956391Y-11273609D01*
X9956391Y-11243609D02*
X9926391Y-11273609D01*
D11*
X10255263Y-11150093D02*
X10274311Y-11150093D01*
X10274311Y-11150093D02*
X10293358Y-11159617D01*
X10293358Y-11159617D02*
X10302882Y-11169141D01*
X10302882Y-11169141D02*
X10312406Y-11188188D01*
X10312406Y-11188188D02*
X10321930Y-11226283D01*
X10321930Y-11226283D02*
X10321930Y-11273902D01*
X10321930Y-11273902D02*
X10312406Y-11311998D01*
X10312406Y-11311998D02*
X10302882Y-11331045D01*
X10302882Y-11331045D02*
X10293358Y-11340569D01*
X10293358Y-11340569D02*
X10274311Y-11350093D01*
X10274311Y-11350093D02*
X10255263Y-11350093D01*
X10255263Y-11350093D02*
X10236215Y-11340569D01*
X10236215Y-11340569D02*
X10226692Y-11331045D01*
X10226692Y-11331045D02*
X10217168Y-11311998D01*
X10217168Y-11311998D02*
X10207644Y-11273902D01*
X10207644Y-11273902D02*
X10207644Y-11226283D01*
X10207644Y-11226283D02*
X10217168Y-11188188D01*
X10217168Y-11188188D02*
X10226692Y-11169141D01*
X10226692Y-11169141D02*
X10236215Y-11159617D01*
X10236215Y-11159617D02*
X10255263Y-11150093D01*
X10407644Y-11331045D02*
X10417168Y-11340569D01*
X10417168Y-11340569D02*
X10407644Y-11350093D01*
X10407644Y-11350093D02*
X10398120Y-11340569D01*
X10398120Y-11340569D02*
X10407644Y-11331045D01*
X10407644Y-11331045D02*
X10407644Y-11350093D01*
X10483834Y-11150093D02*
X10607644Y-11150093D01*
X10607644Y-11150093D02*
X10540977Y-11226283D01*
X10540977Y-11226283D02*
X10569549Y-11226283D01*
X10569549Y-11226283D02*
X10588596Y-11235807D01*
X10588596Y-11235807D02*
X10598120Y-11245331D01*
X10598120Y-11245331D02*
X10607644Y-11264379D01*
X10607644Y-11264379D02*
X10607644Y-11311998D01*
X10607644Y-11311998D02*
X10598120Y-11331045D01*
X10598120Y-11331045D02*
X10588596Y-11340569D01*
X10588596Y-11340569D02*
X10569549Y-11350093D01*
X10569549Y-11350093D02*
X10512406Y-11350093D01*
X10512406Y-11350093D02*
X10493358Y-11340569D01*
X10493358Y-11340569D02*
X10483834Y-11331045D01*
X10731453Y-11150093D02*
X10750501Y-11150093D01*
X10750501Y-11150093D02*
X10769549Y-11159617D01*
X10769549Y-11159617D02*
X10779073Y-11169141D01*
X10779073Y-11169141D02*
X10788596Y-11188188D01*
X10788596Y-11188188D02*
X10798120Y-11226283D01*
X10798120Y-11226283D02*
X10798120Y-11273902D01*
X10798120Y-11273902D02*
X10788596Y-11311998D01*
X10788596Y-11311998D02*
X10779073Y-11331045D01*
X10779073Y-11331045D02*
X10769549Y-11340569D01*
X10769549Y-11340569D02*
X10750501Y-11350093D01*
X10750501Y-11350093D02*
X10731453Y-11350093D01*
X10731453Y-11350093D02*
X10712406Y-11340569D01*
X10712406Y-11340569D02*
X10702882Y-11331045D01*
X10702882Y-11331045D02*
X10693358Y-11311998D01*
X10693358Y-11311998D02*
X10683834Y-11273902D01*
X10683834Y-11273902D02*
X10683834Y-11226283D01*
X10683834Y-11226283D02*
X10693358Y-11188188D01*
X10693358Y-11188188D02*
X10702882Y-11169141D01*
X10702882Y-11169141D02*
X10712406Y-11159617D01*
X10712406Y-11159617D02*
X10731453Y-11150093D01*
X10921930Y-11150093D02*
X10940977Y-11150093D01*
X10940977Y-11150093D02*
X10960025Y-11159617D01*
X10960025Y-11159617D02*
X10969549Y-11169141D01*
X10969549Y-11169141D02*
X10979073Y-11188188D01*
X10979073Y-11188188D02*
X10988596Y-11226283D01*
X10988596Y-11226283D02*
X10988596Y-11273902D01*
X10988596Y-11273902D02*
X10979073Y-11311998D01*
X10979073Y-11311998D02*
X10969549Y-11331045D01*
X10969549Y-11331045D02*
X10960025Y-11340569D01*
X10960025Y-11340569D02*
X10940977Y-11350093D01*
X10940977Y-11350093D02*
X10921930Y-11350093D01*
X10921930Y-11350093D02*
X10902882Y-11340569D01*
X10902882Y-11340569D02*
X10893358Y-11331045D01*
X10893358Y-11331045D02*
X10883834Y-11311998D01*
X10883834Y-11311998D02*
X10874311Y-11273902D01*
X10874311Y-11273902D02*
X10874311Y-11226283D01*
X10874311Y-11226283D02*
X10883834Y-11188188D01*
X10883834Y-11188188D02*
X10893358Y-11169141D01*
X10893358Y-11169141D02*
X10902882Y-11159617D01*
X10902882Y-11159617D02*
X10921930Y-11150093D01*
X11074311Y-11350093D02*
X11074311Y-11216759D01*
X11074311Y-11235807D02*
X11083834Y-11226283D01*
X11083834Y-11226283D02*
X11102882Y-11216759D01*
X11102882Y-11216759D02*
X11131454Y-11216759D01*
X11131454Y-11216759D02*
X11150501Y-11226283D01*
X11150501Y-11226283D02*
X11160025Y-11245331D01*
X11160025Y-11245331D02*
X11160025Y-11350093D01*
X11160025Y-11245331D02*
X11169549Y-11226283D01*
X11169549Y-11226283D02*
X11188596Y-11216759D01*
X11188596Y-11216759D02*
X11217168Y-11216759D01*
X11217168Y-11216759D02*
X11236215Y-11226283D01*
X11236215Y-11226283D02*
X11245739Y-11245331D01*
X11245739Y-11245331D02*
X11245739Y-11350093D01*
X11340977Y-11350093D02*
X11340977Y-11216759D01*
X11340977Y-11235807D02*
X11350501Y-11226283D01*
X11350501Y-11226283D02*
X11369549Y-11216759D01*
X11369549Y-11216759D02*
X11398120Y-11216759D01*
X11398120Y-11216759D02*
X11417168Y-11226283D01*
X11417168Y-11226283D02*
X11426692Y-11245331D01*
X11426692Y-11245331D02*
X11426692Y-11350093D01*
X11426692Y-11245331D02*
X11436215Y-11226283D01*
X11436215Y-11226283D02*
X11455263Y-11216759D01*
X11455263Y-11216759D02*
X11483834Y-11216759D01*
X11483834Y-11216759D02*
X11502882Y-11226283D01*
X11502882Y-11226283D02*
X11512406Y-11245331D01*
X11512406Y-11245331D02*
X11512406Y-11350093D01*
X11902882Y-11140569D02*
X11731454Y-11397712D01*
X12160025Y-11150093D02*
X12179073Y-11150093D01*
X12179073Y-11150093D02*
X12198120Y-11159617D01*
X12198120Y-11159617D02*
X12207644Y-11169141D01*
X12207644Y-11169141D02*
X12217168Y-11188188D01*
X12217168Y-11188188D02*
X12226692Y-11226283D01*
X12226692Y-11226283D02*
X12226692Y-11273902D01*
X12226692Y-11273902D02*
X12217168Y-11311998D01*
X12217168Y-11311998D02*
X12207644Y-11331045D01*
X12207644Y-11331045D02*
X12198120Y-11340569D01*
X12198120Y-11340569D02*
X12179073Y-11350093D01*
X12179073Y-11350093D02*
X12160025Y-11350093D01*
X12160025Y-11350093D02*
X12140977Y-11340569D01*
X12140977Y-11340569D02*
X12131454Y-11331045D01*
X12131454Y-11331045D02*
X12121930Y-11311998D01*
X12121930Y-11311998D02*
X12112406Y-11273902D01*
X12112406Y-11273902D02*
X12112406Y-11226283D01*
X12112406Y-11226283D02*
X12121930Y-11188188D01*
X12121930Y-11188188D02*
X12131454Y-11169141D01*
X12131454Y-11169141D02*
X12140977Y-11159617D01*
X12140977Y-11159617D02*
X12160025Y-11150093D01*
X12312406Y-11331045D02*
X12321930Y-11340569D01*
X12321930Y-11340569D02*
X12312406Y-11350093D01*
X12312406Y-11350093D02*
X12302882Y-11340569D01*
X12302882Y-11340569D02*
X12312406Y-11331045D01*
X12312406Y-11331045D02*
X12312406Y-11350093D01*
X12445739Y-11150093D02*
X12464787Y-11150093D01*
X12464787Y-11150093D02*
X12483835Y-11159617D01*
X12483835Y-11159617D02*
X12493358Y-11169141D01*
X12493358Y-11169141D02*
X12502882Y-11188188D01*
X12502882Y-11188188D02*
X12512406Y-11226283D01*
X12512406Y-11226283D02*
X12512406Y-11273902D01*
X12512406Y-11273902D02*
X12502882Y-11311998D01*
X12502882Y-11311998D02*
X12493358Y-11331045D01*
X12493358Y-11331045D02*
X12483835Y-11340569D01*
X12483835Y-11340569D02*
X12464787Y-11350093D01*
X12464787Y-11350093D02*
X12445739Y-11350093D01*
X12445739Y-11350093D02*
X12426692Y-11340569D01*
X12426692Y-11340569D02*
X12417168Y-11331045D01*
X12417168Y-11331045D02*
X12407644Y-11311998D01*
X12407644Y-11311998D02*
X12398120Y-11273902D01*
X12398120Y-11273902D02*
X12398120Y-11226283D01*
X12398120Y-11226283D02*
X12407644Y-11188188D01*
X12407644Y-11188188D02*
X12417168Y-11169141D01*
X12417168Y-11169141D02*
X12426692Y-11159617D01*
X12426692Y-11159617D02*
X12445739Y-11150093D01*
X12702882Y-11350093D02*
X12588596Y-11350093D01*
X12645739Y-11350093D02*
X12645739Y-11150093D01*
X12645739Y-11150093D02*
X12626692Y-11178664D01*
X12626692Y-11178664D02*
X12607644Y-11197712D01*
X12607644Y-11197712D02*
X12588596Y-11207236D01*
X12893358Y-11350093D02*
X12779073Y-11350093D01*
X12836215Y-11350093D02*
X12836215Y-11150093D01*
X12836215Y-11150093D02*
X12817168Y-11178664D01*
X12817168Y-11178664D02*
X12798120Y-11197712D01*
X12798120Y-11197712D02*
X12779073Y-11207236D01*
X13007644Y-11235807D02*
X12988596Y-11226283D01*
X12988596Y-11226283D02*
X12979073Y-11216759D01*
X12979073Y-11216759D02*
X12969549Y-11197712D01*
X12969549Y-11197712D02*
X12969549Y-11188188D01*
X12969549Y-11188188D02*
X12979073Y-11169141D01*
X12979073Y-11169141D02*
X12988596Y-11159617D01*
X12988596Y-11159617D02*
X13007644Y-11150093D01*
X13007644Y-11150093D02*
X13045739Y-11150093D01*
X13045739Y-11150093D02*
X13064787Y-11159617D01*
X13064787Y-11159617D02*
X13074311Y-11169141D01*
X13074311Y-11169141D02*
X13083835Y-11188188D01*
X13083835Y-11188188D02*
X13083835Y-11197712D01*
X13083835Y-11197712D02*
X13074311Y-11216759D01*
X13074311Y-11216759D02*
X13064787Y-11226283D01*
X13064787Y-11226283D02*
X13045739Y-11235807D01*
X13045739Y-11235807D02*
X13007644Y-11235807D01*
X13007644Y-11235807D02*
X12988596Y-11245331D01*
X12988596Y-11245331D02*
X12979073Y-11254855D01*
X12979073Y-11254855D02*
X12969549Y-11273902D01*
X12969549Y-11273902D02*
X12969549Y-11311998D01*
X12969549Y-11311998D02*
X12979073Y-11331045D01*
X12979073Y-11331045D02*
X12988596Y-11340569D01*
X12988596Y-11340569D02*
X13007644Y-11350093D01*
X13007644Y-11350093D02*
X13045739Y-11350093D01*
X13045739Y-11350093D02*
X13064787Y-11340569D01*
X13064787Y-11340569D02*
X13074311Y-11331045D01*
X13074311Y-11331045D02*
X13083835Y-11311998D01*
X13083835Y-11311998D02*
X13083835Y-11273902D01*
X13083835Y-11273902D02*
X13074311Y-11254855D01*
X13074311Y-11254855D02*
X13064787Y-11245331D01*
X13064787Y-11245331D02*
X13045739Y-11235807D01*
X13160025Y-11150093D02*
X13160025Y-11188188D01*
X13236216Y-11150093D02*
X13236216Y-11188188D01*
X13531454Y-11426283D02*
X13521930Y-11416759D01*
X13521930Y-11416759D02*
X13502882Y-11388188D01*
X13502882Y-11388188D02*
X13493358Y-11369140D01*
X13493358Y-11369140D02*
X13483835Y-11340569D01*
X13483835Y-11340569D02*
X13474311Y-11292950D01*
X13474311Y-11292950D02*
X13474311Y-11254855D01*
X13474311Y-11254855D02*
X13483835Y-11207236D01*
X13483835Y-11207236D02*
X13493358Y-11178664D01*
X13493358Y-11178664D02*
X13502882Y-11159617D01*
X13502882Y-11159617D02*
X13521930Y-11131045D01*
X13521930Y-11131045D02*
X13531454Y-11121521D01*
X13712406Y-11350093D02*
X13598120Y-11350093D01*
X13655263Y-11350093D02*
X13655263Y-11150093D01*
X13655263Y-11150093D02*
X13636216Y-11178664D01*
X13636216Y-11178664D02*
X13617168Y-11197712D01*
X13617168Y-11197712D02*
X13598120Y-11207236D01*
X13788597Y-11169141D02*
X13798120Y-11159617D01*
X13798120Y-11159617D02*
X13817168Y-11150093D01*
X13817168Y-11150093D02*
X13864787Y-11150093D01*
X13864787Y-11150093D02*
X13883835Y-11159617D01*
X13883835Y-11159617D02*
X13893358Y-11169141D01*
X13893358Y-11169141D02*
X13902882Y-11188188D01*
X13902882Y-11188188D02*
X13902882Y-11207236D01*
X13902882Y-11207236D02*
X13893358Y-11235807D01*
X13893358Y-11235807D02*
X13779073Y-11350093D01*
X13779073Y-11350093D02*
X13902882Y-11350093D01*
X14140978Y-11350093D02*
X14140978Y-11150093D01*
X14226692Y-11350093D02*
X14226692Y-11245331D01*
X14226692Y-11245331D02*
X14217168Y-11226283D01*
X14217168Y-11226283D02*
X14198120Y-11216759D01*
X14198120Y-11216759D02*
X14169549Y-11216759D01*
X14169549Y-11216759D02*
X14150501Y-11226283D01*
X14150501Y-11226283D02*
X14140978Y-11235807D01*
X14350501Y-11350093D02*
X14331454Y-11340569D01*
X14331454Y-11340569D02*
X14321930Y-11331045D01*
X14321930Y-11331045D02*
X14312406Y-11311998D01*
X14312406Y-11311998D02*
X14312406Y-11254855D01*
X14312406Y-11254855D02*
X14321930Y-11235807D01*
X14321930Y-11235807D02*
X14331454Y-11226283D01*
X14331454Y-11226283D02*
X14350501Y-11216759D01*
X14350501Y-11216759D02*
X14379073Y-11216759D01*
X14379073Y-11216759D02*
X14398120Y-11226283D01*
X14398120Y-11226283D02*
X14407644Y-11235807D01*
X14407644Y-11235807D02*
X14417168Y-11254855D01*
X14417168Y-11254855D02*
X14417168Y-11311998D01*
X14417168Y-11311998D02*
X14407644Y-11331045D01*
X14407644Y-11331045D02*
X14398120Y-11340569D01*
X14398120Y-11340569D02*
X14379073Y-11350093D01*
X14379073Y-11350093D02*
X14350501Y-11350093D01*
X14531454Y-11350093D02*
X14512406Y-11340569D01*
X14512406Y-11340569D02*
X14502882Y-11321521D01*
X14502882Y-11321521D02*
X14502882Y-11150093D01*
X14683835Y-11340569D02*
X14664787Y-11350093D01*
X14664787Y-11350093D02*
X14626692Y-11350093D01*
X14626692Y-11350093D02*
X14607644Y-11340569D01*
X14607644Y-11340569D02*
X14598120Y-11321521D01*
X14598120Y-11321521D02*
X14598120Y-11245331D01*
X14598120Y-11245331D02*
X14607644Y-11226283D01*
X14607644Y-11226283D02*
X14626692Y-11216759D01*
X14626692Y-11216759D02*
X14664787Y-11216759D01*
X14664787Y-11216759D02*
X14683835Y-11226283D01*
X14683835Y-11226283D02*
X14693359Y-11245331D01*
X14693359Y-11245331D02*
X14693359Y-11264379D01*
X14693359Y-11264379D02*
X14598120Y-11283426D01*
X14769549Y-11340569D02*
X14788597Y-11350093D01*
X14788597Y-11350093D02*
X14826692Y-11350093D01*
X14826692Y-11350093D02*
X14845740Y-11340569D01*
X14845740Y-11340569D02*
X14855263Y-11321521D01*
X14855263Y-11321521D02*
X14855263Y-11311998D01*
X14855263Y-11311998D02*
X14845740Y-11292950D01*
X14845740Y-11292950D02*
X14826692Y-11283426D01*
X14826692Y-11283426D02*
X14798120Y-11283426D01*
X14798120Y-11283426D02*
X14779073Y-11273902D01*
X14779073Y-11273902D02*
X14769549Y-11254855D01*
X14769549Y-11254855D02*
X14769549Y-11245331D01*
X14769549Y-11245331D02*
X14779073Y-11226283D01*
X14779073Y-11226283D02*
X14798120Y-11216759D01*
X14798120Y-11216759D02*
X14826692Y-11216759D01*
X14826692Y-11216759D02*
X14845740Y-11226283D01*
X14921930Y-11426283D02*
X14931454Y-11416759D01*
X14931454Y-11416759D02*
X14950501Y-11388188D01*
X14950501Y-11388188D02*
X14960025Y-11369140D01*
X14960025Y-11369140D02*
X14969549Y-11340569D01*
X14969549Y-11340569D02*
X14979073Y-11292950D01*
X14979073Y-11292950D02*
X14979073Y-11254855D01*
X14979073Y-11254855D02*
X14969549Y-11207236D01*
X14969549Y-11207236D02*
X14960025Y-11178664D01*
X14960025Y-11178664D02*
X14950501Y-11159617D01*
X14950501Y-11159617D02*
X14931454Y-11131045D01*
X14931454Y-11131045D02*
X14921930Y-11121521D01*
D12*
X9956391Y-11522609D02*
G75*
G02*
X9896391Y-11522609I-30000J0D01*
G01*
X9896391Y-11522609D02*
G75*
G02*
X9956391Y-11522609I30000J0D01*
G01*
D11*
X10255263Y-11414093D02*
X10274311Y-11414093D01*
X10274311Y-11414093D02*
X10293358Y-11423617D01*
X10293358Y-11423617D02*
X10302882Y-11433140D01*
X10302882Y-11433140D02*
X10312406Y-11452188D01*
X10312406Y-11452188D02*
X10321930Y-11490283D01*
X10321930Y-11490283D02*
X10321930Y-11537902D01*
X10321930Y-11537902D02*
X10312406Y-11575998D01*
X10312406Y-11575998D02*
X10302882Y-11595045D01*
X10302882Y-11595045D02*
X10293358Y-11604569D01*
X10293358Y-11604569D02*
X10274311Y-11614093D01*
X10274311Y-11614093D02*
X10255263Y-11614093D01*
X10255263Y-11614093D02*
X10236215Y-11604569D01*
X10236215Y-11604569D02*
X10226692Y-11595045D01*
X10226692Y-11595045D02*
X10217168Y-11575998D01*
X10217168Y-11575998D02*
X10207644Y-11537902D01*
X10207644Y-11537902D02*
X10207644Y-11490283D01*
X10207644Y-11490283D02*
X10217168Y-11452188D01*
X10217168Y-11452188D02*
X10226692Y-11433140D01*
X10226692Y-11433140D02*
X10236215Y-11423617D01*
X10236215Y-11423617D02*
X10255263Y-11414093D01*
X10407644Y-11595045D02*
X10417168Y-11604569D01*
X10417168Y-11604569D02*
X10407644Y-11614093D01*
X10407644Y-11614093D02*
X10398120Y-11604569D01*
X10398120Y-11604569D02*
X10407644Y-11595045D01*
X10407644Y-11595045D02*
X10407644Y-11614093D01*
X10588596Y-11414093D02*
X10550501Y-11414093D01*
X10550501Y-11414093D02*
X10531453Y-11423617D01*
X10531453Y-11423617D02*
X10521930Y-11433140D01*
X10521930Y-11433140D02*
X10502882Y-11461712D01*
X10502882Y-11461712D02*
X10493358Y-11499807D01*
X10493358Y-11499807D02*
X10493358Y-11575998D01*
X10493358Y-11575998D02*
X10502882Y-11595045D01*
X10502882Y-11595045D02*
X10512406Y-11604569D01*
X10512406Y-11604569D02*
X10531453Y-11614093D01*
X10531453Y-11614093D02*
X10569549Y-11614093D01*
X10569549Y-11614093D02*
X10588596Y-11604569D01*
X10588596Y-11604569D02*
X10598120Y-11595045D01*
X10598120Y-11595045D02*
X10607644Y-11575998D01*
X10607644Y-11575998D02*
X10607644Y-11528379D01*
X10607644Y-11528379D02*
X10598120Y-11509331D01*
X10598120Y-11509331D02*
X10588596Y-11499807D01*
X10588596Y-11499807D02*
X10569549Y-11490283D01*
X10569549Y-11490283D02*
X10531453Y-11490283D01*
X10531453Y-11490283D02*
X10512406Y-11499807D01*
X10512406Y-11499807D02*
X10502882Y-11509331D01*
X10502882Y-11509331D02*
X10493358Y-11528379D01*
X10731453Y-11414093D02*
X10750501Y-11414093D01*
X10750501Y-11414093D02*
X10769549Y-11423617D01*
X10769549Y-11423617D02*
X10779073Y-11433140D01*
X10779073Y-11433140D02*
X10788596Y-11452188D01*
X10788596Y-11452188D02*
X10798120Y-11490283D01*
X10798120Y-11490283D02*
X10798120Y-11537902D01*
X10798120Y-11537902D02*
X10788596Y-11575998D01*
X10788596Y-11575998D02*
X10779073Y-11595045D01*
X10779073Y-11595045D02*
X10769549Y-11604569D01*
X10769549Y-11604569D02*
X10750501Y-11614093D01*
X10750501Y-11614093D02*
X10731453Y-11614093D01*
X10731453Y-11614093D02*
X10712406Y-11604569D01*
X10712406Y-11604569D02*
X10702882Y-11595045D01*
X10702882Y-11595045D02*
X10693358Y-11575998D01*
X10693358Y-11575998D02*
X10683834Y-11537902D01*
X10683834Y-11537902D02*
X10683834Y-11490283D01*
X10683834Y-11490283D02*
X10693358Y-11452188D01*
X10693358Y-11452188D02*
X10702882Y-11433140D01*
X10702882Y-11433140D02*
X10712406Y-11423617D01*
X10712406Y-11423617D02*
X10731453Y-11414093D01*
X10921930Y-11414093D02*
X10940977Y-11414093D01*
X10940977Y-11414093D02*
X10960025Y-11423617D01*
X10960025Y-11423617D02*
X10969549Y-11433140D01*
X10969549Y-11433140D02*
X10979073Y-11452188D01*
X10979073Y-11452188D02*
X10988596Y-11490283D01*
X10988596Y-11490283D02*
X10988596Y-11537902D01*
X10988596Y-11537902D02*
X10979073Y-11575998D01*
X10979073Y-11575998D02*
X10969549Y-11595045D01*
X10969549Y-11595045D02*
X10960025Y-11604569D01*
X10960025Y-11604569D02*
X10940977Y-11614093D01*
X10940977Y-11614093D02*
X10921930Y-11614093D01*
X10921930Y-11614093D02*
X10902882Y-11604569D01*
X10902882Y-11604569D02*
X10893358Y-11595045D01*
X10893358Y-11595045D02*
X10883834Y-11575998D01*
X10883834Y-11575998D02*
X10874311Y-11537902D01*
X10874311Y-11537902D02*
X10874311Y-11490283D01*
X10874311Y-11490283D02*
X10883834Y-11452188D01*
X10883834Y-11452188D02*
X10893358Y-11433140D01*
X10893358Y-11433140D02*
X10902882Y-11423617D01*
X10902882Y-11423617D02*
X10921930Y-11414093D01*
X11074311Y-11614093D02*
X11074311Y-11480759D01*
X11074311Y-11499807D02*
X11083834Y-11490283D01*
X11083834Y-11490283D02*
X11102882Y-11480759D01*
X11102882Y-11480759D02*
X11131454Y-11480759D01*
X11131454Y-11480759D02*
X11150501Y-11490283D01*
X11150501Y-11490283D02*
X11160025Y-11509331D01*
X11160025Y-11509331D02*
X11160025Y-11614093D01*
X11160025Y-11509331D02*
X11169549Y-11490283D01*
X11169549Y-11490283D02*
X11188596Y-11480759D01*
X11188596Y-11480759D02*
X11217168Y-11480759D01*
X11217168Y-11480759D02*
X11236215Y-11490283D01*
X11236215Y-11490283D02*
X11245739Y-11509331D01*
X11245739Y-11509331D02*
X11245739Y-11614093D01*
X11340977Y-11614093D02*
X11340977Y-11480759D01*
X11340977Y-11499807D02*
X11350501Y-11490283D01*
X11350501Y-11490283D02*
X11369549Y-11480759D01*
X11369549Y-11480759D02*
X11398120Y-11480759D01*
X11398120Y-11480759D02*
X11417168Y-11490283D01*
X11417168Y-11490283D02*
X11426692Y-11509331D01*
X11426692Y-11509331D02*
X11426692Y-11614093D01*
X11426692Y-11509331D02*
X11436215Y-11490283D01*
X11436215Y-11490283D02*
X11455263Y-11480759D01*
X11455263Y-11480759D02*
X11483834Y-11480759D01*
X11483834Y-11480759D02*
X11502882Y-11490283D01*
X11502882Y-11490283D02*
X11512406Y-11509331D01*
X11512406Y-11509331D02*
X11512406Y-11614093D01*
X11902882Y-11404569D02*
X11731454Y-11661712D01*
X12160025Y-11414093D02*
X12179073Y-11414093D01*
X12179073Y-11414093D02*
X12198120Y-11423617D01*
X12198120Y-11423617D02*
X12207644Y-11433140D01*
X12207644Y-11433140D02*
X12217168Y-11452188D01*
X12217168Y-11452188D02*
X12226692Y-11490283D01*
X12226692Y-11490283D02*
X12226692Y-11537902D01*
X12226692Y-11537902D02*
X12217168Y-11575998D01*
X12217168Y-11575998D02*
X12207644Y-11595045D01*
X12207644Y-11595045D02*
X12198120Y-11604569D01*
X12198120Y-11604569D02*
X12179073Y-11614093D01*
X12179073Y-11614093D02*
X12160025Y-11614093D01*
X12160025Y-11614093D02*
X12140977Y-11604569D01*
X12140977Y-11604569D02*
X12131454Y-11595045D01*
X12131454Y-11595045D02*
X12121930Y-11575998D01*
X12121930Y-11575998D02*
X12112406Y-11537902D01*
X12112406Y-11537902D02*
X12112406Y-11490283D01*
X12112406Y-11490283D02*
X12121930Y-11452188D01*
X12121930Y-11452188D02*
X12131454Y-11433140D01*
X12131454Y-11433140D02*
X12140977Y-11423617D01*
X12140977Y-11423617D02*
X12160025Y-11414093D01*
X12312406Y-11595045D02*
X12321930Y-11604569D01*
X12321930Y-11604569D02*
X12312406Y-11614093D01*
X12312406Y-11614093D02*
X12302882Y-11604569D01*
X12302882Y-11604569D02*
X12312406Y-11595045D01*
X12312406Y-11595045D02*
X12312406Y-11614093D01*
X12445739Y-11414093D02*
X12464787Y-11414093D01*
X12464787Y-11414093D02*
X12483835Y-11423617D01*
X12483835Y-11423617D02*
X12493358Y-11433140D01*
X12493358Y-11433140D02*
X12502882Y-11452188D01*
X12502882Y-11452188D02*
X12512406Y-11490283D01*
X12512406Y-11490283D02*
X12512406Y-11537902D01*
X12512406Y-11537902D02*
X12502882Y-11575998D01*
X12502882Y-11575998D02*
X12493358Y-11595045D01*
X12493358Y-11595045D02*
X12483835Y-11604569D01*
X12483835Y-11604569D02*
X12464787Y-11614093D01*
X12464787Y-11614093D02*
X12445739Y-11614093D01*
X12445739Y-11614093D02*
X12426692Y-11604569D01*
X12426692Y-11604569D02*
X12417168Y-11595045D01*
X12417168Y-11595045D02*
X12407644Y-11575998D01*
X12407644Y-11575998D02*
X12398120Y-11537902D01*
X12398120Y-11537902D02*
X12398120Y-11490283D01*
X12398120Y-11490283D02*
X12407644Y-11452188D01*
X12407644Y-11452188D02*
X12417168Y-11433140D01*
X12417168Y-11433140D02*
X12426692Y-11423617D01*
X12426692Y-11423617D02*
X12445739Y-11414093D01*
X12588596Y-11433140D02*
X12598120Y-11423617D01*
X12598120Y-11423617D02*
X12617168Y-11414093D01*
X12617168Y-11414093D02*
X12664787Y-11414093D01*
X12664787Y-11414093D02*
X12683835Y-11423617D01*
X12683835Y-11423617D02*
X12693358Y-11433140D01*
X12693358Y-11433140D02*
X12702882Y-11452188D01*
X12702882Y-11452188D02*
X12702882Y-11471236D01*
X12702882Y-11471236D02*
X12693358Y-11499807D01*
X12693358Y-11499807D02*
X12579073Y-11614093D01*
X12579073Y-11614093D02*
X12702882Y-11614093D01*
X12769549Y-11414093D02*
X12893358Y-11414093D01*
X12893358Y-11414093D02*
X12826692Y-11490283D01*
X12826692Y-11490283D02*
X12855263Y-11490283D01*
X12855263Y-11490283D02*
X12874311Y-11499807D01*
X12874311Y-11499807D02*
X12883835Y-11509331D01*
X12883835Y-11509331D02*
X12893358Y-11528379D01*
X12893358Y-11528379D02*
X12893358Y-11575998D01*
X12893358Y-11575998D02*
X12883835Y-11595045D01*
X12883835Y-11595045D02*
X12874311Y-11604569D01*
X12874311Y-11604569D02*
X12855263Y-11614093D01*
X12855263Y-11614093D02*
X12798120Y-11614093D01*
X12798120Y-11614093D02*
X12779073Y-11604569D01*
X12779073Y-11604569D02*
X12769549Y-11595045D01*
X13064787Y-11414093D02*
X13026692Y-11414093D01*
X13026692Y-11414093D02*
X13007644Y-11423617D01*
X13007644Y-11423617D02*
X12998120Y-11433140D01*
X12998120Y-11433140D02*
X12979073Y-11461712D01*
X12979073Y-11461712D02*
X12969549Y-11499807D01*
X12969549Y-11499807D02*
X12969549Y-11575998D01*
X12969549Y-11575998D02*
X12979073Y-11595045D01*
X12979073Y-11595045D02*
X12988596Y-11604569D01*
X12988596Y-11604569D02*
X13007644Y-11614093D01*
X13007644Y-11614093D02*
X13045739Y-11614093D01*
X13045739Y-11614093D02*
X13064787Y-11604569D01*
X13064787Y-11604569D02*
X13074311Y-11595045D01*
X13074311Y-11595045D02*
X13083835Y-11575998D01*
X13083835Y-11575998D02*
X13083835Y-11528379D01*
X13083835Y-11528379D02*
X13074311Y-11509331D01*
X13074311Y-11509331D02*
X13064787Y-11499807D01*
X13064787Y-11499807D02*
X13045739Y-11490283D01*
X13045739Y-11490283D02*
X13007644Y-11490283D01*
X13007644Y-11490283D02*
X12988596Y-11499807D01*
X12988596Y-11499807D02*
X12979073Y-11509331D01*
X12979073Y-11509331D02*
X12969549Y-11528379D01*
X13160025Y-11414093D02*
X13160025Y-11452188D01*
X13236216Y-11414093D02*
X13236216Y-11452188D01*
X13531454Y-11690283D02*
X13521930Y-11680759D01*
X13521930Y-11680759D02*
X13502882Y-11652188D01*
X13502882Y-11652188D02*
X13493358Y-11633140D01*
X13493358Y-11633140D02*
X13483835Y-11604569D01*
X13483835Y-11604569D02*
X13474311Y-11556950D01*
X13474311Y-11556950D02*
X13474311Y-11518855D01*
X13474311Y-11518855D02*
X13483835Y-11471236D01*
X13483835Y-11471236D02*
X13493358Y-11442664D01*
X13493358Y-11442664D02*
X13502882Y-11423617D01*
X13502882Y-11423617D02*
X13521930Y-11395045D01*
X13521930Y-11395045D02*
X13531454Y-11385521D01*
X13645739Y-11414093D02*
X13664787Y-11414093D01*
X13664787Y-11414093D02*
X13683835Y-11423617D01*
X13683835Y-11423617D02*
X13693358Y-11433140D01*
X13693358Y-11433140D02*
X13702882Y-11452188D01*
X13702882Y-11452188D02*
X13712406Y-11490283D01*
X13712406Y-11490283D02*
X13712406Y-11537902D01*
X13712406Y-11537902D02*
X13702882Y-11575998D01*
X13702882Y-11575998D02*
X13693358Y-11595045D01*
X13693358Y-11595045D02*
X13683835Y-11604569D01*
X13683835Y-11604569D02*
X13664787Y-11614093D01*
X13664787Y-11614093D02*
X13645739Y-11614093D01*
X13645739Y-11614093D02*
X13626692Y-11604569D01*
X13626692Y-11604569D02*
X13617168Y-11595045D01*
X13617168Y-11595045D02*
X13607644Y-11575998D01*
X13607644Y-11575998D02*
X13598120Y-11537902D01*
X13598120Y-11537902D02*
X13598120Y-11490283D01*
X13598120Y-11490283D02*
X13607644Y-11452188D01*
X13607644Y-11452188D02*
X13617168Y-11433140D01*
X13617168Y-11433140D02*
X13626692Y-11423617D01*
X13626692Y-11423617D02*
X13645739Y-11414093D01*
X13950501Y-11614093D02*
X13950501Y-11414093D01*
X14036216Y-11614093D02*
X14036216Y-11509331D01*
X14036216Y-11509331D02*
X14026692Y-11490283D01*
X14026692Y-11490283D02*
X14007644Y-11480759D01*
X14007644Y-11480759D02*
X13979073Y-11480759D01*
X13979073Y-11480759D02*
X13960025Y-11490283D01*
X13960025Y-11490283D02*
X13950501Y-11499807D01*
X14160025Y-11614093D02*
X14140978Y-11604569D01*
X14140978Y-11604569D02*
X14131454Y-11595045D01*
X14131454Y-11595045D02*
X14121930Y-11575998D01*
X14121930Y-11575998D02*
X14121930Y-11518855D01*
X14121930Y-11518855D02*
X14131454Y-11499807D01*
X14131454Y-11499807D02*
X14140978Y-11490283D01*
X14140978Y-11490283D02*
X14160025Y-11480759D01*
X14160025Y-11480759D02*
X14188597Y-11480759D01*
X14188597Y-11480759D02*
X14207644Y-11490283D01*
X14207644Y-11490283D02*
X14217168Y-11499807D01*
X14217168Y-11499807D02*
X14226692Y-11518855D01*
X14226692Y-11518855D02*
X14226692Y-11575998D01*
X14226692Y-11575998D02*
X14217168Y-11595045D01*
X14217168Y-11595045D02*
X14207644Y-11604569D01*
X14207644Y-11604569D02*
X14188597Y-11614093D01*
X14188597Y-11614093D02*
X14160025Y-11614093D01*
X14340978Y-11614093D02*
X14321930Y-11604569D01*
X14321930Y-11604569D02*
X14312406Y-11585521D01*
X14312406Y-11585521D02*
X14312406Y-11414093D01*
X14493359Y-11604569D02*
X14474311Y-11614093D01*
X14474311Y-11614093D02*
X14436216Y-11614093D01*
X14436216Y-11614093D02*
X14417168Y-11604569D01*
X14417168Y-11604569D02*
X14407644Y-11585521D01*
X14407644Y-11585521D02*
X14407644Y-11509331D01*
X14407644Y-11509331D02*
X14417168Y-11490283D01*
X14417168Y-11490283D02*
X14436216Y-11480759D01*
X14436216Y-11480759D02*
X14474311Y-11480759D01*
X14474311Y-11480759D02*
X14493359Y-11490283D01*
X14493359Y-11490283D02*
X14502882Y-11509331D01*
X14502882Y-11509331D02*
X14502882Y-11528379D01*
X14502882Y-11528379D02*
X14407644Y-11547426D01*
X14579073Y-11604569D02*
X14598120Y-11614093D01*
X14598120Y-11614093D02*
X14636216Y-11614093D01*
X14636216Y-11614093D02*
X14655263Y-11604569D01*
X14655263Y-11604569D02*
X14664787Y-11585521D01*
X14664787Y-11585521D02*
X14664787Y-11575998D01*
X14664787Y-11575998D02*
X14655263Y-11556950D01*
X14655263Y-11556950D02*
X14636216Y-11547426D01*
X14636216Y-11547426D02*
X14607644Y-11547426D01*
X14607644Y-11547426D02*
X14588597Y-11537902D01*
X14588597Y-11537902D02*
X14579073Y-11518855D01*
X14579073Y-11518855D02*
X14579073Y-11509331D01*
X14579073Y-11509331D02*
X14588597Y-11490283D01*
X14588597Y-11490283D02*
X14607644Y-11480759D01*
X14607644Y-11480759D02*
X14636216Y-11480759D01*
X14636216Y-11480759D02*
X14655263Y-11490283D01*
X14902882Y-11537902D02*
X15055263Y-11537902D01*
X14979073Y-11614093D02*
X14979073Y-11461712D01*
X15388597Y-11414093D02*
X15350501Y-11414093D01*
X15350501Y-11414093D02*
X15331454Y-11423617D01*
X15331454Y-11423617D02*
X15321930Y-11433140D01*
X15321930Y-11433140D02*
X15302882Y-11461712D01*
X15302882Y-11461712D02*
X15293359Y-11499807D01*
X15293359Y-11499807D02*
X15293359Y-11575998D01*
X15293359Y-11575998D02*
X15302882Y-11595045D01*
X15302882Y-11595045D02*
X15312406Y-11604569D01*
X15312406Y-11604569D02*
X15331454Y-11614093D01*
X15331454Y-11614093D02*
X15369549Y-11614093D01*
X15369549Y-11614093D02*
X15388597Y-11604569D01*
X15388597Y-11604569D02*
X15398121Y-11595045D01*
X15398121Y-11595045D02*
X15407644Y-11575998D01*
X15407644Y-11575998D02*
X15407644Y-11528379D01*
X15407644Y-11528379D02*
X15398121Y-11509331D01*
X15398121Y-11509331D02*
X15388597Y-11499807D01*
X15388597Y-11499807D02*
X15369549Y-11490283D01*
X15369549Y-11490283D02*
X15331454Y-11490283D01*
X15331454Y-11490283D02*
X15312406Y-11499807D01*
X15312406Y-11499807D02*
X15302882Y-11509331D01*
X15302882Y-11509331D02*
X15293359Y-11528379D01*
X15636216Y-11604569D02*
X15655263Y-11614093D01*
X15655263Y-11614093D02*
X15693359Y-11614093D01*
X15693359Y-11614093D02*
X15712406Y-11604569D01*
X15712406Y-11604569D02*
X15721930Y-11585521D01*
X15721930Y-11585521D02*
X15721930Y-11575998D01*
X15721930Y-11575998D02*
X15712406Y-11556950D01*
X15712406Y-11556950D02*
X15693359Y-11547426D01*
X15693359Y-11547426D02*
X15664787Y-11547426D01*
X15664787Y-11547426D02*
X15645740Y-11537902D01*
X15645740Y-11537902D02*
X15636216Y-11518855D01*
X15636216Y-11518855D02*
X15636216Y-11509331D01*
X15636216Y-11509331D02*
X15645740Y-11490283D01*
X15645740Y-11490283D02*
X15664787Y-11480759D01*
X15664787Y-11480759D02*
X15693359Y-11480759D01*
X15693359Y-11480759D02*
X15712406Y-11490283D01*
X15836216Y-11614093D02*
X15817168Y-11604569D01*
X15817168Y-11604569D02*
X15807644Y-11585521D01*
X15807644Y-11585521D02*
X15807644Y-11414093D01*
X15940978Y-11614093D02*
X15921930Y-11604569D01*
X15921930Y-11604569D02*
X15912406Y-11595045D01*
X15912406Y-11595045D02*
X15902883Y-11575998D01*
X15902883Y-11575998D02*
X15902883Y-11518855D01*
X15902883Y-11518855D02*
X15912406Y-11499807D01*
X15912406Y-11499807D02*
X15921930Y-11490283D01*
X15921930Y-11490283D02*
X15940978Y-11480759D01*
X15940978Y-11480759D02*
X15969549Y-11480759D01*
X15969549Y-11480759D02*
X15988597Y-11490283D01*
X15988597Y-11490283D02*
X15998121Y-11499807D01*
X15998121Y-11499807D02*
X16007644Y-11518855D01*
X16007644Y-11518855D02*
X16007644Y-11575998D01*
X16007644Y-11575998D02*
X15998121Y-11595045D01*
X15998121Y-11595045D02*
X15988597Y-11604569D01*
X15988597Y-11604569D02*
X15969549Y-11614093D01*
X15969549Y-11614093D02*
X15940978Y-11614093D01*
X16064787Y-11480759D02*
X16140978Y-11480759D01*
X16093359Y-11414093D02*
X16093359Y-11585521D01*
X16093359Y-11585521D02*
X16102883Y-11604569D01*
X16102883Y-11604569D02*
X16121930Y-11614093D01*
X16121930Y-11614093D02*
X16140978Y-11614093D01*
X16198121Y-11604569D02*
X16217168Y-11614093D01*
X16217168Y-11614093D02*
X16255263Y-11614093D01*
X16255263Y-11614093D02*
X16274311Y-11604569D01*
X16274311Y-11604569D02*
X16283835Y-11585521D01*
X16283835Y-11585521D02*
X16283835Y-11575998D01*
X16283835Y-11575998D02*
X16274311Y-11556950D01*
X16274311Y-11556950D02*
X16255263Y-11547426D01*
X16255263Y-11547426D02*
X16226692Y-11547426D01*
X16226692Y-11547426D02*
X16207644Y-11537902D01*
X16207644Y-11537902D02*
X16198121Y-11518855D01*
X16198121Y-11518855D02*
X16198121Y-11509331D01*
X16198121Y-11509331D02*
X16207644Y-11490283D01*
X16207644Y-11490283D02*
X16226692Y-11480759D01*
X16226692Y-11480759D02*
X16255263Y-11480759D01*
X16255263Y-11480759D02*
X16274311Y-11490283D01*
X16350502Y-11690283D02*
X16360025Y-11680759D01*
X16360025Y-11680759D02*
X16379073Y-11652188D01*
X16379073Y-11652188D02*
X16388597Y-11633140D01*
X16388597Y-11633140D02*
X16398121Y-11604569D01*
X16398121Y-11604569D02*
X16407644Y-11556950D01*
X16407644Y-11556950D02*
X16407644Y-11518855D01*
X16407644Y-11518855D02*
X16398121Y-11471236D01*
X16398121Y-11471236D02*
X16388597Y-11442664D01*
X16388597Y-11442664D02*
X16379073Y-11423617D01*
X16379073Y-11423617D02*
X16360025Y-11395045D01*
X16360025Y-11395045D02*
X16350502Y-11385521D01*
D13*
X9881391Y-11711609D02*
X9881391Y-11861609D01*
X9806391Y-11786609D02*
X9956391Y-11786609D01*
D11*
X10321930Y-11878093D02*
X10207644Y-11878093D01*
X10264787Y-11878093D02*
X10264787Y-11678093D01*
X10264787Y-11678093D02*
X10245739Y-11706664D01*
X10245739Y-11706664D02*
X10226692Y-11725712D01*
X10226692Y-11725712D02*
X10207644Y-11735236D01*
X10407644Y-11859045D02*
X10417168Y-11868569D01*
X10417168Y-11868569D02*
X10407644Y-11878093D01*
X10407644Y-11878093D02*
X10398120Y-11868569D01*
X10398120Y-11868569D02*
X10407644Y-11859045D01*
X10407644Y-11859045D02*
X10407644Y-11878093D01*
X10598120Y-11678093D02*
X10502882Y-11678093D01*
X10502882Y-11678093D02*
X10493358Y-11773331D01*
X10493358Y-11773331D02*
X10502882Y-11763807D01*
X10502882Y-11763807D02*
X10521930Y-11754283D01*
X10521930Y-11754283D02*
X10569549Y-11754283D01*
X10569549Y-11754283D02*
X10588596Y-11763807D01*
X10588596Y-11763807D02*
X10598120Y-11773331D01*
X10598120Y-11773331D02*
X10607644Y-11792379D01*
X10607644Y-11792379D02*
X10607644Y-11839998D01*
X10607644Y-11839998D02*
X10598120Y-11859045D01*
X10598120Y-11859045D02*
X10588596Y-11868569D01*
X10588596Y-11868569D02*
X10569549Y-11878093D01*
X10569549Y-11878093D02*
X10521930Y-11878093D01*
X10521930Y-11878093D02*
X10502882Y-11868569D01*
X10502882Y-11868569D02*
X10493358Y-11859045D01*
X10731453Y-11678093D02*
X10750501Y-11678093D01*
X10750501Y-11678093D02*
X10769549Y-11687617D01*
X10769549Y-11687617D02*
X10779073Y-11697140D01*
X10779073Y-11697140D02*
X10788596Y-11716188D01*
X10788596Y-11716188D02*
X10798120Y-11754283D01*
X10798120Y-11754283D02*
X10798120Y-11801902D01*
X10798120Y-11801902D02*
X10788596Y-11839998D01*
X10788596Y-11839998D02*
X10779073Y-11859045D01*
X10779073Y-11859045D02*
X10769549Y-11868569D01*
X10769549Y-11868569D02*
X10750501Y-11878093D01*
X10750501Y-11878093D02*
X10731453Y-11878093D01*
X10731453Y-11878093D02*
X10712406Y-11868569D01*
X10712406Y-11868569D02*
X10702882Y-11859045D01*
X10702882Y-11859045D02*
X10693358Y-11839998D01*
X10693358Y-11839998D02*
X10683834Y-11801902D01*
X10683834Y-11801902D02*
X10683834Y-11754283D01*
X10683834Y-11754283D02*
X10693358Y-11716188D01*
X10693358Y-11716188D02*
X10702882Y-11697140D01*
X10702882Y-11697140D02*
X10712406Y-11687617D01*
X10712406Y-11687617D02*
X10731453Y-11678093D01*
X10921930Y-11678093D02*
X10940977Y-11678093D01*
X10940977Y-11678093D02*
X10960025Y-11687617D01*
X10960025Y-11687617D02*
X10969549Y-11697140D01*
X10969549Y-11697140D02*
X10979073Y-11716188D01*
X10979073Y-11716188D02*
X10988596Y-11754283D01*
X10988596Y-11754283D02*
X10988596Y-11801902D01*
X10988596Y-11801902D02*
X10979073Y-11839998D01*
X10979073Y-11839998D02*
X10969549Y-11859045D01*
X10969549Y-11859045D02*
X10960025Y-11868569D01*
X10960025Y-11868569D02*
X10940977Y-11878093D01*
X10940977Y-11878093D02*
X10921930Y-11878093D01*
X10921930Y-11878093D02*
X10902882Y-11868569D01*
X10902882Y-11868569D02*
X10893358Y-11859045D01*
X10893358Y-11859045D02*
X10883834Y-11839998D01*
X10883834Y-11839998D02*
X10874311Y-11801902D01*
X10874311Y-11801902D02*
X10874311Y-11754283D01*
X10874311Y-11754283D02*
X10883834Y-11716188D01*
X10883834Y-11716188D02*
X10893358Y-11697140D01*
X10893358Y-11697140D02*
X10902882Y-11687617D01*
X10902882Y-11687617D02*
X10921930Y-11678093D01*
X11074311Y-11878093D02*
X11074311Y-11744759D01*
X11074311Y-11763807D02*
X11083834Y-11754283D01*
X11083834Y-11754283D02*
X11102882Y-11744759D01*
X11102882Y-11744759D02*
X11131454Y-11744759D01*
X11131454Y-11744759D02*
X11150501Y-11754283D01*
X11150501Y-11754283D02*
X11160025Y-11773331D01*
X11160025Y-11773331D02*
X11160025Y-11878093D01*
X11160025Y-11773331D02*
X11169549Y-11754283D01*
X11169549Y-11754283D02*
X11188596Y-11744759D01*
X11188596Y-11744759D02*
X11217168Y-11744759D01*
X11217168Y-11744759D02*
X11236215Y-11754283D01*
X11236215Y-11754283D02*
X11245739Y-11773331D01*
X11245739Y-11773331D02*
X11245739Y-11878093D01*
X11340977Y-11878093D02*
X11340977Y-11744759D01*
X11340977Y-11763807D02*
X11350501Y-11754283D01*
X11350501Y-11754283D02*
X11369549Y-11744759D01*
X11369549Y-11744759D02*
X11398120Y-11744759D01*
X11398120Y-11744759D02*
X11417168Y-11754283D01*
X11417168Y-11754283D02*
X11426692Y-11773331D01*
X11426692Y-11773331D02*
X11426692Y-11878093D01*
X11426692Y-11773331D02*
X11436215Y-11754283D01*
X11436215Y-11754283D02*
X11455263Y-11744759D01*
X11455263Y-11744759D02*
X11483834Y-11744759D01*
X11483834Y-11744759D02*
X11502882Y-11754283D01*
X11502882Y-11754283D02*
X11512406Y-11773331D01*
X11512406Y-11773331D02*
X11512406Y-11878093D01*
X11902882Y-11668569D02*
X11731454Y-11925712D01*
X12160025Y-11678093D02*
X12179073Y-11678093D01*
X12179073Y-11678093D02*
X12198120Y-11687617D01*
X12198120Y-11687617D02*
X12207644Y-11697140D01*
X12207644Y-11697140D02*
X12217168Y-11716188D01*
X12217168Y-11716188D02*
X12226692Y-11754283D01*
X12226692Y-11754283D02*
X12226692Y-11801902D01*
X12226692Y-11801902D02*
X12217168Y-11839998D01*
X12217168Y-11839998D02*
X12207644Y-11859045D01*
X12207644Y-11859045D02*
X12198120Y-11868569D01*
X12198120Y-11868569D02*
X12179073Y-11878093D01*
X12179073Y-11878093D02*
X12160025Y-11878093D01*
X12160025Y-11878093D02*
X12140977Y-11868569D01*
X12140977Y-11868569D02*
X12131454Y-11859045D01*
X12131454Y-11859045D02*
X12121930Y-11839998D01*
X12121930Y-11839998D02*
X12112406Y-11801902D01*
X12112406Y-11801902D02*
X12112406Y-11754283D01*
X12112406Y-11754283D02*
X12121930Y-11716188D01*
X12121930Y-11716188D02*
X12131454Y-11697140D01*
X12131454Y-11697140D02*
X12140977Y-11687617D01*
X12140977Y-11687617D02*
X12160025Y-11678093D01*
X12312406Y-11859045D02*
X12321930Y-11868569D01*
X12321930Y-11868569D02*
X12312406Y-11878093D01*
X12312406Y-11878093D02*
X12302882Y-11868569D01*
X12302882Y-11868569D02*
X12312406Y-11859045D01*
X12312406Y-11859045D02*
X12312406Y-11878093D01*
X12445739Y-11678093D02*
X12464787Y-11678093D01*
X12464787Y-11678093D02*
X12483835Y-11687617D01*
X12483835Y-11687617D02*
X12493358Y-11697140D01*
X12493358Y-11697140D02*
X12502882Y-11716188D01*
X12502882Y-11716188D02*
X12512406Y-11754283D01*
X12512406Y-11754283D02*
X12512406Y-11801902D01*
X12512406Y-11801902D02*
X12502882Y-11839998D01*
X12502882Y-11839998D02*
X12493358Y-11859045D01*
X12493358Y-11859045D02*
X12483835Y-11868569D01*
X12483835Y-11868569D02*
X12464787Y-11878093D01*
X12464787Y-11878093D02*
X12445739Y-11878093D01*
X12445739Y-11878093D02*
X12426692Y-11868569D01*
X12426692Y-11868569D02*
X12417168Y-11859045D01*
X12417168Y-11859045D02*
X12407644Y-11839998D01*
X12407644Y-11839998D02*
X12398120Y-11801902D01*
X12398120Y-11801902D02*
X12398120Y-11754283D01*
X12398120Y-11754283D02*
X12407644Y-11716188D01*
X12407644Y-11716188D02*
X12417168Y-11697140D01*
X12417168Y-11697140D02*
X12426692Y-11687617D01*
X12426692Y-11687617D02*
X12445739Y-11678093D01*
X12693358Y-11678093D02*
X12598120Y-11678093D01*
X12598120Y-11678093D02*
X12588596Y-11773331D01*
X12588596Y-11773331D02*
X12598120Y-11763807D01*
X12598120Y-11763807D02*
X12617168Y-11754283D01*
X12617168Y-11754283D02*
X12664787Y-11754283D01*
X12664787Y-11754283D02*
X12683835Y-11763807D01*
X12683835Y-11763807D02*
X12693358Y-11773331D01*
X12693358Y-11773331D02*
X12702882Y-11792379D01*
X12702882Y-11792379D02*
X12702882Y-11839998D01*
X12702882Y-11839998D02*
X12693358Y-11859045D01*
X12693358Y-11859045D02*
X12683835Y-11868569D01*
X12683835Y-11868569D02*
X12664787Y-11878093D01*
X12664787Y-11878093D02*
X12617168Y-11878093D01*
X12617168Y-11878093D02*
X12598120Y-11868569D01*
X12598120Y-11868569D02*
X12588596Y-11859045D01*
X12798120Y-11878093D02*
X12836215Y-11878093D01*
X12836215Y-11878093D02*
X12855263Y-11868569D01*
X12855263Y-11868569D02*
X12864787Y-11859045D01*
X12864787Y-11859045D02*
X12883835Y-11830474D01*
X12883835Y-11830474D02*
X12893358Y-11792379D01*
X12893358Y-11792379D02*
X12893358Y-11716188D01*
X12893358Y-11716188D02*
X12883835Y-11697140D01*
X12883835Y-11697140D02*
X12874311Y-11687617D01*
X12874311Y-11687617D02*
X12855263Y-11678093D01*
X12855263Y-11678093D02*
X12817168Y-11678093D01*
X12817168Y-11678093D02*
X12798120Y-11687617D01*
X12798120Y-11687617D02*
X12788596Y-11697140D01*
X12788596Y-11697140D02*
X12779073Y-11716188D01*
X12779073Y-11716188D02*
X12779073Y-11763807D01*
X12779073Y-11763807D02*
X12788596Y-11782855D01*
X12788596Y-11782855D02*
X12798120Y-11792379D01*
X12798120Y-11792379D02*
X12817168Y-11801902D01*
X12817168Y-11801902D02*
X12855263Y-11801902D01*
X12855263Y-11801902D02*
X12874311Y-11792379D01*
X12874311Y-11792379D02*
X12883835Y-11782855D01*
X12883835Y-11782855D02*
X12893358Y-11763807D01*
X13083835Y-11878093D02*
X12969549Y-11878093D01*
X13026692Y-11878093D02*
X13026692Y-11678093D01*
X13026692Y-11678093D02*
X13007644Y-11706664D01*
X13007644Y-11706664D02*
X12988596Y-11725712D01*
X12988596Y-11725712D02*
X12969549Y-11735236D01*
X13160025Y-11678093D02*
X13160025Y-11716188D01*
X13236216Y-11678093D02*
X13236216Y-11716188D01*
X13531454Y-11954283D02*
X13521930Y-11944759D01*
X13521930Y-11944759D02*
X13502882Y-11916188D01*
X13502882Y-11916188D02*
X13493358Y-11897140D01*
X13493358Y-11897140D02*
X13483835Y-11868569D01*
X13483835Y-11868569D02*
X13474311Y-11820950D01*
X13474311Y-11820950D02*
X13474311Y-11782855D01*
X13474311Y-11782855D02*
X13483835Y-11735236D01*
X13483835Y-11735236D02*
X13493358Y-11706664D01*
X13493358Y-11706664D02*
X13502882Y-11687617D01*
X13502882Y-11687617D02*
X13521930Y-11659045D01*
X13521930Y-11659045D02*
X13531454Y-11649521D01*
X13693358Y-11744759D02*
X13693358Y-11878093D01*
X13645739Y-11668569D02*
X13598120Y-11811426D01*
X13598120Y-11811426D02*
X13721930Y-11811426D01*
X13950501Y-11878093D02*
X13950501Y-11678093D01*
X14036216Y-11878093D02*
X14036216Y-11773331D01*
X14036216Y-11773331D02*
X14026692Y-11754283D01*
X14026692Y-11754283D02*
X14007644Y-11744759D01*
X14007644Y-11744759D02*
X13979073Y-11744759D01*
X13979073Y-11744759D02*
X13960025Y-11754283D01*
X13960025Y-11754283D02*
X13950501Y-11763807D01*
X14160025Y-11878093D02*
X14140978Y-11868569D01*
X14140978Y-11868569D02*
X14131454Y-11859045D01*
X14131454Y-11859045D02*
X14121930Y-11839998D01*
X14121930Y-11839998D02*
X14121930Y-11782855D01*
X14121930Y-11782855D02*
X14131454Y-11763807D01*
X14131454Y-11763807D02*
X14140978Y-11754283D01*
X14140978Y-11754283D02*
X14160025Y-11744759D01*
X14160025Y-11744759D02*
X14188597Y-11744759D01*
X14188597Y-11744759D02*
X14207644Y-11754283D01*
X14207644Y-11754283D02*
X14217168Y-11763807D01*
X14217168Y-11763807D02*
X14226692Y-11782855D01*
X14226692Y-11782855D02*
X14226692Y-11839998D01*
X14226692Y-11839998D02*
X14217168Y-11859045D01*
X14217168Y-11859045D02*
X14207644Y-11868569D01*
X14207644Y-11868569D02*
X14188597Y-11878093D01*
X14188597Y-11878093D02*
X14160025Y-11878093D01*
X14340978Y-11878093D02*
X14321930Y-11868569D01*
X14321930Y-11868569D02*
X14312406Y-11849521D01*
X14312406Y-11849521D02*
X14312406Y-11678093D01*
X14493359Y-11868569D02*
X14474311Y-11878093D01*
X14474311Y-11878093D02*
X14436216Y-11878093D01*
X14436216Y-11878093D02*
X14417168Y-11868569D01*
X14417168Y-11868569D02*
X14407644Y-11849521D01*
X14407644Y-11849521D02*
X14407644Y-11773331D01*
X14407644Y-11773331D02*
X14417168Y-11754283D01*
X14417168Y-11754283D02*
X14436216Y-11744759D01*
X14436216Y-11744759D02*
X14474311Y-11744759D01*
X14474311Y-11744759D02*
X14493359Y-11754283D01*
X14493359Y-11754283D02*
X14502882Y-11773331D01*
X14502882Y-11773331D02*
X14502882Y-11792379D01*
X14502882Y-11792379D02*
X14407644Y-11811426D01*
X14579073Y-11868569D02*
X14598120Y-11878093D01*
X14598120Y-11878093D02*
X14636216Y-11878093D01*
X14636216Y-11878093D02*
X14655263Y-11868569D01*
X14655263Y-11868569D02*
X14664787Y-11849521D01*
X14664787Y-11849521D02*
X14664787Y-11839998D01*
X14664787Y-11839998D02*
X14655263Y-11820950D01*
X14655263Y-11820950D02*
X14636216Y-11811426D01*
X14636216Y-11811426D02*
X14607644Y-11811426D01*
X14607644Y-11811426D02*
X14588597Y-11801902D01*
X14588597Y-11801902D02*
X14579073Y-11782855D01*
X14579073Y-11782855D02*
X14579073Y-11773331D01*
X14579073Y-11773331D02*
X14588597Y-11754283D01*
X14588597Y-11754283D02*
X14607644Y-11744759D01*
X14607644Y-11744759D02*
X14636216Y-11744759D01*
X14636216Y-11744759D02*
X14655263Y-11754283D01*
X14731454Y-11954283D02*
X14740978Y-11944759D01*
X14740978Y-11944759D02*
X14760025Y-11916188D01*
X14760025Y-11916188D02*
X14769549Y-11897140D01*
X14769549Y-11897140D02*
X14779073Y-11868569D01*
X14779073Y-11868569D02*
X14788597Y-11820950D01*
X14788597Y-11820950D02*
X14788597Y-11782855D01*
X14788597Y-11782855D02*
X14779073Y-11735236D01*
X14779073Y-11735236D02*
X14769549Y-11706664D01*
X14769549Y-11706664D02*
X14760025Y-11687617D01*
X14760025Y-11687617D02*
X14740978Y-11659045D01*
X14740978Y-11659045D02*
X14731454Y-11649521D01*
M02*
