%TF.GenerationSoftware,KiCad,Pcbnew,9.0.1*%
%TF.CreationDate,2025-10-31T22:00:19-04:00*%
%TF.ProjectId,flex_usb_board,666c6578-5f75-4736-925f-626f6172642e,rev?*%
%TF.SameCoordinates,Original*%
%TF.FileFunction,Copper,L1,Top*%
%TF.FilePolarity,Positive*%
%FSLAX46Y46*%
G04 Gerber Fmt 4.6, Leading zero omitted, Abs format (unit mm)*
G04 Created by KiCad (PCBNEW 9.0.1) date 2025-10-31 22:00:19*
%MOMM*%
%LPD*%
G01*
G04 APERTURE LIST*
%TA.AperFunction,SMDPad,CuDef*%
%ADD10R,1.000000X0.800000*%
%TD*%
%TA.AperFunction,SMDPad,CuDef*%
%ADD11R,1.000000X0.700000*%
%TD*%
%TA.AperFunction,ComponentPad*%
%ADD12O,1.800000X1.000000*%
%TD*%
%TA.AperFunction,ComponentPad*%
%ADD13C,2.250000*%
%TD*%
%TA.AperFunction,ComponentPad*%
%ADD14O,1.200000X2.500000*%
%TD*%
%TA.AperFunction,ViaPad*%
%ADD15C,0.600000*%
%TD*%
%TA.AperFunction,ViaPad*%
%ADD16C,1.000000*%
%TD*%
%TA.AperFunction,Conductor*%
%ADD17C,0.400000*%
%TD*%
%TA.AperFunction,Conductor*%
%ADD18C,0.200000*%
%TD*%
G04 APERTURE END LIST*
D10*
%TO.P,USBF1,B12,GND*%
%TO.N,GND*%
X100550000Y-103900000D03*
D11*
%TO.P,USBF1,B9,VBUS*%
%TO.N,/USB_M_IN_5V*%
X100550000Y-102700000D03*
%TO.P,USBF1,B5,CC2*%
%TO.N,/CC2*%
X100550000Y-100700000D03*
D10*
%TO.P,USBF1,A12,GND*%
%TO.N,GND*%
X100550000Y-98500000D03*
D11*
%TO.P,USBF1,A9,VBUS*%
%TO.N,/USB_M_IN_5V*%
X100550000Y-99700000D03*
%TO.P,USBF1,A5,CC1*%
%TO.N,/CC1*%
X100550000Y-101700000D03*
D12*
%TO.P,USBF1,7,EH*%
%TO.N,unconnected-(USBF1-EH-Pad7)_2*%
X104400000Y-96880000D03*
%TO.N,unconnected-(USBF1-EH-Pad7)*%
X100600000Y-96880000D03*
%TO.N,unconnected-(USBF1-EH-Pad7)_1*%
X104400000Y-105520000D03*
%TO.N,unconnected-(USBF1-EH-Pad7)_3*%
X100600000Y-105520000D03*
%TD*%
D13*
%TO.P,REF\u002A\u002A,1*%
%TO.N,GND*%
X119450000Y-91800000D03*
%TO.P,REF\u002A\u002A,2*%
%TO.N,/USB_M_IN_5V*%
X121950000Y-91800000D03*
%TO.P,REF\u002A\u002A,3*%
%TO.N,SERIAL_D-*%
X124450000Y-91800000D03*
%TO.P,REF\u002A\u002A,4*%
%TO.N,SERIAL_D+*%
X126950000Y-91800000D03*
%TD*%
D14*
%TO.P,USBM1,17,G*%
%TO.N,unconnected-(USBM1-G-Pad17)*%
X145730000Y-101200000D03*
%TO.P,USBM1,18,G*%
%TO.N,unconnected-(USBM1-G-Pad18)*%
X137770000Y-101200000D03*
%TD*%
D15*
%TO.N,/USB_M_IN_5V*%
X139600000Y-98800000D03*
X103800000Y-100000000D03*
%TO.N,/CC1*%
X142849758Y-103512749D03*
%TO.N,/USB_M_IN_5V*%
X103200000Y-102800000D03*
%TO.N,/CC2*%
X140550000Y-99000000D03*
%TO.N,GND*%
X102400000Y-97900000D03*
X102400000Y-104400000D03*
X119450000Y-96800000D03*
D16*
%TO.N,/USB_M_IN_5V*%
X122300000Y-97850000D03*
D15*
%TO.N,/CC2*%
X105000000Y-100700000D03*
%TO.N,SERIAL_D+*%
X141350000Y-99200000D03*
X142200000Y-101400000D03*
%TD*%
D17*
%TO.N,/USB_M_IN_5V*%
X139400000Y-99000000D02*
X139600000Y-98800000D01*
X123450000Y-99000000D02*
X139400000Y-99000000D01*
X122300000Y-97850000D02*
X123450000Y-99000000D01*
%TO.N,/CC2*%
X140550000Y-103750000D02*
X140600000Y-103800000D01*
X140550000Y-99000000D02*
X140550000Y-103750000D01*
X105349942Y-100700000D02*
X105000000Y-100700000D01*
X140600000Y-103800000D02*
X108449942Y-103800000D01*
X108449942Y-103800000D02*
X105349942Y-100700000D01*
%TO.N,/USB_M_IN_5V*%
X101451000Y-98800000D02*
X103800000Y-98800000D01*
X103800000Y-100000000D02*
X103800000Y-98800000D01*
X103200000Y-102800000D02*
X100650000Y-102800000D01*
X100650000Y-102800000D02*
X100550000Y-102700000D01*
X108191306Y-98600000D02*
X115858694Y-98600000D01*
D18*
%TO.N,SERIAL_D+*%
X126000000Y-94400000D02*
X126000000Y-94000000D01*
X126200000Y-93800000D02*
X127000000Y-93800000D01*
X128200000Y-94400000D02*
X126000000Y-94400000D01*
X128200000Y-94800000D02*
X128200000Y-94400000D01*
X127000000Y-94800000D02*
X128200000Y-94800000D01*
X141350000Y-99200000D02*
X141350000Y-98807065D01*
X126950000Y-95699942D02*
X126950000Y-94850000D01*
X129451058Y-98201000D02*
X126950000Y-95699942D01*
X130174032Y-97975910D02*
X129948942Y-98201000D01*
X126950000Y-94850000D02*
X127000000Y-94800000D01*
X126000000Y-94000000D02*
X126200000Y-93800000D01*
X129948942Y-98201000D02*
X129451058Y-98201000D01*
X140518845Y-97975910D02*
X130174032Y-97975910D01*
X141350000Y-98807065D02*
X140518845Y-97975910D01*
X127000000Y-93800000D02*
X127000000Y-92401000D01*
X127000000Y-92401000D02*
X126950000Y-92401000D01*
D17*
%TO.N,GND*%
X100550000Y-98500000D02*
X101150000Y-97900000D01*
X101150000Y-97900000D02*
X102400000Y-97900000D01*
%TO.N,/CC1*%
X100550000Y-101700000D02*
X105500000Y-101700000D01*
X105500000Y-101700000D02*
X108400000Y-104600000D01*
X108400000Y-104600000D02*
X142200000Y-104600000D01*
X142200000Y-104600000D02*
X142849758Y-103950242D01*
X142849758Y-103950242D02*
X142849758Y-103512749D01*
%TO.N,/USB_M_IN_5V*%
X100550000Y-99700000D02*
X100949000Y-99301000D01*
X100949000Y-99301000D02*
X101451000Y-99301000D01*
X101451000Y-99301000D02*
X101451000Y-98800000D01*
X115858694Y-98600000D02*
X116160694Y-98902000D01*
X116160694Y-98902000D02*
X117239306Y-98902000D01*
X103800000Y-98800000D02*
X104808694Y-98800000D01*
X104808694Y-98800000D02*
X105110694Y-99102000D01*
X105110694Y-99102000D02*
X107689306Y-99102000D01*
X118291306Y-97850000D02*
X122300000Y-97850000D01*
X107689306Y-99102000D02*
X108191306Y-98600000D01*
X117239306Y-98902000D02*
X118291306Y-97850000D01*
%TO.N,GND*%
X119450000Y-96800000D02*
X118491364Y-96800000D01*
X116990364Y-98301000D02*
X116409636Y-98301000D01*
X118491364Y-96800000D02*
X116990364Y-98301000D01*
X116409636Y-98301000D02*
X116008636Y-97900000D01*
X116008636Y-97900000D02*
X107851000Y-97900000D01*
X107851000Y-97900000D02*
X107851000Y-98090364D01*
X107851000Y-98090364D02*
X107440364Y-98501000D01*
X107440364Y-98501000D02*
X105359636Y-98501000D01*
X104949000Y-97900000D02*
X102400000Y-97900000D01*
X105359636Y-98501000D02*
X104949000Y-98090364D01*
X104949000Y-98090364D02*
X104949000Y-97900000D01*
X100550000Y-103900000D02*
X101050000Y-104400000D01*
X101050000Y-104400000D02*
X102400000Y-104400000D01*
%TO.N,/CC2*%
X100550000Y-100700000D02*
X105000000Y-100700000D01*
D18*
%TO.N,SERIAL_D+*%
X141350000Y-99200000D02*
X141350000Y-99750000D01*
X141350000Y-99750000D02*
X142150000Y-100550000D01*
X142150000Y-100550000D02*
X142150000Y-101350000D01*
X142150000Y-101350000D02*
X142200000Y-101400000D01*
%TD*%
M02*
