%TF.GenerationSoftware,KiCad,Pcbnew,9.0.1*%
%TF.CreationDate,2025-10-31T22:00:19-04:00*%
%TF.ProjectId,flex_usb_board,666c6578-5f75-4736-925f-626f6172642e,rev?*%
%TF.SameCoordinates,Original*%
%TF.FileFunction,Profile,NP*%
%FSLAX46Y46*%
G04 Gerber Fmt 4.6, Leading zero omitted, Abs format (unit mm)*
G04 Created by KiCad (PCBNEW 9.0.1) date 2025-10-31 22:00:19*
%MOMM*%
%LPD*%
G01*
G04 APERTURE LIST*
%TA.AperFunction,Profile*%
%ADD10C,0.050000*%
%TD*%
G04 APERTURE END LIST*
D10*
X141750000Y-96800000D02*
X171750000Y-96800000D01*
X107150000Y-96800000D02*
X116700000Y-96800000D01*
X152850000Y-99700000D02*
X163850000Y-99700000D01*
X129700000Y-96800000D02*
X141750000Y-96800000D01*
X171750000Y-105600000D02*
X141750000Y-105600000D01*
X105550000Y-96800000D02*
X107150000Y-96800000D01*
X163850000Y-99700000D02*
G75*
G02*
X163850000Y-102700000I0J-1500000D01*
G01*
X100600000Y-106150000D02*
X104800000Y-106150000D01*
X100138908Y-106161091D02*
G75*
G02*
X99588909Y-105611091I-8J549991D01*
G01*
X99600000Y-96849999D02*
G75*
G02*
X100150000Y-96300000I550000J-1D01*
G01*
X107150000Y-104600000D02*
X105650000Y-104600000D01*
X131250000Y-99700000D02*
X120250000Y-99700000D01*
X105350000Y-105600000D02*
G75*
G02*
X104800000Y-106150000I-550000J0D01*
G01*
X99588909Y-105611091D02*
X99600000Y-96850000D01*
X120250000Y-102700000D02*
G75*
G02*
X120250000Y-99700000I0J1500000D01*
G01*
X118200000Y-91800000D02*
X116700000Y-91800000D01*
X129700000Y-96800000D02*
X129700000Y-97600000D01*
X107150000Y-97800000D02*
X105650000Y-97800000D01*
X131250000Y-102700000D02*
X120250000Y-102700000D01*
X152850000Y-102700000D02*
X163850000Y-102700000D01*
X129700000Y-91800000D02*
X129700000Y-96800000D01*
X171750000Y-96800000D02*
G75*
G02*
X171750000Y-105600000I0J-4400000D01*
G01*
X141750000Y-105600000D02*
X105350000Y-105600000D01*
X107150000Y-105600000D02*
X107150000Y-104600000D01*
X129700000Y-91800000D02*
X128200000Y-91800000D01*
X116700000Y-91800000D02*
X116700000Y-96800000D01*
X152850000Y-102700000D02*
G75*
G02*
X152850000Y-99700000I0J1500000D01*
G01*
X131250000Y-99700000D02*
G75*
G02*
X131250000Y-102700000I0J-1500000D01*
G01*
X116700000Y-96800000D02*
X116700000Y-97600000D01*
X104811091Y-96297732D02*
G75*
G02*
X105361100Y-96799999I9J-552268D01*
G01*
X105550000Y-96800000D02*
X105350000Y-96800000D01*
X100150000Y-96300000D02*
X104811100Y-96297732D01*
X107150000Y-96800000D02*
X107150000Y-97800000D01*
X100138908Y-106161091D02*
X100600000Y-106150000D01*
%TO.C,REF\u002A\u002A*%
X118200000Y-91800000D02*
X128200000Y-91800000D01*
%TD*%
M02*
