%TF.GenerationSoftware,KiCad,Pcbnew,9.0.1*%
%TF.CreationDate,2025-10-31T22:00:19-04:00*%
%TF.ProjectId,flex_usb_board,666c6578-5f75-4736-925f-626f6172642e,rev?*%
%TF.SameCoordinates,Original*%
%TF.FileFunction,Legend,Top*%
%TF.FilePolarity,Positive*%
%FSLAX46Y46*%
G04 Gerber Fmt 4.6, Leading zero omitted, Abs format (unit mm)*
G04 Created by KiCad (PCBNEW 9.0.1) date 2025-10-31 22:00:19*
%MOMM*%
%LPD*%
G01*
G04 APERTURE LIST*
%ADD10C,0.150000*%
%ADD11C,0.250000*%
%ADD12R,1.000000X0.800000*%
%ADD13R,1.000000X0.700000*%
%ADD14O,1.800000X1.000000*%
%ADD15C,2.250000*%
%ADD16O,1.200000X2.500000*%
G04 APERTURE END LIST*
D10*
X118970112Y-93186128D02*
X118898684Y-93150414D01*
X118898684Y-93150414D02*
X118791541Y-93150414D01*
X118791541Y-93150414D02*
X118684398Y-93186128D01*
X118684398Y-93186128D02*
X118612969Y-93257557D01*
X118612969Y-93257557D02*
X118577255Y-93328985D01*
X118577255Y-93328985D02*
X118541541Y-93471842D01*
X118541541Y-93471842D02*
X118541541Y-93578985D01*
X118541541Y-93578985D02*
X118577255Y-93721842D01*
X118577255Y-93721842D02*
X118612969Y-93793271D01*
X118612969Y-93793271D02*
X118684398Y-93864700D01*
X118684398Y-93864700D02*
X118791541Y-93900414D01*
X118791541Y-93900414D02*
X118862969Y-93900414D01*
X118862969Y-93900414D02*
X118970112Y-93864700D01*
X118970112Y-93864700D02*
X119005826Y-93828985D01*
X119005826Y-93828985D02*
X119005826Y-93578985D01*
X119005826Y-93578985D02*
X118862969Y-93578985D01*
X119327255Y-93900414D02*
X119327255Y-93150414D01*
X119327255Y-93150414D02*
X119755826Y-93900414D01*
X119755826Y-93900414D02*
X119755826Y-93150414D01*
X120112969Y-93900414D02*
X120112969Y-93150414D01*
X120112969Y-93150414D02*
X120291540Y-93150414D01*
X120291540Y-93150414D02*
X120398683Y-93186128D01*
X120398683Y-93186128D02*
X120470112Y-93257557D01*
X120470112Y-93257557D02*
X120505826Y-93328985D01*
X120505826Y-93328985D02*
X120541540Y-93471842D01*
X120541540Y-93471842D02*
X120541540Y-93578985D01*
X120541540Y-93578985D02*
X120505826Y-93721842D01*
X120505826Y-93721842D02*
X120470112Y-93793271D01*
X120470112Y-93793271D02*
X120398683Y-93864700D01*
X120398683Y-93864700D02*
X120291540Y-93900414D01*
X120291540Y-93900414D02*
X120112969Y-93900414D01*
X121420112Y-93150414D02*
X121670112Y-93900414D01*
X121670112Y-93900414D02*
X121920112Y-93150414D01*
X122170112Y-93900414D02*
X122170112Y-93400414D01*
X122170112Y-93150414D02*
X122134398Y-93186128D01*
X122134398Y-93186128D02*
X122170112Y-93221842D01*
X122170112Y-93221842D02*
X122205826Y-93186128D01*
X122205826Y-93186128D02*
X122170112Y-93150414D01*
X122170112Y-93150414D02*
X122170112Y-93221842D01*
X122527255Y-93400414D02*
X122527255Y-93900414D01*
X122527255Y-93471842D02*
X122562969Y-93436128D01*
X122562969Y-93436128D02*
X122634398Y-93400414D01*
X122634398Y-93400414D02*
X122741541Y-93400414D01*
X122741541Y-93400414D02*
X122812969Y-93436128D01*
X122812969Y-93436128D02*
X122848684Y-93507557D01*
X122848684Y-93507557D02*
X122848684Y-93900414D01*
D11*
G36*
X166170664Y-99970000D02*
G01*
X166170664Y-98941737D01*
X166335772Y-98941737D01*
X166335772Y-99828705D01*
X166734499Y-99828705D01*
X166734499Y-99970000D01*
X166170664Y-99970000D01*
G37*
G36*
X167342847Y-98937524D02*
G01*
X167383942Y-98947498D01*
X167423325Y-98963414D01*
X167459850Y-98985076D01*
X167492568Y-99012384D01*
X167520462Y-99044327D01*
X167542210Y-99079551D01*
X167558291Y-99117720D01*
X167568832Y-99158564D01*
X167576526Y-99242522D01*
X167576526Y-99669214D01*
X167568832Y-99753173D01*
X167558291Y-99794017D01*
X167542210Y-99832185D01*
X167520469Y-99867369D01*
X167492568Y-99899352D01*
X167459850Y-99926660D01*
X167423325Y-99948323D01*
X167383941Y-99964224D01*
X167342847Y-99974152D01*
X167258949Y-99981174D01*
X167174991Y-99974152D01*
X167133940Y-99964228D01*
X167094513Y-99948323D01*
X167057988Y-99926660D01*
X167025270Y-99899352D01*
X166997369Y-99867369D01*
X166975628Y-99832185D01*
X166959593Y-99794020D01*
X166949066Y-99753173D01*
X166941372Y-99669214D01*
X166941372Y-99242522D01*
X167107824Y-99242522D01*
X167107824Y-99669214D01*
X167115518Y-99733572D01*
X167126394Y-99764089D01*
X167143483Y-99790969D01*
X167166471Y-99812725D01*
X167195263Y-99828033D01*
X167227112Y-99836950D01*
X167258949Y-99839879D01*
X167290778Y-99836949D01*
X167322575Y-99828033D01*
X167351406Y-99812719D01*
X167374354Y-99790969D01*
X167391443Y-99764089D01*
X167402320Y-99733572D01*
X167410013Y-99669214D01*
X167410013Y-99242522D01*
X167402320Y-99178164D01*
X167391441Y-99147658D01*
X167374354Y-99120828D01*
X167351401Y-99099030D01*
X167322575Y-99083703D01*
X167290776Y-99074742D01*
X167258949Y-99071796D01*
X167227114Y-99074740D01*
X167195263Y-99083703D01*
X167166476Y-99099023D01*
X167143483Y-99120828D01*
X167126396Y-99147658D01*
X167115518Y-99178164D01*
X167107824Y-99242522D01*
X166941372Y-99242522D01*
X166949066Y-99158564D01*
X166959593Y-99117717D01*
X166975628Y-99079551D01*
X166997376Y-99044327D01*
X167025270Y-99012384D01*
X167057988Y-98985076D01*
X167094513Y-98963414D01*
X167133939Y-98947494D01*
X167174991Y-98937524D01*
X167258949Y-98930502D01*
X167342847Y-98937524D01*
G37*
G36*
X168182065Y-98937524D02*
G01*
X168223161Y-98947498D01*
X168262543Y-98963414D01*
X168299068Y-98985076D01*
X168331786Y-99012384D01*
X168359680Y-99044327D01*
X168381428Y-99079551D01*
X168397509Y-99117720D01*
X168408051Y-99158564D01*
X168415744Y-99242522D01*
X168415744Y-99669214D01*
X168408051Y-99753173D01*
X168397509Y-99794017D01*
X168381428Y-99832185D01*
X168359687Y-99867369D01*
X168331786Y-99899352D01*
X168299068Y-99926660D01*
X168262543Y-99948323D01*
X168223160Y-99964224D01*
X168182065Y-99974152D01*
X168098168Y-99981174D01*
X168014209Y-99974152D01*
X167973158Y-99964228D01*
X167933731Y-99948323D01*
X167897206Y-99926660D01*
X167864488Y-99899352D01*
X167836587Y-99867369D01*
X167814846Y-99832185D01*
X167798812Y-99794020D01*
X167788285Y-99753173D01*
X167780591Y-99669214D01*
X167780591Y-99242522D01*
X167947042Y-99242522D01*
X167947042Y-99669214D01*
X167954736Y-99733572D01*
X167965612Y-99764089D01*
X167982702Y-99790969D01*
X168005690Y-99812725D01*
X168034481Y-99828033D01*
X168066330Y-99836950D01*
X168098168Y-99839879D01*
X168129997Y-99836949D01*
X168161793Y-99828033D01*
X168190624Y-99812719D01*
X168213572Y-99790969D01*
X168230662Y-99764089D01*
X168241538Y-99733572D01*
X168249232Y-99669214D01*
X168249232Y-99242522D01*
X168241538Y-99178164D01*
X168230659Y-99147658D01*
X168213572Y-99120828D01*
X168190620Y-99099030D01*
X168161793Y-99083703D01*
X168129994Y-99074742D01*
X168098168Y-99071796D01*
X168066333Y-99074740D01*
X168034481Y-99083703D01*
X168005694Y-99099023D01*
X167982702Y-99120828D01*
X167965615Y-99147658D01*
X167954736Y-99178164D01*
X167947042Y-99242522D01*
X167780591Y-99242522D01*
X167788285Y-99158564D01*
X167798812Y-99117717D01*
X167814846Y-99079551D01*
X167836594Y-99044327D01*
X167864488Y-99012384D01*
X167897206Y-98985076D01*
X167933731Y-98963414D01*
X167973157Y-98947494D01*
X168014209Y-98937524D01*
X168098168Y-98930502D01*
X168182065Y-98937524D01*
G37*
G36*
X168898185Y-99981174D02*
G01*
X168822592Y-99975556D01*
X168785659Y-99967522D01*
X168750601Y-99954612D01*
X168717669Y-99936857D01*
X168686915Y-99914068D01*
X168659952Y-99886900D01*
X168637944Y-99855999D01*
X168621010Y-99822037D01*
X168609307Y-99786024D01*
X168602478Y-99748733D01*
X168600209Y-99711163D01*
X168600209Y-99705607D01*
X168765256Y-99705607D01*
X168765256Y-99708354D01*
X168767527Y-99734604D01*
X168774354Y-99760195D01*
X168785760Y-99783834D01*
X168801648Y-99804220D01*
X168821665Y-99820413D01*
X168845734Y-99831514D01*
X168871867Y-99837800D01*
X168898185Y-99839879D01*
X168938729Y-99834323D01*
X168975122Y-99816127D01*
X168990392Y-99802225D01*
X169002416Y-99786024D01*
X169019879Y-99748960D01*
X169028977Y-99709087D01*
X169031114Y-99669214D01*
X169031114Y-99083032D01*
X168832423Y-99083032D01*
X168832423Y-98941737D01*
X169197566Y-98941737D01*
X169197566Y-99669214D01*
X169190544Y-99750364D01*
X169181112Y-99790098D01*
X169166791Y-99828033D01*
X169147115Y-99863388D01*
X169121301Y-99895872D01*
X169090772Y-99923948D01*
X169056943Y-99946247D01*
X169020028Y-99962772D01*
X168980006Y-99973480D01*
X168898185Y-99981174D01*
G37*
G36*
X169694050Y-99970000D02*
G01*
X169694050Y-99547520D01*
X169432405Y-98941737D01*
X169612901Y-98941737D01*
X169776605Y-99360003D01*
X169940247Y-98941737D01*
X170120743Y-98941737D01*
X169859098Y-99547520D01*
X169859098Y-99970000D01*
X169694050Y-99970000D01*
G37*
G36*
X166324598Y-101650000D02*
G01*
X166069975Y-100621737D01*
X166242044Y-100621737D01*
X166391704Y-101307266D01*
X166405687Y-101370952D01*
X166419731Y-101433173D01*
X166433653Y-101370952D01*
X166447697Y-101307266D01*
X166597356Y-100621737D01*
X166769487Y-100621737D01*
X166514863Y-101650000D01*
X166324598Y-101650000D01*
G37*
G36*
X167218344Y-101650000D02*
G01*
X167218344Y-100793806D01*
X167075645Y-100923927D01*
X166983321Y-100838564D01*
X167218344Y-100621737D01*
X167383452Y-100621737D01*
X167383452Y-101650000D01*
X167218344Y-101650000D01*
G37*
G36*
X168098168Y-101661174D02*
G01*
X168070488Y-101659064D01*
X168043579Y-101652747D01*
X168018693Y-101641718D01*
X167997418Y-101625514D01*
X167980864Y-101604658D01*
X167970123Y-101579352D01*
X167962430Y-101525497D01*
X167970123Y-101470969D01*
X167980793Y-101446103D01*
X167997418Y-101424747D01*
X168018745Y-101407963D01*
X168043579Y-101396781D01*
X168070488Y-101390464D01*
X168098168Y-101388354D01*
X168125794Y-101390463D01*
X168152695Y-101396781D01*
X168177529Y-101407963D01*
X168198857Y-101424747D01*
X168215481Y-101446103D01*
X168226151Y-101470969D01*
X168233845Y-101525497D01*
X168226151Y-101579352D01*
X168215411Y-101604658D01*
X168198857Y-101625514D01*
X168177582Y-101641718D01*
X168152695Y-101652747D01*
X168125794Y-101659065D01*
X168098168Y-101661174D01*
G37*
G36*
X168967428Y-101029562D02*
G01*
X168980836Y-101037329D01*
X168991242Y-101047758D01*
X169003820Y-101074991D01*
X169007301Y-101105765D01*
X169007301Y-101165910D01*
X169003820Y-101196746D01*
X168991242Y-101224040D01*
X168967428Y-101242175D01*
X168937386Y-101248464D01*
X168907283Y-101242175D01*
X168883469Y-101224040D01*
X168870891Y-101196746D01*
X168867411Y-101165910D01*
X168867411Y-101105765D01*
X168870891Y-101074991D01*
X168883469Y-101047758D01*
X168893875Y-101037329D01*
X168907283Y-101029562D01*
X168937386Y-101023211D01*
X168967428Y-101029562D01*
G37*
G36*
X169020612Y-100617524D02*
G01*
X169061036Y-100627166D01*
X169099624Y-100642009D01*
X169135741Y-100662220D01*
X169168867Y-100688171D01*
X169197448Y-100719026D01*
X169219975Y-100753934D01*
X169236596Y-100792044D01*
X169247269Y-100832274D01*
X169254963Y-100915500D01*
X169254963Y-101356175D01*
X169247269Y-101439462D01*
X169236596Y-101479693D01*
X169219975Y-101517803D01*
X169197448Y-101552711D01*
X169168867Y-101583565D01*
X169135747Y-101609482D01*
X169099624Y-101629727D01*
X169061035Y-101644555D01*
X169020612Y-101654152D01*
X168937386Y-101661174D01*
X168854099Y-101654152D01*
X168813667Y-101644557D01*
X168775026Y-101629727D01*
X168738943Y-101609489D01*
X168705783Y-101583565D01*
X168677251Y-101552715D01*
X168654736Y-101517803D01*
X168638162Y-101479696D01*
X168627503Y-101439462D01*
X168619809Y-101356175D01*
X168619809Y-100915500D01*
X168786261Y-100915500D01*
X168786261Y-101356175D01*
X168788356Y-101388045D01*
X168794626Y-101419190D01*
X168806021Y-101448405D01*
X168823325Y-101474450D01*
X168846151Y-101495391D01*
X168874371Y-101509438D01*
X168905587Y-101517276D01*
X168937386Y-101519879D01*
X168969177Y-101517275D01*
X169000340Y-101509438D01*
X169028560Y-101495391D01*
X169051386Y-101474450D01*
X169068676Y-101448403D01*
X169080024Y-101419190D01*
X169086340Y-101388044D01*
X169088450Y-101356175D01*
X169088450Y-100915500D01*
X169086339Y-100883640D01*
X169080024Y-100852547D01*
X169068676Y-100823333D01*
X169051386Y-100797287D01*
X169028560Y-100776346D01*
X169000340Y-100762299D01*
X168969174Y-100754415D01*
X168937386Y-100751796D01*
X168905589Y-100754414D01*
X168874371Y-100762299D01*
X168846151Y-100776346D01*
X168823325Y-100797287D01*
X168806021Y-100823332D01*
X168794626Y-100852547D01*
X168788357Y-100883638D01*
X168786261Y-100915500D01*
X168619809Y-100915500D01*
X168627503Y-100832274D01*
X168638162Y-100792041D01*
X168654736Y-100753934D01*
X168677251Y-100719022D01*
X168705783Y-100688171D01*
X168738950Y-100662213D01*
X168775026Y-100642009D01*
X168813666Y-100627164D01*
X168854099Y-100617524D01*
X168937386Y-100610502D01*
X169020612Y-100617524D01*
G37*
G36*
X166379125Y-103330000D02*
G01*
X166379125Y-102473806D01*
X166236427Y-102603927D01*
X166144103Y-102518564D01*
X166379125Y-102301737D01*
X166544234Y-102301737D01*
X166544234Y-103330000D01*
X166379125Y-103330000D01*
G37*
G36*
X167288991Y-102709562D02*
G01*
X167302399Y-102717329D01*
X167312805Y-102727758D01*
X167325383Y-102754991D01*
X167328864Y-102785765D01*
X167328864Y-102845910D01*
X167325383Y-102876746D01*
X167312805Y-102904040D01*
X167288991Y-102922175D01*
X167258949Y-102928464D01*
X167228846Y-102922175D01*
X167205033Y-102904040D01*
X167192454Y-102876746D01*
X167188974Y-102845910D01*
X167188974Y-102785765D01*
X167192454Y-102754991D01*
X167205033Y-102727758D01*
X167215439Y-102717329D01*
X167228846Y-102709562D01*
X167258949Y-102703211D01*
X167288991Y-102709562D01*
G37*
G36*
X167342175Y-102297524D02*
G01*
X167382599Y-102307166D01*
X167421188Y-102322009D01*
X167457304Y-102342220D01*
X167490430Y-102368171D01*
X167519011Y-102399026D01*
X167541538Y-102433934D01*
X167558160Y-102472044D01*
X167568832Y-102512274D01*
X167576526Y-102595500D01*
X167576526Y-103036175D01*
X167568832Y-103119462D01*
X167558160Y-103159693D01*
X167541538Y-103197803D01*
X167519011Y-103232711D01*
X167490430Y-103263565D01*
X167457311Y-103289482D01*
X167421188Y-103309727D01*
X167382598Y-103324555D01*
X167342175Y-103334152D01*
X167258949Y-103341174D01*
X167175662Y-103334152D01*
X167135230Y-103324557D01*
X167096589Y-103309727D01*
X167060506Y-103289489D01*
X167027346Y-103263565D01*
X166998814Y-103232715D01*
X166976299Y-103197803D01*
X166959725Y-103159696D01*
X166949066Y-103119462D01*
X166941372Y-103036175D01*
X166941372Y-102595500D01*
X167107824Y-102595500D01*
X167107824Y-103036175D01*
X167109919Y-103068045D01*
X167116189Y-103099190D01*
X167127584Y-103128405D01*
X167144888Y-103154450D01*
X167167714Y-103175391D01*
X167195935Y-103189438D01*
X167227150Y-103197276D01*
X167258949Y-103199879D01*
X167290740Y-103197275D01*
X167321903Y-103189438D01*
X167350123Y-103175391D01*
X167372950Y-103154450D01*
X167390239Y-103128403D01*
X167401587Y-103099190D01*
X167407904Y-103068044D01*
X167410013Y-103036175D01*
X167410013Y-102595500D01*
X167407903Y-102563640D01*
X167401587Y-102532547D01*
X167390239Y-102503333D01*
X167372950Y-102477287D01*
X167350123Y-102456346D01*
X167321903Y-102442299D01*
X167290738Y-102434415D01*
X167258949Y-102431796D01*
X167227152Y-102434414D01*
X167195935Y-102442299D01*
X167167714Y-102456346D01*
X167144888Y-102477287D01*
X167127584Y-102503332D01*
X167116189Y-102532547D01*
X167109920Y-102563638D01*
X167107824Y-102595500D01*
X166941372Y-102595500D01*
X166949066Y-102512274D01*
X166959725Y-102472041D01*
X166976299Y-102433934D01*
X166998814Y-102399022D01*
X167027346Y-102368171D01*
X167060513Y-102342213D01*
X167096589Y-102322009D01*
X167135229Y-102307164D01*
X167175662Y-102297524D01*
X167258949Y-102290502D01*
X167342175Y-102297524D01*
G37*
G36*
X167948447Y-103530034D02*
G01*
X167776378Y-103530034D01*
X168247827Y-102178578D01*
X168419897Y-102178578D01*
X167948447Y-103530034D01*
G37*
G36*
X168941538Y-103341174D02*
G01*
X168862526Y-103335556D01*
X168823272Y-103327876D01*
X168785528Y-103316017D01*
X168749725Y-103299613D01*
X168716285Y-103278281D01*
X168686531Y-103252311D01*
X168661758Y-103222288D01*
X168642233Y-103188530D01*
X168628175Y-103150969D01*
X168619768Y-103111584D01*
X168617001Y-103072568D01*
X168617001Y-103065607D01*
X168783452Y-103065607D01*
X168783452Y-103068354D01*
X168786581Y-103097179D01*
X168796031Y-103125080D01*
X168811358Y-103149983D01*
X168831751Y-103169837D01*
X168856180Y-103184488D01*
X168883469Y-103193590D01*
X168941538Y-103199879D01*
X168972090Y-103197795D01*
X169002416Y-103191514D01*
X169030773Y-103179953D01*
X169055600Y-103162144D01*
X169075689Y-103139069D01*
X169089855Y-103111769D01*
X169098249Y-103081971D01*
X169101029Y-103051624D01*
X169098906Y-103024046D01*
X169092602Y-102997768D01*
X169082320Y-102972791D01*
X169068117Y-102949469D01*
X169050604Y-102928597D01*
X169030382Y-102911001D01*
X169007672Y-102896830D01*
X168982815Y-102886516D01*
X168930364Y-102876013D01*
X168875776Y-102873937D01*
X168875776Y-102732643D01*
X168925479Y-102730566D01*
X168973046Y-102720064D01*
X169016399Y-102696250D01*
X169035029Y-102679538D01*
X169049982Y-102660591D01*
X169070987Y-102616505D01*
X169078681Y-102567534D01*
X169076437Y-102541151D01*
X169069583Y-102514412D01*
X169057833Y-102489503D01*
X169040884Y-102468189D01*
X169019556Y-102451405D01*
X168994722Y-102440223D01*
X168967999Y-102433880D01*
X168941538Y-102431796D01*
X168889087Y-102439551D01*
X168864742Y-102449886D01*
X168843597Y-102465441D01*
X168826719Y-102485436D01*
X168814959Y-102509466D01*
X168808118Y-102535627D01*
X168805861Y-102561917D01*
X168805861Y-102566130D01*
X168639349Y-102566130D01*
X168639349Y-102556360D01*
X168641783Y-102518810D01*
X168649118Y-102481500D01*
X168661574Y-102445623D01*
X168679221Y-102412257D01*
X168701800Y-102382017D01*
X168728925Y-102355593D01*
X168759721Y-102333543D01*
X168793222Y-102316453D01*
X168828883Y-102304020D01*
X168866006Y-102296120D01*
X168941538Y-102290502D01*
X169017803Y-102296852D01*
X169055487Y-102305441D01*
X169091259Y-102318529D01*
X169124749Y-102336482D01*
X169155617Y-102359806D01*
X169182606Y-102387479D01*
X169204588Y-102418546D01*
X169221695Y-102452547D01*
X169233958Y-102489193D01*
X169241305Y-102527129D01*
X169243728Y-102564726D01*
X169241295Y-102600866D01*
X169233958Y-102636777D01*
X169221888Y-102671422D01*
X169205259Y-102703944D01*
X169184285Y-102733651D01*
X169159098Y-102759876D01*
X169130318Y-102782379D01*
X169098220Y-102801153D01*
X169134437Y-102819170D01*
X169167463Y-102842430D01*
X169196715Y-102870282D01*
X169221318Y-102901903D01*
X169240900Y-102936849D01*
X169254902Y-102974687D01*
X169263331Y-103014199D01*
X169266137Y-103054371D01*
X169263521Y-103094720D01*
X169255635Y-103134849D01*
X169242335Y-103173509D01*
X169223456Y-103209710D01*
X169199296Y-103242407D01*
X169170272Y-103270526D01*
X169137274Y-103293952D01*
X169101029Y-103312536D01*
X169062585Y-103326150D01*
X169022688Y-103334884D01*
X168941538Y-103341174D01*
G37*
G36*
X169735999Y-103330000D02*
G01*
X169735999Y-102473806D01*
X169593300Y-102603927D01*
X169500976Y-102518564D01*
X169735999Y-102301737D01*
X169901107Y-102301737D01*
X169901107Y-103330000D01*
X169735999Y-103330000D01*
G37*
G36*
X170466102Y-103530034D02*
G01*
X170294033Y-103530034D01*
X170765483Y-102178578D01*
X170937552Y-102178578D01*
X170466102Y-103530034D01*
G37*
G36*
X171148639Y-103330000D02*
G01*
X171148639Y-103188705D01*
X171488564Y-102805366D01*
X171529169Y-102757800D01*
X171566233Y-102706753D01*
X171591390Y-102649417D01*
X171598201Y-102618881D01*
X171600488Y-102587135D01*
X171592794Y-102527662D01*
X171581906Y-102499403D01*
X171564829Y-102475211D01*
X171542483Y-102455801D01*
X171515858Y-102442299D01*
X171486718Y-102434428D01*
X171456446Y-102431796D01*
X171401857Y-102438818D01*
X171376718Y-102448616D01*
X171354291Y-102464036D01*
X171335925Y-102484092D01*
X171322784Y-102508061D01*
X171314954Y-102534464D01*
X171312342Y-102561917D01*
X171312342Y-102566130D01*
X171145830Y-102566130D01*
X171145830Y-102557765D01*
X171148456Y-102518926D01*
X171156332Y-102480828D01*
X171169486Y-102444346D01*
X171187779Y-102410853D01*
X171211190Y-102380819D01*
X171239558Y-102354921D01*
X171271591Y-102333376D01*
X171305992Y-102316453D01*
X171342272Y-102303996D01*
X171379448Y-102296120D01*
X171456446Y-102290502D01*
X171537534Y-102296852D01*
X171577268Y-102305939D01*
X171615204Y-102320605D01*
X171650501Y-102340702D01*
X171682309Y-102366095D01*
X171709816Y-102396022D01*
X171732013Y-102429720D01*
X171748611Y-102466545D01*
X171759307Y-102505985D01*
X171767001Y-102587135D01*
X171764182Y-102631447D01*
X171755765Y-102674574D01*
X171741967Y-102716198D01*
X171722915Y-102755724D01*
X171699519Y-102793086D01*
X171672540Y-102828447D01*
X171614532Y-102894881D01*
X171613128Y-102897690D01*
X171355696Y-103188705D01*
X171761383Y-103188705D01*
X171761383Y-103330000D01*
X171148639Y-103330000D01*
G37*
G36*
X172324302Y-102709562D02*
G01*
X172337709Y-102717329D01*
X172348115Y-102727758D01*
X172360694Y-102754991D01*
X172364174Y-102785765D01*
X172364174Y-102845910D01*
X172360694Y-102876746D01*
X172348115Y-102904040D01*
X172324302Y-102922175D01*
X172294260Y-102928464D01*
X172264157Y-102922175D01*
X172240343Y-102904040D01*
X172227765Y-102876746D01*
X172224284Y-102845910D01*
X172224284Y-102785765D01*
X172227765Y-102754991D01*
X172240343Y-102727758D01*
X172250749Y-102717329D01*
X172264157Y-102709562D01*
X172294260Y-102703211D01*
X172324302Y-102709562D01*
G37*
G36*
X172377486Y-102297524D02*
G01*
X172417910Y-102307166D01*
X172456498Y-102322009D01*
X172492614Y-102342220D01*
X172525741Y-102368171D01*
X172554322Y-102399026D01*
X172576849Y-102433934D01*
X172593470Y-102472044D01*
X172604143Y-102512274D01*
X172611837Y-102595500D01*
X172611837Y-103036175D01*
X172604143Y-103119462D01*
X172593470Y-103159693D01*
X172576849Y-103197803D01*
X172554322Y-103232711D01*
X172525741Y-103263565D01*
X172492621Y-103289482D01*
X172456498Y-103309727D01*
X172417909Y-103324555D01*
X172377486Y-103334152D01*
X172294260Y-103341174D01*
X172210973Y-103334152D01*
X172170541Y-103324557D01*
X172131899Y-103309727D01*
X172095817Y-103289489D01*
X172062657Y-103263565D01*
X172034125Y-103232715D01*
X172011610Y-103197803D01*
X171995035Y-103159696D01*
X171984377Y-103119462D01*
X171976683Y-103036175D01*
X171976683Y-102595500D01*
X172143135Y-102595500D01*
X172143135Y-103036175D01*
X172145229Y-103068045D01*
X172151500Y-103099190D01*
X172162894Y-103128405D01*
X172180198Y-103154450D01*
X172203025Y-103175391D01*
X172231245Y-103189438D01*
X172262461Y-103197276D01*
X172294260Y-103199879D01*
X172326050Y-103197275D01*
X172357213Y-103189438D01*
X172385434Y-103175391D01*
X172408260Y-103154450D01*
X172425550Y-103128403D01*
X172436898Y-103099190D01*
X172443214Y-103068044D01*
X172445324Y-103036175D01*
X172445324Y-102595500D01*
X172443213Y-102563640D01*
X172436898Y-102532547D01*
X172425550Y-102503333D01*
X172408260Y-102477287D01*
X172385434Y-102456346D01*
X172357213Y-102442299D01*
X172326048Y-102434415D01*
X172294260Y-102431796D01*
X172262463Y-102434414D01*
X172231245Y-102442299D01*
X172203025Y-102456346D01*
X172180198Y-102477287D01*
X172162894Y-102503332D01*
X172151500Y-102532547D01*
X172145230Y-102563638D01*
X172143135Y-102595500D01*
X171976683Y-102595500D01*
X171984377Y-102512274D01*
X171995035Y-102472041D01*
X172011610Y-102433934D01*
X172034125Y-102399022D01*
X172062657Y-102368171D01*
X172095824Y-102342213D01*
X172131899Y-102322009D01*
X172170540Y-102307164D01*
X172210973Y-102297524D01*
X172294260Y-102290502D01*
X172377486Y-102297524D01*
G37*
G36*
X172827076Y-103330000D02*
G01*
X172827076Y-103188705D01*
X173167001Y-102805366D01*
X173207606Y-102757800D01*
X173244670Y-102706753D01*
X173269827Y-102649417D01*
X173276638Y-102618881D01*
X173278925Y-102587135D01*
X173271231Y-102527662D01*
X173260343Y-102499403D01*
X173243265Y-102475211D01*
X173220920Y-102455801D01*
X173194295Y-102442299D01*
X173165155Y-102434428D01*
X173134883Y-102431796D01*
X173080294Y-102438818D01*
X173055155Y-102448616D01*
X173032728Y-102464036D01*
X173014362Y-102484092D01*
X173001221Y-102508061D01*
X172993391Y-102534464D01*
X172990779Y-102561917D01*
X172990779Y-102566130D01*
X172824267Y-102566130D01*
X172824267Y-102557765D01*
X172826893Y-102518926D01*
X172834769Y-102480828D01*
X172847923Y-102444346D01*
X172866215Y-102410853D01*
X172889627Y-102380819D01*
X172917995Y-102354921D01*
X172950028Y-102333376D01*
X172984429Y-102316453D01*
X173020708Y-102303996D01*
X173057885Y-102296120D01*
X173134883Y-102290502D01*
X173215971Y-102296852D01*
X173255705Y-102305939D01*
X173293640Y-102320605D01*
X173328938Y-102340702D01*
X173360746Y-102366095D01*
X173388253Y-102396022D01*
X173410450Y-102429720D01*
X173427048Y-102466545D01*
X173437744Y-102505985D01*
X173445437Y-102587135D01*
X173442619Y-102631447D01*
X173434202Y-102674574D01*
X173420404Y-102716198D01*
X173401352Y-102755724D01*
X173377956Y-102793086D01*
X173350976Y-102828447D01*
X173292969Y-102894881D01*
X173291564Y-102897690D01*
X173034132Y-103188705D01*
X173439820Y-103188705D01*
X173439820Y-103330000D01*
X172827076Y-103330000D01*
G37*
G36*
X173975444Y-103341174D02*
G01*
X173899912Y-103335556D01*
X173862810Y-103327879D01*
X173827189Y-103316017D01*
X173793491Y-103299631D01*
X173762098Y-103278281D01*
X173734079Y-103252670D01*
X173710319Y-103223693D01*
X173691323Y-103191460D01*
X173677468Y-103155854D01*
X173668365Y-103118468D01*
X173663485Y-103080994D01*
X173829998Y-103080994D01*
X173835195Y-103106842D01*
X173845324Y-103131369D01*
X173859948Y-103153306D01*
X173878236Y-103171242D01*
X173899829Y-103184818D01*
X173924398Y-103193590D01*
X173975444Y-103199879D01*
X174022339Y-103192918D01*
X174044279Y-103183946D01*
X174063616Y-103171242D01*
X174080219Y-103155144D01*
X174093658Y-103136254D01*
X174112526Y-103093572D01*
X174121624Y-103047411D01*
X174123761Y-102999844D01*
X174121624Y-102954354D01*
X174113258Y-102909596D01*
X174095062Y-102867648D01*
X174066425Y-102831927D01*
X174048323Y-102818519D01*
X174027224Y-102808846D01*
X173982466Y-102801153D01*
X173937648Y-102804694D01*
X173895027Y-102818677D01*
X173876197Y-102831060D01*
X173860040Y-102847376D01*
X173849012Y-102866681D01*
X173845385Y-102887920D01*
X173678872Y-102887920D01*
X173678872Y-102301737D01*
X174248264Y-102301737D01*
X174248264Y-102443032D01*
X173845385Y-102443032D01*
X173845385Y-102679459D01*
X173878130Y-102670234D01*
X173912491Y-102664804D01*
X173982466Y-102661263D01*
X174025634Y-102663367D01*
X174068501Y-102669689D01*
X174109902Y-102681549D01*
X174148918Y-102700464D01*
X174184275Y-102725636D01*
X174214680Y-102756395D01*
X174240038Y-102791688D01*
X174260170Y-102830584D01*
X174274873Y-102871777D01*
X174283923Y-102913810D01*
X174290273Y-103001249D01*
X174283251Y-103088688D01*
X174273616Y-103131790D01*
X174258766Y-103172585D01*
X174238383Y-103210773D01*
X174211871Y-103246041D01*
X174180333Y-103276882D01*
X174144705Y-103302034D01*
X174105598Y-103320874D01*
X174063616Y-103332747D01*
X174019974Y-103339060D01*
X173975444Y-103341174D01*
G37*
D10*
X126527255Y-93900414D02*
X126527255Y-93150414D01*
X126527255Y-93150414D02*
X126705826Y-93150414D01*
X126705826Y-93150414D02*
X126812969Y-93186128D01*
X126812969Y-93186128D02*
X126884398Y-93257557D01*
X126884398Y-93257557D02*
X126920112Y-93328985D01*
X126920112Y-93328985D02*
X126955826Y-93471842D01*
X126955826Y-93471842D02*
X126955826Y-93578985D01*
X126955826Y-93578985D02*
X126920112Y-93721842D01*
X126920112Y-93721842D02*
X126884398Y-93793271D01*
X126884398Y-93793271D02*
X126812969Y-93864700D01*
X126812969Y-93864700D02*
X126705826Y-93900414D01*
X126705826Y-93900414D02*
X126527255Y-93900414D01*
X127277255Y-93614700D02*
X127848684Y-93614700D01*
X127562969Y-93900414D02*
X127562969Y-93328985D01*
X124027255Y-93900414D02*
X124027255Y-93150414D01*
X124027255Y-93150414D02*
X124205826Y-93150414D01*
X124205826Y-93150414D02*
X124312969Y-93186128D01*
X124312969Y-93186128D02*
X124384398Y-93257557D01*
X124384398Y-93257557D02*
X124420112Y-93328985D01*
X124420112Y-93328985D02*
X124455826Y-93471842D01*
X124455826Y-93471842D02*
X124455826Y-93578985D01*
X124455826Y-93578985D02*
X124420112Y-93721842D01*
X124420112Y-93721842D02*
X124384398Y-93793271D01*
X124384398Y-93793271D02*
X124312969Y-93864700D01*
X124312969Y-93864700D02*
X124205826Y-93900414D01*
X124205826Y-93900414D02*
X124027255Y-93900414D01*
X124777255Y-93614700D02*
X125348684Y-93614700D01*
X107954819Y-103397212D02*
X108764342Y-103397212D01*
X108764342Y-103397212D02*
X108859580Y-103349593D01*
X108859580Y-103349593D02*
X108907200Y-103301974D01*
X108907200Y-103301974D02*
X108954819Y-103206736D01*
X108954819Y-103206736D02*
X108954819Y-103016260D01*
X108954819Y-103016260D02*
X108907200Y-102921022D01*
X108907200Y-102921022D02*
X108859580Y-102873403D01*
X108859580Y-102873403D02*
X108764342Y-102825784D01*
X108764342Y-102825784D02*
X107954819Y-102825784D01*
X108907200Y-102397212D02*
X108954819Y-102254355D01*
X108954819Y-102254355D02*
X108954819Y-102016260D01*
X108954819Y-102016260D02*
X108907200Y-101921022D01*
X108907200Y-101921022D02*
X108859580Y-101873403D01*
X108859580Y-101873403D02*
X108764342Y-101825784D01*
X108764342Y-101825784D02*
X108669104Y-101825784D01*
X108669104Y-101825784D02*
X108573866Y-101873403D01*
X108573866Y-101873403D02*
X108526247Y-101921022D01*
X108526247Y-101921022D02*
X108478628Y-102016260D01*
X108478628Y-102016260D02*
X108431009Y-102206736D01*
X108431009Y-102206736D02*
X108383390Y-102301974D01*
X108383390Y-102301974D02*
X108335771Y-102349593D01*
X108335771Y-102349593D02*
X108240533Y-102397212D01*
X108240533Y-102397212D02*
X108145295Y-102397212D01*
X108145295Y-102397212D02*
X108050057Y-102349593D01*
X108050057Y-102349593D02*
X108002438Y-102301974D01*
X108002438Y-102301974D02*
X107954819Y-102206736D01*
X107954819Y-102206736D02*
X107954819Y-101968641D01*
X107954819Y-101968641D02*
X108002438Y-101825784D01*
X108431009Y-101063879D02*
X108478628Y-100921022D01*
X108478628Y-100921022D02*
X108526247Y-100873403D01*
X108526247Y-100873403D02*
X108621485Y-100825784D01*
X108621485Y-100825784D02*
X108764342Y-100825784D01*
X108764342Y-100825784D02*
X108859580Y-100873403D01*
X108859580Y-100873403D02*
X108907200Y-100921022D01*
X108907200Y-100921022D02*
X108954819Y-101016260D01*
X108954819Y-101016260D02*
X108954819Y-101397212D01*
X108954819Y-101397212D02*
X107954819Y-101397212D01*
X107954819Y-101397212D02*
X107954819Y-101063879D01*
X107954819Y-101063879D02*
X108002438Y-100968641D01*
X108002438Y-100968641D02*
X108050057Y-100921022D01*
X108050057Y-100921022D02*
X108145295Y-100873403D01*
X108145295Y-100873403D02*
X108240533Y-100873403D01*
X108240533Y-100873403D02*
X108335771Y-100921022D01*
X108335771Y-100921022D02*
X108383390Y-100968641D01*
X108383390Y-100968641D02*
X108431009Y-101063879D01*
X108431009Y-101063879D02*
X108431009Y-101397212D01*
X108431009Y-100063879D02*
X108431009Y-100397212D01*
X108954819Y-100397212D02*
X107954819Y-100397212D01*
X107954819Y-100397212D02*
X107954819Y-99921022D01*
X108954819Y-99016260D02*
X108954819Y-99587688D01*
X108954819Y-99301974D02*
X107954819Y-99301974D01*
X107954819Y-99301974D02*
X108097676Y-99397212D01*
X108097676Y-99397212D02*
X108192914Y-99492450D01*
X108192914Y-99492450D02*
X108240533Y-99587688D01*
D11*
%TO.C,USBF1*%
X107000000Y-105700500D02*
X107000000Y-96699000D01*
X107000000Y-96699000D02*
X105551000Y-96699000D01*
X105551000Y-105700500D02*
X105528500Y-105700500D01*
X105528500Y-105700500D02*
X107000000Y-105700500D01*
X103150000Y-96700000D02*
X101700000Y-96700000D01*
X101750000Y-105700000D02*
X103192500Y-105700000D01*
X101750000Y-105700000D02*
X101708000Y-105700000D01*
X100150000Y-104740500D02*
X100150000Y-104529000D01*
X100150000Y-97871000D02*
X100150000Y-97659000D01*
%TD*%
%LPC*%
D12*
%TO.C,USBF1*%
X100550000Y-103900000D03*
D13*
X100550000Y-102700000D03*
X100550000Y-100700000D03*
D12*
X100550000Y-98500000D03*
D13*
X100550000Y-99700000D03*
X100550000Y-101700000D03*
D14*
X104400000Y-96880000D03*
X100600000Y-96880000D03*
X104400000Y-105520000D03*
X100600000Y-105520000D03*
%TD*%
D15*
%TO.C,REF\u002A\u002A*%
X119450000Y-91800000D03*
X121950000Y-91800000D03*
X124450000Y-91800000D03*
X126950000Y-91800000D03*
%TD*%
D16*
%TO.C,USBM1*%
X145730000Y-101200000D03*
X137770000Y-101200000D03*
%TD*%
%LPD*%
M02*
