M48
; DRILL file {KiCad 9.0.1} date 2025-10-31T22:00:17-0400
; FORMAT={-:-/ absolute / metric / decimal}
; #@! TF.CreationDate,2025-10-31T22:00:17-04:00
; #@! TF.GenerationSoftware,Kicad,Pcbnew,9.0.1
; #@! TF.FileFunction,Plated,1,2,PTH
FMAT,2
METRIC
; #@! TA.AperFunction,Plated,PTH,ViaDrill
T1C0.300
; #@! TA.AperFunction,Plated,PTH,ComponentDrill
T2C0.600
; #@! TA.AperFunction,Plated,PTH,ComponentDrill
T3C1.500
%
G90
G05
T1
X102.4Y-97.9
X102.4Y-104.4
X103.2Y-102.8
X103.8Y-100.0
X105.0Y-100.7
X119.45Y-96.8
X122.3Y-97.85
X139.6Y-98.8
X140.55Y-99.0
X141.35Y-99.2
X142.2Y-101.4
X142.85Y-103.513
T3
X119.45Y-91.8
X121.95Y-91.8
X124.45Y-91.8
X126.95Y-91.8
T2
X100.2Y-96.88G85X101.0Y-96.88
G05
X100.2Y-105.52G85X101.0Y-105.52
G05
X104.0Y-96.88G85X104.8Y-96.88
G05
X104.0Y-105.52G85X104.8Y-105.52
G05
X137.77Y-100.6G85X137.77Y-101.8
G05
X145.73Y-100.6G85X145.73Y-101.8
G05
M30
